<svg width="512" height="512" viewBox="0 0 512 512" fill="none" xmlns="http://www.w3.org/2000/svg">
<g transform="translate(20, 40) scale(18.1)">
<path d="M26.0605 10.3633C26.0605 10.3633 24.6671 12.7277 22.5459 14.3643C19.2371 16.9171 16.4089 16.9106 14.0605 18.9092C11.7126 20.9074 10.7683 23.0301 10.5459 24L7.81836 21.8789C8.0407 20.9091 8.98503 18.7864 11.333 16.7881C13.6813 14.7895 16.6637 14.984 19.8184 12.2432C22.9731 9.50216 23.334 8.24219 23.334 8.24219L26.0605 10.3633ZM24.1221 2.96973C24.1221 2.96973 22.9094 7.87843 18.5459 11.333C15.2692 13.927 12.4089 13.8803 10.0605 15.8789C7.71248 17.8774 6.76817 20 6.5459 20.9697L3.81836 18.8486C4.04058 17.8789 4.98564 15.7564 7.33398 13.7578C9.68231 11.7593 12.6637 11.9529 15.8184 9.21191C20.4047 5.22706 21.3871 0.881567 21.3945 0.848633L24.1221 2.96973ZM19.334 2.12109C19.334 2.12109 18.4244 5.03011 14.7275 8.24219C11.5728 10.9832 8.59053 10.7895 6.24219 12.7881C3.89409 14.7865 2.9498 16.9092 2.72754 17.8789L0 15.7578C0.222224 14.7881 1.16728 12.6656 3.51562 10.667C5.86395 8.66853 8.84532 8.86204 12 6.12109C15.697 2.90895 16.6064 0 16.6064 0L19.334 2.12109Z" fill="url(#paint0_linear_65195_108133)"/>
<defs>
<linearGradient id="paint0_linear_65195_108133" x1="21.0923" y1="8.16134e-07" x2="1.13306" y2="8.11644e-07" gradientUnits="userSpaceOnUse">
<stop stop-color="#FEDA3B"/>
<stop offset="0.47" stop-color="#EF5541"/>
<stop offset="0.815" stop-color="#821EE0"/>
<stop offset="0.98" stop-color="#7F2A8A"/>
</linearGradient>
</defs>
</g>
</svg>
