<svg width="8" height="8" viewBox="0 0 8 8" fill="none" xmlns="http://www.w3.org/2000/svg">
<path d="M3.16773 0.945134L0.311562 6.65414C0.0886128 7.09978 -0.022862 7.3226 0.00391413 7.50372C0.0272952 7.66188 0.114829 7.80343 0.245916 7.89506C0.396039 8 0.645304 8 1.14383 8H6.85617C7.3547 8 7.60396 8 7.75408 7.89506C7.88517 7.80343 7.9727 7.66188 7.99609 7.50372C8.02286 7.3226 7.91139 7.09978 7.68844 6.65414L4.83227 0.945136C4.5644 0.409699 4.43046 0.141981 4.24922 0.0560703C4.09149 -0.0186901 3.90851 -0.0186901 3.75078 0.0560703C3.56954 0.141981 3.4356 0.409699 3.16773 0.945134Z" fill="#11C516"/>
</svg>
