<svg width="16" height="16" viewBox="0 0 16 16" fill="none" xmlns="http://www.w3.org/2000/svg">
<path d="M6.20068 5.77826C6.33299 5.45372 6.79276 5.45394 6.92529 5.77826C6.92529 5.77826 6.92679 5.78152 6.92822 5.7851C6.93298 5.79699 6.93568 5.80377 6.93799 5.80951C7.53421 7.29076 8.7088 8.46505 10.1899 9.06146C10.1957 9.06376 10.2026 9.06652 10.2144 9.07123C10.2173 9.07241 10.2211 9.07409 10.2212 9.07416C10.546 9.20645 10.546 9.66646 10.2212 9.79877C10.2212 9.79877 10.2174 9.80049 10.2144 9.8017C10.2026 9.80639 10.1956 9.80917 10.1899 9.81146C8.70881 10.4079 7.53421 11.5822 6.93799 13.0634C6.93568 13.0691 6.93297 13.076 6.92822 13.0878C6.92687 13.0912 6.92545 13.0943 6.92529 13.0947C6.79275 13.419 6.33297 13.4192 6.20068 13.0947C6.20054 13.0943 6.199 13.0909 6.19775 13.0878C6.193 13.0759 6.19128 13.0692 6.18896 13.0634C5.59262 11.5819 4.41759 10.4078 2.93604 9.81146C2.93043 9.80919 2.92416 9.80632 2.9126 9.8017C2.90923 9.80034 2.90576 9.79877 2.90576 9.79877C2.58145 9.66632 2.58146 9.20662 2.90576 9.07416C2.90606 9.07402 2.9094 9.07252 2.9126 9.07123C2.92413 9.06661 2.93043 9.06373 2.93604 9.06146C4.41758 8.46516 5.59262 7.29103 6.18896 5.80951C6.19127 5.80377 6.19301 5.79697 6.19775 5.7851C6.19904 5.78188 6.20068 5.77826 6.20068 5.77826ZM11.2749 2.48431C11.3404 2.32025 11.5727 2.32025 11.6382 2.48431L11.6421 2.49603L11.6587 2.539C11.9764 3.36716 12.6314 4.02187 13.4595 4.33978L13.5034 4.35638L13.5142 4.36127C13.6785 4.4267 13.6785 4.65916 13.5142 4.72455L13.5034 4.72845L13.4614 4.74408C12.6322 5.06184 11.9765 5.71764 11.6587 6.54681L11.6421 6.58881L11.6382 6.60052C11.5727 6.76479 11.3402 6.76493 11.2749 6.60052L11.27 6.58978L11.2544 6.54779C10.9365 5.7179 10.2806 5.06181 9.45068 4.74408L9.40967 4.72845L9.39795 4.72455C9.23434 4.65897 9.23444 4.42698 9.39795 4.36127L9.40967 4.35638L9.45264 4.34076C10.2817 4.02287 10.9367 3.36718 11.2544 2.53802L11.27 2.49603L11.2749 2.48431Z" fill="white" fill-opacity="0.6"/>
</svg>
