<svg width="16" height="15" viewBox="0 0 16 15" fill="none" xmlns="http://www.w3.org/2000/svg">
<path fill-rule="evenodd" clip-rule="evenodd" d="M2.26851 0.000276749C2.48038 -0.00650219 2.67581 0.111751 2.76464 0.300489L3.19749 1.22014C3.22764 1.28419 3.24345 1.31754 3.25618 1.34174C3.25995 1.34892 3.26247 1.35338 3.26389 1.3558C3.26619 1.3584 3.26872 1.36079 3.27145 1.36294C3.27398 1.36424 3.27861 1.36655 3.28607 1.36997C3.31122 1.38153 3.34579 1.39578 3.41219 1.42291L4.24683 1.76393C4.44339 1.84424 4.57143 2.03257 4.57143 2.24138C4.57143 2.45019 4.44339 2.63852 4.24683 2.71883L3.41219 3.05985C3.34579 3.08699 3.31122 3.10123 3.28607 3.11279C3.27861 3.11621 3.27398 3.11852 3.27145 3.11982C3.26872 3.12197 3.26619 3.12436 3.26389 3.12696C3.26247 3.12939 3.25995 3.13384 3.25618 3.14102C3.24345 3.16523 3.22764 3.19857 3.19749 3.26262L2.76464 4.18227C2.67581 4.37101 2.48038 4.48926 2.26851 4.48249C2.05664 4.47571 1.8695 4.34521 1.7934 4.1512L1.45461 3.28743C1.42531 3.21273 1.40981 3.1736 1.39702 3.14519C1.39322 3.13673 1.39063 3.13148 1.38916 3.12862L1.36403 3.11283C1.33506 3.10029 1.29515 3.08509 1.21897 3.05636L0.338121 2.72415C0.134415 2.64732 0 2.4554 0 2.24138C0 2.02736 0.134415 1.83544 0.338121 1.75862L1.21897 1.4264C1.29515 1.39767 1.33506 1.38247 1.36403 1.36993C1.37265 1.3662 1.37801 1.36366 1.38093 1.36221C1.38394 1.3598 1.38669 1.3571 1.38916 1.35415L1.39702 1.33758L1.45461 1.19533L1.7934 0.331564C1.8695 0.13755 2.05664 0.00705569 2.26851 0.000276749ZM7.54324 0.689932C7.75511 0.683153 7.95053 0.801406 8.03936 0.990144L9.59763 4.30089C9.81143 4.75516 9.88711 4.90885 9.9868 5.03598C10.0826 5.15817 10.1964 5.26568 10.3246 5.35497C10.4579 5.44786 10.6173 5.51624 11.0883 5.70867L14.093 6.93634C14.2895 7.01665 14.4176 7.20498 14.4176 7.41379C14.4176 7.62261 14.2895 7.81094 14.093 7.89125L11.0883 9.11892C10.6173 9.31135 10.4579 9.37973 10.3246 9.47262C10.1964 9.56191 10.0826 9.66942 9.9868 9.79161C9.88711 9.91873 9.81143 10.0724 9.59763 10.5267L8.03936 13.8374C7.95053 14.0262 7.75511 14.1444 7.54324 14.1377C7.33137 14.1309 7.14422 14.0004 7.06813 13.8064L5.84848 10.6968C5.64045 10.1664 5.56586 9.98678 5.4592 9.83968C5.35669 9.69831 5.23073 9.5748 5.08657 9.47428C4.93656 9.36969 4.75339 9.29655 4.21249 9.09254L1.04142 7.89656C0.837712 7.81973 0.703297 7.62781 0.703297 7.41379C0.703297 7.19977 0.837712 7.00786 1.04142 6.93103L4.21248 5.73505C4.75338 5.53104 4.93656 5.4579 5.08657 5.35331C5.23073 5.25279 5.35669 5.12928 5.4592 4.98791C5.56586 4.84081 5.64045 4.66119 5.84848 4.13078L7.06812 1.02122C7.14422 0.827205 7.33137 0.696711 7.54324 0.689932ZM14.1932 14.6995C14.1044 14.8882 13.909 15.0065 13.6971 14.9997C13.4852 14.9929 13.2981 14.8625 13.222 14.6684L12.8832 13.8047L12.8256 13.6624L12.8177 13.6459C12.8153 13.6429 12.8125 13.6402 12.8095 13.6378C12.8066 13.6363 12.8012 13.6338 12.7926 13.6301C12.7636 13.6175 12.7237 13.6023 12.6475 13.5736L11.7667 13.2414C11.563 13.1646 11.4286 12.9726 11.4286 12.7586C11.4286 12.5446 11.563 12.3527 11.7667 12.2759L12.6475 11.9436C12.7237 11.9149 12.7636 11.8997 12.7926 11.8872L12.8177 11.8714C12.8192 11.8685 12.8218 11.8633 12.8256 11.8548C12.8384 11.8264 12.8539 11.7873 12.8832 11.7126L13.222 10.8488C13.2981 10.6548 13.4852 10.5243 13.6971 10.5175C13.909 10.5107 14.1044 10.629 14.1932 10.8177L14.6261 11.7374C14.6562 11.8014 14.672 11.8348 14.6847 11.859C14.6885 11.8662 14.691 11.8706 14.6925 11.873C14.6948 11.8756 14.6973 11.878 14.7 11.8802C14.7025 11.8815 14.7072 11.8838 14.7146 11.8872C14.7398 11.8988 14.7744 11.913 14.8408 11.9401L15.6754 12.2812C15.872 12.3615 16 12.5498 16 12.7586C16 12.9674 15.872 13.1558 15.6754 13.2361L14.8408 13.5771C14.7744 13.6042 14.7398 13.6185 14.7146 13.63C14.7096 13.6324 14.7058 13.6342 14.7031 13.6355L14.7 13.6371C14.6973 13.6392 14.6948 13.6416 14.6925 13.6442C14.691 13.6466 14.6885 13.6511 14.6847 13.6583C14.672 13.6825 14.6562 13.7158 14.6261 13.7799L14.1932 14.6995Z" fill="white"/>
</svg>
