<svg width="24" height="24" viewBox="0 0 24 24" fill="none" xmlns="http://www.w3.org/2000/svg">
<path d="M22 14C22 16.8003 22 18.2004 21.455 19.27C20.9757 20.2108 20.2108 20.9757 19.27 21.455C18.2004 22 16.8003 22 14 22H10C7.19974 22 5.79961 22 4.73005 21.455C3.78924 20.9757 3.02433 20.2108 2.54497 19.27C2 18.2004 2 16.8003 2 14V10C2 7.19974 2 5.79961 2.54497 4.73005C3.02433 3.78924 3.78924 3.02433 4.73005 2.54497C5.79961 2 7.19974 2 10 2L14 2C16.8003 2 18.2004 2 19.27 2.54497C20.2108 3.02433 20.9757 3.78924 21.455 4.73005C22 5.79961 22 7.19974 22 10V14Z" stroke="#040405" stroke-width="2"/>
<path d="M16.5 6C17.3284 6 18 6.67157 18 7.5V16.5C18 17.3284 17.3284 18 16.5 18C15.6716 18 15 17.3284 15 16.5V7.5C15 6.67157 15.6716 6 16.5 6Z" stroke="#040405" stroke-width="2"/>
</svg>
