<svg width="16" height="16" viewBox="0 0 16 16" fill="none" xmlns="http://www.w3.org/2000/svg">
<path d="M13.457 6.24528C13.6971 6.53975 13.68 6.97409 13.4057 7.2487C13.1311 7.52327 12.6969 7.54018 12.4023 7.29996L12.3452 7.2487L8.7497 3.65324V14.0009C8.7497 14.4151 8.41391 14.7509 7.9997 14.7509C7.5856 14.7508 7.2497 14.415 7.2497 14.0009V3.6547L3.65571 7.2487C3.36282 7.54158 2.88805 7.54157 2.59516 7.2487C2.30227 6.9558 2.30226 6.48104 2.59516 6.18815L7.20502 1.57829L7.29072 1.50138C7.7031 1.16532 8.29786 1.16514 8.71015 1.50138L8.79584 1.57829L13.4057 6.18815L13.457 6.24528Z" fill="white"/>
</svg>
