<svg width="40" height="40" viewBox="0 0 40 40" fill="none" xmlns="http://www.w3.org/2000/svg">
<path d="M1.66602 20.0006C1.66602 23.6266 2.74125 27.1712 4.75574 30.1861C6.77023 33.201 9.63351 35.5508 12.9835 36.9384C16.3335 38.326 20.0197 38.6891 23.576 37.9817C27.1323 37.2743 30.399 35.5282 32.963 32.9643C35.5269 30.4003 37.273 27.1336 37.9804 23.5773C38.6878 20.021 38.3247 16.3348 36.9371 12.9848C35.5495 9.6348 33.1997 6.77153 30.1848 4.75703C27.1699 2.74254 23.6253 1.66731 19.9993 1.66731C15.137 1.66731 10.4739 3.59885 7.03572 7.03702C3.59756 10.4752 1.66602 15.1383 1.66602 20.0006ZM21.8877 13.529L27.3877 19.029C27.5156 19.1564 27.6171 19.3078 27.6863 19.4746C27.7555 19.6413 27.7912 19.8201 27.7912 20.0006C27.7912 20.1812 27.7555 20.36 27.6863 20.5267C27.6171 20.6934 27.5156 20.8449 27.3877 20.9723L21.8877 26.4723C21.63 26.73 21.2805 26.8748 20.916 26.8748C20.5516 26.8748 20.2021 26.73 19.9443 26.4723C19.6866 26.2146 19.5419 25.8651 19.5419 25.5006C19.5419 25.1362 19.6866 24.7867 19.9443 24.529L23.0977 21.3756H13.5827C13.218 21.3756 12.8683 21.2308 12.6104 20.9729C12.3525 20.7151 12.2077 20.3653 12.2077 20.0006C12.2077 19.636 12.3525 19.2862 12.6104 19.0284C12.8683 18.7705 13.218 18.6256 13.5827 18.6256H23.0977L19.9443 15.4723C19.6866 15.2146 19.5419 14.8651 19.5419 14.5006C19.5419 14.1362 19.6866 13.7867 19.9443 13.529C20.2021 13.2713 20.5516 13.1265 20.916 13.1265C21.2805 13.1265 21.63 13.2713 21.8877 13.529Z" fill="url(#paint0_linear_905_3645)"/>
<defs>
<linearGradient id="paint0_linear_905_3645" x1="1.66602" y1="38.334" x2="38.3327" y2="1.66731" gradientUnits="userSpaceOnUse">
<stop stop-color="#A090FF"/>
<stop offset="1" stop-color="#7863F6"/>
</linearGradient>
</defs>
</svg>
