<svg width="16" height="16" viewBox="0 0 16 16" fill="none" xmlns="http://www.w3.org/2000/svg">
<path d="M5.65527 3.77539C6.29223 2.31126 7.94106 1.59133 9.36328 2.23926L9.40332 2.25781L9.5332 2.32129C10.8472 3.00706 11.3676 4.66375 10.7568 6.06836L8.8584 10.4307L8.78418 10.582C8.39204 11.289 7.55519 11.6421 6.79492 11.3438L6.7168 11.3096L6.59961 11.2568C5.81954 10.901 5.48552 9.99506 5.74512 9.19727L5.80469 9.03906L7.5293 5.0752C7.65441 4.78781 7.98373 4.6585 8.26465 4.78613C8.54573 4.91421 8.672 5.2514 8.54688 5.53906L6.82324 9.50293L6.80078 9.55957C6.70807 9.84263 6.84059 10.1176 7.05371 10.2148L7.16992 10.2686L7.21387 10.2852C7.42113 10.3529 7.6806 10.2639 7.81445 10.0215L7.84082 9.9668L9.73828 5.60449C10.1256 4.71365 9.77737 3.72952 9.02441 3.33594L8.9502 3.2998L8.91016 3.28125C8.09309 2.90906 7.08007 3.30557 6.67383 4.23926L4.70996 8.75293L4.65234 8.89551C4.09371 10.3671 4.71803 11.9815 6.0293 12.5791L6.13867 12.6289L6.2666 12.6826C7.55171 13.186 9.06193 12.5757 9.73438 11.2119L9.7998 11.0723L11.6016 6.93066C11.7268 6.64319 12.0559 6.51367 12.3369 6.6416C12.6179 6.76973 12.7442 7.10692 12.6191 7.39453L10.8174 11.5361L10.7305 11.7246C9.81851 13.5736 7.72413 14.4754 5.87012 13.748L5.68555 13.6699L5.57617 13.6201C3.67859 12.7554 2.85639 10.4766 3.61328 8.48145L3.69141 8.28906L5.65527 3.77539Z" fill="white" fill-opacity="0.6"/>
</svg>
