<svg width="24" height="24" viewBox="0 0 24 24" fill="none" xmlns="http://www.w3.org/2000/svg">
<path d="M20.7455 5.95C19.2455 5.801 17.7515 5.69 16.2455 5.606V5.597L16.0455 4.388C15.9035 3.533 15.6985 2.25 13.5235 2.25H11.0875C8.92048 2.25 8.71648 3.477 8.56748 4.379L8.36748 5.569C7.50248 5.625 6.63848 5.681 5.77348 5.769L3.88148 5.95C3.78292 5.9481 3.68507 5.96703 3.59433 6.00557C3.5036 6.0441 3.42203 6.10137 3.35496 6.17362C3.28789 6.24586 3.23683 6.33146 3.20514 6.42481C3.17344 6.51815 3.16182 6.61714 3.17103 6.71529C3.18024 6.81343 3.21008 6.90853 3.2586 6.99435C3.30711 7.08016 3.3732 7.15477 3.45254 7.21327C3.53188 7.27177 3.62269 7.31286 3.71901 7.33384C3.81533 7.35481 3.915 7.35521 4.01148 7.335L5.91148 7.149C10.809 6.72784 15.7362 6.79483 20.6205 7.349H20.6945C20.8689 7.34982 21.0374 7.28548 21.1669 7.16857C21.2964 7.05167 21.3775 6.89063 21.3945 6.717C21.4094 6.52938 21.3496 6.34345 21.228 6.19976C21.1065 6.05608 20.933 5.9663 20.7455 5.95Z" fill="#040405" fill-opacity="0.32"/>
<path d="M19.0375 8.657C18.9281 8.5427 18.7968 8.45165 18.6515 8.38927C18.5061 8.3269 18.3497 8.2945 18.1915 8.294H6.43848C6.28016 8.29357 6.12342 8.32555 5.97793 8.38798C5.83243 8.45041 5.70126 8.54196 5.59248 8.657C5.48398 8.77419 5.39997 8.91186 5.34536 9.06193C5.29076 9.21201 5.26666 9.37148 5.27448 9.531L5.85048 19.071C5.95048 20.484 6.08248 22.251 9.32748 22.251H15.2965C18.5415 22.251 18.6715 20.494 18.7735 19.071L19.3495 9.541C19.3592 9.38028 19.3366 9.21924 19.283 9.06741C19.2294 8.91558 19.1459 8.77603 19.0375 8.657Z" fill="#040405" fill-opacity="0.32"/>
</svg>
