<svg width="24" height="24" viewBox="0 0 24 24" fill="none" xmlns="http://www.w3.org/2000/svg">
<path d="M20 22C20 20.8954 19.1046 20 18 20H5.99995C4.8954 20 3.99999 20.8954 4 22M4.00004 2C4.00003 3.10457 4.89545 4 6.00002 4H18C19.1046 4 20 3.10454 20 2M21 10V14C21 15.6569 19.6568 17 18 17H6.00003C4.34318 17 3.00004 15.6569 3.00003 14L3 10C2.99999 8.34315 4.34314 6.99999 6 6.99999L18 7.00001C19.6568 7.00001 21 8.34316 21 10Z" stroke="#040405" stroke-width="2" stroke-linecap="round" stroke-linejoin="round"/>
</svg>
