<svg width="21" height="20" viewBox="0 0 21 20" fill="none" xmlns="http://www.w3.org/2000/svg">
<path d="M0.867188 17.7568V2.72754C0.867188 2.24414 1.23633 1.85742 1.72852 1.85742C2.2207 1.85742 2.58984 2.24414 2.58984 2.72754V10.3652L5.18262 7.72852C5.60449 7.28906 6 7.11328 6.43945 7.11328C6.87891 7.11328 7.30078 7.30664 7.70508 7.72852L10.8428 10.9717C10.9219 11.0508 11.001 11.0947 11.0801 11.0947C11.1504 11.0947 11.2383 11.0508 11.3086 10.9717L14.7363 7.5L13.3564 6.12012C12.9785 5.74219 13.207 5.24121 13.7344 5.10059L18.8936 3.78223C19.377 3.65918 19.8076 4.07227 19.6758 4.55566L18.3574 9.73242C18.2168 10.2598 17.6982 10.4795 17.3291 10.1104L15.9404 8.72168L12.3369 12.3516C11.9238 12.7646 11.5107 12.958 11.0713 12.958C10.6318 12.958 10.21 12.7734 9.81445 12.3428L6.67676 9.09961C6.59766 9.02051 6.50977 8.98535 6.43945 8.98535C6.36914 8.98535 6.28125 9.02051 6.21094 9.09961L2.58984 12.8174V16.5439C2.58984 16.7285 2.65137 16.79 2.83594 16.79H19.2275C19.7109 16.79 20.0977 17.1592 20.0977 17.6514C20.0977 18.1436 19.7109 18.5127 19.2275 18.5127H1.62305C1.16602 18.5127 0.867188 18.2139 0.867188 17.7568Z" fill="#1A1A1F"/>
</svg>
