<svg width="17" height="15" viewBox="0 0 17 15" fill="none" xmlns="http://www.w3.org/2000/svg">
<path d="M14.2031 6.70312V5.20312C14.2031 4.3747 13.5987 3.70312 12.8531 3.70312H8.31367C7.75093 3.70312 7.24722 3.31527 7.04963 2.72981L6.69412 1.67644C6.49653 1.09098 5.99281 0.703125 5.43007 0.703125H2.05312C1.30754 0.703125 0.703125 1.3747 0.703125 2.20312V12.7031C0.703125 13.5316 1.30754 14.2031 2.05313 14.2031H2.95312M2.95312 14.2031H14.2031L15.3443 8.4973C15.5299 7.56911 14.82 6.70312 13.8734 6.70312H5.68283C4.96781 6.70312 4.35219 7.20782 4.21196 7.90895L2.95312 14.2031Z" stroke="white" stroke-opacity="0.72" stroke-width="1.40625" stroke-linecap="round" stroke-linejoin="round"/>
</svg>
