<svg width="16" height="16" viewBox="0 0 16 16" fill="none" xmlns="http://www.w3.org/2000/svg">
<path fill-rule="evenodd" clip-rule="evenodd" d="M13.0281 0.883057C13.7846 0.95976 14.375 1.59827 14.375 2.375V9.875C14.375 10.7034 13.7034 11.375 12.875 11.375H11.375V13.625C11.375 14.4534 10.7034 15.125 9.875 15.125H3.125C2.34827 15.125 1.70975 14.5346 1.63306 13.7781L1.625 13.625V6.125C1.625 5.29657 2.29657 4.625 3.125 4.625H4.625V2.375C4.625 1.54657 5.29657 0.875001 6.125 0.875H12.875L13.0281 0.883057ZM3.125 13.625H9.875V6.125H3.125V13.625ZM6.125 4.625H9.875L10.0281 4.63306C10.7846 4.70975 11.375 5.34827 11.375 6.125V9.875H12.875V2.375H6.125V4.625Z" fill="white" fill-opacity="0.6"/>
</svg>
