<svg width="16" height="16" viewBox="0 0 13.1992 13.1992" fill="none" xmlns="http://www.w3.org/2000/svg">
<path d="M10.9388 2.66992L10.8216 2.66667H5.04427C4.41362 2.66667 3.80861 2.91665 3.36263 3.36263C2.91665 3.80861 2.66667 4.41362 2.66667 5.04427V10.8216L2.66992 10.9388C2.68325 11.2109 2.74262 11.4789 2.84701 11.7311C2.96648 12.0196 3.14176 12.2824 3.36263 12.5033C3.5835 12.7241 3.84633 12.8994 4.13477 13.0189C4.4231 13.1382 4.73216 13.1992 5.04427 13.1992H10.8216L10.9388 13.196C11.2109 13.1826 11.4789 13.1233 11.7311 13.0189C12.0196 12.8994 12.2824 12.7241 12.5033 12.5033C12.7241 12.2824 12.8994 12.0196 13.0189 11.7311C13.1233 11.4789 13.1826 11.2109 13.196 10.9388L13.1992 10.8216V5.04427C13.1992 4.73216 13.1382 4.4231 13.0189 4.13477C12.8994 3.84633 12.7241 3.5835 12.5033 3.36263C12.2824 3.14176 12.0196 2.96648 11.7311 2.84701C11.4789 2.74262 11.2109 2.68325 10.9388 2.66992Z" fill="white" fill-opacity="0.6"/>
<path d="M9.55404 0.292969C9.28171 0.0954047 8.96187 0 8.59961 0H1.93294C0.868239 0 0 0.868239 0 1.93294V8.60091L0.00455729 8.72852C0.0248069 9.02502 0.112916 9.31391 0.263021 9.57162C0.434612 9.86595 0.680618 10.1105 0.976562 10.2793C1.26433 10.4433 1.63136 10.3429 1.79557 10.0553C1.95966 9.76751 1.85935 9.40049 1.57161 9.23633C1.45912 9.17219 1.36481 9.07886 1.29948 8.9668C1.2512 8.88373 1.21882 8.79206 1.20573 8.69727V8.69466L1.19922 8.5957V1.93294C1.19922 1.53098 1.53098 1.19922 1.93294 1.19922H8.59961C8.73696 1.19922 8.80334 1.23191 8.84896 1.26497C8.9075 1.30753 8.98173 1.3893 9.07552 1.55794C9.23661 1.84728 9.60175 1.95129 9.89128 1.79036C10.1806 1.62928 10.2846 1.26413 10.1237 0.974609C9.9896 0.733513 9.81331 0.481176 9.55404 0.292969Z" fill="white" fill-opacity="0.6"/>
</svg>
