<svg width="16" height="16" viewBox="0 0 16 16" fill="none" xmlns="http://www.w3.org/2000/svg">
<path d="M9.65283 2C10.6205 2.0002 11.2755 2.1996 11.7017 2.42383C11.9123 2.53497 12.0658 2.65046 12.1694 2.74609C12.2206 2.79334 12.2608 2.83637 12.2896 2.87012L12.3247 2.91309L12.3374 2.93066L12.3384 2.93164L12.3403 2.93457L12.3452 2.93945L12.3521 2.95312L12.3862 3.01758L12.3901 3.02539C12.4625 3.20046 12.4213 3.40594 12.2856 3.53906L12.2212 3.5918C12.0129 3.73253 11.7296 3.68238 11.5815 3.48047L11.5347 3.43262C11.4886 3.39024 11.4026 3.32201 11.2661 3.25C10.9919 3.10569 10.4905 2.93477 9.65283 2.93457H6.42529C5.72838 2.93457 5.23377 2.93612 4.85107 2.9707C4.47638 3.00477 4.25096 3.06828 4.07764 3.16797C3.81255 3.32105 3.59119 3.54255 3.43799 3.80762C3.33799 3.98103 3.27487 4.20563 3.24072 4.58105C3.20602 4.96394 3.20459 5.45751 3.20459 6.15527V9.10547C3.20459 10.1614 3.206 10.9075 3.28174 11.4717C3.35579 12.0223 3.49347 12.3309 3.71631 12.5537C3.93914 12.7762 4.24823 12.9143 4.79834 12.9883C5.36235 13.0638 6.1095 13.0654 7.16455 13.0654H8.45361C9.50872 13.0654 10.2559 13.064 10.8198 12.9883C11.3693 12.9142 11.6783 12.7761 11.9009 12.5537C12.1234 12.3309 12.2625 12.0218 12.3364 11.4717C12.4121 10.9075 12.4136 10.1613 12.4136 9.10547V8.92188C12.4137 8.66398 12.6234 8.45411 12.8813 8.4541L12.9751 8.46387C13.1872 8.50804 13.348 8.69652 13.3481 8.92188V9.12988C13.3481 10.1486 13.3477 10.9617 13.2622 11.5977C13.1742 12.2514 12.9877 12.7897 12.563 13.2148C12.138 13.6398 11.5992 13.826 10.9458 13.9141C10.3099 13.9996 9.49466 14 8.47607 14H7.14404C6.12414 14 5.30894 13.9995 4.67236 13.9141C4.01854 13.8261 3.48033 13.6396 3.05518 13.2148C2.62993 12.7896 2.44398 12.2517 2.35596 11.5977C2.27046 10.9617 2.27001 10.1486 2.27002 9.12988V6.15527C2.27002 5.47504 2.2698 4.93356 2.30908 4.49902C2.34906 4.05826 2.43236 3.67955 2.62842 3.33984C2.8636 2.93283 3.20275 2.5935 3.60986 2.3584C3.94931 2.16276 4.32863 2.079 4.76904 2.03906C5.20334 1.9999 5.74577 2 6.42529 2H9.65283ZM5.48291 10.1738C5.74054 10.1741 5.95017 10.3843 5.95068 10.6416L5.94189 10.7354C5.89773 10.9477 5.70769 11.1072 5.48291 11.1074H4.65381C4.42893 11.1072 4.23985 10.9476 4.1958 10.7354L4.18604 10.6416C4.18654 10.3844 4.39608 10.1741 4.65381 10.1738H5.48291ZM12.1616 4.46875C12.5736 4.46882 12.9688 4.63382 13.2603 4.9248C13.5519 5.21637 13.7162 5.61304 13.7163 6.02539C13.716 6.43688 13.5535 6.83255 13.2622 7.12402L13.0054 7.38086L10.6499 9.7373C10.4976 9.88962 10.3943 9.99483 10.2788 10.085C10.1483 10.1868 10.0062 10.2727 9.85693 10.3438C9.72415 10.4072 9.58368 10.4537 9.38037 10.5215L8.25146 10.8984C8.11794 10.9426 7.9726 10.9485 7.83545 10.916C7.6984 10.8834 7.57339 10.813 7.47412 10.7139C7.37475 10.6145 7.30361 10.4889 7.271 10.3516C7.23856 10.2144 7.24532 10.0691 7.28955 9.93555L7.36279 9.71484L7.43701 9.49121L7.66553 8.80664C7.73282 8.60475 7.77793 8.46288 7.84131 8.33008L7.84326 8.32617L7.95752 8.11719L7.95947 8.1123C8.00319 8.04152 8.05294 7.97342 8.10303 7.90918C8.19318 7.79368 8.29584 7.69089 8.44971 7.53809L10.8052 5.18262L11.062 4.9248L11.1753 4.82129C11.4519 4.59494 11.8014 4.46907 12.1616 4.46875ZM9.10986 8.2002C8.94459 8.36433 8.88605 8.42455 8.83936 8.48438C8.77928 8.56152 8.72775 8.64475 8.68604 8.73242C8.65369 8.80042 8.6255 8.87791 8.55127 9.10059L8.34131 9.73633L8.45068 9.8457L9.08643 9.63379C9.31158 9.55874 9.38763 9.53341 9.45557 9.50098C9.5432 9.45924 9.62654 9.40772 9.70361 9.34766C9.76328 9.30104 9.81991 9.24405 9.98779 9.07617L11.8198 7.24414C11.6578 7.15345 11.4839 7.03317 11.3188 6.86816C11.1532 6.70251 11.032 6.52888 10.9409 6.36621L9.10986 8.2002ZM6.03662 7.96094C6.29445 7.96097 6.50372 8.17052 6.50439 8.42773C6.50375 8.68508 6.29435 8.89547 6.03662 8.89551H4.65381C4.39628 8.89523 4.18669 8.6859 4.18604 8.42871C4.18671 8.17164 4.39618 7.96121 4.65381 7.96094H6.03662ZM8.25049 5.74707C8.50775 5.74758 8.71752 5.95687 8.71826 6.21387C8.71816 6.47164 8.50791 6.68113 8.25049 6.68164H4.65381C4.39606 6.68137 4.18613 6.47165 4.18604 6.21387C4.18677 5.95685 4.39622 5.74734 4.65381 5.74707H8.25049ZM12.1626 5.4043C11.9981 5.40453 11.8382 5.46984 11.7222 5.58594L11.646 5.66211C11.6485 5.6714 11.6503 5.68126 11.6538 5.69141C11.7038 5.83523 11.7997 6.02667 11.98 6.20703C12.1604 6.38736 12.3517 6.48322 12.4956 6.5332C12.5039 6.53609 12.5134 6.53861 12.5229 6.54102L12.6011 6.46289C12.717 6.34672 12.7824 6.18914 12.7827 6.02539C12.7827 5.86124 12.7173 5.70239 12.6011 5.58594C12.4849 5.46994 12.3267 5.40451 12.1626 5.4043Z" fill="white" fill-opacity="1"/>
</svg>
