<svg width="15" height="15" viewBox="0 0 15 15" fill="none" xmlns="http://www.w3.org/2000/svg">
<path fill-rule="evenodd" clip-rule="evenodd" d="M9.50903 0.543275C10.2335 -0.181095 11.4081 -0.181088 12.1326 0.543275L13.7065 2.11652C14.431 2.84089 14.431 4.01567 13.7065 4.74005L4.7395 13.7064C4.37189 14.0739 3.86652 14.2701 3.34717 14.2476L1.15869 14.1531L1.05249 14.1429C0.561563 14.0743 0.17413 13.6867 0.105469 13.1959L0.0952148 13.0889L0 10.9012L0.00146484 10.7078C0.0288742 10.258 0.220158 9.83065 0.541992 9.50885L9.50903 0.543275ZM1.59155 10.5584L1.54248 10.6185C1.50071 10.6827 1.47909 10.7589 1.48242 10.8367L1.56299 12.6846L3.41162 12.7652C3.51538 12.7696 3.61648 12.7302 3.68994 12.6568L10.2803 6.06647L8.18115 3.96808L1.59155 10.5584ZM11.083 1.5921C10.9382 1.44736 10.7035 1.44746 10.5586 1.5921L9.23071 2.91925L11.3291 5.01764L12.657 3.69049C12.8018 3.54561 12.8018 3.31093 12.657 3.16608L11.083 1.5921Z" fill="white" fill-opacity="0.95"/>
</svg>
