<svg width="16" height="16" viewBox="0 0 16 16" fill="none" xmlns="http://www.w3.org/2000/svg">
<path d="M5.65479 3.77545C6.29174 2.31132 7.94058 1.59139 9.36279 2.23932L9.40283 2.25787L9.53271 2.32135C10.8467 3.00712 11.3671 4.66381 10.7563 6.06842L8.85791 10.4307L8.78369 10.5821C8.39156 11.289 7.5547 11.6421 6.79443 11.3438L6.71631 11.3096L6.59912 11.2569C5.81905 10.9011 5.48503 9.99512 5.74463 9.19733L5.8042 9.03912L7.52881 5.07526C7.65392 4.78787 7.98324 4.65856 8.26416 4.78619C8.54524 4.91427 8.67151 5.25146 8.54639 5.53912L6.82275 9.50299L6.80029 9.55963C6.70758 9.8427 6.8401 10.1177 7.05322 10.2149L7.16943 10.2686L7.21338 10.2852C7.42064 10.353 7.68011 10.2639 7.81396 10.0215L7.84033 9.96686L9.73779 5.60455C10.1251 4.71371 9.77688 3.72958 9.02393 3.336L8.94971 3.29987L8.90967 3.28131C8.0926 2.90912 7.07958 3.30563 6.67334 4.23932L4.70947 8.75299L4.65186 8.89557C4.09322 10.3671 4.71755 11.9816 6.02881 12.5792L6.13818 12.629L6.26611 12.6827C7.55122 13.1861 9.06145 12.5758 9.73389 11.212L9.79932 11.0723L11.6011 6.93073C11.7263 6.64325 12.0554 6.51374 12.3364 6.64166C12.6174 6.76979 12.7437 7.10699 12.6187 7.39459L10.8169 11.5362L10.73 11.7247C9.81802 13.5737 7.72365 14.4755 5.86963 13.7481L5.68506 13.67L5.57568 13.6202C3.6781 12.7554 2.85591 10.4767 3.61279 8.48151L3.69092 8.28912L5.65479 3.77545Z" fill="white" fill-opacity="0.6"/>
</svg>
