<svg width="16" height="16" viewBox="0 0 16 16" fill="none" xmlns="http://www.w3.org/2000/svg">
<path d="M8 1.90039C9.61782 1.90039 11.1695 2.54255 12.3135 3.68652C13.4575 4.8305 14.0996 6.38218 14.0996 8V8.00293L14.0928 8.2998V8.30273C14.0179 9.81034 13.3859 11.2411 12.3135 12.3135C11.1695 13.4575 9.61782 14.0996 8 14.0996C6.38218 14.0996 4.8305 13.4575 3.68652 12.3135C2.54255 11.1695 1.90039 9.61782 1.90039 8C1.90039 6.38218 2.54255 4.8305 3.68652 3.68652C4.8305 2.54255 6.38218 1.90039 8 1.90039ZM6.33789 10.3662C6.44698 10.8843 6.58892 11.3572 6.7627 11.7627C6.97091 12.2485 7.20273 12.596 7.42871 12.8145C7.6525 13.0307 7.84643 13.0996 8 13.0996C8.15357 13.0996 8.3475 13.0307 8.57129 12.8145C8.79727 12.596 9.02909 12.2485 9.2373 11.7627C9.41108 11.3572 9.55302 10.8843 9.66211 10.3662H6.33789ZM3.4834 10.3662C3.7205 10.8192 4.02548 11.2384 4.39355 11.6064C4.89516 12.108 5.49136 12.4924 6.13965 12.7461C6.03386 12.5637 5.93405 12.367 5.84375 12.1562C5.61742 11.6281 5.44179 11.0199 5.31738 10.3662H3.4834ZM10.6826 10.3662C10.5582 11.0199 10.3826 11.6281 10.1562 12.1562C10.0659 12.3672 9.96534 12.5637 9.85938 12.7461C10.508 12.4924 11.1046 12.1083 11.6064 11.6064C11.9745 11.2384 12.2795 10.8192 12.5166 10.3662H10.6826ZM3.08984 6.63379C2.96695 7.07522 2.90039 7.53393 2.90039 8C2.90039 8.46607 2.96695 8.92478 3.08984 9.36621H5.17188C5.12564 8.92057 5.09961 8.46234 5.09961 8C5.09961 7.53766 5.12564 7.07943 5.17188 6.63379H3.08984ZM6.17676 6.63379C6.12708 7.07399 6.09961 7.53277 6.09961 8C6.09961 8.46723 6.12708 8.92601 6.17676 9.36621H9.82324C9.87292 8.92601 9.90039 8.46723 9.90039 8C9.90039 7.53277 9.87292 7.07399 9.82324 6.63379H6.17676ZM10.8281 6.63379C10.8744 7.07943 10.9004 7.53766 10.9004 8C10.9004 8.46234 10.8744 8.92057 10.8281 9.36621H12.9102C13.0329 8.9254 13.0994 8.46736 13.0996 8.00195L13.0938 7.74707C13.0749 7.36786 13.0117 6.99507 12.9111 6.63379H10.8281ZM6.1377 3.25293C5.49 3.50669 4.89482 3.89229 4.39355 4.39355C4.02548 4.76163 3.7205 5.18081 3.4834 5.63379H5.31738C5.44179 4.9801 5.61742 4.37193 5.84375 3.84375C5.93402 3.63312 6.032 3.43533 6.1377 3.25293ZM8 2.89941C7.84643 2.89941 7.6525 2.9693 7.42871 3.18555C7.20273 3.40402 6.97091 3.75148 6.7627 4.2373C6.58892 4.64279 6.44698 5.11571 6.33789 5.63379H9.66211C9.55302 5.11571 9.41108 4.64279 9.2373 4.2373C9.02909 3.75148 8.79727 3.40402 8.57129 3.18555C8.37648 2.9973 8.20424 2.92018 8.0625 2.90332L8 2.89941ZM9.86035 3.25293C9.96633 3.43546 10.0658 3.63274 10.1562 3.84375C10.3826 4.37193 10.5582 4.9801 10.6826 5.63379H12.5166C12.2795 5.18081 11.9745 4.76162 11.6064 4.39355C11.1047 3.89185 10.5087 3.50666 9.86035 3.25293Z" fill="white" fill-opacity="0.6"/>
</svg>
