<?xml version="1.0" encoding="utf-8"?>
<!-- Generator: Adobe Illustrator 26.0.1, SVG Export Plug-In . SVG Version: 6.00 Build 0)  -->
<svg version="1.1" id="Layer_1" xmlns="http://www.w3.org/2000/svg" xmlns:xlink="http://www.w3.org/1999/xlink" x="0px" y="0px"
	 viewBox="0 0 447 236" style="enable-background:new 0 0 447 236;" xml:space="preserve">
<style type="text/css">
	.st0{fill:#6A46D4;}
</style>
<path class="st0" d="M137.8,104.5V67.1h11.5v91.7h-11.5v-11.2c-5.6,8.7-13.9,12.9-24.8,12.9c-9.3,0-17.1-3.3-23.4-10
	c-6.5-6.7-9.8-14.9-9.8-24.5c0-9.5,3.3-17.7,9.8-24.4c6.5-6.7,14.3-10.1,23.4-10.1C124,91.6,132.2,95.9,137.8,104.5z M114.5,149.6
	c6.6,0,12.2-2.2,16.7-6.7c4.5-4.6,6.7-10.2,6.7-16.8c0-6.6-2.2-12.2-6.7-16.7c-4.5-4.5-10-6.8-16.7-6.8c-6.6,0-12.1,2.3-16.5,6.8
	c-4.5,4.5-6.7,10-6.7,16.7c0,6.6,2.2,12.2,6.7,16.8C102.4,147.4,107.9,149.6,114.5,149.6z"/>
<path class="st0" d="M167.1,81.4c-2.2,0-4-0.7-5.5-2.2c-1.5-1.5-2.2-3.3-2.2-5.4c0-2.1,0.7-3.9,2.2-5.4c1.5-1.6,3.3-2.3,5.5-2.3
	c2.1,0,3.9,0.7,5.4,2.3c1.5,1.5,2.2,3.3,2.2,5.4c0,2.1-0.7,3.9-2.2,5.4S169.2,81.4,167.1,81.4z M172.7,158.8h-11.5V93.3h11.5V158.8z
	"/>
<path class="st0" d="M239.2,104.5V93.3h11.5v65.5h-11.5v-11.2c-5.6,8.7-13.9,12.9-24.8,12.9c-9.3,0-17.1-3.3-23.4-10
	c-6.5-6.7-9.8-14.9-9.8-24.5c0-9.5,3.3-17.7,9.8-24.4c6.5-6.7,14.3-10.1,23.4-10.1C225.3,91.6,233.6,95.9,239.2,104.5z M215.8,149.6
	c6.6,0,12.2-2.2,16.7-6.7c4.5-4.6,6.7-10.2,6.7-16.8c0-6.6-2.2-12.2-6.7-16.7c-4.5-4.5-10-6.8-16.7-6.8c-6.6,0-12.1,2.3-16.5,6.8
	c-4.5,4.5-6.7,10-6.7,16.7c0,6.6,2.2,12.2,6.7,16.8C203.7,147.4,209.3,149.6,215.8,149.6z"/>
<path class="st0" d="M273.9,93.3v11c3.8-8.2,10.6-12.2,20.5-12.2v12c-5.6-0.2-10.4,1.2-14.4,4.5c-4,3.3-6,8.4-6,15.6v34.6h-11.5
	V93.3H273.9z"/>
<path class="st0" d="M336,144.7l18.9-51.4h12.2l-26.8,69.5c-2.9,7.4-6.8,13.1-12,17c-5,3.9-10.7,5.7-17.2,5.2v-10.6
	c8.1,0.6,13.9-3.9,17.7-13.4l1.2-2.4l-28.5-65.3h12.2L336,144.7z"/>
</svg>
