<svg width="21" height="20" viewBox="0 0 21 20" fill="none" xmlns="http://www.w3.org/2000/svg">
<path d="M1.8252 9.05469C1.8252 5.1084 5.0332 1.90039 8.97949 1.90039C12.9258 1.90039 16.1338 5.1084 16.1338 9.05469C16.1338 10.5928 15.6328 12.0166 14.7979 13.168L18.8145 17.1934C19.0518 17.4395 19.1748 17.7646 19.1748 18.1162C19.1748 18.8457 18.6387 19.4082 17.8916 19.4082C17.5488 19.4082 17.2061 19.2939 16.96 19.0391L12.917 14.9961C11.792 15.7607 10.4473 16.209 8.97949 16.209C5.0332 16.209 1.8252 13.001 1.8252 9.05469ZM3.65332 9.05469C3.65332 11.999 6.03516 14.3809 8.97949 14.3809C11.9238 14.3809 14.3057 11.999 14.3057 9.05469C14.3057 6.11035 11.9238 3.72852 8.97949 3.72852C6.03516 3.72852 3.65332 6.11035 3.65332 9.05469ZM5.63086 9.81934C5.36719 9.81934 5.15625 9.61719 5.15625 9.34473C5.15625 9.06348 5.3584 8.86133 5.63086 8.86133H6.75586L7.53809 5.68848C7.66113 5.1875 8.34668 5.22266 8.44336 5.69727L9.31348 10.1621L10.0605 7.3584C10.2012 6.85742 10.8604 6.85742 10.9922 7.33203L11.3789 8.86133H12.3369C12.6094 8.86133 12.8027 9.06348 12.8027 9.34473C12.8027 9.61719 12.6006 9.81934 12.3369 9.81934H11.1064C10.8691 9.81934 10.7109 9.74902 10.6318 9.44141L10.5703 9.23047L9.75293 12.4121C9.62988 12.8867 8.90918 12.9043 8.8125 12.4033L7.95117 8.03516L7.58203 9.43262C7.51172 9.66992 7.32715 9.81934 7.07227 9.81934H5.63086Z" fill="#1A1A1F"/>
</svg>
