<svg width="93" height="26" viewBox="0 0 93 26" fill="none" xmlns="http://www.w3.org/2000/svg">
<path d="M27.0752 10.7666C27.0636 10.7863 25.6178 13.2294 23.4229 14.9229C19.9856 17.5746 17.048 17.5686 14.6084 19.6445C12.1686 21.7209 11.1869 23.9271 10.9561 24.9346L8.12207 22.7305C8.35294 21.723 9.33479 19.5178 11.7744 17.4414C14.2142 15.365 17.3123 15.5665 20.5898 12.7188C23.8674 9.87103 24.2422 8.5625 24.2422 8.5625L27.0752 10.7666ZM25.0605 3.08594C25.0504 3.12687 23.7828 8.20082 19.2676 11.7754C15.8635 14.4702 12.8919 14.4208 10.4521 16.4971C8.01238 18.5735 7.03166 20.7796 6.80078 21.7871L3.9668 19.583C4.19767 18.5756 5.17939 16.3703 7.61914 14.2939C10.0589 12.2175 13.157 12.419 16.4346 9.57129C21.2175 5.41556 22.2275 0.881836 22.2275 0.881836L25.0605 3.08594ZM20.0859 2.2041C20.073 2.2452 19.1153 5.24919 15.3008 8.56348C12.0233 11.4111 8.9251 11.2098 6.48535 13.2861C4.04579 15.3625 3.06387 17.5678 2.83301 18.5752L0 16.3711C0.230882 15.3636 1.21258 13.1584 3.65234 11.082C6.09209 9.00575 9.19027 9.20704 12.4678 6.35938C16.3012 3.02854 17.2494 0.0113165 17.2529 0L20.0859 2.2041Z" fill="url(#paint0_linear_1884_239576)"/>
<path d="M51.1939 12.3048V6.66754H48.6387V16.0646H51.1939L55.0475 10.4484V16.0646H57.5923V6.66754H55.0397L51.1939 12.3048ZM43.2198 6.66494H41.6986V5.77734H39.1512V6.67282H37.63C34.8907 6.66494 33.3125 8.42967 33.3125 11.5036C33.3125 14.3287 34.8907 16.0594 37.858 16.0594H39.1538V16.9732H41.7012V16.0594H42.9969C44.5 16.0594 45.6429 15.6143 46.4203 14.7895C47.1978 13.9647 47.5425 12.9044 47.5425 11.5036C47.5372 8.42967 45.9591 6.66494 43.2198 6.66494ZM39.1512 14.1847H38.5422C36.7929 14.1847 35.917 13.1373 35.917 11.3046C35.917 9.59222 36.7748 8.55274 38.353 8.55274H39.1512V14.1847ZM42.3076 14.1847H41.6986V8.56061H42.4994C44.0776 8.56061 44.9328 9.63931 44.9328 11.3124C44.9328 13.1373 44.0569 14.1847 42.3076 14.1847ZM65.6182 10.4484H61.762V6.66754H59.2275V16.0646H61.7724V12.3048H65.6286V16.0646H68.1734V6.66754H65.6286L65.6182 10.4484ZM89.7503 6.67282C88.7655 6.67282 88.1565 7.19642 87.8533 8.13118L86.1792 13.2552L84.4792 8.13378C84.176 7.19382 83.5695 6.67542 82.5822 6.67542H80.2498V16.0594H82.8103V9.44294L84.9716 16.0594H87.3868L89.5482 9.44294V16.0594H92.093V6.67802L89.7503 6.67282ZM77.337 7.17815C76.8627 6.85084 76.1397 6.65447 75.1498 6.65447H70.0782V8.55274H74.3464C75.7718 8.55274 76.3082 9.04233 76.3082 10.2127V10.451H72.8174C71.6979 10.451 70.8608 10.6735 70.3114 11.2496C70.0552 11.514 69.8544 11.8279 69.7208 12.1725C69.5872 12.5171 69.5237 12.8853 69.534 13.2552C69.534 14.2345 69.9046 14.9911 70.5317 15.452C71.0811 15.8552 71.8784 16.0568 72.9237 16.0568H78.6639V10.8202C78.6639 9.03185 78.2311 7.7908 77.337 7.17815ZM76.3004 14.1926H72.9625C72.338 14.1926 71.8223 13.9595 71.8223 13.2709C71.8223 12.5221 72.2784 12.3152 72.9625 12.3152H76.3315L76.3004 14.1926Z" fill="#1A1A1F"/>
<path d="M59.2769 24.5287L58.0406 22.8877H57.7228V24.5287H57.0039V20.7441H57.7228V22.2872H57.8928L59.2103 20.7441H60.1011L58.6116 22.4794L60.1657 24.5287H59.2769Z" fill="#1A1A1F"/>
<path d="M53 20.7441H53.7152V23.2647H53.7484L55.4855 20.7441H56.1267V24.5287H55.406V22.01H55.3764L53.6338 24.5287H53V20.7441Z" fill="#1A1A1F"/>
<path d="M48.9648 24.5287V20.7441H49.6837V22.3334H51.4004V20.7441H52.1193V24.5287H51.4004V22.9339H49.6837V24.5287H48.9648Z" fill="#1A1A1F"/>
<path d="M45.3867 24.5287V20.7441H46.8558C47.1306 20.7441 47.3591 20.7866 47.5414 20.8716C47.725 20.9554 47.8623 21.0712 47.9535 21.2191C48.0447 21.3669 48.0903 21.5344 48.0903 21.7217C48.0903 21.8745 48.0607 22.0057 48.0016 22.1153C47.9424 22.225 47.8623 22.3143 47.7613 22.3833C47.6615 22.451 47.5488 22.4997 47.4231 22.5292V22.5662C47.5599 22.5736 47.6905 22.6149 47.8149 22.69C47.9393 22.7639 48.041 22.8687 48.1198 23.0042C48.1987 23.1397 48.2381 23.3023 48.2381 23.492C48.2381 23.6904 48.19 23.8678 48.0939 24.0242C47.9979 24.1795 47.8537 24.3027 47.6615 24.3938C47.4706 24.4838 47.2316 24.5287 46.9445 24.5287H45.3867ZM46.1056 23.9318H46.8189C47.0591 23.9318 47.2328 23.8856 47.34 23.7932C47.4484 23.7008 47.5026 23.5801 47.5026 23.431C47.5026 23.3214 47.4755 23.2228 47.4213 23.1354C47.3683 23.0479 47.2919 22.9795 47.1922 22.9303C47.0924 22.8797 46.9741 22.8545 46.8374 22.8545H46.1056V23.9318ZM46.1056 22.3463H46.7597C46.8755 22.3463 46.979 22.3254 47.0702 22.2835C47.1626 22.2404 47.2353 22.18 47.2882 22.1024C47.3425 22.0248 47.3696 21.9317 47.3696 21.8233C47.3696 21.6804 47.319 21.5634 47.218 21.4722C47.117 21.3798 46.9692 21.3336 46.7745 21.3336H46.1056V22.3463Z" fill="#1A1A1F"/>
<path d="M42.0586 24.5287V20.7441H44.5459V21.3447H42.7774V22.3334H44.4184V22.9339H42.7774V23.9281H44.5589V24.5287H42.0586Z" fill="#1A1A1F"/>
<path d="M38.0234 24.5287V20.7441H38.7423V22.3334H40.459V20.7441H41.1779V24.5287H40.459V22.9339H38.7423V24.5287H38.0234Z" fill="#1A1A1F"/>
<path d="M33.5781 25.4416V23.9448H33.8331C33.9194 23.8795 33.9988 23.7865 34.0715 23.6657C34.1454 23.5438 34.2083 23.3775 34.26 23.1668C34.3118 22.9561 34.3481 22.682 34.369 22.3445L34.4707 20.7441H36.9137V23.9448H37.3331V25.4379H36.642V24.5287H34.2693V25.4416H33.5781ZM34.6684 23.9448H36.2225V21.3447H35.1193L35.0602 22.3445C35.0442 22.5995 35.0177 22.8274 34.9807 23.0282C34.945 23.229 34.9006 23.4052 34.8477 23.5567C34.7947 23.707 34.7349 23.8364 34.6684 23.9448Z" fill="#1A1A1F"/>
<defs>
<linearGradient id="paint0_linear_1884_239576" x1="21.9138" y1="8.47914e-07" x2="1.17719" y2="8.43249e-07" gradientUnits="userSpaceOnUse">
<stop stop-color="#FEDA3B"/>
<stop offset="0.47" stop-color="#EF5541"/>
<stop offset="0.815" stop-color="#821EE0"/>
<stop offset="0.98" stop-color="#7F2A8A"/>
</linearGradient>
</defs>
</svg>
