<svg width="16" height="16" viewBox="0 0 16 16" fill="none" xmlns="http://www.w3.org/2000/svg">
<path d="M1.28369 15.3018C0.675781 15.3018 0.30957 14.9429 0.30957 14.3276V4.47656C0.30957 3.91992 0.529297 3.53174 1.03467 3.25342L4.66748 1.18799C4.93115 1.03418 5.22412 0.960938 5.52441 0.960938C5.82471 0.960938 6.125 1.0415 6.396 1.19531L10.2485 3.53174L13.9619 1.46631C14.2549 1.30518 14.4673 1.21729 14.709 1.21729C15.3169 1.21729 15.6831 1.5835 15.6831 2.19873V12.0352C15.6831 12.5918 15.4634 12.9873 14.9653 13.2656L11.3032 15.3311C11.0396 15.4849 10.7393 15.5654 10.439 15.5654C10.1313 15.5654 9.81641 15.4775 9.50879 15.3164L5.60498 13.1265L2.03076 15.0601C1.74512 15.2212 1.52539 15.3018 1.28369 15.3018ZM4.96045 11.8301V2.65283C4.87988 2.69678 4.80664 2.7334 4.72607 2.78467L1.93555 4.40332C1.73779 4.51318 1.66455 4.64502 1.66455 4.8501V13.3828C1.66455 13.478 1.71582 13.5439 1.79639 13.5439C1.83301 13.5439 1.87695 13.522 1.92822 13.5L4.96045 11.8301ZM6.3374 11.874L9.35498 13.5732C9.45752 13.6245 9.56006 13.6758 9.65527 13.7271V4.81348L6.57178 2.95312C6.49854 2.90918 6.41064 2.86523 6.3374 2.82861V11.874ZM11.0322 13.8369C11.1421 13.7856 11.2593 13.7197 11.3691 13.6538L14.0645 12.0938C14.2549 11.9839 14.3281 11.8521 14.3281 11.647V3.14355C14.3281 3.05566 14.2695 2.98975 14.189 2.98975C14.1523 2.98975 14.1084 3.01172 14.0718 3.03369L11.0322 4.68896V13.8369Z" fill="#1A1A1F"/>
</svg>
