<svg width="16" height="16" viewBox="0 0 16 16" fill="none" xmlns="http://www.w3.org/2000/svg">
<g clip-path="url(#clip0_40003684_1193)">
<path d="M13.625 5C14.0392 5 14.375 5.33579 14.375 5.75V6.54688C14.375 9.79495 11.9127 12.4612 8.75 12.8296V14.75H10.25C10.6642 14.75 11 15.0858 11 15.5C11 15.9142 10.6642 16.25 10.25 16.25H5.75C5.33579 16.25 5 15.9142 5 15.5C5 15.0858 5.33579 14.75 5.75 14.75H7.25V12.8296C4.08727 12.4612 1.625 9.79495 1.625 6.54688V5.75C1.625 5.33579 1.96079 5 2.375 5C2.76326 5 3.08284 5.295 3.12134 5.6731L3.125 5.75V6.54688C3.125 9.20747 5.30168 11.375 8 11.375C10.6983 11.375 12.875 9.20747 12.875 6.54688V5.75C12.875 5.33579 13.2108 5 13.625 5Z" fill="white" fill-opacity="0.6"/>
<path fill-rule="evenodd" clip-rule="evenodd" d="M8 -0.25C9.65685 -0.25 11 1.09315 11 2.75V6.5C11 8.15685 9.65685 9.5 8 9.5C6.34315 9.5 5 8.15685 5 6.5V2.75C5 1.09315 6.34315 -0.25 8 -0.25ZM8 1.25C7.17157 1.25 6.5 1.92157 6.5 2.75V6.5C6.5 7.32843 7.17157 8 8 8C8.82843 8 9.5 7.32843 9.5 6.5V2.75C9.5 1.92157 8.82843 1.25 8 1.25Z" fill="white" fill-opacity="0.6"/>
</g>
<defs>
<clipPath id="clip0_40003684_1193">
<rect width="16" height="16" fill="white"/>
</clipPath>
</defs>
</svg>
