<svg width="16" height="16" viewBox="0 0 16 16" fill="none" xmlns="http://www.w3.org/2000/svg">
<path d="M5.5752 7.5791V3.62451C5.5752 2.09473 6.57812 1.02832 8 1.02832C9.42822 1.02832 10.4248 2.09473 10.4248 3.62451V7.5791C10.4248 9.10254 9.42822 10.1689 8 10.1689C6.57812 10.1689 5.5752 9.10254 5.5752 7.5791ZM6.7749 7.59814C6.7749 8.44873 7.25098 9.02002 8 9.02002C8.74902 9.02002 9.2251 8.44873 9.2251 7.59814V3.59912C9.2251 2.75488 8.74902 2.17725 8 2.17725C7.25098 2.17725 6.7749 2.75488 6.7749 3.59912V7.59814ZM5.08643 14.9868C4.7627 14.9868 4.48975 14.7202 4.48975 14.3965C4.48975 14.0664 4.7627 13.7998 5.08643 13.7998H7.42236V12.4922C4.90869 12.2573 3.18213 10.4609 3.18213 7.8584V6.60156C3.18213 6.27148 3.44873 6.01123 3.77881 6.01123C4.10889 6.01123 4.37549 6.27148 4.37549 6.60156V7.81396C4.37549 9.97217 5.83545 11.4004 8 11.4004C10.1646 11.4004 11.6245 9.97217 11.6245 7.81396V6.60156C11.6245 6.27148 11.8975 6.01123 12.2275 6.01123C12.5576 6.01123 12.8242 6.27148 12.8242 6.60156V7.8584C12.8242 10.4609 11.0977 12.2573 8.58398 12.4922V13.7998H10.9136C11.2437 13.7998 11.5166 14.0664 11.5166 14.3965C11.5166 14.7202 11.2437 14.9868 10.9136 14.9868H5.08643Z" fill="#040405" fill-opacity="0.32"/>
</svg>
