<svg width="21" height="21" viewBox="0 0 21 21" fill="none" xmlns="http://www.w3.org/2000/svg">
<path d="M5.81543 20.1729C3.93457 20.1729 2.95898 19.1885 2.95898 17.29V4.02734C2.95898 2.1377 3.93457 1.14453 5.81543 1.14453H10.0518C11.1504 1.14453 11.7568 1.32031 12.4951 2.06738L17.1094 6.76074C17.874 7.53418 18.0322 8.09668 18.0322 9.31836V17.29C18.0322 19.1797 17.0566 20.1729 15.1758 20.1729H5.81543ZM5.95605 18.4502H15.0264C15.8789 18.4502 16.3096 18.002 16.3096 17.1846V9.54688H11.5723C10.3242 9.54688 9.7002 8.94043 9.7002 7.68359V2.86719H5.95605C5.10352 2.86719 4.68164 3.32422 4.68164 4.13281V17.1846C4.68164 18.002 5.10352 18.4502 5.95605 18.4502ZM11.7305 8.03516H16.0723L11.2207 3.10449V7.5166C11.2207 7.87695 11.3701 8.03516 11.7305 8.03516ZM13.6289 11.8584C13.9453 11.8584 14.1826 12.1045 14.1826 12.4121C14.1826 12.7285 13.9453 12.9746 13.6289 12.9746H7.19531C6.86133 12.9746 6.62402 12.7285 6.62402 12.4121C6.62402 12.1045 6.86133 11.8584 7.19531 11.8584H13.6289ZM13.6289 14.8115C13.9453 14.8115 14.1826 15.0576 14.1826 15.374C14.1826 15.6816 13.9453 15.9189 13.6289 15.9189H7.19531C6.86133 15.9189 6.62402 15.6816 6.62402 15.374C6.62402 15.0576 6.86133 14.8115 7.19531 14.8115H13.6289Z" fill="#1A1A1F"/>
</svg>
