<svg width="14" height="14" viewBox="0 0 14 14" fill="none" xmlns="http://www.w3.org/2000/svg">
<path d="M6.66667 0C7.09806 3.13262e-07 7.45315 0.327776 7.49593 0.747884L7.5 0.833333V5.83333H12.5L12.5854 5.8374C13.0056 5.88018 13.3333 6.23527 13.3333 6.66667C13.3333 7.09806 13.0056 7.45315 12.5854 7.49593L12.5 7.5H7.5V12.5C7.5 12.9602 7.1269 13.3333 6.66667 13.3333C6.20643 13.3333 5.83333 12.9602 5.83333 12.5V7.5H0.833333C0.373096 7.5 0 7.1269 0 6.66667C0 6.20643 0.373096 5.83333 0.833333 5.83333H5.83333V0.833333L5.8374 0.747884C5.88018 0.327776 6.23527 1.8857e-08 6.66667 0Z" fill="white" fill-opacity="0.72"/>
</svg>
