<svg width="18" height="18" viewBox="0 0 18 18" fill="none" xmlns="http://www.w3.org/2000/svg">
<path d="M10.6459 8.55477L11.4731 8.67293C12.1497 8.7696 12.488 8.81793 12.8132 8.8113C13.6228 8.7948 14.4084 8.53295 15.066 8.06037C15.3301 7.87056 15.5718 7.62889 16.0551 7.14558C17.461 5.7397 17.461 3.4603 16.0551 2.05442C14.6492 0.648528 12.3698 0.648528 10.9639 2.05442L6.66358 6.35477M7.55475 9.64605L6.39498 9.45514C5.50444 9.30855 5.05917 9.23525 4.63258 9.2873C4.25483 9.33339 3.88929 9.45094 3.55546 9.63367C3.1785 9.84002 2.8594 10.1591 2.22122 10.7973L2.05442 10.9641C0.648528 12.37 0.648528 14.6494 2.05442 16.0553C3.4603 17.4612 5.7397 17.4612 7.14558 16.0553L11.4459 11.7549" stroke="#535C6D" stroke-width="1.5" stroke-linecap="round" stroke-linejoin="round"/>
</svg>
