<svg width="19" height="19" viewBox="0 0 19 19" fill="none" xmlns="http://www.w3.org/2000/svg">
<path d="M8.45842 1.78414C8.65677 1.4205 8.52278 0.964925 8.15914 0.766578C7.7955 0.568231 7.33993 0.702225 7.14158 1.06586L7.8 1.425L8.45842 1.78414ZM5.25 6.1L5.25 6.85H5.25V6.1ZM14.4084 1.78414C14.6068 1.4205 14.4728 0.964925 14.1091 0.766578C13.7455 0.568231 13.2899 0.702225 13.0916 1.06586L13.75 1.425L14.4084 1.78414ZM11.2 6.1L11.2 6.85L11.2 6.85L11.2 6.1ZM18 6.85C18.4142 6.85 18.75 6.51421 18.75 6.1C18.75 5.68579 18.4142 5.35 18 5.35L18 6.1L18 6.85ZM1 5.35C0.585787 5.35 0.25 5.68579 0.25 6.1C0.25 6.51421 0.585786 6.85 1 6.85L1 6.1L1 5.35ZM1 7.8L1.75 7.8L1 7.8ZM1.46322 3.32054L2.13148 3.66103L2.13148 3.66103L1.46322 3.32054ZM7.8 1L7.8 1.75L7.8 1ZM3.32054 1.46322L3.66103 2.13148L3.32054 1.46322ZM7.8 18L7.8 18.75H7.8V18ZM3.32054 17.5368L3.66103 16.8685L3.66103 16.8685L3.32054 17.5368ZM1 11.2L0.25 11.2L1 11.2ZM1.46322 15.6795L2.13148 15.339L1.46322 15.6795ZM18 11.2L18.75 11.2V11.2H18ZM17.5368 15.6795L16.8685 15.339L16.8685 15.339L17.5368 15.6795ZM11.2 18L11.2 17.25H11.2V18ZM15.6795 17.5368L15.339 16.8685L15.6795 17.5368ZM18 7.8L17.25 7.8V7.8H18ZM17.5368 3.32054L16.8685 3.66103L17.5368 3.32054ZM11.2 1L11.2 0.25L11.2 1ZM15.6795 1.46322L15.339 2.13148L15.339 2.13148L15.6795 1.46322ZM7.8 1.425L7.14158 1.06586L4.59158 5.74086L5.25 6.1L5.90842 6.45914L8.45842 1.78414L7.8 1.425ZM13.75 1.425L13.0916 1.06586L10.5416 5.74086L11.2 6.1L11.8584 6.45914L14.4084 1.78414L13.75 1.425ZM18 6.1L18 5.35L11.2 5.35L11.2 6.1L11.2 6.85L18 6.85L18 6.1ZM11.2 6.1V5.35H5.25V6.1V6.85H11.2V6.1ZM5.25 6.1L5.25 5.35L1 5.35L1 6.1L1 6.85L5.25 6.85L5.25 6.1ZM18 7.8H17.25V11.2H18H18.75V7.8H18ZM11.2 18V17.25H7.8V18V18.75H11.2V18ZM1 11.2L1.75 11.2L1.75 7.8L1 7.8L0.25 7.8L0.25 11.2L1 11.2ZM7.8 1L7.8 1.75L11.2 1.75L11.2 1L11.2 0.25L7.8 0.25L7.8 1ZM1 7.8L1.75 7.8C1.75 6.59751 1.75058 5.74075 1.80541 5.06968C1.85953 4.40737 1.96272 3.99224 2.13148 3.66103L1.46322 3.32054L0.794968 2.98005C0.500506 3.55796 0.372086 4.19246 0.310394 4.94753C0.249417 5.69386 0.25 6.62226 0.25 7.8L1 7.8ZM7.8 1L7.8 0.25C6.62227 0.25 5.69386 0.249417 4.94754 0.310393C4.19246 0.372086 3.55796 0.500506 2.98005 0.794967L3.32054 1.46322L3.66103 2.13148C3.99225 1.96272 4.40737 1.85953 5.06968 1.80541C5.74075 1.75058 6.59751 1.75 7.8 1.75L7.8 1ZM1.46322 3.32054L2.13148 3.66103C2.46703 3.00247 3.00247 2.46703 3.66103 2.13148L3.32054 1.46322L2.98005 0.794967C2.03924 1.27433 1.27433 2.03924 0.794968 2.98005L1.46322 3.32054ZM7.8 18L7.8 17.25C6.59751 17.25 5.74075 17.2494 5.06968 17.1946C4.40737 17.1405 3.99224 17.0373 3.66103 16.8685L3.32054 17.5368L2.98005 18.205C3.55796 18.4995 4.19246 18.6279 4.94753 18.6896C5.69386 18.7506 6.62226 18.75 7.8 18.75L7.8 18ZM1 11.2L0.25 11.2C0.25 12.3777 0.249417 13.3061 0.310394 14.0525C0.372086 14.8075 0.500506 15.442 0.794967 16.02L1.46322 15.6795L2.13148 15.339C1.96272 15.0078 1.85953 14.5926 1.80541 13.9303C1.75058 13.2592 1.75 12.4025 1.75 11.2L1 11.2ZM3.32054 17.5368L3.66103 16.8685C3.00247 16.533 2.46703 15.9975 2.13148 15.339L1.46322 15.6795L0.794967 16.02C1.27433 16.9608 2.03924 17.7257 2.98005 18.205L3.32054 17.5368ZM18 11.2L17.25 11.2C17.25 12.4025 17.2494 13.2592 17.1946 13.9303C17.1405 14.5926 17.0373 15.0078 16.8685 15.339L17.5368 15.6795L18.205 16.02C18.4995 15.442 18.6279 14.8075 18.6896 14.0525C18.7506 13.3061 18.75 12.3777 18.75 11.2L18 11.2ZM11.2 18L11.2 18.75C12.3777 18.75 13.3061 18.7506 14.0525 18.6896C14.8075 18.6279 15.442 18.4995 16.02 18.205L15.6795 17.5368L15.339 16.8685C15.0078 17.0373 14.5926 17.1405 13.9303 17.1946C13.2592 17.2494 12.4025 17.25 11.2 17.25L11.2 18ZM17.5368 15.6795L16.8685 15.339C16.533 15.9975 15.9975 16.533 15.339 16.8685L15.6795 17.5368L16.02 18.205C16.9608 17.7257 17.7257 16.9608 18.205 16.02L17.5368 15.6795ZM18 7.8L18.75 7.8C18.75 6.62227 18.7506 5.69386 18.6896 4.94754C18.6279 4.19246 18.4995 3.55796 18.205 2.98005L17.5368 3.32054L16.8685 3.66103C17.0373 3.99225 17.1405 4.40737 17.1946 5.06968C17.2494 5.74075 17.25 6.59751 17.25 7.8L18 7.8ZM11.2 1L11.2 1.75C12.4025 1.75 13.2592 1.75058 13.9303 1.80541C14.5926 1.85953 15.0078 1.96272 15.339 2.13148L15.6795 1.46322L16.02 0.794968C15.442 0.500506 14.8075 0.372086 14.0525 0.310394C13.3061 0.249417 12.3777 0.25 11.2 0.25L11.2 1ZM17.5368 3.32054L18.205 2.98005C17.7257 2.03924 16.9608 1.27433 16.02 0.794968L15.6795 1.46322L15.339 2.13148C15.9975 2.46703 16.533 3.00247 16.8685 3.66103L17.5368 3.32054Z" fill="#535C6D"/>
</svg>
