<svg width="16" height="16" viewBox="0 0 16 16" fill="none" xmlns="http://www.w3.org/2000/svg">
<path d="M8.18164 11.6484L6.13574 12.084C5.98131 12.1202 5.84468 12.08 5.72656 11.9619C5.60851 11.8438 5.56816 11.7072 5.60449 11.5527L6.02734 9.49316L8.18164 11.6484ZM3.96777 4.99316C4.9041 5.06589 5.59309 5.25486 6.03418 5.55957C6.47517 5.86423 6.69558 6.30282 6.69531 6.875C6.69531 7.35662 6.52043 7.73413 6.1709 8.00684C5.82108 8.27956 5.30425 8.4435 4.62207 8.49805C4.04063 8.54351 3.60432 8.65012 3.31348 8.81836C3.02269 8.98665 2.87707 9.21646 2.87695 9.50684C2.87695 9.82502 3.00424 10.0552 3.25879 10.1963C3.51334 10.3374 3.94103 10.4213 4.54102 10.4482L4.48633 11.5391C3.57724 11.4936 2.89956 11.3022 2.4541 10.9658C2.00889 10.6295 1.78613 10.143 1.78613 9.50684C1.78623 8.91609 2.02918 8.43629 2.51562 8.06836C3.00217 7.70037 3.67775 7.48032 4.54102 7.40723C4.89539 7.37994 5.16147 7.32346 5.33887 7.2373C5.5163 7.15112 5.60486 7.0299 5.60449 6.875C5.60435 6.63882 5.47001 6.46187 5.20215 6.34375C4.93414 6.22558 4.49056 6.13853 3.87207 6.08398L3.96777 4.99316ZM11.9111 3.90234C12.1613 3.90234 12.3771 3.99396 12.5586 4.17578L13.5137 5.12988C13.6954 5.31168 13.7861 5.52819 13.7861 5.77832C13.786 6.02833 13.6954 6.24442 13.5137 6.42578L8.80859 11.1299L6.55859 8.87988L11.2637 4.17578C11.4454 3.99403 11.6611 3.90241 11.9111 3.90234Z" fill="white"/>
</svg>
