<svg width="16" height="16" viewBox="0 0 16 16" fill="none" xmlns="http://www.w3.org/2000/svg">
<path d="M3.75195 8.42578C3.39453 8.42578 3.0957 8.13281 3.0957 7.76953C3.0957 7.41211 3.39453 7.11328 3.75195 7.11328H7.34375V3.52148C7.34375 3.16406 7.64258 2.86523 8 2.86523C8.35742 2.86523 8.65625 3.16406 8.65625 3.52148V7.11328H12.248C12.6055 7.11328 12.9043 7.41211 12.9043 7.76953C12.9043 8.13281 12.6055 8.42578 12.248 8.42578H8.65625V12.0176C8.65625 12.375 8.35742 12.6738 8 12.6738C7.64258 12.6738 7.34375 12.375 7.34375 12.0176V8.42578H3.75195Z" fill="#1A1A1F"/>
</svg>
