<svg width="21" height="20" viewBox="0 0 21 20" fill="none" xmlns="http://www.w3.org/2000/svg">
<path d="M11.3965 18.0723C11.3965 18.5996 10.9922 19.0303 10.4209 19.0303H8.31152C4.38281 19.0303 2.08008 16.7188 2.08008 13.2119C2.08008 9.72266 4.43555 7.32324 8.42578 7.32324H13.9717L16.0195 7.41113L14.4551 6.10156L12.1963 3.89551C12.0205 3.72852 11.915 3.51758 11.915 3.22754C11.915 2.69141 12.293 2.2959 12.8555 2.2959C13.1016 2.2959 13.3652 2.41016 13.5498 2.59473L18.6035 7.56934C18.8057 7.7627 18.9111 8.01758 18.9111 8.28125C18.9111 8.54492 18.8057 8.7998 18.6035 8.99316L13.5498 13.9678C13.3652 14.1523 13.1016 14.2666 12.8555 14.2666C12.293 14.2666 11.915 13.8711 11.915 13.3262C11.915 13.0449 12.0205 12.834 12.1963 12.6582L14.4551 10.4609L16.0107 9.15137L13.9717 9.23926H8.37305C5.54297 9.23926 3.97852 10.8477 3.97852 13.1416C3.97852 15.4268 5.54297 17.1055 8.37305 17.1055H10.4209C10.9922 17.1055 11.3965 17.5361 11.3965 18.0723Z" fill="#1A1A1F"/>
</svg>
