<svg width="12" height="14" viewBox="0 0 12 14" fill="none" xmlns="http://www.w3.org/2000/svg">
<path d="M11.6484 6.84375C11.6484 7.55469 11.5293 8.23047 11.291 8.87109C11.0527 9.50781 10.7168 10.082 10.2832 10.5938C9.84961 11.1055 9.3418 11.5312 8.75977 11.8711C8.18164 12.2148 7.55469 12.4453 6.87891 12.5625V13.1953C6.87891 13.4141 6.80469 13.5508 6.65625 13.6055C6.51172 13.6602 6.36133 13.6289 6.20508 13.5117L4.37695 12.1582C4.25586 12.0723 4.19531 11.9648 4.19531 11.8359C4.19531 11.7109 4.25586 11.6035 4.37695 11.5137L6.20508 10.166C6.36133 10.0527 6.51172 10.0234 6.65625 10.0781C6.80469 10.1289 6.87891 10.2617 6.87891 10.4766V11.1445C7.36719 11.0273 7.81641 10.8379 8.22656 10.5762C8.63672 10.3105 8.99414 9.98828 9.29883 9.60938C9.60742 9.22656 9.8457 8.80078 10.0137 8.33203C10.1816 7.86328 10.2656 7.36719 10.2656 6.84375C10.2656 6.27734 10.1621 5.74414 9.95508 5.24414C9.75195 4.74023 9.46875 4.29688 9.10547 3.91406C8.95312 3.71484 8.88867 3.53125 8.91211 3.36328C8.93945 3.19141 9.01367 3.04883 9.13477 2.93555C9.26367 2.81445 9.42773 2.75391 9.62695 2.75391C9.82617 2.75 10.002 2.83984 10.1543 3.02344C10.6191 3.52344 10.9844 4.09961 11.25 4.75195C11.5156 5.4043 11.6484 6.10156 11.6484 6.84375ZM0 6.84375C0 6.12891 0.119141 5.45312 0.357422 4.81641C0.599609 4.17969 0.9375 3.60547 1.37109 3.09375C1.80469 2.58203 2.31055 2.15625 2.88867 1.81641C3.4668 1.47266 4.0957 1.24023 4.77539 1.11914V0.486328C4.77539 0.267578 4.84766 0.132813 4.99219 0.0820312C5.14062 0.0273438 5.29297 0.0585938 5.44922 0.175781L7.27734 1.5293C7.39844 1.61523 7.45703 1.72266 7.45312 1.85156C7.45312 1.97656 7.39453 2.08203 7.27734 2.16797L5.44922 3.52148C5.29297 3.63477 5.14062 3.66602 4.99219 3.61523C4.84766 3.56055 4.77539 3.42578 4.77539 3.21094V2.54297C4.28711 2.66016 3.83594 2.85156 3.42188 3.11719C3.01172 3.37891 2.6543 3.70117 2.34961 4.08398C2.04492 4.46289 1.80664 4.88672 1.63477 5.35547C1.4668 5.82422 1.38281 6.32031 1.38281 6.84375C1.38281 7.41016 1.48633 7.94531 1.69336 8.44922C1.9043 8.94922 2.18945 9.38867 2.54883 9.76758C2.69727 9.9668 2.75781 10.1523 2.73047 10.3242C2.70703 10.4961 2.63672 10.6387 2.51953 10.752C2.38672 10.8691 2.2207 10.9297 2.02148 10.9336C1.82617 10.9375 1.6543 10.8477 1.50586 10.6641C1.04102 10.1641 0.673828 9.58789 0.404297 8.93555C0.134766 8.2793 0 7.58203 0 6.84375Z" fill="white" fill-opacity="0.6"/>
</svg>
