<svg width="24" height="24" viewBox="0 0 24 24" fill="none" xmlns="http://www.w3.org/2000/svg">
<path d="M13 20.25C12.5858 20.25 12.25 20.5858 12.25 21C12.25 21.4142 12.5858 21.75 13 21.75V21V20.25ZM20.8284 19.8284L20.2981 19.2981L20.8284 19.8284ZM1.25 11C1.25 11.4142 1.58579 11.75 2 11.75C2.41421 11.75 2.75 11.4142 2.75 11H2H1.25ZM3 16.25C2.58579 16.25 2.25 16.5858 2.25 17C2.25 17.4142 2.58579 17.75 3 17.75V17V16.25ZM11 17.75C11.4142 17.75 11.75 17.4142 11.75 17C11.75 16.5858 11.4142 16.25 11 16.25V17V17.75ZM6.25 21C6.25 21.4142 6.58579 21.75 7 21.75C7.41421 21.75 7.75 21.4142 7.75 21H7H6.25ZM7.75 13C7.75 12.5858 7.41421 12.25 7 12.25C6.58579 12.25 6.25 12.5858 6.25 13H7H7.75ZM14 3V2.25H10V3V3.75H14V3ZM13 21V21.75H14V21V20.25H13V21ZM22 13H22.75V11H22H21.25V13H22ZM14 21V21.75C15.8644 21.75 17.3382 21.7516 18.489 21.5969C19.6614 21.4392 20.6104 21.1071 21.3588 20.3588L20.8284 19.8284L20.2981 19.2981C19.8749 19.7213 19.2952 19.975 18.2892 20.1102C17.2615 20.2484 15.9068 20.25 14 20.25V21ZM22 13H21.25C21.25 14.9068 21.2484 16.2615 21.1102 17.2892C20.975 18.2952 20.7213 18.8749 20.2981 19.2981L20.8284 19.8284L21.3588 20.3588C22.1071 19.6104 22.4392 18.6614 22.5969 17.489C22.7516 16.3382 22.75 14.8644 22.75 13H22ZM10 3V2.25C8.13558 2.25 6.66182 2.24841 5.51098 2.40313C4.33856 2.56076 3.38961 2.89288 2.64124 3.64124L3.17157 4.17157L3.7019 4.7019C4.12511 4.27869 4.70476 4.02502 5.71085 3.88976C6.73851 3.75159 8.09318 3.75 10 3.75V3ZM2 11H2.75C2.75 9.09318 2.75159 7.73851 2.88976 6.71085C3.02502 5.70476 3.27869 5.12511 3.7019 4.7019L3.17157 4.17157L2.64124 3.64124C1.89288 4.38961 1.56076 5.33855 1.40313 6.51098C1.24841 7.66182 1.25 9.13558 1.25 11H2ZM14 3V3.75C15.9068 3.75 17.2615 3.75159 18.2892 3.88976C19.2952 4.02502 19.8749 4.27869 20.2981 4.7019L20.8284 4.17157L21.3588 3.64124C20.6104 2.89288 19.6614 2.56076 18.489 2.40313C17.3382 2.24841 15.8644 2.25 14 2.25V3ZM22 11H22.75C22.75 9.13558 22.7516 7.66182 22.5969 6.51098C22.4392 5.33855 22.1071 4.38961 21.3588 3.64124L20.8284 4.17157L20.2981 4.7019C20.7213 5.12511 20.975 5.70476 21.1102 6.71085C21.2484 7.73851 21.25 9.09318 21.25 11H22ZM3 17V17.75H7V17V16.25H3V17ZM7 17V17.75H11V17V16.25H7V17ZM7 21H7.75V17H7H6.25V21H7ZM7 17H7.75V13H7H6.25V17H7Z" fill="#242429"/>
</svg>
