<svg width="16" height="16" viewBox="0 0 16 16" fill="none" xmlns="http://www.w3.org/2000/svg">
<path fill-rule="evenodd" clip-rule="evenodd" d="M5.48336 13.0746C5.23426 14.2371 6.12045 15.3333 7.30935 15.3333C7.73862 15.3333 8.13755 15.1122 8.36508 14.7482L11.3327 10H13.3327C14.0691 10 14.666 9.40307 14.666 8.66667V3.33333C14.666 2.59695 14.0691 2 13.3327 2H3.90208C3.14454 2 2.45202 2.42801 2.11323 3.10557L0.947542 5.43695C0.762402 5.80723 0.666016 6.21553 0.666016 6.62951V8.66667C0.666016 9.77127 1.56145 10.6667 2.66602 10.6667H5.99935L5.48336 13.0746ZM11.3327 3.33333V8.66667H13.3327V3.33333H11.3327ZM7.26168 13.9979L9.99935 9.6176V3.33333H3.90208C3.64957 3.33333 3.41873 3.476 3.3058 3.70186L2.14012 6.03323C2.04754 6.21837 1.99935 6.42252 1.99935 6.62951V8.66667C1.99935 9.03487 2.29783 9.33333 2.66602 9.33333H5.99935C6.40201 9.33333 6.78308 9.51527 7.03622 9.8284C7.28935 10.1415 7.38748 10.5523 7.30308 10.9461L6.78708 13.354C6.71922 13.6707 6.94602 13.9703 7.26168 13.9979Z" fill="white" fill-opacity="0.72"/>
</svg>
