<svg width="21" height="20" viewBox="0 0 21 20" fill="none" xmlns="http://www.w3.org/2000/svg">
<g opacity="0.4">
<path d="M2.08008 8.28125C2.08008 8.01758 2.18555 7.7627 2.3877 7.56934L7.43262 2.59473C7.62598 2.41016 7.88965 2.2959 8.12695 2.2959C8.69824 2.2959 9.07617 2.69141 9.07617 3.22754C9.07617 3.51758 8.96191 3.72852 8.79492 3.89551L6.52734 6.10156L4.97168 7.41113L7.01953 7.32324H12.5566C16.5557 7.32324 18.9111 9.72266 18.9111 13.2119C18.9111 16.7188 16.6084 19.0303 12.6797 19.0303H10.5703C9.99902 19.0303 9.59473 18.5996 9.59473 18.0723C9.59473 17.5361 9.99023 17.1055 10.5703 17.1055H12.6182C15.4482 17.1055 17.0039 15.4268 17.0039 13.1416C17.0039 10.8477 15.4482 9.23926 12.6182 9.23926H7.01953L4.97168 9.15137L6.52734 10.4609L8.79492 12.6582C8.96191 12.834 9.07617 13.0449 9.07617 13.3262C9.07617 13.8711 8.69824 14.2666 8.12695 14.2666C7.88965 14.2666 7.62598 14.1523 7.43262 13.9678L2.3877 8.99316C2.18555 8.7998 2.08008 8.54492 2.08008 8.28125Z" fill="#1A1A1F"/>
</g>
</svg>
