<svg width="36" height="36" viewBox="0 0 36 36" fill="none" xmlns="http://www.w3.org/2000/svg">
    <rect x="1" y="1" width="34" height="34" rx="17" stroke="white" stroke-width="2" />
    <g clip-path="url(#clip0)">
        <mask id="mask0" style="mask-type:alpha" maskUnits="userSpaceOnUse" x="2" y="2" width="32" height="32">
            <circle cx="18" cy="18" r="16" fill="white" />
        </mask>
        <g mask="url(#mask0)">
            <rect x="2" y="2" width="32" height="32" fill="#6B7280" />
            <path d="M18 8L20.5 15.5H28L22 20L24.5 27.5L18 23L11.5 27.5L14 20L8 15.5H15.5L18 8Z" fill="white"/>
        </g>
        <g clip-path="url(#clip1)">
            <path fill-rule="evenodd" clip-rule="evenodd"
                d="M18 34C26.8366 34 34 26.8366 34 18C34 9.16344 26.8366 2 18 2C9.16344 2 2 9.16344 2 18C2 26.8366 9.16344 34 18 34ZM18 32.6667C26.1002 32.6667 32.6667 26.1002 32.6667 18C32.6667 9.89982 26.1002 3.33333 18 3.33333C9.89982 3.33333 3.33333 9.89982 3.33333 18C3.33333 26.1002 9.89982 32.6667 18 32.6667Z"
                fill="url(#paint0_linear)" />
            <circle cx="18" cy="18" r="14.6667" fill="url(#paint1_linear)" />
        </g>
    </g>
    <defs>
        <linearGradient id="paint0_linear" x1="2" y1="2" x2="34" y2="34" gradientUnits="userSpaceOnUse">
            <stop stop-color="white" stop-opacity="0.15" />
            <stop offset="1" stop-opacity="0.1" />
        </linearGradient>
        <linearGradient id="paint1_linear" x1="2" y1="2" x2="34" y2="34" gradientUnits="userSpaceOnUse">
            <stop offset="0.1475" stop-opacity="0.15" />
            <stop offset="0.500721" stop-color="white" stop-opacity="0" />
            <stop offset="0.852707" stop-color="white" stop-opacity="0.15" />
        </linearGradient>
        <clipPath id="clip0">
            <rect width="32" height="32" fill="white" transform="translate(2 2)" />
        </clipPath>
        <clipPath id="clip1">
            <rect x="2" y="2" width="32" height="32" rx="16" fill="white" />
        </clipPath>
    </defs>
</svg>


