<svg width="36" height="36" viewBox="0 0 36 36" fill="none" xmlns="http://www.w3.org/2000/svg">
    <rect x="1" y="1" width="34" height="34" rx="17" stroke="white" stroke-width="2" />
    <g clip-path="url(#clip0)">
        <mask id="mask0" style="mask-type:alpha" maskUnits="userSpaceOnUse" x="2" y="2" width="32" height="32">
            <circle cx="18" cy="18" r="16" fill="white" />
        </mask>
        <g mask="url(#mask0)">
            <rect x="2" y="2" width="32" height="32" fill="#ED1A3A" />
            <path
                d="M24.478 10.0014C24.021 10.0014 23.674 10.3042 23.502 10.668L20.997 14.7845C20.823 15.1652 20.696 15.5929 20.696 15.876C20.696 16.129 20.731 16.3526 20.824 16.5586L23.534 23.0201H13.01C12.632 23.0201 12.319 22.6404 12.319 22.2898V11.1593C12.239 9.6377 10.048 9.63852 10 11.2071L10.048 23.0201C10.048 24.3044 11.043 25.3333 12.319 25.3333H26.667L23.17 16.4019C23.073 16.0694 23.03 15.7678 23.265 15.3714L25.579 11.6161C25.612 11.5378 25.659 11.2067 25.659 11.1115C25.613 10.4296 25.078 9.97128 24.478 10.0014ZM18.797 10.0067C18.235 10.0105 17.672 10.3985 17.672 11.1593V19.1241C17.672 20.2807 16.114 20.1855 16.114 19.1241V11.1593C16.114 9.6377 13.859 9.6377 13.859 11.1593V19.1878C13.859 21.0239 15.232 22.2446 16.872 22.2446C18.556 22.2446 19.925 21.0239 19.925 19.1878V11.1593C19.925 10.3835 19.36 10.0029 18.797 10.0067Z"
                fill="white" />
        </g>
        <g clip-path="url(#clip1)">
            <path fill-rule="evenodd" clip-rule="evenodd"
                d="M18 34C26.837 34 34 26.8366 34 18C34 9.16344 26.837 2 18 2C9.1634 2 2 9.16344 2 18C2 26.8366 9.1634 34 18 34ZM18 32.6667C26.1 32.6667 32.6667 26.1002 32.6667 18C32.6667 9.89982 26.1 3.33333 18 3.33333C9.8998 3.33333 3.3333 9.89982 3.3333 18C3.3333 26.1002 9.8998 32.6667 18 32.6667Z"
                fill="url(#paint0_linear)" />
            <circle cx="18" cy="18" r="14.6667" fill="url(#paint1_linear)" />
        </g>
    </g>
    <defs>
        <linearGradient id="paint0_linear" x1="2" y1="2" x2="34" y2="34" gradientUnits="userSpaceOnUse">
            <stop stop-color="white" stop-opacity="0.15" />
            <stop offset="1" stop-opacity="0.1" />
        </linearGradient>
        <linearGradient id="paint1_linear" x1="2" y1="2" x2="34" y2="34" gradientUnits="userSpaceOnUse">
            <stop offset="0.1475" stop-opacity="0.15" />
            <stop offset="0.500721" stop-color="white" stop-opacity="0" />
            <stop offset="0.852707" stop-color="white" stop-opacity="0.15" />
        </linearGradient>
        <clipPath id="clip0">
            <rect width="32" height="32" fill="white" transform="translate(2 2)" />
        </clipPath>
        <clipPath id="clip1">
            <rect x="2" y="2" width="32" height="32" rx="16" fill="white" />
        </clipPath>
    </defs>
</svg>
