<svg width="36" height="36" viewBox="0 0 36 36" fill="none" xmlns="http://www.w3.org/2000/svg">
    <rect x="1" y="1" width="34" height="34" rx="17" stroke="white" stroke-width="2" />
    <g clip-path="url(#clip0)">
        <mask id="mask0" style="mask-type:alpha" maskUnits="userSpaceOnUse" x="2" y="2" width="32" height="32">
            <circle cx="18" cy="18" r="16" fill="white" />
        </mask>
        <g mask="url(#mask0)">
            <rect x="2" y="2" width="32" height="32" fill="#F5F5F5" />
            <path fill-rule="evenodd" clip-rule="evenodd"
                d="M18 6C20.8836 6 23.5296 7.0164 25.5984 8.712L23.532 10.3644C21.978 9.2364 20.0664 8.5716 17.9988 8.5716C12.7908 8.5716 8.5704 12.7932 8.5704 18C8.5704 23.208 12.792 27.4284 17.9988 27.4284C23.2068 27.4284 27.4272 23.2068 27.4272 18C27.4272 17.88 27.4248 17.76 27.4212 17.64L29.8176 15.9096C29.9376 16.5888 29.9988 17.2872 29.9988 18C29.9988 24.6276 24.6264 30 17.9988 30C11.3712 30 6 24.6276 6 18C6 11.3724 11.3724 6 18 6Z"
                fill="url(#paint0_linear)" />
            <path fill-rule="evenodd" clip-rule="evenodd"
                d="M13.4856 15.075L18 17.9994L27.7416 10.8594L29.1888 13.2102L18 21.387L13.4856 18.5694V15.075Z"
                fill="#229E39" />
        </g>
        <g clip-path="url(#clip1)">
            <path fill-rule="evenodd" clip-rule="evenodd"
                d="M18 34C26.8366 34 34 26.8366 34 18C34 9.16344 26.8366 2 18 2C9.1634 2 2 9.16344 2 18C2 26.8366 9.1634 34 18 34ZM18 32.6667C26.1002 32.6667 32.6667 26.1002 32.6667 18C32.6667 9.89982 26.1002 3.33333 18 3.33333C9.8998 3.33333 3.3333 9.89982 3.3333 18C3.3333 26.1002 9.8998 32.6667 18 32.6667Z"
                fill="url(#paint1_linear)" />
            <circle cx="18" cy="18" r="14.6667" fill="url(#paint2_linear)" />
        </g>
    </g>
    <defs>
        <linearGradient id="paint0_linear" x1="19.9596" y1="6" x2="7.2488" y2="23.1366" gradientUnits="userSpaceOnUse">
            <stop stop-color="#0187C8" />
            <stop offset="0.31332" stop-color="#08A652" />
            <stop offset="0.72384" stop-color="#08A652" />
            <stop offset="1" stop-color="#FAEF23" />
        </linearGradient>
        <linearGradient id="paint1_linear" x1="2" y1="2" x2="34" y2="34" gradientUnits="userSpaceOnUse">
            <stop stop-color="white" stop-opacity="0.15" />
            <stop offset="1" stop-opacity="0.1" />
        </linearGradient>
        <linearGradient id="paint2_linear" x1="2" y1="2" x2="34" y2="34" gradientUnits="userSpaceOnUse">
            <stop offset="0.1475" stop-opacity="0.15" />
            <stop offset="0.500721" stop-color="white" stop-opacity="0" />
            <stop offset="0.852707" stop-color="white" stop-opacity="0.15" />
        </linearGradient>
        <clipPath id="clip0">
            <rect width="32" height="32" fill="white" transform="translate(2 2)" />
        </clipPath>
        <clipPath id="clip1">
            <rect x="2" y="2" width="32" height="32" rx="16" fill="white" />
        </clipPath>
    </defs>
</svg>
