<svg width="36" height="36" viewBox="0 0 36 36" fill="none" xmlns="http://www.w3.org/2000/svg">
    <rect x="1" y="1" width="34" height="34" rx="17" stroke="white" stroke-width="2" />
    <g clip-path="url(#clip0)">
        <mask id="mask0" style="mask-type:alpha" maskUnits="userSpaceOnUse" x="2" y="2" width="32" height="32">
            <circle cx="18" cy="18" r="16" fill="white" />
        </mask>
        <g mask="url(#mask0)">
            <rect x="2" y="2" width="32" height="32" fill="#002671" />
            <path fill-rule="evenodd" clip-rule="evenodd"
                d="M7.67989 13.6016L7.27322 14.7149H12.9132L13.3332 13.6016H7.67989ZM7.07322 15.2749L6.66656 16.3882H12.2999L12.7066 15.2749H7.07322ZM6.45989 16.9416L6.05322 18.0549H11.6932L12.0999 16.9416H6.45989Z"
                fill="#009DDB" />
            <path fill-rule="evenodd" clip-rule="evenodd"
                d="M18.0398 18.483C18.2794 18.5676 18.5043 18.6891 18.7065 18.843C18.8988 19.0057 19.0506 19.2108 19.1501 19.4422C19.2496 19.6735 19.294 19.9249 19.2798 20.1763C19.3117 20.5897 19.1949 21.0009 18.9504 21.3358C18.706 21.6707 18.35 21.9073 17.9465 22.003C17.6245 22.0853 17.2919 22.119 16.9599 22.103H14.5132V15.2963H16.6665C17.0092 15.2821 17.3522 15.3134 17.6865 15.3896C18.0605 15.4609 18.3969 15.6631 18.6351 15.96C18.8734 16.2569 18.998 16.6291 18.9865 17.0096C18.9923 17.2138 18.9569 17.4169 18.8825 17.6071C18.808 17.7972 18.696 17.9704 18.5532 18.1163C18.4086 18.2719 18.234 18.3967 18.0398 18.483ZM15.8732 19.203V20.9963H16.8065C16.9348 21.0126 17.0651 21.0033 17.1898 20.969C17.3146 20.9346 17.4313 20.876 17.5332 20.7963C17.6239 20.7113 17.6953 20.6078 17.7424 20.4927C17.7896 20.3777 17.8114 20.2539 17.8065 20.1296C17.816 19.9959 17.7941 19.8617 17.7425 19.7379C17.6909 19.6141 17.6111 19.504 17.5094 19.4166C17.4077 19.3291 17.2869 19.2667 17.1568 19.2342C17.0266 19.2018 16.8907 19.2002 16.7598 19.2296L15.8732 19.203ZM15.8732 18.023H16.6332C16.7917 18.0331 16.9509 18.0219 17.1065 17.9896C17.2661 17.9366 17.4034 17.8316 17.4964 17.6914C17.5895 17.5513 17.6329 17.384 17.6198 17.2163C17.6459 17.049 17.6074 16.8781 17.5121 16.7382C17.4167 16.5983 17.2717 16.4999 17.1065 16.463C16.936 16.4248 16.7611 16.4091 16.5865 16.4163H15.8599L15.8732 18.023ZM21.2998 22.123V16.443H19.3332V15.2963H24.7732L24.3865 16.443H22.6665V22.123H21.2998ZM25.1998 22.123V15.2963H29.6065L29.2199 16.443H26.5532V17.9496H27.6465C28.2394 17.8963 28.8304 18.0703 29.2998 18.4363C29.5243 18.6399 29.7006 18.8909 29.8159 19.1711C29.9312 19.4513 29.9827 19.7537 29.9665 20.0563C29.9845 20.3819 29.9208 20.7068 29.781 21.0014C29.6413 21.296 29.43 21.551 29.1665 21.743C28.6356 22.0609 28.0145 22.1945 27.3998 22.123H25.1998ZM26.5332 20.9763H27.5532C27.6994 20.994 27.8478 20.9753 27.985 20.9218C28.1223 20.8683 28.2442 20.7817 28.3398 20.6696C28.4826 20.4777 28.5534 20.2418 28.5399 20.003C28.5492 19.854 28.5219 19.705 28.4603 19.569C28.3987 19.433 28.3047 19.3142 28.1865 19.223C27.9899 19.0933 27.7539 19.0367 27.5198 19.063H26.5332V20.9763Z"
                fill="white" />
        </g>
        <g clip-path="url(#clip1)">
            <path fill-rule="evenodd" clip-rule="evenodd"
                d="M18 34C26.8366 34 34 26.8366 34 18C34 9.16344 26.8366 2 18 2C9.16344 2 2 9.16344 2 18C2 26.8366 9.16344 34 18 34ZM18 32.6667C26.1002 32.6667 32.6667 26.1002 32.6667 18C32.6667 9.89982 26.1002 3.33333 18 3.33333C9.89982 3.33333 3.33333 9.89982 3.33333 18C3.33333 26.1002 9.89982 32.6667 18 32.6667Z"
                fill="url(#paint0_linear)" />
            <circle cx="18" cy="18" r="14.6667" fill="url(#paint1_linear)" />
        </g>
    </g>
    <defs>
        <linearGradient id="paint0_linear" x1="2" y1="2" x2="34" y2="34" gradientUnits="userSpaceOnUse">
            <stop stop-color="white" stop-opacity="0.15" />
            <stop offset="1" stop-opacity="0.1" />
        </linearGradient>
        <linearGradient id="paint1_linear" x1="2" y1="2" x2="34" y2="34" gradientUnits="userSpaceOnUse">
            <stop offset="0.1475" stop-opacity="0.15" />
            <stop offset="0.500721" stop-color="white" stop-opacity="0" />
            <stop offset="0.852707" stop-color="white" stop-opacity="0.15" />
        </linearGradient>
        <clipPath id="clip0">
            <rect width="32" height="32" fill="white" transform="translate(2 2)" />
        </clipPath>
        <clipPath id="clip1">
            <rect x="2" y="2" width="32" height="32" rx="16" fill="white" />
        </clipPath>
    </defs>
</svg>
