<svg xmlns="http://www.w3.org/2000/svg" width="308" height="53" fill="none"><path fill="#ABF830" d="m307.981 38.218.982-.193.001.006zm-.135-.687.982-.193zm-.199-1.057.985-.171zm-.064-.37.985-.17zm-.065-.369.986-.171zm-.137-.737-.981.195zm-.073-.368.98-.195zm-.074-.368.981-.195zm-.147-.735-.98.197zm-.148-.735.98-.198zm-.136-.738.986-.165zm-.124-.74-.986.165zm-.139-.737.978-.207zm-.301-1.47.983-.181zm-.069-.368.984-.182zm-.068-.369-.983.182zm-.29-1.471.98-.198zm-.135-.738.987-.163zm-.061-.37-.987.162zm-.061-.37.987-.163zm-.138-.738.978-.206zm-.155-.733-.979.206zm-.145-.736.983-.18zm-.068-.37-.984.18zm-.067-.368-.984.18zm-.138-.738-.982.188zm-.14-.736.982-.187zm-.141-.737-.982.188zm-.071-.368.983-.188zm-.07-.368.982-.189zm-.141-.737.982-.189zm-.142-.737.982-.188zm-.138-.737-.983.179zm-.067-.369-.984.18zm-.067-.369.984-.179zm-.134-.738.983-.18zm-.068-.369.984-.18zm-.067-.368-.984.18zm-.147-.736.978-.21zm-.303-1.47-.984.179zm-.133-.737.984-.178zm-.258-1.478-.986.17zm-.14-.737.98-.202zm-.076-.367-.979.202zm-.219-1.104.983-.182zm-.137-.737-.983.182zm-.139-.737.982-.19zm-.071-.368-.982.189zm-.071-.369.982-.189zm-.142-.736.982-.19zm-.142-.737-.982.19zm-.144-.736-.981.195zm-.073-.367.981-.195zm-.214-1.105.983-.182zm-.137-.737-.983.182zm-.134-.738-.985.175zm-.132-.739.985-.175zm-.12.002.99.144zm-.054.37-.989-.145zm-.054.37.99.145zm-.111.741-.988-.152zm-.114.742.988.152zm-.113.741.988.15zm-.112.742-.989-.15zm-.122.74-.985-.175zm-.065.37.984.174zm-.066.369-.985-.175zm-.115.74.992.132zm-.049.372-.991-.131zm-.05.372.992.132zm-.112.742.986.168zm-.126.74.986.167zm-.117.74.989.145zm-.109.742.99.145zm-.111.742-.988-.152zm-.113.741.988.152zm-.109.742-.991-.139zm-.104.743.99.139zm-.109.742.988.152zm-.114.742-.988-.152zm-.119.74-.986-.167zm-.126.74.986.167zm-.115.74.99.141zm-.053.372-.99-.14zm-.053.371-.99-.14zm-.11.742.988.154zm-.116.741-.988-.154zm-.112.742-.99-.145zm-.054.37-.99-.144zm-.055.372.99.144zm-.113.741.987.16zm-.12.74-.987-.159zm-.108.743-.992-.13zm-.049.372.992.13zm-.049.372.992.13zm-.105.742-.989-.152zm-.057.37.988.153zm-.058.371.989.152zm-.172 1.112.988.154zm-.058.37-.988-.154zm-.112.742.99.143zm-.053.371-.99-.143zm-.054.371-.99-.143zm-.112.742-.988-.155zm-.116.741.988.155zm-.118.74.987.161zm-.061.37-.987-.16zm-.06.37.987.161zm-.175 1.112.989.153zm-.057.37-.988-.152zm-.11.743.99.14zm-.105.742-.99-.14zm-.107.743.99.143zm-.054.37.99.144zm-.053.372-.99-.144zm-.119.74.985.173zm-.129.74-.985-.173zm-.122.74.988.154zm-.058.37-.988-.154zm-.058.37.988.155zm-.217 1.485-.99-.142zm-.107.742-.99-.144zm-.054.371.989.144zm-.054.371-.99-.144zm-.111.742-.989-.151zm-.057.37-.988-.15zm-.057.372.989.15zm-.112.741-.989-.148zm-.055.371-.989-.148zm-.056.37.989.15zm-.117.742.987.163zm-.123.74-.986-.164zm-.115.74.989.145zm-.055.372-.989-.145zm-.054.37.99.145zm-.297.614.705.709zm-.244.242.706.709zm-.243.242-.705-.708zm-.569.428-.496-.868zm-.651.373.496.868zm-.653.369.488.873zm-.655.365-.487-.873zm-.654.368.493.87zm-.652.369-.493-.87zm-.655.366.483.875zm-.657.362-.483-.876zm-.672.302.334.943zm-.686.243-.334-.942zm-.683-.035.421-.908zm-.339-.157.421-.908zm-.339-.157-.42.907zm-.677-.32-.432.903zm-.677-.323.432-.902zm-.677-.322.427-.904zm-.339-.16-.427.905zm-.339-.16-.427.904zm-.678-.32.429-.904zm-.677-.323-.43.903zm-.677-.324-.435.9zm-.675-.327.436-.9zm-.673-.33-.445.895zm-.336-.167.445-.896zm-.336-.167-.445.895zm-.676-.324.417-.908zm-.341-.157.418-.908zm-.341-.156-.418.908zm-.676-.324.446-.895zm-.336-.168-.446.895zm-.335-.167.446-.895zm-.674-.33-.432.901zm-.676-.325.432-.901zm-.678-.32-.424.905zm-.679-.319.424-.906zm-.674-.33-.455.891zm-.334-.17.455-.89zm-.334-.17.455-.891zm-.674-.33-.422.907zm-.68-.316.422-.907zm-.64-.077.262.965zm-.3.081-.261-.965zm-.3.082.262.965zm-.57.34-.693-.72zm-.54.52.693.721zm-.548.513-.672-.741zm-.278.252.671.74zm-.278.251-.672-.74zm-.55.51.688.726zm-.544.517.688.725zm-.544.516.69.724zm-.272.259-.689-.724zm-.271.258.689.725zm-.544.517-.687-.727zm-.545.515.687.726zm-.551.508-.67-.743zm-.558.502.669.743zm-.588.088-.467.884zm-.618-.327.467-.884zm-.625-.366-.539.843zm-.316-.202.539-.842zm-.316-.202-.539.842zm-.631-.405-.54.842zm-.632-.404.54-.842zm-.63-.407-.546.838zm-.628-.41.545-.837zm-.629-.41-.547.838zm-.627-.41.547-.837zm-.952-.6-.527.85zm-.319-.197.527-.85zm-.632-.404-.551.834zm-.626-.413.551-.835zm-.628-.41.541-.841zm-.315-.203-.541.841zm-.316-.203-.541.841zm-.632-.403-.534.846zm-.635-.4.534-.845zm-.632-.403-.543.84zm-.63-.408.543-.84zm-.628-.409.548-.836zm-.627-.411-.549.836zm-.628-.41-.546.837zm-.314-.206-.546.838zm-.314-.204.546-.838zm-.63-.408-.54.842zm-.632-.404-.539.842zm-.636-.397-.519.855zm-.32-.195.519-.855zm-.321-.194-.519.854zm-.65-.374.478-.879zm-.329-.18.478-.878zm-.33-.179-.477.879zm-.654-.367.501-.865zm-.649-.376-.501.866zm-.652-.37-.485.875zm-.328-.181.485-.875zm-.328-.182-.485.874zm-.655-.366-.489.872zm-.327-.183.489-.872zm-.327-.184.489-.872zm-.653-.368-.494.87zm-.653-.37.494-.87zm-.653-.37-.49.872zm-.653-.367.49-.872zm-.652-.371.499-.866zm-.65-.375.5-.866zm-.653-.37.486-.874zm-.327-.181-.486.874zm-.328-.182-.486.874zm-.654-.368-.495.869zm-.652-.371.495-.87zm-.651-.372-.496.868zm-.651-.372.496-.868zm-.633-.234-.154.988zm-.306-.048.154-.988zm-.307-.048-.155.988zm-.558.23.742.67zm-.251.279-.742-.67zm-.251.278.742.67zm-.495.563.76.65zm-.244.286-.76-.65zm-.244.285.76.65zm-.499.56-.732-.683zm-.512.548.731.682zm-.505.554.748.664zm-.249.28-.748-.663zm-.249.281.748.664zm-.493.566-.76-.65zm-.488.57.76.65zm-.491.566.752.66zm-.494.564-.752-.658zm-.502.558.735.679zm-.509.551.735.679zm-.609.191.23-.973zm-.355-.084.23-.973zm-.355-.084-.231.973zm-.716-.188.279-.96zm-.36-.105-.278.96zm-.36-.104-.278.96zm-.722-.201.258-.966zm-.363-.097-.258.966zm-.362-.097-.258.966zm-.722-.203-.283.96zm-.36-.105.282-.96zm-.36-.106-.282.959zm-.72-.208.271-.962zm-.361-.102-.272.963zm-.361-.102-.272.963zm-.722-.203.272-.963zm-.361-.102.272-.963zm-.361-.102-.272.962zm-.725-.184.219-.976zm-.729-.164-.219.976zm-.74-.079-.008-1zm-.75.007.009 1zm-.75.008.013 1zm-.375.004.013 1zm-.375.005-.012-1zm-.75.002-.008 1zm-.375-.004.009-1zm-.375-.003-.008 1zm-2.25-.003.005-1zm-.375-.002-.004 1zm-.375-.002.005-1zm-.75.003-.012-1zm-1.5.007.019-1zm-.75-.014-.018 1zm-.748.011-.047-.999zm-.746.035.048 1zm-.733.122-.276-.962zm-.721.206.276.962zm-.722.203.264.964zm-.362.099-.264-.965zm-.362.099.264.964zm-.721.204.281.96zm-.36.106-.282-.96zm-.36.105-.282-.959zm-.714.026.22-.975zm-.355-.08.22-.975zm-.355-.08-.22.976zm-.705-.214-.358.934zm-.35-.134.358-.934zm-1.051-.401.353-.936zm-.351-.133-.354.935zm-.351-.133.354-.935zm-.702-.263-.349.937zm-.703-.262.35-.937zm-.703-.26-.346.937zm-.703-.26.346-.939zm-.671-.053.236.971zm-.318.077-.236-.972zm-.319.077.235.972zm-.622.298.589.808zm-.303.22.589.81zm-.303.221-.589-.808zm-.602.449-.605-.796zm-.596.454-.606-.796zm-.598.453.601.799zm-.6.45-.601-.799zm-.599.45-.601-.799zm-.3.226.6.8zm-.3.225-.601-.8zm-.601.45.598.8zm-.601.448-.598-.802zm-.638.338.319.947zm-.676.227.32.948zm-.712.108-.016 1zm-.375-.005-.016 1zm-.375-.006.015-1zm-.75-.003.006 1zm-.375.002-.007-1zm-.375.003.006 1zm-.75.005-.009-1zm-.375.003-.009-1zm-.375.003.008 1zm-.75 0 .011-1zm-.375-.005-.012 1zm-.375-.005-.012 1zm-.75-.002-.005-1zm-.75.003-.005-1zm-.75-.001-.009 1zm-.75-.007.008-1zm-.75.002-.014-1zm-.375.005.014 1zm-.375.005.014 1zm-.75.006-.001-1zm-.75 0v1zm-.75 0v1zm-.75 0v1zm-.75-.003.008-1zm-.75-.006-.009 1zm-.747-.02.044-.999zm-.373-.016-.044.999zm-1.442-.307-.365.932zm-.35-.136.365-.932zm-.701-.267.347-.938zm-.703-.26-.346.939zm-.704-.26-.347.938zm-.703-.26.348-.938zm-.704-.26-.343.94zm-.704-.256.343-.94zm-.702-.265-.363.932zm-.35-.136.363-.932zm-.349-.136.362-.932zm-.72-.191-.149.989zm-.741-.112.148-.989zm-.743-.105.132-.99zm-.743-.098-.132.991zm-.743-.105.148-.989zm-.371-.055.148-.99zm-.371-.055-.147.989zm-.742-.107.137-.99zm-.371-.051.136-.991zm-.372-.052-.137.991zm-.742-.106-.148.989zm-.742-.111.148-.99zm-.742-.107-.137.99zm-.743-.103.137-.99zm-.706.025-.223-.974zm-.67.154-.223-.975zm-.619.32-.651-.76zm-.57.488.651.76zm-.573.484.639.769zm-.577.479-.639-.77zm-.573.484-.652-.758zm-.569.489.652.758zm-.893.612-.517-.857zm-.305.183.516.857zm-.676.133.137-.991zm-.372-.052-.137.99zm-.371-.051.137-.991zm-.742-.109-.152.988zm-.741-.114.152-.988zm-.743-.106-.131.991zm-.372-.05.131-.99zm-.372-.048-.13.991zm-.743-.097.128-.992zm-.744-.097-.128.992zm-.743-.105.153-.988zm-.741-.115-.153.989zm-.743-.103-.124.992zm-.744-.093.124-.993zm-.695.078.362.933zm-.646.25-.361-.932zm-.625.348.592.806zm-1.207.89.599.801zm-.6.45.599.8zm-.598.453-.609-.793zm-.595.456.609.793zm-.6.45-.59-.807zm-1.204.895-.615-.789zm-.296.23.615.789zm-.296.231.615.789zm-.597.196-.115.994zm-.605-.07.115-.993zm-.601-.26.604-.797zm-.597-.453-.604.797zm-.603-.447.587-.81zm-.304-.22-.587.81zm-.304-.22.587-.81zm-.604-.445.6-.8zm-.3-.224-.599.8zm-.3-.225.599-.8zm-.599-.45.602-.799zm-.599-.453.603-.798zm-.599-.451.602-.8zm-.599-.451-.601.798zm-.634-.327.289-.957zm-.668-.202-.289.958zm-.706-.055.122.993zm-.373.046-.122-.992zm-.372.046.122.992zm-.744.092-.123-.992zm-.745.092.123.992zm-.745.084.101.995zm-.373.038-.101-.995zm-.373.037-.101-.994zm-1.49.18.126.991zm-.745.08-.089-.997zm-.374.032.088.996zm-.374.033.089.996zm-.746.078.12.993zm-.744.09-.12-.993zm-.745.085.107.994zm-.746.08-.107-.994zm-.743.044.01 1zm-.37.004-.01-1zm-.37.004-.01-1zm-.736-.08-.224.974zm-.731-.168-.224.975zm-.732-.165-.215.977zm-.366-.08.216-.977zm-.366-.082.216-.976zm-.731-.166.226-.974zm-.366-.084.227-.974zm-.365-.085-.226.974zm-.731-.167-.217.976zm-.366-.081.217-.976zm-.366-.082.217-.976zm-.733-.16-.212.977zm-.733-.16.212-.977zm-.732-.16-.218.976zm-.732-.163.217-.977zm-.731-.168.23-.973zm-.73-.174-.231.973zm-.731-.169-.22.976zm-.367-.082-.22.975zm-.366-.083.22-.975zm-.742-.082-.001-1zm-.75 0 .002 1zm-.75.001v1zm-.75 0 .001-1zm-.75.002.008 1zm-.75.006-.008-1zm-.75.008.012 1zm-.75.01.012.999zm-.741-.032-.098.995zm-.734-.072-.097.995zm-.694-.218.488-.874zm-.655-.366-.487.873zm-.653-.368.494-.87zm-.326-.185.494-.87zm-.326-.185-.494.869zm-.654-.368.485-.874zm-.656-.364-.486.874zm-.654-.367.492-.87zm-.653-.369.492-.87zm-.977-.558-.498.868zm-.325-.186.497-.868zm-.654-.368-.483.875zm-.657-.362.484-.876zm-.654-.367-.495.868zm-.651-.372.495-.869zm-.653-.37-.491.871zm-.653-.369.492-.87zm-.652-.37.494-.869zm-.652-.37-.495.87zm-.656-.365-.477.879zm-.659-.358.478-.878zm-.653-.368.504-.864zm-.648-.378-.504.863zm-.649-.376-.498.867zm-.325-.187.498-.867zm-.325-.187.498-.867zm-.656-.364.472-.881zm-.33-.177-.473.882zm-.331-.177.472-.881zm-.656-.364-.5.865zm-.65-.376.5-.866zm-.65-.374.5-.867zm-.324-.187-.499.867zm-.325-.187.498-.867zm-.653-.37-.487.874zm-.328-.182.488-.873zm-.327-.183.487-.873zm-.654-.367-.493.87zm-.326-.186-.493.87zm-.326-.185.494-.87zm-.653-.368-.49.872zm-.654-.368.49-.872zm-.675-.32-.364.931zm-.347-.136.365-.93zm-.348-.136-.364.931zm-.703-.255-.316.949zm-.355-.119.316-.948zm-.356-.118.316-.949zm-.713-.233.303-.953zm-.358-.114.304-.953zm-.357-.114-.303.953zm-.715-.226-.301.953zm-.715-.227.302-.953zm-.712-.235-.326.945zm-.71-.244-.325.945zm-.713-.23.286-.958zm-.36-.107-.286.958zm-.359-.108.286-.958zm-.715-.225.314-.95zm-.712-.236-.315.95zm-.713-.235-.31.95zm-.712-.233.31-.95zm-.714-.23.304-.953zm-.714-.229-.305.953zm-.714-.231.312-.95zm-.713-.234-.311.95zm-.713-.232.308-.952zm-.356-.116-.309.952zm-.357-.115-.308.951zm-.716-.224-.289.957zm-.36-.108.29-.958zm-.358-.109-.289.958zm-.661.023.398.918zm-.603.262-.399-.917zm-.576.388-.684-.73zm-.273.256-.684-.73zm-.274.257.684.73zm-.544.516-.693-.72zm-.54.52.692.72zm-.544.517.687.727zm-.545.515-.686-.728zm-.546.514.684.73zm-.274.256-.684-.73zm-.824.766-.675-.738zm-.554.506.675.738zm-.549.508.684.73zm-.272.254-.683-.73zm-.272.255.683.73zm-.623.123-.352.936zm-.351-.132.351-.936zm-.351-.132.352-.936zm-1.055-.391-.346.938zm-.352-.13.346-.938zm-.704-.26.348-.937zm-.703-.26.347-.938zm-.702-.264-.356.935zm-.701-.266.356-.935zm-.702-.263.346-.939zm-.704-.26.346-.938zm-.681-.006-.352-.936zm-.658.248.352.936zm-.658.303.48.877zm-.329.18-.48-.876zm-.329.18-.48-.876zm-.651.372-.51-.86zm-.323.192.51.86zm-.323.191.51.86zm-.652.37-.474-.882zm-.33.177-.474-.881zm-.331.177.473.881zm-.654.368.506.862zm-.647.38-.506-.863zm-.654.367.473.881zm-.661.354-.473-.881zm-.657.363.495.869zm-.325.185.494.87zm-.326.186-.495-.87zm-.67.304-.328-.945zm-.69.239.328.945zm-.719.114.014-1zm-.375-.005.014-1zm-.375-.005-.013 1zm-.75-.003.006 1zm-.75.004-.005-1zm-.75.003v-1zm-1.5 0 .004-1zm-.375-.002.004-1zm-.375-.001-.003 1zm-.75-.005-.01 1zm-.375-.004.01-1zm-.375-.004.01-1zm-.75.002-.016-1zm-.375.006-.016-1zm-.375.006.017 1zm-.75.007v-1zm-.75 0v1zm-.72.072.205.98zm-.689.145-.204-.98zm-.603.343.724.69zm-.258.272-.725-.69zm-.773.818.733.68zm-.255.275.733.68zm-.255.274-.733-.68zm-.515.546.722.692zm-.26.27-.721-.691zm-.259.271.722.692zm-.518.542.723.69zm-.26.271-.723-.69zm-.258.272-.724-.69zm-.52.54-.718-.696zm-.262.27.718.696zm-.26.268-.718-.696zm-.521.54.723.691zm-.518.543-.723-.69zm-.514.546-.732-.681zm-.256.274-.732-.68zm-.255.275.732.681zm-.519.542.713.701zm-.526.534-.713-.7zm-.4.418-.74-.673zm-.138.151.74.674zm-.137.15-.739-.673zm-.139.15.69-.723zm-.001-.002-.69.724-.696-.665.636-.72zm.066-.075-.723-.69 1.473 1.352zM308 38.317l-.982.187-.019-.099.982-.186.983-.187.018.098zm-.019-.098-.981.192-.135-.687.981-.192.982-.193.135.687zm-.135-.687-.981.192a60 60 0 0 1-.203-1.077l.985-.172.985-.171q.061.352.196 1.035zm-.199-1.057-.985.172-.064-.37.985-.171.985-.172.064.37zm-.064-.37-.985.172-.065-.369.985-.172.986-.171.064.37zm-.065-.369-.985.172a29 29 0 0 0-.133-.714l.981-.195.981-.195q.075.38.142.76zm-.137-.737-.981.195-.073-.368.981-.195.98-.195.074.368zm-.073-.368-.981.195-.073-.367.98-.196.981-.195.073.368zm-.074-.368-.98.196-.147-.733.98-.198.981-.197.147.737zm-.147-.735-.98.197-.074-.367.98-.198.98-.197.075.367zm-.074-.368-.98.198-.074-.368.98-.197.98-.198.074.368zm-.074-.367-.98.197a22 22 0 0 1-.142-.77l.986-.165.986-.165q.06.354.13.705zm-.136-.738-.986.165-.062-.37.986-.165.987-.165.061.37zm-.062-.37-.986.165-.062-.37.986-.165.987-.165.062.37zm-.062-.37-.986.165a16 16 0 0 0-.132-.695l.979-.207.978-.207q.082.388.148.78zm-.139-.737-.979.207-.077-.366.978-.208.978-.207.078.367zm-.078-.367-.978.207-.078-.367.978-.207.979-.207.077.367zm-.078-.367-.978.207a33 33 0 0 1-.151-.76l.984-.182.983-.182q.066.356.141.71zm-.145-.735-.984.182-.068-.37.983-.181.984-.182.068.369zm-.069-.369-.983.182-.068-.369.983-.182.984-.182.068.37zm-.068-.369-.983.182q-.067-.36-.139-.72l.98-.198.98-.198q.076.375.146.752zm-.142-.736-.98.197-.074-.367.98-.198.98-.197.074.367zm-.074-.368-.98.198-.074-.368.98-.197.98-.198.074.368zm-.074-.367-.98.197a23 23 0 0 1-.142-.773l.987-.162.987-.163q.057.353.128.703zm-.135-.738-.987.162-.061-.37.987-.162.987-.163.061.37zm-.061-.37-.987.162-.061-.37.987-.162.987-.163.061.37zm-.061-.37-.987.162a15 15 0 0 0-.13-.693l.979-.207.978-.206q.082.389.147.781zm-.138-.738-.979.207-.077-.367.978-.207.979-.206.077.367zm-.078-.367-.978.207-.078-.367.979-.206.978-.207.078.367zm-.077-.366-.979.206a28 28 0 0 1-.15-.762l.984-.18.983-.18q.065.355.14.709zm-.145-.736-.984.18-.068-.37.984-.18.984-.18.067.37zm-.068-.37-.984.18-.067-.368.984-.18.983-.18.068.369zm-.067-.368-.984.18-.136-.73.982-.187.982-.187q.072.371.139.744zm-.138-.738-.982.188-.07-.369.982-.187.982-.187.07.369zm-.07-.368-.982.187-.071-.368.983-.187.982-.187.07.368zm-.07-.368-.983.187-.14-.736.982-.188.982-.188.141.738zm-.141-.737-.982.188-.071-.368.982-.188.983-.188.07.368zm-.071-.368-.982.188-.07-.368.982-.188.982-.189.071.369zm-.07-.368-.982.188-.142-.737.983-.188.982-.189.141.737zm-.141-.737-.983.188-.07-.368.982-.188.982-.189.071.369zm-.071-.368-.982.188-.071-.368.982-.189.982-.188.071.368zm-.071-.369-.982.189a63 63 0 0 1-.139-.747l.983-.179.984-.179q.066.365.136.728zm-.138-.737-.983.179-.068-.369.984-.179.984-.179.067.37zm-.067-.369-.984.18-.067-.37.984-.179.984-.179.067.37zm-.067-.369-.984.18-.134-.738.984-.18.983-.18.135.74zm-.134-.738-.984.18-.068-.368.984-.18.984-.18.067.368zm-.068-.369-.984.18-.067-.368.984-.18.983-.18.068.368zm-.067-.368-.984.18q-.065-.354-.14-.706l.977-.21.978-.21q.082.382.152.765zm-.147-.736-.977.21-.079-.367.978-.21.977-.21.079.367zm-.078-.367-.978.21-.079-.367.978-.21.978-.21.078.367zm-.079-.367-.978.21a25 25 0 0 1-.152-.767l.984-.178.984-.178q.064.353.14.704zm-.146-.735-.984.178-.066-.37.984-.177.984-.178.066.369zm-.066-.37-.984.179-.067-.37.984-.177.984-.178.067.369zm-.067-.368-.984.178-.132-.747.985-.17.986-.17q.063.366.129.73zm-.131-.739-.985.17-.064-.37.985-.17.986-.17.064.37zm-.064-.37-.985.17-.064-.37.986-.17.985-.169.064.37zm-.063-.37-.986.17q-.06-.353-.133-.704l.979-.202.98-.202q.079.383.145.769zm-.14-.736-.979.202-.076-.367.979-.202.98-.202.076.367zm-.076-.367-.979.202-.076-.368.98-.202.979-.202.076.368zm-.075-.368-.98.202a39 39 0 0 1-.148-.755l.984-.183.983-.182q.066.36.14.716zm-.144-.736-.984.182-.068-.368.983-.182.983-.183.069.37zm-.069-.368-.983.182-.068-.369.983-.182.983-.182.068.368zm-.068-.37-.983.183-.138-.73.982-.19.982-.188.14.744zm-.139-.736-.982.189-.071-.368.982-.19.982-.188.071.368zm-.071-.368-.982.189-.071-.368.982-.19.982-.189.071.369zm-.071-.369-.982.19-.142-.737.982-.189.982-.19.142.737zm-.142-.736-.982.189-.071-.368.982-.19.982-.188.071.368zm-.071-.368-.982.189-.071-.368.982-.19.982-.189.071.369zm-.071-.369-.982.19-.143-.731.981-.195.981-.194.145.741zm-.144-.736-.981.195-.073-.368.981-.194.981-.195.073.368zm-.073-.367-.981.194-.073-.368.981-.194.981-.195.073.368zm-.073-.368-.981.194q-.074-.373-.143-.748l.983-.183.983-.182q.067.362.139.724zm-.141-.737-.983.183-.069-.369.983-.183.984-.182.068.369zm-.069-.369-.983.183-.068-.369.983-.182.983-.183.069.369zm-.068-.368-.983.182-.136-.745.985-.175.984-.175.133.73zm-.134-.738-.985.175-.065-.37.984-.174.985-.176.065.37zm-.066-.37-.984.176-.066-.37.984-.175.985-.175.066.37zm-.066-.369-.984.176c-.009-.049-.009-.035.006.009.005.014.033.098.099.198a.98.98 0 0 0 .826.433c.542-.005.793-.41.822-.456a.8.8 0 0 0 .095-.204c.014-.044.013-.058.006-.01l-.99-.144-.989-.145c.011-.075.029-.182.061-.288.015-.046.05-.155.124-.273.039-.062.3-.474.852-.48.547-.005.817.397.856.456.077.115.115.222.131.267.035.105.057.211.07.286zm-.12.002.99.144-.054.37-.99-.144-.989-.145.054-.37zm-.054.37.99.145-.054.37-.99-.145-.989-.144.054-.37zm-.054.37.99.145q-.055.375-.113.749l-.988-.153-.988-.152.11-.733zm-.111.741.988.153-.057.37-.988-.152-.988-.152.057-.37zm-.057.371.988.152-.057.371-.988-.152-.989-.153.058-.37zm-.057.37.988.153-.113.738-.988-.149-.989-.15.113-.744zm-.113.742.988.15-.056.37-.988-.15-.989-.148.056-.371zm-.056.37.988.15-.056.371-.988-.15-.989-.149.056-.37zm-.056.372.988.149q-.057.383-.125.765l-.985-.174-.985-.175q.064-.357.118-.715zm-.122.74.985.174-.066.37-.984-.175-.985-.174.065-.37zm-.065.37.984.174-.065.37-.985-.175-.985-.175.066-.37zm-.066.369.985.174q-.061.348-.108.698l-.992-.131-.991-.132q.052-.394.121-.784zm-.115.74.992.132-.05.372-.991-.132-.991-.131.049-.372zm-.049.372.991.132-.049.372-.992-.132-.991-.131.05-.372zm-.05.372.992.132q-.052.39-.118.778l-.986-.168-.986-.168q.06-.353.107-.705zm-.112.742.986.168-.063.37-.986-.168-.986-.168.063-.37zm-.063.37.986.167-.063.37-.986-.168-.986-.168.063-.37zm-.063.37.986.167q-.062.358-.114.718l-.989-.145-.99-.145q.057-.383.121-.764zm-.117.74.989.145-.054.37-.989-.144-.99-.144.054-.372zm-.054.371.989.145-.054.37-.99-.144-.989-.144.054-.371zm-.055.371.99.145-.112.749-.989-.152-.988-.152.11-.734zm-.111.742.989.152-.057.37-.989-.151-.988-.152.057-.37zm-.057.37.989.152-.057.37-.988-.15-.989-.152.057-.371zm-.056.371.988.152q-.056.364-.107.73l-.99-.14-.991-.139q.054-.377.111-.754zm-.109.742.99.14-.052.37-.99-.138-.991-.14.052-.37zm-.052.372.99.139-.052.37-.99-.138-.991-.139.052-.371zm-.052.371.99.139q-.053.378-.111.755l-.988-.152-.989-.151q.056-.364.107-.73zm-.109.742.988.152-.057.37-.988-.151-.989-.152.057-.37zm-.057.37.988.152-.056.371-.989-.152-.988-.15.056-.372zm-.057.371.989.152q-.059.378-.122.756l-.986-.167-.986-.167q.061-.362.117-.725zm-.119.741.986.167-.063.37-.986-.167-.986-.168.063-.37zm-.063.37.986.167-.063.37-.986-.167-.986-.168.063-.37zm-.063.37.986.167q-.06.356-.111.714l-.99-.14-.99-.141q.054-.384.119-.768zm-.115.74.99.141-.053.371-.99-.14-.99-.14.053-.372zm-.053.372.99.14-.053.372-.99-.14-.99-.141.053-.372zm-.053.371.99.14a48 48 0 0 1-.112.756l-.988-.154-.988-.154q.057-.364.108-.728zm-.11.742.988.154-.058.37-.988-.154-.988-.154.058-.37zm-.058.37.988.155-.058.37-.988-.154-.988-.154.058-.37zm-.058.371.988.154-.111.732-.989-.144-.99-.145q.055-.376.114-.751zm-.112.742.989.144-.054.371-.989-.144-.99-.145.054-.37zm-.054.37.989.145-.054.371-.99-.144-.989-.145.054-.37zm-.055.372.99.144q-.056.378-.116.756l-.987-.159-.988-.159q.059-.363.112-.727zm-.113.741.987.16-.06.37-.987-.16-.987-.159.059-.37zm-.06.37.987.16-.059.37-.988-.16-.987-.159.06-.37zm-.06.37.988.16q-.058.355-.105.713l-.991-.13-.992-.13q.051-.387.113-.772zm-.108.743.991.13-.048.372-.992-.13-.991-.13.048-.372zm-.049.372.992.13-.049.371-.992-.13-.991-.13.049-.371zm-.049.372.992.13q-.05.383-.109.764l-.988-.152-.989-.152q.055-.36.103-.72zm-.105.742.988.152-.057.37-.988-.151-.989-.153.057-.37zm-.057.37.988.153-.057.37-.989-.152-.988-.152.057-.37zm-.058.371.989.152-.115.744-.988-.155-.988-.154.114-.739zm-.114.741.988.155-.058.37-.988-.154-.988-.154.058-.37zm-.058.37.988.155-.058.37-.988-.154-.988-.154.058-.37zm-.058.371.988.155q-.057.364-.11.73l-.99-.143-.989-.143q.054-.377.113-.753zm-.112.742.99.143-.054.371-.989-.143-.99-.143.054-.371zm-.053.371.989.143-.053.372-.99-.144-.99-.143.054-.371zm-.054.371.99.144-.114.753-.988-.155-.988-.155q.057-.364.11-.73zm-.112.742.988.155-.058.37-.988-.155-.988-.154.058-.37zm-.058.37.988.155-.058.37-.988-.154-.988-.155.058-.37zm-.058.371.988.155-.119.746-.987-.16-.987-.16q.06-.368.117-.736zm-.118.74.987.161-.061.37-.987-.16-.987-.16.061-.37zm-.061.37.987.161-.06.37-.987-.16-.987-.16.06-.37zm-.06.37.987.161-.116.734-.988-.153-.989-.153.119-.749zm-.117.742.988.153-.057.37-.989-.153-.988-.153.057-.37zm-.058.37.989.153-.058.37-.988-.152-.988-.153.057-.37zm-.057.37.988.154-.108.73-.99-.141-.99-.14q.054-.378.112-.755zm-.11.743.99.14-.053.371-.99-.14-.99-.14.053-.372zm-.053.371.99.14-.052.372-.99-.14-.99-.141.052-.371zm-.052.371.99.14-.107.746-.99-.143-.989-.144.106-.74zm-.107.743.99.143-.054.371-.99-.143-.989-.144.054-.37zm-.054.37.99.144-.054.371-.989-.143-.99-.144.054-.37zm-.053.372.989.143q-.055.387-.123.77l-.985-.172-.985-.173q.062-.354.114-.712zm-.119.74.985.173-.064.37-.985-.173-.986-.172.065-.37zm-.064.37.985.172-.065.37-.985-.172-.985-.173.064-.37zm-.065.37.985.172q-.063.36-.119.722l-.988-.154-.988-.155q.059-.379.125-.758zm-.122.74.988.154-.058.37-.988-.154-.988-.154.058-.37zm-.058.37.988.154-.058.37-.988-.153-.988-.155.058-.37zm-.058.37.988.155q-.057.365-.109.729l-.99-.142-.99-.141q.054-.377.113-.755zm-.111.742.99.142-.053.371-.99-.141-.99-.142.053-.371zm-.053.372.99.141-.053.371-.99-.141-.99-.142.053-.37zm-.053.37.99.142-.108.745-.989-.144-.99-.144.107-.74zm-.107.743.989.144-.054.371-.989-.144-.99-.144.054-.37zm-.054.371.989.144-.054.371-.989-.144-.99-.144.054-.37zm-.054.371.989.144q-.054.375-.112.75l-.988-.152-.989-.151q.057-.367.11-.735zm-.111.742.988.151-.056.371-.989-.151-.988-.151.056-.371zm-.057.37.989.152-.057.37-.989-.15-.988-.152.057-.37zm-.057.372.989.15-.112.74-.989-.149-.989-.148.113-.745zm-.112.741.989.148-.055.371-.989-.148-.989-.148.055-.371zm-.055.371.989.148-.056.371-.989-.148-.989-.148.056-.371zm-.056.37.989.15q-.057.377-.119.755l-.987-.163-.987-.164q.061-.362.115-.725zm-.117.742.987.163-.062.37-.986-.163-.987-.164.061-.37zm-.061.37.986.163-.061.37-.987-.163-.986-.164.061-.37zm-.062.37.987.163q-.06.36-.113.722l-.989-.144-.99-.145q.056-.38.119-.76zm-.115.74.989.145-.054.371-.99-.144-.989-.145.054-.371zm-.055.372.99.144-.054.372-.99-.145-.989-.145.054-.371zm-.054.37.99.145c-.065.44-.252.85-.582 1.178l-.705-.709-.706-.709.002-.001q-.002 0 0 0a.2.2 0 0 0 .012-.048zm-.297.614.705.709-.243.242-.706-.709-.705-.709.243-.242zm-.244.242.706.709-.243.242-.706-.709-.705-.708.243-.243zm-.243.242.706.709a3.7 3.7 0 0 1-.779.588l-.496-.868-.496-.869c.148-.084.265-.175.36-.268zm-.569.428.496.869-.325.186-.496-.868-.497-.869.326-.186zm-.325.187.496.868-.326.186-.496-.868-.496-.868.325-.187zm-.326.186.496.868q-.33.188-.661.374l-.488-.873-.488-.873q.324-.18.645-.364zm-.653.369.488.873-.328.182-.487-.873-.488-.873.327-.182zm-.327.183.487.872-.327.183-.488-.873-.487-.873.327-.183zm-.328.182.488.873-.649.365-.493-.87-.492-.87q.329-.187.659-.37zm-.654.368.493.87-.327.185-.492-.87-.492-.871.326-.185zm-.326.184.492.87-.326.185-.492-.87-.493-.87.327-.185zm-.326.185.492.87q-.331.188-.664.371l-.483-.875-.483-.876.645-.36zm-.655.366.483.875-.329.181-.483-.875-.483-.876.329-.181zm-.329.18.483.876-.328.181-.483-.875-.483-.876.328-.181zm-.328.182.483.875q-.398.22-.821.37l-.334-.943-.333-.942q.264-.093.522-.236zm-.672.302.334.943-.344.121-.333-.942-.333-.943.343-.121zm-.343.122.333.942-.343.122-.333-.943-.334-.942.344-.122zm-.343.121.333.943c-.482.17-.98.14-1.436-.07l.42-.908.421-.908c.008.004-.003-.002-.028-.004q-.018 0-.031.002l-.013.002zm-.683-.035-.42.907-.339-.157.42-.907.421-.908.339.157zm-.339-.157-.42.907-.339-.157.42-.907.42-.908.34.157zm-.339-.157-.42.907q-.345-.159-.689-.324l.432-.902.432-.902q.332.159.665.313zm-.677-.32-.432.903-.338-.162.432-.902.431-.902.339.162zm-.338-.161-.432.902-.338-.162.431-.902.432-.902.338.162zm-.339-.162-.431.902-.673-.32.427-.904.427-.904q.341.16.682.324zm-.677-.322-.427.905-.339-.16.427-.905.427-.904.339.16zm-.339-.16-.427.905-.339-.16.427-.905.427-.904.339.16zm-.339-.16-.427.904-.681-.322.43-.903.429-.903.676.32zm-.678-.32-.43.902-.338-.16.429-.904.43-.903.338.161zm-.339-.162-.429.903-.339-.16.43-.904.429-.903.339.16zm-.338-.161-.43.903q-.342-.162-.682-.327l.435-.9.436-.9q.334.161.67.32zm-.677-.324-.435.9-.338-.164.436-.9.435-.9.338.163zm-.337-.164-.436.9-.337-.163.435-.9.436-.9.337.163zm-.338-.163-.435.9a62 62 0 0 1-.683-.335l.445-.895.445-.896q.331.165.664.326zm-.673-.33-.445.895-.336-.167.445-.895.445-.896.336.167zm-.336-.167-.445.895-.336-.167.445-.895.445-.896.336.167zm-.336-.167-.445.895q-.322-.16-.649-.31l.418-.909.417-.908q.355.162.704.336zm-.676-.324-.418.909-.341-.157.418-.909.418-.908.34.157zm-.341-.157-.418.909-.341-.157.418-.908.418-.909.341.157zm-.341-.156-.418.908a24 24 0 0 1-.705-.338l.447-.894.446-.895q.322.16.648.31zm-.676-.324-.447.894-.335-.167.446-.895.447-.895.335.168zm-.336-.168-.446.895-.336-.168.447-.894.446-.895.336.167zm-.335-.167-.447.894q-.329-.164-.659-.322l.432-.902.432-.902q.346.166.688.337zm-.674-.33-.432.901-.339-.162.433-.901.432-.902.338.162zm-.338-.162-.433.901-.338-.162.433-.901.432-.902.338.162zm-.338-.163-.433.902-.669-.317.424-.906.424-.905q.344.16.686.325zm-.678-.32-.424.905-.34-.16.424-.905.425-.905.339.159zm-.34-.16-.424.906-.339-.16.424-.905.424-.906.34.16zm-.339-.159-.424.906a23 23 0 0 1-.705-.345l.455-.89.455-.891q.319.162.643.314zm-.674-.33-.455.891-.334-.17.455-.891.455-.89.334.17zm-.334-.17-.455.89-.334-.17.455-.89.455-.891.334.17zm-.334-.17-.455.89a20 20 0 0 0-.641-.313l.422-.906.422-.907q.357.166.707.345zm-.674-.33-.422.907-.34-.158.422-.907.422-.906.34.158zm-.34-.158-.422.907-.34-.158.422-.907.422-.907.34.159zm-.34-.158-.422.907c-.033-.016-.041-.014-.028-.013q.011.002.031.001a.2.2 0 0 0 .041-.007l-.262-.965-.262-.965c.473-.128.93-.048 1.324.136zm-.64-.077.262.965-.3.082-.262-.966-.261-.965.299-.081zm-.3.081.262.966-.3.08-.262-.965-.261-.965.3-.08zm-.3.082.262.965c-.007.002-.054.015-.138.096l-.694-.72-.693-.72a2.3 2.3 0 0 1 1.002-.587zm-.57.34.694.721-.27.26-.694-.72-.693-.72.27-.26zm-.27.26.694.721-.271.26-.693-.72-.693-.72.27-.26zm-.27.26.693.721q-.28.27-.57.533l-.671-.741-.672-.741q.267-.242.527-.492zm-.548.513.671.74-.278.253-.671-.741-.672-.742.278-.251zm-.278.252.671.74-.278.252-.671-.74-.672-.742.278-.252zm-.278.251.671.741q-.269.244-.533.495l-.688-.726-.688-.725q.28-.267.566-.526zm-.55.51.688.726-.272.258-.688-.726-.688-.725.272-.258zm-.272.258.688.726-.272.258-.688-.725-.689-.726.273-.258zm-.272.258.688.726-.542.515-.69-.724-.689-.724.544-.518zm-.544.517.69.724-.272.259-.69-.724-.689-.724.272-.26zm-.272.259.69.724-.272.259-.689-.725-.69-.724.272-.258zm-.271.258.689.725-.546.518-.687-.727-.687-.726.541-.514zm-.544.517.687.726-.273.258-.687-.727-.687-.727.273-.257zm-.273.257.687.727-.272.257-.687-.726-.687-.727.272-.258zm-.272.258.687.726q-.281.267-.569.525l-.669-.743-.67-.743q.27-.243.534-.492zm-.551.508.669.743-.279.251-.669-.743-.669-.743.278-.25zm-.279.251.669.743-.279.251-.669-.743-.669-.743.279-.25zm-.279.251.669.743c-.2.181-.47.344-.808.394a1.48 1.48 0 0 1-.916-.165l.467-.884.468-.884a.52.52 0 0 0-.313-.045.47.47 0 0 0-.236.098zm-.588.088-.467.884-.309-.163.467-.884.467-.885.31.164zm-.309-.163-.467.884-.31-.164.468-.884.467-.884.309.163zm-.309-.164-.468.884a10 10 0 0 1-.696-.407l.539-.843.539-.842q.283.181.553.324zm-.625-.366-.539.843-.316-.203.539-.842.539-.842.316.202zm-.316-.202-.539.842-.316-.202.539-.842.539-.842.316.202zm-.316-.202-.539.842-.632-.405.54-.842.539-.842.631.405zm-.631-.405-.54.842-.316-.202.54-.842.539-.842.316.202zm-.316-.202-.54.842-.315-.202.539-.842.54-.842.315.202zm-.316-.202-.539.842q-.32-.204-.637-.411l.546-.838.546-.838q.31.203.624.403zm-.63-.407-.546.838-.314-.205.546-.838.546-.838.314.205zm-.314-.205-.546.838-.314-.205.546-.837.545-.838.315.204zm-.314-.204-.546.837-.63-.41.547-.837.547-.837.627.409zm-.629-.41-.547.837-.313-.205.546-.837.547-.837.314.205zm-.314-.205-.546.837-.314-.205.547-.837.547-.838.313.206zm-.313-.205-.547.837a30 30 0 0 0-.613-.39l.527-.85.526-.85q.33.204.654.415zm-.633-.403-.527.85-.319-.197.527-.85.526-.85.319.197zm-.319-.197-.527.85-.318-.198.526-.85.527-.85.318.197zm-.319-.198-.526.85q-.331-.205-.657-.42l.551-.834.551-.835q.301.199.608.389zm-.632-.404-.551.834-.313-.206.551-.835.551-.834.313.206zm-.313-.207-.551.835-.313-.207.551-.834.551-.835.313.207zm-.313-.206-.551.834q-.308-.204-.618-.403l.541-.841.541-.841q.32.206.638.416zm-.628-.41-.541.841-.315-.203.541-.84.54-.842.316.203zm-.315-.203-.541.841-.316-.203.541-.84.541-.842.315.203zm-.316-.203-.541.841-.625-.398.534-.846.533-.845q.32.202.64.407zm-.632-.403-.534.846-.317-.2.533-.846.534-.845.317.2zm-.318-.2-.533.846-.317-.2.533-.846.534-.845.317.2zm-.317-.2-.533.846a64 64 0 0 1-.642-.41l.543-.84.543-.84q.31.201.623.399zm-.632-.403-.543.84-.315-.204.543-.84.543-.84.315.204zm-.315-.204-.543.84-.315-.204.543-.84.543-.84.315.204zm-.315-.204-.543.84-.634-.413.549-.836.548-.836.623.406zm-.628-.409-.549.836-.313-.206.548-.836.549-.836.313.206zm-.314-.206-.548.837-.314-.206.549-.836.548-.837.314.206zm-.313-.205-.549.836-.625-.41.546-.837.546-.838.63.413zm-.628-.41-.546.837-.314-.205.546-.838.546-.837.314.204zm-.314-.206-.546.838-.314-.205.546-.837.546-.838.314.205zm-.314-.204-.546.837q-.311-.203-.624-.403l.54-.842.539-.842.637.412zm-.63-.408-.54.842-.315-.202.539-.842.54-.842.315.203zm-.316-.202-.539.842-.316-.202.539-.842.54-.842.316.202zm-.316-.202-.539.842a30 30 0 0 0-.616-.384l.519-.855.519-.855q.331.2.657.41zm-.636-.397-.519.855-.321-.195.52-.855.519-.855.32.195zm-.32-.195-.52.855-.32-.195.519-.855.519-.854.321.194zm-.321-.194-.519.854a15 15 0 0 0-.609-.35l.478-.878.478-.879q.35.19.691.398zm-.65-.374-.478.878-.329-.18.478-.878.478-.878.329.18zm-.329-.18-.478.879-.329-.18.477-.878.478-.878.33.179zm-.33-.179-.477.879a28 28 0 0 1-.678-.38l.501-.866.501-.865q.313.18.631.354zm-.654-.367-.501.865-.324-.187.501-.866.501-.865.324.188zm-.324-.188-.501.866-.325-.188.501-.866.501-.865.325.188zm-.325-.188-.501.866a41 41 0 0 0-.636-.361l.485-.875.485-.874q.336.186.668.379zm-.652-.37-.485.875-.328-.182.485-.874.485-.875.328.182zm-.328-.181-.485.874-.328-.182.485-.874.485-.875.328.182zm-.328-.182-.485.874-.659-.368.489-.872.489-.872.651.363zm-.655-.366-.489.872-.327-.183.489-.872.489-.872.327.183zm-.327-.183-.489.872-.327-.184.489-.872.489-.872.327.184zm-.327-.184-.489.872-.658-.37.494-.87.493-.87q.324.184.649.366zm-.653-.368-.494.87-.326-.186.493-.87.494-.87.326.186zm-.327-.185-.493.87-.326-.186.493-.87.494-.87.326.186zm-.326-.186-.493.87-.65-.367.49-.871.49-.872.657.37zm-.653-.368-.49.871-.327-.184.49-.871.49-.872.327.184zm-.327-.184-.49.871-.326-.183.49-.872.49-.872.326.184zm-.326-.184-.49.872a61 61 0 0 1-.662-.377l.5-.866.499-.866q.32.185.643.365zm-.652-.371-.5.866-.325-.187.5-.867.5-.866.324.188zm-.325-.187-.5.866-.325-.188.5-.866.5-.866.325.187zm-.325-.188-.5.866a40 40 0 0 0-.638-.361l.485-.874.486-.875q.335.186.667.378zm-.653-.37-.485.875-.328-.182.486-.874.485-.875.328.182zm-.327-.181-.486.874-.328-.182.486-.874.485-.875.328.182zm-.328-.182-.486.874-.663-.373.495-.869.495-.869q.321.183.644.362zm-.654-.368-.495.869-.326-.186.495-.869.495-.869.326.186zm-.326-.186-.495.87-.326-.186.495-.87.495-.868.326.185zm-.326-.185-.495.869-.652-.373.496-.868.496-.868.65.37zm-.651-.372-.496.868-.326-.186.496-.868.496-.868.326.186zm-.326-.186-.496.868-.326-.186.497-.868.496-.868.325.186zm-.325-.186-.497.868a.9.9 0 0 0-.29-.114l.154-.988.155-.988c.347.054.673.182.974.354zm-.633-.234-.154.988-.307-.048.155-.988.154-.988.307.048zm-.306-.048-.155.988-.307-.048.155-.988.155-.988.306.048zm-.307-.048-.155.988a.47.47 0 0 0 .244-.03c.074-.03.103-.066.095-.058l-.742-.67-.742-.67c.339-.376.844-.644 1.455-.548zm-.558.23.742.67-.251.279-.742-.67-.742-.67.251-.279zm-.251.279.742.67-.251.278-.742-.67-.743-.67.252-.278zm-.251.278.742.67q-.243.269-.477.543l-.76-.65-.761-.65q.254-.294.513-.583zm-.495.563.76.65-.244.285-.76-.65-.76-.65.243-.284zm-.244.286.76.65-.244.284-.76-.65-.76-.65.244-.284zm-.244.285.76.65q-.258.3-.528.591l-.731-.682-.732-.682q.242-.258.471-.527zm-.499.56.731.681-.256.275-.731-.683-.731-.682.255-.274zm-.256.273.731.683-.256.274-.731-.682-.731-.682.256-.275zm-.256.275.731.682q-.248.266-.488.536l-.748-.664-.748-.664q.258-.289.522-.572zm-.505.554.748.664-.249.28-.748-.663-.748-.664.249-.28zm-.249.28.748.665-.249.28-.748-.664-.748-.664.249-.28zm-.249.281.748.664q-.244.274-.481.552l-.76-.65-.76-.65q.25-.292.505-.58zm-.493.566.76.65-.244.285-.76-.65-.759-.651.243-.285zm-.244.284.76.65-.244.286-.76-.65-.759-.651.244-.285zm-.244.285.76.65q-.247.29-.499.576l-.752-.659-.752-.659q.243-.278.484-.558zm-.491.567.752.66-.247.281-.752-.659-.752-.659.247-.282zm-.247.282.752.66-.247.281-.752-.659-.752-.658.247-.283zm-.247.282.752.66q-.255.29-.519.577l-.735-.679-.734-.678q.246-.267.484-.538zm-.502.558.735.679-.255.275-.734-.678-.735-.679.255-.276zm-.254.276.734.678-.254.276-.735-.679-.734-.678.254-.276zm-.255.275.735.679c-.406.44-.975.628-1.575.486l.231-.974.23-.973a.4.4 0 0 0-.2.014.4.4 0 0 0-.155.09zm-.609.191-.231.974-.355-.084.231-.974.23-.973.355.084zm-.355-.084-.231.974-.355-.085.231-.973.23-.973.355.084zm-.355-.084-.231.973a16 16 0 0 1-.763-.2l.278-.961.279-.96q.337.096.667.175zm-.716-.188-.278.96-.36-.104.278-.96.279-.961.36.104zm-.36-.105-.278.96-.36-.104.278-.96.279-.96.36.104zm-.36-.104-.278.96a36 36 0 0 0-.702-.195l.258-.966.258-.966q.372.1.743.206zm-.722-.201-.258.966-.363-.097.258-.966.258-.966.363.096zm-.363-.097-.258.966-.362-.097.258-.966.258-.966.362.097zm-.362-.097-.258.966a30 30 0 0 1-.747-.21l.283-.959.282-.959q.347.102.698.196zm-.722-.203-.283.96-.359-.106.282-.96.282-.959.36.106zm-.36-.105-.282.959-.36-.106.282-.96.283-.959.359.106zm-.36-.106-.282.959q-.354-.105-.71-.205l.272-.962.271-.962.732.21zm-.72-.208-.272.962-.361-.101.272-.963.271-.962.361.102zm-.361-.102-.272.963-.361-.102.272-.963.271-.962.361.102zm-.361-.102-.272.963-.722-.204.272-.962.272-.963.721.204zm-.722-.203-.272.962-.361-.102.272-.962.272-.963.361.102zm-.361-.102-.272.962-.361-.102.272-.962.272-.963.361.102zm-.361-.102-.272.962a13 13 0 0 0-.672-.17l.219-.976.219-.976q.391.088.778.197zm-.725-.184-.219.976-.365-.082.219-.976.22-.976.364.082zm-.365-.082-.219.976-.364-.082.219-.976.219-.976.365.082zm-.364-.082-.219.976a2.2 2.2 0 0 0-.512-.055l-.009-1-.008-1q.49-.003.967.103zm-.74-.079.009 1-.375.004-.009-1-.008-1 .375-.004zm-.375.004.009 1-.375.003-.009-1-.008-1 .375-.003zm-.375.003.009 1-.746.008-.013-1-.012-1 .754-.008zm-.75.008.013 1-.375.004-.013-1-.012-1 .375-.004zm-.375.004.013 1-.375.005-.013-1-.012-1 .375-.005zm-.375.005.013 1q-.386.005-.771.002l.008-1 .009-1q.365.003.729-.002zm-.75.002-.008 1-.375-.004.008-1 .009-1 .375.004zm-.375-.004-.008 1-.375-.003.008-1 .009-1 .375.003zm-.375-.003-.008 1-.741-.003-.001-1v-1l.759.003zm-.75-.003.001 1h-.375l-.001-1v-1h.375zm-.375 0 .001 1-.375.001-.001-1v-1h.375zm-.375.001.001 1q-.378 0-.755-.002l.004-1 .005-1q.372.003.745.002zm-.75-.001-.004 1-.375-.002.004-1 .005-1 .375.002zm-.375-.002-.004 1-.375-.002.004-1 .005-1 .375.002zm-.375-.002-.004 1q-.367-.002-.733.003l-.013-1-.012-1q.383-.005.767-.003zm-.75.003.013 1-.375.005-.013-1-.012-1 .375-.005zm-.375.005.013 1-.375.005-.013-1-.012-1 .375-.005zm-.375.005.013 1q-.39.005-.781-.003l.018-1 .019-1q.36.008.719.003zm-.75-.003-.018 1-.375-.007.018-1 .019-1 .375.008zm-.375-.007-.018 1-.375-.007.018-1 .019-1 .375.008zm-.375-.007-.018 1a10 10 0 0 0-.682.01l-.048-.999-.047-.999q.406-.02.814-.011zm-.748.011.048.999-.373.018-.048-1-.047-.998.373-.018zm-.373.018.048.999-.373.017-.048-.998-.047-1 .373-.017zm-.373.017.048 1a2.2 2.2 0 0 0-.505.083l-.276-.961-.276-.962q.473-.135.962-.158zm-.733.122.276.96-.361.104-.276-.961-.275-.961.36-.104zm-.361.103.276.961-.36.104-.276-.962-.276-.96.361-.104zm-.36.103.276.962q-.367.105-.734.205l-.264-.964-.264-.965q.356-.097.71-.199zm-.722.203.264.964-.362.1-.264-.965-.264-.965.362-.099zm-.362.099.264.964-.362.1-.264-.965-.264-.965.362-.099zm-.362.099.264.964q-.353.097-.704.2l-.281-.96-.282-.96q.369-.107.739-.209zm-.721.204.281.96-.359.105-.282-.96-.282-.959.36-.105zm-.36.106.282.96-.36.105-.282-.96-.282-.959.36-.106zm-.36.105.282.96a2.4 2.4 0 0 1-1.217.042l.221-.976.22-.975a.4.4 0 0 0 .212-.01zm-.714.026-.221.976-.354-.08.22-.976.22-.975.355.08zm-.355-.08-.22.976-.355-.08.22-.976.22-.975.355.08zm-.355-.08-.22.976a6 6 0 0 1-.843-.256l.358-.934.358-.934q.285.109.567.173zm-.705-.214-.358.934-.35-.135.358-.933.358-.934.35.134zm-.35-.134-.358.933-.35-.134.358-.934.358-.933.35.134zm-.35-.135-.358.934-.697-.265.354-.935.353-.936.706.269zm-.701-.266-.354.935-.351-.133.354-.935.354-.935.35.132zm-.351-.133-.354.935-.35-.132.353-.936.354-.935.351.133zm-.351-.133-.353.936-.698-.262.349-.937.349-.937.707.265zm-.702-.263-.349.937-.351-.131.349-.937.349-.937.351.13zm-.351-.131-.349.937-.352-.131.349-.937.35-.937.351.13zm-.352-.131-.349.937-.7-.26.346-.938.347-.938.706.262zm-.703-.26-.346.937-.352-.13.346-.938.347-.938.352.13zm-.352-.13-.346.937-.352-.13.347-.938.346-.938.352.13zm-.351-.13-.347.937a.3.3 0 0 0-.075-.019h-.013l-.236-.971-.235-.972a2.13 2.13 0 0 1 1.252.086zm-.671-.053.236.971-.319.078-.235-.972-.236-.972.319-.077zm-.318.077.235.972-.319.077-.235-.972-.236-.972.319-.077zm-.319.077.235.972a.8.8 0 0 0-.268.134l-.589-.808-.589-.808c.293-.214.619-.376.975-.462zm-.622.298.589.808-.303.221-.589-.808-.589-.809.303-.22zm-.303.22.589.81-.303.22-.589-.809-.589-.808.303-.22zm-.303.221.589.809q-.295.215-.585.435l-.606-.795-.605-.796q.306-.235.618-.46zm-.602.449.606.795-.298.227-.606-.795-.606-.796.299-.227zm-.298.227.606.795-.299.227-.605-.795-.606-.796.298-.227zm-.298.227.605.796-.602.456-.601-.8-.602-.799q.298-.223.594-.449zm-.598.453.601.799-.3.225-.601-.8-.601-.798.299-.226zm-.3.225.601.8-.3.224-.601-.799-.601-.799.3-.225zm-.3.225.601.8-.6.45-.6-.8-.601-.799.599-.45zm-.599.45.6.8-.3.226-.6-.8-.601-.8.3-.225zm-.3.226.6.8-.3.225-.6-.8-.601-.8.3-.225zm-.3.225.6.8-.603.45-.598-.8-.598-.802.598-.448zm-.601.45.598.8-.301.225-.597-.801-.598-.802.3-.224zm-.3.224.597.801-.3.224-.598-.801-.598-.802.301-.224zm-.301.224.598.801q-.422.316-.917.484l-.319-.947-.32-.948q.18-.058.36-.192zm-.638.338.319.947-.338.114-.319-.948-.319-.947.337-.114zm-.338.113.319.948-.337.114-.32-.948-.319-.947.338-.114zm-.338.114.32.948q-.51.17-1.048.16l.016-1 .015-1q.212.002.378-.055zm-.712.108-.016 1-.375-.006.016-1 .015-1 .375.006zm-.375-.005-.016 1-.375-.006.016-1 .015-1 .375.006zm-.375-.006-.016 1a33 33 0 0 0-.728-.004l-.006-1-.007-1q.386-.002.772.004zm-.75-.003.006 1-.375.002-.006-1-.007-1 .375-.002zm-.375.002.006 1-.375.003-.006-1-.007-1 .375-.003zm-.375.003.006 1-.748.005-.008-1-.009-1 .752-.005zm-.75.005.008 1-.375.003-.008-1-.009-1 .375-.003zm-.375.003.008 1-.375.003-.008-1-.009-1 .375-.003zm-.375.003.008 1q-.385.003-.77-.001l.012-1 .011-1q.366.004.73.001zm-.75 0-.012.999-.375-.004.012-1 .011-1 .375.004zm-.375-.005-.012 1-.375-.005.012-1 .011-1 .375.005zm-.375-.005-.012 1a46 46 0 0 0-.734-.002l-.004-1-.005-1q.384-.001.766.003zm-.75-.002.004 1-.375.002-.004-1-.005-1 .375-.002zm-.375.002.004 1-.375.001-.004-1-.005-1 .375-.002zm-.375.001.004 1q-.381.001-.763-.002l.009-1 .008-1q.37.004.737.002zm-.75-.001-.009 1-.375-.004.009-1 .008-1 .375.004zm-.375-.004-.009 1-.375-.003.009-1 .008-1 .375.003zm-.375-.003-.009 1a32 32 0 0 0-.727.002l-.014-1-.014-1q.386-.005.772-.002zm-.75.002.014 1-.375.005-.014-1-.014-1 .375-.005zm-.375.005.014 1-.375.005-.014-1-.014-1 .375-.005zm-.375.005.014 1q-.382.006-.764.006v-1l-.001-1q.369 0 .737-.005zm-.75.006v1h-.375v-1l-.001-1h.375zm-.375 0v1h-.375v-1l-.001-1h.375zm-.375 0v1h-.75v-2h.749zm-.75 0v1h-.375v-2h.375zm-.375 0v1h-.375v-2h.375zm-.375 0v1q-.38 0-.759-.003l.009-1 .008-1q.37.004.742.004zm-.75-.003-.009 1-.375-.003.009-1 .008-1 .375.003zm-.375-.003-.009 1-.375-.003.009-1 .008-1 .375.003zm-.375-.003-.009 1q-.393-.004-.783-.02l.045-1 .044-.999q.354.015.711.02zm-.747-.02-.045 1-.372-.017.044-1 .045-.998.372.016zm-.373-.016-.044.999-.372-.017.044-.999.045-.999.372.017zm-.372-.017-.044 1a3.2 3.2 0 0 1-1.041-.222l.364-.931.364-.931q.197.076.402.085zm-.721-.153-.364.931-.35-.136.365-.932.364-.931.349.137zm-.349-.137-.365.932-.349-.137.364-.931.365-.932.349.137zm-.35-.136-.364.931a37 37 0 0 0-.683-.26l.346-.938.347-.938q.36.133.719.273zm-.701-.267-.346.938-.352-.13.347-.938.346-.938.352.13zm-.351-.13-.347.938-.351-.13.346-.937.346-.939.352.13zm-.352-.13-.346.939-.705-.261.347-.938.348-.937.702.26zm-.704-.26-.347.938-.352-.13.348-.938.347-.938.352.13zm-.351-.13-.348.938-.351-.13.347-.938.348-.938.351.13zm-.352-.13-.347.937-.7-.257.343-.94.343-.939.709.261zm-.704-.26-.343.94-.352-.128.343-.94.343-.94.352.13zm-.352-.128-.343.94-.352-.129.343-.94.343-.939.352.129zm-.352-.128-.343.939a37 37 0 0 1-.722-.272l.363-.932.362-.932q.34.132.683.257zm-.702-.265-.363.932-.349-.136.362-.932.363-.932.349.136zm-.35-.136-.362.932-.35-.136.363-.932.362-.932.35.136zm-.349-.136-.363.932a2.4 2.4 0 0 0-.506-.134l.149-.99.148-.988q.481.072.934.248zm-.72-.191-.149.989-.37-.056.148-.989.149-.989.37.056zm-.371-.056-.148.989-.371-.056.149-.989.148-.989.371.056zm-.37-.056-.149.99q-.362-.055-.725-.103l.131-.992.132-.99q.38.05.759.106zm-.743-.105-.131.992-.372-.05.132-.99.131-.992.372.05zm-.371-.049-.132.991-.372-.049.132-.991.131-.991.372.049zm-.372-.05-.132.992q-.38-.05-.758-.107l.147-.989.148-.989q.363.054.726.103zm-.743-.104-.147.99-.371-.056.147-.99.148-.988.371.055zm-.371-.055-.147.989-.371-.055.147-.99.148-.989.371.056zm-.371-.055-.147.989a68 68 0 0 0-.732-.105l.137-.991.137-.99q.377.051.753.108zm-.742-.107-.137.99-.371-.05.137-.991.136-.991.372.051zm-.371-.051-.137.99-.372-.051.137-.99.137-.991.371.051zm-.372-.052-.137.991a70 70 0 0 1-.753-.108l.148-.99.148-.988q.365.054.731.105zm-.742-.106-.148.989-.371-.056.148-.989.148-.989.371.056zm-.371-.056-.148.99-.371-.056.148-.99.148-.988.371.055zm-.371-.055-.148.989a68 68 0 0 0-.731-.106l.137-.99.137-.99q.376.051.753.108zm-.742-.107-.137.99-.372-.051.137-.99.137-.991.372.051zm-.372-.052-.137.991-.371-.051.137-.99.137-.991.371.05zm-.371-.05-.137.99a1 1 0 0 0-.346.01l-.223-.976-.223-.974c.351-.08.709-.09 1.066-.041zm-.706.024.223.975-.335.077-.223-.975-.223-.975.335-.077zm-.335.077.223.975-.335.076-.223-.974-.223-.975.335-.077zm-.335.076.223.975a.45.45 0 0 0-.192.105l-.65-.759-.651-.76a2.44 2.44 0 0 1 1.047-.535zm-.619.321.65.76-.284.243-.651-.759-.651-.76.285-.243zm-.285.244.651.76-.285.243-.651-.759-.65-.76.284-.243zm-.285.244.651.76q-.291.248-.585.493l-.639-.77-.639-.769q.283-.234.562-.473zm-.573.484.639.769-.289.24-.639-.77-.638-.77.288-.239zm-.289.24.639.769-.288.239-.639-.77-.639-.769.289-.24zm-.288.239.639.769q-.282.234-.56.473l-.652-.758-.652-.758q.29-.25.586-.496zm-.573.484.652.758-.284.244-.652-.758-.652-.758.284-.245zm-.284.244.652.758-.285.245-.652-.758-.652-.758.285-.245zm-.285.245.652.758a5.3 5.3 0 0 1-.724.526l-.517-.856-.516-.856q.23-.139.453-.33zm-.589.428.517.856-.305.184-.516-.856-.517-.857.305-.183zm-.304.184.516.856-.305.184-.516-.857-.516-.856.304-.184zm-.305.183.516.857c-.41.247-.868.33-1.329.266l.137-.99.137-.991.024.002h.002l-.006.001.003-.001zm-.676.133-.137.99-.372-.051.137-.991.138-.99.371.05zm-.372-.052-.137.99-.371-.05.137-.991.137-.991.372.052zm-.371-.051-.137.99a50 50 0 0 1-.757-.11l.152-.989.152-.988q.364.055.727.106zm-.742-.109-.152.988-.371-.057.152-.988.152-.988.371.057zm-.371-.057-.152.988-.371-.057.153-.988.152-.988.37.057zm-.37-.057-.153.988a34 34 0 0 0-.721-.103l.131-.991.131-.992q.382.05.764.11zm-.743-.106-.131.991-.372-.049.131-.991.131-.992.372.05zm-.372-.05-.131.992-.371-.049.13-.991.131-.992.372.05zm-.372-.048-.13.991-.742-.097.129-.992.128-.991.746.097zm-.743-.097-.129.991-.371-.048.128-.992.128-.991.372.048zm-.372-.049-.128.992-.372-.048.128-.992.128-.992.372.049zm-.372-.048-.128.992q-.384-.05-.767-.109l.152-.988.153-.988q.358.055.718.102zm-.743-.105-.152.988-.371-.057.153-.988.152-.989.371.058zm-.37-.057-.153.988-.371-.057.153-.989.153-.988.37.057zm-.371-.058-.153.989q-.355-.055-.714-.1l.124-.992.124-.993q.387.05.772.108zm-.743-.103-.124.992-.372-.047.124-.992.124-.992.372.046zm-.372-.047-.124.992-.372-.046.124-.992.124-.993.372.047zm-.372-.046-.124.992a.4.4 0 0 0-.209.019l-.362-.933-.362-.932a2.4 2.4 0 0 1 1.181-.139zm-.695.078.362.933-.323.125-.362-.932-.361-.933.322-.125zm-.323.126.362.932-.323.125-.362-.932-.361-.933.323-.125zm-.323.125.362.932c-.127.05-.258.12-.395.221l-.592-.806-.591-.806q.399-.295.855-.474zm-.625.347.592.806-.302.222-.592-.806-.592-.806.303-.222zm-.302.222.592.806-.303.222-.591-.806-.592-.806.302-.222zm-.302.222.591.806q-.298.219-.595.441l-.599-.8-.599-.801q.304-.228.61-.452zm-.603.446.599.801-.3.225-.599-.801-.599-.8.3-.225zm-.3.225.599.8-.3.225-.599-.8-.599-.801.3-.225zm-.3.224.599.801q-.296.22-.588.446l-.609-.793-.609-.793q.302-.233.608-.461zm-.598.454.609.793-.297.228-.61-.793-.609-.793.298-.228zm-.298.228.61.793-.298.228-.609-.793-.609-.793.297-.228zm-.297.228.609.793q-.307.236-.619.465l-.59-.808-.59-.807q.293-.214.581-.436zm-.6.45.59.808-.303.22-.59-.806-.59-.808.303-.221zm-.303.221.59.808-.303.221-.59-.807-.59-.808.303-.22zm-.303.222.59.807q-.29.213-.573.433l-.615-.788-.615-.789q.308-.24.623-.47zm-.598.452.615.788-.296.23-.615-.788-.615-.788.296-.23zm-.296.23.615.789-.296.23-.615-.788-.615-.788.296-.23zm-.296.231.615.789c-.352.275-.807.46-1.327.4l.115-.993.114-.993a.3.3 0 0 0-.125.011c-.029.01-.031.017-.007-.002zm-.597.196-.115.994-.302-.035.114-.993.115-.994.302.035zm-.303-.034-.114.993-.302-.035.114-.993.115-.994.302.035zm-.302-.035-.114.993a2.23 2.23 0 0 1-1.091-.457l.604-.797.604-.797c.09.067.125.066.112.064zm-.601-.261-.604.797-.298-.227.603-.797.604-.797.299.227zm-.299-.227-.603.797-.299-.226.604-.797.603-.797.299.226zm-.298-.226-.604.797a35 35 0 0 0-.586-.434l.587-.81.587-.81q.312.226.619.46zm-.603-.447-.587.81-.304-.22.587-.81.587-.81.304.22zm-.304-.22-.587.81-.303-.22.586-.81.587-.81.304.22zm-.304-.22-.586.81q-.31-.225-.617-.454l.599-.8.6-.801q.294.22.591.435zm-.604-.445-.599.801-.3-.225.599-.8.599-.8.301.224zm-.3-.224-.599.8-.3-.224.599-.801.599-.8.3.224zm-.3-.225-.599.8-.603-.453.603-.798.602-.798.596.448zm-.599-.45-.603.797-.299-.226.602-.798.603-.798.299.226zm-.3-.227-.602.798-.3-.226.603-.798.603-.798.299.226zm-.299-.226-.603.798-.597-.45.601-.8.602-.798.6.452zm-.599-.451-.601.799-.3-.226.602-.799.601-.799.3.226zm-.299-.226-.602.799-.299-.226.601-.798.602-.8.299.226zm-.3-.225-.601.798a1 1 0 0 0-.322-.168l.289-.957.289-.957c.344.103.66.269.947.485zm-.634-.327-.289.957-.334-.1.289-.958.289-.957.334.1zm-.334-.1-.289.956-.334-.1.289-.958.289-.957.334.1zm-.334-.102-.289.958a.7.7 0 0 0-.295-.02l-.122-.993-.123-.992c.376-.046.752-.02 1.118.09zm-.706-.055.122.993-.372.046-.123-.993-.122-.992.372-.046zm-.373.046.123.993-.373.045-.122-.992-.122-.992.372-.046zm-.372.046.122.992-.744.092-.122-.992-.123-.992.745-.092zm-.744.092.122.992-.372.046-.122-.992-.123-.992.372-.047zm-.372.046.122.992-.372.046-.123-.992-.122-.992.372-.046zm-.373.046.123.992q-.383.047-.767.087l-.101-.995-.101-.995q.363-.037.724-.081zm-.745.084.101.995-.373.038-.101-.995-.101-.995.373-.038zm-.373.038.101.995-.373.037-.101-.995-.101-.994.373-.038zm-.373.037.101.995q-.361.037-.721.082l-.125-.992-.126-.992q.385-.048.77-.087zm-.745.085.125.992-.372.047-.125-.992-.126-.992.372-.047zm-.372.047.125.992-.372.047-.126-.992-.125-.992.372-.047zm-.373.047.126.992q-.392.05-.783.084l-.088-.996-.089-.996q.355-.031.709-.076zm-.745.08.088.996-.374.033-.088-.996-.088-.996.373-.033zm-.374.033.088.996-.373.033-.089-.996-.088-.996.374-.033zm-.374.033.089.996q-.358.033-.715.075l-.12-.993-.119-.992q.389-.048.777-.082zm-.746.078.12.993-.372.045-.12-.993-.119-.993.372-.044zm-.372.045.12.993-.373.045-.119-.993-.12-.993.373-.045zm-.372.045.119.993q-.378.045-.757.086l-.107-.994-.108-.994q.367-.04.733-.084zm-.745.085.107.994-.373.04-.107-.994-.108-.994.373-.04zm-.373.04.107.994-.373.04-.107-.994-.107-.994.372-.04zm-.373.04.107.995q-.42.045-.84.05l-.01-1-.01-1q.32-.004.646-.039zm-.743.044.01 1-.37.004-.01-1-.01-1 .37-.004zm-.37.004.01 1-.37.004-.01-1-.01-1 .37-.004zm-.37.004.01 1a4 4 0 0 1-.97-.106l.224-.974.224-.975q.252.058.502.055zm-.736-.08-.224.974-.365-.083.224-.975.223-.975.366.084zm-.365-.084-.224.975-.366-.084.224-.975.224-.975.365.084zm-.366-.084-.224.975q-.361-.084-.723-.163l.215-.977.216-.976q.37.081.74.166zm-.732-.165-.215.977-.367-.081.216-.977.216-.976.366.08zm-.366-.08-.216.976-.366-.081.216-.977.216-.976.366.08zm-.366-.082-.216.977q-.371-.082-.742-.169l.227-.974.226-.974q.36.084.721.164zm-.731-.166-.227.974-.365-.084.226-.974.227-.974.365.084zm-.366-.084-.226.974-.365-.085.226-.974.227-.974.365.085zm-.365-.085-.226.974-.722-.165.217-.976.217-.976q.37.082.741.169zm-.731-.167-.217.976-.366-.081.217-.976.217-.976.366.081zm-.366-.081-.217.976-.367-.082.218-.976.217-.976.366.082zm-.366-.082-.218.976-.727-.16.212-.977.212-.977.738.162zm-.733-.16-.212.977-.366-.08.212-.977.212-.977.366.08zm-.366-.08-.212.977-.367-.08.212-.977.212-.977.367.08zm-.367-.08-.212.978-.737-.162.217-.977.217-.976.727.16zm-.732-.16-.218.976-.366-.082.218-.976.217-.976.366.081zm-.366-.082-.218.976-.366-.081.218-.976.217-.977.366.082zm-.366-.081-.218.976a54 54 0 0 1-.744-.171l.23-.973.231-.973q.359.084.718.165zm-.731-.168-.231.973-.365-.087.23-.973.231-.973.365.087zm-.365-.087-.231.973-.365-.087.23-.973.232-.973.364.087zm-.365-.087-.231.973-.72-.166.22-.976.22-.975q.372.084.742.172zm-.731-.169-.22.976-.367-.083.22-.975.22-.976.367.083zm-.367-.082-.22.975-.366-.083.22-.975.22-.975.366.082zm-.366-.083-.22.975a2.3 2.3 0 0 0-.52-.057l-.002-1-.001-1q.487 0 .963.107zm-.742-.082.002 1h-.375l-.002-1-.001-1h.375zm-.375 0 .002 1h-.375l-.002-1-.001-1h.375zm-.375 0 .002 1-.752.001v-1l.001-1h.748zm-.75.001v1h-.375v-1l.001-1h.375zm-.375 0v1h-.375v-1l.001-1h.375zm-.375 0v1q-.372 0-.742.002l-.008-1-.008-1q.38-.003.76-.002zm-.75.002.008 1-.375.003-.008-1-.008-1 .375-.003zm-.375.003.008 1-.375.003-.008-1-.008-1 .375-.003zm-.375.003.008 1-.746.008-.012-1-.012-1 .754-.008zm-.75.008.012 1-.375.004-.012-1-.012-1 .375-.004zm-.375.005.012 1-.375.004-.012-1-.012-1 .375-.004zm-.375.004.012 1a8 8 0 0 1-.85-.036l.097-.995.097-.995q.31.03.632.026zm-.741-.031-.098.995-.366-.036.097-.995.097-.995.367.035zm-.367-.036-.097.995-.367-.036.097-.995.098-.995.366.036zm-.367-.036-.097.995a2.8 2.8 0 0 1-1.084-.34l.487-.873.488-.874q.148.083.304.097zm-.694-.218-.487.873-.328-.183.488-.873.487-.873.328.182zm-.327-.183-.488.873-.327-.183.487-.873.487-.873.328.183zm-.328-.183-.487.873-.66-.372.494-.869.494-.87q.322.184.647.365zm-.653-.368-.494.87-.326-.186.494-.87.494-.869.326.186zm-.326-.185-.494.87-.326-.186.494-.87.494-.869.326.185zm-.326-.185-.494.869-.646-.363.486-.874.485-.874q.332.184.663.372zm-.654-.368-.486.874-.328-.182.486-.874.486-.874.327.182zm-.328-.182-.486.874-.328-.182.486-.874.486-.874.328.182zm-.328-.182-.486.874-.66-.37.492-.87.492-.871q.323.183.648.363zm-.654-.367-.492.87-.327-.184.492-.87.493-.87.326.184zm-.327-.184-.492.87-.326-.184.492-.87.492-.871.327.184zm-.326-.185-.492.87q-.33-.185-.657-.373l.497-.868.498-.867.646.368zm-.652-.371-.497.867-.326-.186.498-.868.497-.867.326.187zm-.325-.187-.498.868-.325-.187.498-.867.497-.868.325.187zm-.325-.186-.498.867a45 45 0 0 0-.64-.36l.484-.875.483-.875q.336.184.668.375zm-.654-.368-.483.875-.329-.18.484-.876.483-.876.328.182zm-.328-.181-.484.875-.328-.181.483-.875.484-.876.328.181zm-.329-.181-.483.875a56 56 0 0 1-.666-.374l.495-.868.495-.87q.32.183.643.361zm-.654-.367-.495.868-.325-.185.494-.87.496-.868.325.186zm-.326-.186-.495.869-.325-.186.495-.869.495-.869.326.186zm-.325-.186-.495.87-.65-.369.492-.87.492-.872.656.372zm-.653-.37-.491.871-.327-.184.492-.871.492-.87.326.183zm-.326-.184-.492.87-.326-.184.491-.87.492-.871.327.184zm-.327-.185-.492.871-.654-.371.494-.87.494-.869.65.369zm-.652-.37-.495.87-.326-.185.495-.87.494-.869.326.185zm-.326-.185-.495.87-.326-.186.495-.87.494-.868.326.185zm-.326-.185-.495.87q-.317-.182-.638-.356l.477-.879.478-.878q.338.183.672.374zm-.656-.365-.477.879-.33-.18.478-.878.477-.878.33.179zm-.33-.179-.477.879-.33-.18.478-.878.478-.878.33.179zm-.329-.179-.477.879a26 26 0 0 1-.68-.383l.504-.864.504-.864q.31.181.627.354zm-.653-.368-.504.864-.324-.19.504-.863.504-.864.324.19zm-.324-.19-.504.864-.324-.189.504-.863.504-.864.324.19zm-.324-.188-.504.863q-.32-.187-.643-.372l.498-.867.498-.867q.328.189.655.38zm-.649-.376-.498.867-.325-.187.498-.867.498-.867.325.187zm-.325-.187-.498.867-.325-.187.498-.867.498-.867.325.187zm-.325-.187-.498.867q-.313-.18-.63-.35l.472-.88.472-.882q.345.184.682.378zm-.656-.364-.472.882-.33-.177.471-.882.472-.881.331.177zm-.33-.177-.473.882-.33-.177.472-.882.472-.881.33.177zm-.331-.177-.473.882q-.345-.185-.683-.38l.5-.866.5-.866q.312.179.628.349zm-.656-.364-.5.865-.325-.187.5-.866.5-.866.325.188zm-.325-.188-.5.866-.324-.188.5-.866.5-.866.325.188zm-.324-.188-.5.866-.648-.373.498-.867.498-.867.652.375zm-.65-.374-.499.867-.325-.187.499-.867.498-.867.325.187zm-.325-.187-.499.867-.325-.187.499-.867.498-.867.325.187zm-.325-.187-.499.867a59 59 0 0 0-.641-.363l.487-.873.487-.874q.334.186.664.376zm-.653-.37-.487.874-.328-.183.487-.873.488-.873.327.182zm-.328-.182-.487.873-.327-.182.487-.874.487-.873.328.183zm-.327-.183-.487.874-.66-.372.493-.87.494-.87q.322.184.647.365zm-.654-.367-.493.87-.326-.186.493-.87.494-.87.326.186zm-.326-.186-.493.87-.326-.185.493-.87.494-.87.326.186zm-.326-.185-.493.87q-.325-.185-.65-.366l.49-.872.49-.872.657.37zm-.653-.368-.49.872-.327-.184.49-.872.49-.872.327.184zm-.327-.184-.49.872-.327-.184.49-.872.49-.872.327.184zm-.327-.184-.49.872a4.4 4.4 0 0 0-.55-.26l.365-.932.366-.93q.41.16.799.378zm-.675-.32-.364.931-.348-.136.365-.93.365-.932.348.136zm-.347-.136-.365.931-.348-.136.365-.931.365-.931.348.136zm-.348-.136-.364.931a14 14 0 0 0-.655-.237l.316-.949.317-.948q.38.126.751.272zm-.703-.255-.316.949-.356-.12.317-.948.316-.948.356.119zm-.355-.119-.317.949-.356-.119.317-.948.316-.949.356.119zm-.356-.118-.317.948a54 54 0 0 0-.7-.228l.304-.953.303-.953q.365.117.726.237zm-.713-.233-.304.953-.357-.114.303-.953.304-.953.357.114zm-.358-.114-.303.953-.358-.114.304-.953.304-.952.357.113zm-.357-.114-.303.953-.713-.226.301-.953.302-.954.717.228zm-.715-.226-.301.953-.358-.113.302-.954.301-.953.358.113zm-.357-.114-.302.954-.358-.113.302-.954.302-.953.357.113zm-.358-.113-.301.954q-.37-.118-.737-.244l.326-.945.326-.945q.342.117.688.227zm-.712-.235-.326.945-.355-.122.326-.945.326-.946.355.123zm-.355-.122-.326.945-.354-.122.326-.945.326-.946.354.122zm-.354-.122-.326.945q-.334-.116-.675-.217l.287-.958.286-.958q.38.113.754.242zm-.714-.23-.287.958-.359-.107.286-.958.287-.959.359.108zm-.36-.107-.286.958-.36-.108.287-.958.286-.958.36.107zm-.359-.108-.286.958q-.374-.111-.744-.234l.315-.95.314-.948q.342.112.687.216zm-.715-.225-.315.95-.356-.119.315-.949.314-.95.356.119zm-.356-.118-.315.95-.356-.119.315-.949.314-.95.356.119zm-.356-.118-.315.95q-.354-.119-.709-.234l.311-.95.312-.95q.357.116.715.235zm-.713-.235-.31.95-.357-.116.31-.95.312-.95.357.116zm-.356-.116-.311.95-.357-.117.312-.95.31-.95.357.116zm-.356-.117-.312.95q-.352-.116-.706-.228l.304-.953.304-.952q.36.114.72.233zm-.714-.23-.304.952-.358-.114.305-.953.304-.953.357.115zm-.357-.115-.305.953-.357-.114.305-.953.304-.953.357.114zm-.357-.114-.305.953-.72-.234.311-.95.312-.95q.352.116.706.228zm-.714-.231-.312.95-.356-.117.312-.95.311-.95.357.117zm-.356-.117-.312.95-.356-.117.311-.95.312-.95.356.117zm-.357-.117-.311.95-.71-.23.308-.952.308-.952.717.234zm-.713-.232-.308.951-.357-.115.309-.952.307-.951.357.115zm-.356-.116-.309.952-.356-.116.308-.951.308-.952.356.116zm-.357-.115-.308.951a36 36 0 0 0-.697-.218l.289-.957.288-.957q.369.11.736.23zm-.716-.224-.289.957-.359-.108.289-.957.288-.958.36.108zm-.36-.108-.288.957-.359-.108.289-.958.288-.957.36.108zm-.358-.109-.289.958c-.029-.009-.034-.006-.022-.007a.1.1 0 0 0 .048-.01l-.398-.918-.398-.917a1.93 1.93 0 0 1 1.347-.063zm-.661.023.398.918-.302.13-.398-.917-.398-.917.301-.131zm-.302.131.398.918-.301.13-.398-.917-.399-.917.302-.131zm-.301.131.398.918c-.082.035-.18.096-.29.2l-.684-.73-.684-.73a3 3 0 0 1 .861-.575zm-.576.388.684.73-.273.256-.684-.73-.684-.73.273-.256zm-.273.256.684.73-.274.256-.684-.73-.684-.729.274-.256zm-.274.257.684.73q-.27.251-.535.507l-.693-.72-.693-.722q.275-.264.553-.525zm-.544.516.693.72-.27.26-.693-.72-.693-.72.27-.26zm-.27.26.693.72-.27.26-.694-.72-.693-.721.27-.26zm-.27.26.692.72q-.273.264-.55.524l-.686-.727-.686-.727q.27-.255.536-.511zm-.544.517.687.727-.273.258-.686-.727-.687-.728.273-.257zm-.272.258.686.727-.273.257-.686-.727-.686-.728.272-.257zm-.273.257.686.727-.548.516-.684-.73-.684-.729.544-.512zm-.546.514.684.73-.274.256-.684-.73-.684-.73.273-.256zm-.274.256.684.73-.274.256-.684-.73-.684-.729.274-.256zm-.274.257.684.73q-.278.26-.56.517l-.674-.738-.675-.738q.273-.25.541-.5zm-.55.51.675.737-.277.253-.675-.738-.674-.738.276-.253zm-.277.252.675.738-.277.253-.675-.738-.674-.738.277-.253zm-.277.253.675.738q-.273.25-.54.5l-.684-.73-.683-.73q.276-.26.558-.516zm-.549.508.684.73-.273.255-.683-.73-.683-.73.272-.255zm-.272.254.683.73-.272.255-.683-.73-.683-.73.272-.255zm-.272.255.683.73c-.203.19-.464.347-.782.41a1.6 1.6 0 0 1-.876-.081l.352-.936.352-.936a.4.4 0 0 0-.214-.01.4.4 0 0 0-.198.093zm-.623.123-.352.936-.35-.132.35-.936.352-.936.352.132zm-.351-.132-.352.936-.351-.132.352-.936.352-.936.35.132zm-.351-.132-.352.936-.697-.26.346-.937.345-.939q.355.13.71.264zm-.703-.262-.346.939-.352-.13.346-.938.345-.938.352.13zm-.352-.13-.346.94-.352-.13.346-.939.346-.938.351.13zm-.352-.129-.346.939-.705-.26.347-.939.348-.937.702.259zm-.704-.26-.347.938-.352-.13.348-.938.347-.937.352.13zm-.351-.13-.348.938-.351-.13.347-.938.347-.938.352.13zm-.352-.13-.347.938-.71-.267.355-.935.356-.934q.346.131.693.26zm-.702-.264-.356.935-.35-.133.355-.935.356-.935.35.134zm-.35-.133-.356.935-.35-.134.355-.934.356-.935.35.133zm-.351-.133-.356.934-.692-.26.346-.937.346-.939q.356.132.712.267zm-.702-.263-.346.938-.352-.13.346-.938.346-.938.352.13zm-.352-.13-.346.938-.352-.13.346-.938.346-.938.352.13zm-.352-.13-.346.938q-.015-.006-.017-.005h.025l.009-.003-.352-.936-.352-.936c.46-.173.935-.16 1.379.004zm-.681-.006.352.936-.33.124-.351-.936-.352-.936.33-.124zm-.33.124.353.936-.33.123-.351-.935-.352-.937.33-.123zm-.328.123.352.937a4 4 0 0 0-.53.244l-.48-.877-.48-.876a6 6 0 0 1 .786-.364zm-.658.304.48.877-.328.18-.48-.876-.482-.877.33-.18zm-.329.18.48.878-.328.18-.48-.877-.482-.877.33-.18zm-.329.18.48.878q-.313.171-.621.355l-.51-.86-.51-.86q.336-.2.68-.389zm-.651.372.51.86-.323.192-.51-.86-.51-.86.323-.192zm-.323.192.51.86-.322.191-.51-.86-.51-.86.322-.191zm-.323.191.51.86a19 19 0 0 1-.689.39l-.473-.88-.474-.882q.312-.167.616-.348zm-.652.37.473.88-.33.177-.474-.88-.474-.881.33-.178zm-.33.177.473.88-.33.178-.474-.88-.474-.881.33-.178zm-.331.177.473.881q-.314.169-.62.35l-.507-.863-.506-.863q.34-.198.686-.385zm-.654.368.506.862-.323.19-.506-.862-.507-.863.324-.19zm-.323.19.506.862-.324.19-.506-.862-.506-.863.323-.19zm-.324.19.506.862q-.34.2-.687.386l-.473-.881-.473-.882q.314-.168.62-.348zm-.654.367.473.881-.33.177-.474-.881-.472-.881.33-.178zm-.33.177.472.881-.33.177-.473-.88-.473-.882.33-.177zm-.331.177.473.881q-.32.172-.635.351l-.495-.87-.494-.868q.336-.192.678-.375zm-.657.363.495.869-.326.185-.494-.869-.495-.869.326-.185zm-.325.185.494.87-.326.185-.494-.87-.495-.869.326-.185zm-.326.186.494.869q-.404.23-.838.38l-.327-.945-.327-.945a3 3 0 0 0 .503-.229zm-.67.304.326.945-.344.12-.327-.946-.327-.945.344-.119zm-.345.12.327.944-.344.12-.327-.945-.327-.945.344-.12zm-.344.119.327.945a3.1 3.1 0 0 1-1.06.169l.013-1 .014-1q.204.002.379-.06zm-.72.114-.013 1-.375-.005.013-1 .014-1 .375.005zm-.375-.005-.013 1-.375-.006.013-1 .014-1 .375.006zm-.375-.005-.013 1a38 38 0 0 0-.73-.003l-.007-1-.005-1q.384-.002.769.003zm-.75-.003.006 1-.375.002-.006-1-.005-1 .375-.002zm-.375.002.006 1-.375.002-.006-1-.005-1 .375-.002zm-.375.002.006 1-.754.003-.002-1v-1l.745-.003zm-.75.003.002 1h-.375l-.002-1v-1h.374zm-.375 0 .002 1h-.375l-.002-1v-1h.374zm-.375 0 .002 1h-.755l.003-1 .004-1h.745zm-.75 0-.003 1-.375-.002.003-1 .004-1 .375.002zm-.375-.002-.003 1-.375-.001.003-1 .004-1 .375.001zm-.375-.001-.003 1-.757-.005.01-1 .01-1 .744.005zm-.75-.005-.01 1-.375-.004.01-1 .01-1 .376.004zm-.375-.004-.01 1-.375-.004.01-1 .01-1 .376.004zm-.375-.004-.01 1a27 27 0 0 0-.723.002l-.017-1-.016-1q.389-.006.777-.002zm-.75.002.017 1-.375.006-.017-1-.016-1 .375-.006zm-.375.006.017 1-.375.006-.017-1-.016-1 .375-.006zm-.375.006.017 1q-.382.007-.766.007v-1l-.001-1q.368 0 .734-.006zm-.75.007v1h-.374v-1l-.001-1h.375zm-.375 0v1h-.374v-1l-.001-1h.375zm-.375 0v1a2.5 2.5 0 0 0-.515.051l-.204-.979-.205-.978a4.5 4.5 0 0 1 .924-.094zm-.72.072.205.98-.344.071-.205-.979-.205-.978.345-.072zm-.344.072.205.98-.345.071-.205-.979-.204-.978.344-.072zm-.345.073.205.978c-.018.004-.042.01-.084.055l-.724-.69-.724-.69c.303-.317.681-.54 1.123-.632zm-.603.343.724.69-.258.271-.724-.69-.725-.689.259-.271zm-.258.272.724.69-.259.27-.724-.689-.724-.69.258-.27zm-.26.271.725.69q-.255.267-.505.537l-.733-.68-.733-.68q.26-.28.523-.556zm-.513.547.733.68-.255.275-.733-.68-.733-.68.255-.276zm-.255.275.733.68-.256.275-.732-.68-.733-.681.255-.275zm-.255.274.732.68q-.26.282-.525.558l-.722-.692-.722-.692q.254-.265.504-.534zm-.515.546.722.692-.26.27-.721-.691-.722-.692.26-.271zm-.26.27.722.693-.26.27-.721-.692-.722-.692.26-.27zm-.259.271.722.692-.517.54-.723-.69-.724-.69.52-.544zm-.518.542.723.69-.259.272-.723-.69-.724-.69.26-.272zm-.26.271.724.691-.259.271-.723-.69-.724-.69.26-.272zm-.258.272.723.69q-.261.274-.526.547l-.717-.697-.718-.696q.259-.267.514-.535zm-.52.54.717.697-.261.269-.718-.697-.717-.696.261-.27zm-.262.27.718.696-.261.269-.718-.697-.717-.696.26-.27zm-.26.268.717.697q-.259.266-.515.534l-.723-.69-.723-.691q.262-.275.526-.546zm-.521.54.723.691-.259.271-.723-.69-.723-.69.259-.272zm-.259.272.723.69-.259.272-.723-.691-.723-.69.259-.272zm-.259.271.723.69q-.255.267-.505.537l-.732-.681-.732-.681q.26-.28.523-.556zm-.514.546.732.681-.256.275-.732-.682-.732-.68.256-.275zm-.256.274.732.682-.255.274-.732-.681-.732-.681.255-.275zm-.255.275.732.681q-.265.285-.538.562l-.713-.701-.713-.702q.254-.257.5-.521zm-.519.542.713.701-.263.267-.713-.7-.713-.702.263-.268zm-.263.267.713.702-.263.267-.713-.702-.713-.7.263-.268zm-.263.267.713.702q-.258.262-.374.39l-.74-.674-.738-.673q.157-.174.426-.446zm-.4.418.739.674-.138.15-.739-.673-.739-.674.138-.15zm-.138.151.74.674-.138.15-.739-.673-.739-.674.137-.15zm-.137.15.739.674-.15.162-.033.034-.059.052c-.01.008-.056.046-.12.085a1 1 0 0 1-.237.103c-.047.014-.548.166-.97-.237l.691-.723.69-.723a1 1 0 0 0-1.204-.135c-.065.04-.11.077-.12.085a1 1 0 0 0-.07.064l-.006.005.013-.014q.03-.03.097-.105zm-.139.15-.69.723-.002-.001.69-.724.691-.723.002.002zm-.001-.002-.75-.661.066-.075.75.661.75.662-.067.075zm.066-.075.723.691-.069.072-.723-.69-.723-.69.069-.073z"/></svg>