<svg width="21" height="21" viewBox="0 0 21 21" fill="none" xmlns="http://www.w3.org/2000/svg">
<g clip-path="url(#clip0_1638_81588)">
<path d="M20.4905 10.925C20.4905 10.0864 20.4224 9.47445 20.2752 8.83984H10.6992V12.6248H16.3201C16.2068 13.5655 15.5948 14.982 14.2349 15.9339L14.2159 16.0606L17.2436 18.4062L17.4534 18.4271C19.3798 16.6479 20.4905 14.0301 20.4905 10.925Z" fill="#4285F4"/>
<path d="M10.6992 20.8988C13.453 20.8988 15.7648 19.9922 17.4534 18.4284L14.2349 15.9352C13.3737 16.5358 12.2177 16.9551 10.6992 16.9551C8.00211 16.9551 5.71297 15.1759 4.89695 12.7168L4.77734 12.727L1.62906 15.1634L1.58789 15.2779C3.26508 18.6096 6.71016 20.8988 10.6992 20.8988Z" fill="#34A853"/>
<path d="M4.89695 12.7155C4.68164 12.0809 4.55703 11.4009 4.55703 10.6983C4.55703 9.99563 4.68164 9.3157 4.88562 8.68109L4.87992 8.54594L1.69219 6.07031L1.58789 6.11992C0.896641 7.5025 0.5 9.05508 0.5 10.6983C0.5 12.3415 0.896641 13.894 1.58789 15.2766L4.89695 12.7155Z" fill="#FBBC05"/>
<path d="M10.6992 4.44367C12.6144 4.44367 13.9062 5.27094 14.6429 5.96227L17.5213 3.1518C15.7535 1.50859 13.453 0.5 10.6992 0.5C6.71016 0.5 3.26508 2.78914 1.58789 6.12086L4.88562 8.68203C5.71297 6.22289 8.00211 4.44367 10.6992 4.44367Z" fill="#EB4335"/>
</g>
<defs>
<clipPath id="clip0_1638_81588">
<rect width="20" height="20.4688" fill="white" transform="translate(0.5 0.5)"/>
</clipPath>
</defs>
</svg>
