<svg width="25" height="24" viewBox="0 0 25 24" fill="none" xmlns="http://www.w3.org/2000/svg">
<path d="M24.5 10.4932C24.4925 10.5059 23.2104 12.674 21.2627 14.1768C18.2156 16.5277 15.6118 16.5228 13.4492 18.3633C11.2866 20.2038 10.4166 22.1587 10.2119 23.0518L7.7002 21.0977C7.90495 20.2045 8.77507 18.2495 10.9375 16.4092C13.1 14.569 15.8459 14.7476 18.751 12.2236C21.6239 9.72749 21.9807 8.5656 21.9883 8.54004L24.5 10.4932ZM22.7139 3.68359C22.7139 3.68359 21.5977 8.20533 17.5791 11.3867C14.5616 13.7755 11.9272 13.7318 9.76465 15.5723C7.60222 17.4127 6.73299 19.3677 6.52832 20.2607L4.0166 18.3076C4.22125 17.4146 5.09127 15.4597 7.25391 13.6191C9.41652 11.7787 12.1622 11.9568 15.0674 9.43262C19.307 5.74893 20.2021 1.73047 20.2021 1.73047L22.7139 3.68359ZM18.3047 2.90234C18.3047 2.90234 17.4671 5.58191 14.0625 8.54004C11.1574 11.0638 8.41154 10.8852 6.24902 12.7256C4.08639 14.5661 3.21637 16.521 3.01172 17.4141L0.5 15.4609C0.704644 14.5679 1.57481 12.613 3.7373 10.7725C5.89994 8.93192 8.6465 9.11018 11.5518 6.58594C14.934 3.64711 15.7821 0.983644 15.793 0.949219L18.3047 2.90234Z" fill="url(#paint0_linear_905_15436)"/>
<defs>
<linearGradient id="paint0_linear_905_15436" x1="19.9247" y1="0.94922" x2="1.54348" y2="0.949219" gradientUnits="userSpaceOnUse">
<stop stop-color="#FEDA3B"/>
<stop offset="0.47" stop-color="#EF5541"/>
<stop offset="0.815" stop-color="#821EE0"/>
<stop offset="0.98" stop-color="#7F2A8A"/>
</linearGradient>
</defs>
</svg>
