<svg width="24" height="24" viewBox="0 0 24 24" fill="none" xmlns="http://www.w3.org/2000/svg">
<path d="M12.5714 2.32416C13.2878 1.62069 14.5116 2.13278 14.5116 3.18209V10.2178H18.8476C19.7795 10.2179 20.3 11.2773 19.8154 12.036L19.7049 12.1834L11.4958 21.6041C10.792 22.4117 9.48817 21.9011 9.48817 20.818V13.7823H5.15218C4.1583 13.7822 3.63263 12.5767 4.29487 11.8167L12.504 2.39603L12.5714 2.32416ZM11.3286 18.9639L17.3046 12.1051H13.6372C13.1039 12.1049 12.6714 11.6614 12.6712 11.1145V5.03525L6.69517 11.895H10.3626C10.8959 11.8952 11.3284 12.3387 11.3286 12.8856V18.9639Z" fill="white" fill-opacity="0.95"/>
</svg>
