<svg width="20" height="20" viewBox="0 0 20 20" fill="none" xmlns="http://www.w3.org/2000/svg">
<path fill-rule="evenodd" clip-rule="evenodd" d="M8.08104 4.37134C8.53266 3.37609 9.96645 3.37623 10.4182 4.37134L10.46 4.47388L11.7432 8.0188L11.782 8.09717C11.8287 8.1702 11.8982 8.22672 11.9812 8.25684L15.5261 9.54004C16.6226 9.93719 16.6564 11.4524 15.6279 11.9189L15.5261 11.96L11.9812 13.2432C11.8704 13.2834 11.7834 13.3705 11.7432 13.4812L10.46 17.0261C10.0501 18.1579 8.44902 18.1581 8.0393 17.0261L6.75683 13.4812C6.72666 13.3981 6.66962 13.3287 6.59643 13.282L6.51879 13.2432L2.97387 11.96C1.84204 11.5502 1.84205 9.94985 2.97387 9.54004L6.51879 8.25684L6.59643 8.21802C6.66961 8.17133 6.72666 8.1019 6.75683 8.0188L8.0393 4.47388L8.08104 4.37134ZM8.12133 8.51245C7.93456 9.0283 7.52827 9.43454 7.01244 9.62134L3.89379 10.75L7.01244 11.8787L7.10692 11.9167C7.5775 12.1171 7.94618 12.5038 8.12133 12.9875L9.24999 16.1055L10.3787 12.9875C10.5654 12.4717 10.9717 12.0654 11.4875 11.8787L14.6055 10.75L11.4875 9.62134C11.0038 9.44622 10.6164 9.07816 10.416 8.60767L10.3787 8.51245L9.24999 5.3938L8.12133 8.51245Z" fill="white" fill-opacity="0.95"/>
<path d="M15.25 2.125C15.4692 2.12504 15.659 2.27735 15.707 2.49121L15.8813 3.26758C15.9767 3.69188 16.3081 4.02333 16.7324 4.11865L17.5088 4.29297C17.7227 4.34098 17.875 4.53078 17.875 4.75C17.875 4.96921 17.7227 5.15901 17.5088 5.20703L16.7324 5.38135C16.3081 5.47667 15.9767 5.80813 15.8813 6.23242L15.707 7.00879C15.659 7.22265 15.4692 7.37496 15.25 7.375C15.0308 7.375 14.841 7.22268 14.793 7.00879L14.6186 6.23242C14.5233 5.80816 14.1918 5.47672 13.7676 5.38135L12.9905 5.20703C12.7768 5.15889 12.625 4.9691 12.625 4.75C12.625 4.5309 12.7768 4.34111 12.9905 4.29297L13.7676 4.11865C14.1918 4.02328 14.5233 3.69185 14.6186 3.26758L14.793 2.49121C14.841 2.27732 15.0308 2.12499 15.25 2.125Z" fill="white" fill-opacity="0.95"/>
</svg>
