<svg width="24" height="24" viewBox="0 0 24 24" fill="none" xmlns="http://www.w3.org/2000/svg">
<path d="M12 15.5292C12.4873 15.5292 12.8824 15.9243 12.8824 16.4116C12.8824 16.8989 12.4873 17.2939 12 17.2939H8.47059C7.98328 17.2939 7.58824 16.8989 7.58824 16.4116C7.58824 15.9243 7.98328 15.5292 8.47059 15.5292H12Z" fill="white" fill-opacity="0.95"/>
<path d="M15.5294 11.9998C16.0167 11.9998 16.4118 12.3948 16.4118 12.8822C16.4118 13.3695 16.0167 13.7645 15.5294 13.7645H8.47059C7.98328 13.7645 7.58824 13.3695 7.58824 12.8822C7.58824 12.3948 7.98328 11.9998 8.47059 11.9998H15.5294Z" fill="white" fill-opacity="0.95"/>
<path d="M13.7647 8.47039C14.252 8.47039 14.6471 8.86543 14.6471 9.35274C14.6471 9.84005 14.252 10.2351 13.7647 10.2351H8.47059C7.98328 10.2351 7.58824 9.84005 7.58824 9.35274C7.58824 8.86543 7.98328 8.47039 8.47059 8.47039H13.7647Z" fill="white" fill-opacity="0.95"/>
<path fill-rule="evenodd" clip-rule="evenodd" d="M13.9 3.17627C14.3954 3.17636 14.8767 3.34348 15.2657 3.65019L18.6599 6.32655C19.1903 6.74484 19.5 7.38299 19.5 8.05851V18.6174C19.5 19.8357 18.5124 20.8233 17.2941 20.8233H6.70588C5.48761 20.8233 4.5 19.8357 4.5 18.6174V5.38215C4.5 4.16388 5.48761 3.17627 6.70588 3.17627H13.9ZM6.70588 4.94098C6.46223 4.94098 6.26471 5.1385 6.26471 5.38215V18.6174C6.26471 18.8611 6.46223 19.0586 6.70588 19.0586H17.2941C17.5378 19.0586 17.7353 18.8611 17.7353 18.6174V8.05851C17.7353 7.92342 17.6733 7.79577 17.5673 7.71212L14.1731 5.03576C14.0954 4.97448 13.999 4.94106 13.9 4.94098H6.70588Z" fill="white" fill-opacity="0.95"/>
</svg>
