<svg width="20" height="20" viewBox="0 0 20 20" fill="none" xmlns="http://www.w3.org/2000/svg">
<path d="M10 13C10.4142 13 10.75 13.3358 10.75 13.75C10.75 14.1642 10.4142 14.5 10 14.5H7C6.58579 14.5 6.25 14.1642 6.25 13.75C6.25 13.3358 6.58579 13 7 13H10Z" fill="white" fill-opacity="0.95"/>
<path d="M13 10C13.4142 10 13.75 10.3358 13.75 10.75C13.75 11.1642 13.4142 11.5 13 11.5H7C6.58579 11.5 6.25 11.1642 6.25 10.75C6.25 10.3358 6.58579 10 7 10H13Z" fill="white" fill-opacity="0.95"/>
<path d="M11.5 7C11.9142 7 12.25 7.33579 12.25 7.75C12.25 8.16421 11.9142 8.5 11.5 8.5H7C6.58579 8.5 6.25 8.16421 6.25 7.75C6.25 7.33579 6.58579 7 7 7H11.5Z" fill="white" fill-opacity="0.95"/>
<path fill-rule="evenodd" clip-rule="evenodd" d="M11.615 2.5C12.0361 2.50007 12.4452 2.64213 12.7759 2.90283L15.6609 5.17773C16.1117 5.53328 16.375 6.07571 16.375 6.6499V15.625C16.375 16.6605 15.5355 17.5 14.5 17.5H5.5C4.46447 17.5 3.625 16.6605 3.625 15.625V4.375C3.625 3.33947 4.46447 2.5 5.5 2.5H11.615ZM5.5 4C5.29289 4 5.125 4.16789 5.125 4.375V15.625C5.125 15.8321 5.29289 16 5.5 16H14.5C14.7071 16 14.875 15.8321 14.875 15.625V6.6499C14.875 6.53508 14.8223 6.42658 14.7322 6.35547L11.8472 4.08057C11.7811 4.02848 11.6991 4.00007 11.615 4H5.5Z" fill="white" fill-opacity="0.95"/>
</svg>
