<svg width="20" height="20" viewBox="0 0 20 20" fill="none" xmlns="http://www.w3.org/2000/svg">
<path d="M8.34082 3.03432C8.75503 3.03432 9.09082 3.37011 9.09082 3.78432C9.09076 4.19849 8.755 4.53432 8.34082 4.53432H4.59082C4.38371 4.53432 4.21582 4.70222 4.21582 4.90932V15.4093C4.21588 15.6164 4.38375 15.7843 4.59082 15.7843H15.0908C15.2979 15.7843 15.4658 15.6164 15.4658 15.4093V11.6593C15.4658 11.2451 15.8016 10.9093 16.2158 10.9093C16.63 10.9093 16.9658 11.2451 16.9658 11.6593V15.4093C16.9658 16.4448 16.1263 17.2843 15.0908 17.2843H4.59082C3.55533 17.2843 2.71588 16.4448 2.71582 15.4093V4.90932C2.71582 3.87379 3.55529 3.03432 4.59082 3.03432H8.34082Z" fill="white" fill-opacity="0.95"/>
<path fill-rule="evenodd" clip-rule="evenodd" d="M13.7175 3.10024C14.2301 2.58768 15.0617 2.58768 15.5742 3.10024L16.8999 4.42593C17.4125 4.93849 17.4125 5.77005 16.8999 6.28262L11.157 12.0248C10.9109 12.2708 10.577 12.4093 10.229 12.4093H8.52832L8.43237 12.4042C7.9913 12.3593 7.64086 12.0088 7.59595 11.5678L7.59082 11.4718V9.77114C7.59082 9.42312 7.7293 9.08929 7.97534 8.84316L13.7175 3.10024ZM9.09082 9.84878V10.9093H10.1514L15.7068 5.35464L14.6455 4.29336L9.09082 9.84878Z" fill="white" fill-opacity="0.95"/>
</svg>
