<svg width="24" height="24" viewBox="0 0 24 24" fill="none" xmlns="http://www.w3.org/2000/svg">
<path d="M16.2469 8.7375C16.5574 8.34939 17.1244 8.28637 17.5125 8.59687C17.9006 8.90738 17.9636 9.47437 17.6531 9.8625L14.0531 14.3625C13.7495 14.742 13.1992 14.8114 12.8104 14.5198L9.9293 12.3595L7.76982 15.2396C7.47163 15.6372 6.90799 15.7179 6.51035 15.4198C6.11275 15.1216 6.03207 14.558 6.33018 14.1604L9.03018 10.5604L9.08906 10.4892C9.3982 10.1539 9.9169 10.1007 10.2896 10.3802L13.1909 12.5563L16.2469 8.7375Z" fill="white" fill-opacity="0.95"/>
<path fill-rule="evenodd" clip-rule="evenodd" d="M17.1478 3C17.6699 3 18.1195 2.99963 18.4872 3.03164C18.8666 3.06467 19.243 3.13731 19.6008 3.33398C20.0497 3.58081 20.4192 3.95027 20.666 4.39922C20.8627 4.75697 20.9353 5.13345 20.9684 5.51279C21.0004 5.88053 21 6.3301 21 6.85225V17.1478C21 17.6699 21.0004 18.1195 20.9684 18.4872C20.9353 18.8666 20.8627 19.243 20.666 19.6008C20.4192 20.0497 20.0497 20.4192 19.6008 20.666C19.243 20.8627 18.8666 20.9353 18.4872 20.9684C18.1195 21.0004 17.6699 21 17.1478 21H6.85225C6.3301 21 5.88053 21.0004 5.51279 20.9684C5.13345 20.9353 4.75697 20.8627 4.39922 20.666C3.95027 20.4192 3.58081 20.0497 3.33398 19.6008C3.13731 19.243 3.06467 18.8666 3.03164 18.4872C2.99963 18.1195 3 17.6699 3 17.1478V6.85225C3 6.3301 2.99963 5.88053 3.03164 5.51279C3.06467 5.13345 3.13731 4.75697 3.33398 4.39922C3.58081 3.95027 3.95027 3.58081 4.39922 3.33398C4.75697 3.13731 5.13345 3.06467 5.51279 3.03164C5.88053 2.99963 6.3301 3 6.85225 3H17.1478ZM6.85225 4.8C6.29859 4.8 5.94075 4.801 5.66924 4.82461C5.40944 4.84723 5.31397 4.88565 5.2667 4.91162C5.11704 4.9939 4.9939 5.11704 4.91162 5.2667C4.88565 5.31397 4.84723 5.40944 4.82461 5.66924C4.801 5.94075 4.8 6.29859 4.8 6.85225V17.1478C4.8 17.7014 4.801 18.0593 4.82461 18.3308C4.84723 18.5906 4.88565 18.686 4.91162 18.7333C4.9939 18.883 5.11704 19.0061 5.2667 19.0884C5.31397 19.1143 5.40944 19.1528 5.66924 19.1754C5.94075 19.199 6.29859 19.2 6.85225 19.2H17.1478C17.7014 19.2 18.0593 19.199 18.3308 19.1754C18.5906 19.1528 18.686 19.1143 18.7333 19.0884C18.883 19.0061 19.0061 18.883 19.0884 18.7333C19.1143 18.686 19.1528 18.5906 19.1754 18.3308C19.199 18.0593 19.2 17.7014 19.2 17.1478V6.85225C19.2 6.29859 19.199 5.94075 19.1754 5.66924C19.1528 5.40944 19.1143 5.31397 19.0884 5.2667C19.0061 5.11704 18.883 4.9939 18.7333 4.91162C18.686 4.88565 18.5906 4.84723 18.3308 4.82461C18.0593 4.801 17.7014 4.8 17.1478 4.8H6.85225Z" fill="white" fill-opacity="0.95"/>
</svg>
