<svg width="24" height="24" viewBox="0 0 24 24" fill="none" xmlns="http://www.w3.org/2000/svg">
<path d="M2.35352 19.9961V7.57422C2.35352 7.27474 2.41536 7.02083 2.53906 6.8125C2.66927 6.60417 2.86133 6.42839 3.11523 6.28516L7.50977 3.74609C7.60091 3.69401 7.6888 3.64518 7.77344 3.59961C7.86458 3.55404 7.95247 3.51497 8.03711 3.48242V18.6289L4.07227 20.7773C3.80534 20.9271 3.56445 21.002 3.34961 21.002C3.03711 21.002 2.79297 20.9141 2.61719 20.7383C2.44141 20.5625 2.35352 20.3151 2.35352 19.9961ZM9.22852 18.4824V3.3457C9.31966 3.37174 9.40755 3.4043 9.49219 3.44336C9.58333 3.47591 9.67122 3.51823 9.75586 3.57031L14.2773 6.33398V21.3047C14.2122 21.2786 14.1439 21.2493 14.0723 21.2168C14.0072 21.1908 13.9355 21.1582 13.8574 21.1191L9.22852 18.4824ZM15.4785 21.2754V6.1875L19.5898 3.91211C19.8568 3.76237 20.1009 3.6875 20.3223 3.6875C20.6283 3.6875 20.8691 3.77214 21.0449 3.94141C21.2207 4.11068 21.3086 4.36133 21.3086 4.69336V17.1152C21.3086 17.4082 21.2467 17.6589 21.123 17.8672C20.9993 18.0755 20.8073 18.2546 20.5469 18.4043L15.7715 21.1387C15.7194 21.1647 15.6673 21.1875 15.6152 21.207C15.5697 21.2331 15.5241 21.2559 15.4785 21.2754Z" fill="white" fill-opacity="0.95"/>
</svg>
