<svg width="20" height="20" viewBox="0 0 20 20" fill="none" xmlns="http://www.w3.org/2000/svg">
<path d="M10 1.75L10.4248 1.76074C14.784 1.98185 18.25 5.58665 18.25 10C18.25 14.5566 14.5566 18.25 10 18.25C5.44335 18.25 1.75 14.5566 1.75 10C1.75002 5.4442 5.44331 1.75 10 1.75ZM9.25 3.29199C5.8749 3.66515 3.25002 6.52601 3.25 10C3.25 13.7282 6.27178 16.75 10 16.75C10.8479 16.75 11.6587 16.592 12.4062 16.3066L9.33301 10.3438C9.27826 10.2375 9.25 10.1195 9.25 10V3.29199ZM11.1074 10.5107L13.7393 15.6191C15.5539 14.4092 16.75 12.3449 16.75 10C16.75 9.73163 16.7316 9.46723 16.7012 9.20703L11.1074 10.5107ZM10.75 9.05469L16.3623 7.74609C15.5145 5.35307 13.357 3.58022 10.75 3.29199V9.05469Z" fill="white" fill-opacity="0.95"/>
</svg>
