<svg width="20" height="20" viewBox="0 0 20 20" fill="none" xmlns="http://www.w3.org/2000/svg">
<path fill-rule="evenodd" clip-rule="evenodd" d="M15.691 2.34982C16.9093 2.08496 17.9761 3.23814 17.6165 4.44674L14.0364 16.5024C13.6276 17.8789 11.7835 18.1224 11.0386 16.8884L8.05765 11.9489L3.10135 8.8984C1.88078 8.14698 2.12357 6.29295 3.50565 5.89035L15.573 2.37985L15.691 2.34982ZM15.9927 3.82052L3.9246 7.33029C3.8844 7.34207 3.86308 7.36011 3.84916 7.37716C3.83284 7.39724 3.81874 7.42661 3.814 7.46212C3.80932 7.49763 3.81494 7.53015 3.82572 7.55441C3.83501 7.57522 3.85176 7.59876 3.88797 7.62106L8.49198 10.4555L11.6897 7.23141C11.9815 6.9378 12.4564 6.9362 12.7503 7.22775C13.0439 7.51962 13.0457 7.9952 12.7539 8.28903L9.55033 11.5197L12.3233 16.1128C12.3914 16.2256 12.5589 16.2089 12.5987 16.0754L16.1787 4.02047L16.1795 4.01901C16.2178 3.88977 16.0984 3.78969 15.9927 3.82052Z" fill="white" fill-opacity="0.95"/>
</svg>
