<svg width="56" height="48" viewBox="0 0 56 48" fill="none" xmlns="http://www.w3.org/2000/svg">
<path d="M42.1162 22.2275C42.1021 22.2514 40.5948 24.7959 38.3076 26.5605C34.7231 29.326 31.6602 29.3203 29.1162 31.4854C26.5724 33.6503 25.5484 35.9494 25.3076 37L22.3535 34.7021C22.5943 33.6516 23.6175 31.3524 26.1611 29.1875C28.7052 27.0224 31.9359 27.2321 35.3535 24.2627C38.7338 21.3257 39.1524 19.9592 39.1611 19.9297L42.1162 22.2275ZM40.0156 14.2168C40.0156 14.2168 38.7019 19.5349 33.9746 23.2773C30.4249 26.0875 27.3272 26.037 24.7832 28.2021C22.2394 30.3671 21.2154 32.6662 20.9746 33.7168L18.0205 31.4189C18.2613 30.3684 19.2846 28.0692 21.8281 25.9043C24.3721 23.7392 27.6029 23.9489 31.0205 20.9795C36.0078 16.6462 37.0605 11.9189 37.0605 11.9189L40.0156 14.2168ZM34.8281 13.2979C34.8281 13.2979 33.8438 16.4499 29.8389 19.9297C26.4213 22.8991 23.1905 22.6884 20.6465 24.8535C18.1025 27.0186 17.0786 29.3186 16.8379 30.3691L13.8838 28.0703C14.1247 27.0197 15.148 24.7204 17.6914 22.5557C20.2354 20.3905 23.4662 20.6003 26.8838 17.6309C30.8887 14.1511 31.874 11 31.874 11L34.8281 13.2979Z" fill="url(#paint0_linear_40001161_44667)"/>
<defs>
<linearGradient id="paint0_linear_40001161_44667" x1="36.734" y1="11" x2="15.1113" y2="11" gradientUnits="userSpaceOnUse">
<stop stop-color="#FEDA3B"/>
<stop offset="0.47" stop-color="#EF5541"/>
<stop offset="0.815" stop-color="#821EE0"/>
<stop offset="0.98" stop-color="#7F2A8A"/>
</linearGradient>
</defs>
</svg>
