<svg width="24" height="24" viewBox="0 0 24 24" fill="none" xmlns="http://www.w3.org/2000/svg">
<path d="M12.6056 2.35938C13.2889 1.68885 14.4608 2.17514 14.4611 3.18164V10.2676H18.8468C19.7345 10.2678 20.236 11.278 19.7746 12.0059L19.6662 12.1504L11.4572 21.5713C10.7857 22.3419 9.53755 21.8578 9.53727 20.8184V13.7324H5.15153C4.20319 13.7324 3.69583 12.5792 4.33122 11.8496L12.5412 2.42871L12.5402 2.42774L12.6056 2.35938ZM12.633 5.00196L6.58415 11.9453H10.3615C10.866 11.9455 11.2773 12.3653 11.2775 12.8857V19.0977L11.3654 18.9971L17.4133 12.0547H13.6359C13.1315 12.0543 12.7201 11.6346 12.7199 11.1143V4.90137L12.633 5.00196Z" fill="currentColor"/>
</svg>
