<svg width="24" height="24" viewBox="0 0 24 24" fill="none" xmlns="http://www.w3.org/2000/svg">
<path opacity="0.2" d="M12 18C10.4092 17.9984 8.884 17.3659 7.75913 16.241C6.63426 15.1161 6.00159 13.5908 6 12C6.00191 10.4093 6.63469 8.88437 7.75949 7.75957C8.8843 6.63476 10.4093 6.00191 12 6C13.5907 6.00206 15.1156 6.6348 16.2403 7.75957C17.3651 8.88434 17.9979 10.4093 18 12C18.0021 12.7881 17.8479 13.5687 17.5462 14.2969C17.2446 15.025 16.8015 15.6864 16.2426 16.2422C15.6868 16.8011 15.0256 17.2441 14.2974 17.5459C13.5691 17.8476 12.7883 18.002 12 18ZM12 8.64023C11.1092 8.64118 10.2551 8.99527 9.62519 9.62519C8.99527 10.2551 8.64096 11.1092 8.64001 12C8.64096 12.8908 8.99527 13.7449 9.62519 14.3748C10.2551 15.0047 11.1092 15.3588 12 15.3598C12.8908 15.3586 13.7448 15.0047 14.3746 14.3748C15.0045 13.7449 15.3589 12.8908 15.36 12C15.3589 11.1092 15.0045 10.2551 14.3746 9.62519C13.7448 8.99531 12.8908 8.64134 12 8.64023Z" fill="#040405"/>
<path d="M16 12C16 14.2091 14.2091 16 12 16C9.79086 16 8 14.2091 8 12C8 9.79086 9.79086 8 12 8C14.2091 8 16 9.79086 16 12Z" fill="#040405"/>
</svg>
