<svg width="24" height="24" viewBox="0 0 24 24" fill="none" xmlns="http://www.w3.org/2000/svg">
<path d="M18.3477 12.8057C18.8269 12.8541 19.2012 13.2578 19.2012 13.75V15.8008H21.3116C21.8362 15.8008 22.2608 16.2254 22.2608 16.75C22.2608 17.2746 21.8362 17.6992 21.3116 17.6992H19.2012V19.75C19.2012 20.2422 18.8269 20.6459 18.3477 20.6943L18.251 20.6992C17.7266 20.699 17.3018 20.2746 17.3018 19.75V17.6992H15.2696C14.7452 17.6989 14.3203 17.2746 14.3203 16.75C14.3203 16.2254 14.7452 15.8011 15.2696 15.8008H17.3018V13.75C17.3018 13.2254 17.7266 12.801 18.251 12.8008L18.3477 12.8057ZM17.9659 3.30078C20.2426 3.30078 21.9472 5.28918 21.9473 7.56152V9.25C21.9473 9.77462 21.5226 10.1991 20.9981 10.1992C20.4736 10.1992 20.0479 9.77482 20.0479 9.25V7.56152C20.0478 6.17749 19.0391 5.19922 17.9659 5.19922H5.72073C4.6474 5.19922 3.63781 6.17755 3.63773 7.56152V16.3926C3.63773 17.7766 4.64735 18.7549 5.72073 18.7549H11.3858C11.9101 18.7551 12.3347 19.1798 12.335 19.7041L12.3301 19.8008C12.2817 20.2799 11.8777 20.6541 11.3858 20.6543H5.72073C3.44393 20.6543 1.73929 18.665 1.73929 16.3926V7.56152C1.73937 5.28918 3.44401 3.30078 5.72073 3.30078H17.9659Z" fill="#040405"/>
</svg>
