<svg width="24" height="24" viewBox="0 0 24 24" fill="none" xmlns="http://www.w3.org/2000/svg">
<path d="M8.28027 16.2601C8.5056 16.2601 8.72152 16.3498 8.88086 16.5091C9.04019 16.6684 9.1298 16.8844 9.12988 17.1097C9.12988 17.3351 9.04027 17.5518 8.88086 17.7112C8.72154 17.8705 8.50552 17.9602 8.28027 17.9603H2.7002C2.47476 17.9603 2.25804 17.8706 2.09863 17.7112C1.93927 17.5518 1.84961 17.3351 1.84961 17.1097C1.84969 16.8845 1.93945 16.6684 2.09863 16.5091C2.25804 16.3497 2.47476 16.2601 2.7002 16.2601H8.28027ZM21.2998 6.0296C21.5252 6.0296 21.742 6.11922 21.9014 6.27863C22.0608 6.43803 22.1504 6.65476 22.1504 6.88019C22.1503 7.10541 22.0605 7.32144 21.9014 7.48077C21.742 7.64018 21.5252 7.7298 21.2998 7.7298H15.7197C15.4944 7.72973 15.2785 7.64012 15.1191 7.48077C14.9598 7.32142 14.8702 7.10554 14.8701 6.88019C14.8701 6.65475 14.9597 6.43803 15.1191 6.27863C15.2785 6.11944 15.4945 6.02967 15.7197 6.0296H21.2998Z" fill="#040405"/>
<path d="M21.2998 16.2601C21.5229 16.2601 21.7436 16.3513 21.9014 16.5091C22.0589 16.6668 22.1503 16.8868 22.1504 17.1097C22.1504 17.3328 22.0591 17.5534 21.9014 17.7112C21.7435 17.8691 21.523 17.9603 21.2998 17.9603H17.8799C17.7947 18.2522 17.6652 18.5311 17.4944 18.7867C17.1648 19.2801 16.6962 19.6646 16.1481 19.8916C15.5999 20.1187 14.9967 20.1781 14.4147 20.0623C13.8328 19.9466 13.2982 19.6609 12.8787 19.2413C12.4591 18.8218 12.1734 18.2872 12.0576 17.7053C11.9419 17.1233 12.0013 16.5201 12.2284 15.9719C12.4554 15.4238 12.8399 14.9552 13.3333 14.6256C13.8266 14.2959 14.4067 14.12 15 14.12C15.7956 14.12 16.5587 14.4361 17.1213 14.9987C17.4761 15.3535 17.7329 15.788 17.8741 16.2601H21.2998Z" fill="#040405"/>
<path d="M12 7C12 7.59334 11.8241 8.17336 11.4944 8.66671C11.1648 9.16006 10.6962 9.54457 10.1481 9.77164C9.59987 9.9987 8.99667 10.0581 8.41473 9.94235C7.83279 9.8266 7.29824 9.54088 6.87868 9.12132C6.4941 8.73674 6.22197 8.25555 6.09012 7.7298H2.7002C2.47476 7.7298 2.25804 7.64018 2.09863 7.48077C1.93946 7.32144 1.84966 7.10541 1.84961 6.88019C1.84961 6.65475 1.93923 6.43803 2.09863 6.27863C2.25804 6.11922 2.47476 6.0296 2.7002 6.0296H6.16128C6.37284 5.41074 6.78719 4.87049 7.33329 4.50559C7.82664 4.17595 8.40666 4 9 4C9.79565 4 10.5587 4.31607 11.1213 4.87868C11.6839 5.44129 12 6.20435 12 7Z" fill="#040405"/>
</svg>
