<svg width="24" height="24" viewBox="0 0 24 24" fill="none" xmlns="http://www.w3.org/2000/svg">
<path fill-rule="evenodd" clip-rule="evenodd" d="M9.69739 5.24558C10.2393 4.05128 11.9599 4.05145 12.502 5.24558L12.5521 5.36862L14.0919 9.62253L14.1385 9.71657C14.1945 9.80421 14.278 9.87204 14.3776 9.90817L18.6315 11.448C19.9473 11.9246 19.9878 13.7429 18.7536 14.3027L18.6315 14.3519L14.3776 15.8918C14.2447 15.94 14.1402 16.0445 14.0919 16.1774L12.5521 20.4313C12.0603 21.7895 10.139 21.7896 9.6473 20.4313L8.10833 16.1774C8.07213 16.0777 8.00368 15.9944 7.91585 15.9383L7.82269 15.8918L3.56878 14.3519C2.21059 13.8602 2.21059 11.9398 3.56878 11.448L7.82269 9.90817L7.91585 9.86159C8.00368 9.80557 8.07213 9.72225 8.10833 9.62253L9.6473 5.36862L9.69739 5.24558ZM9.74573 10.2149C9.52161 10.8339 9.03407 11.3214 8.41507 11.5456L4.67269 12.9L8.41507 14.2544L8.52845 14.3001C9.09314 14.5405 9.53555 15.0045 9.74573 15.585L11.1001 19.3265L12.4545 15.585C12.6787 14.966 13.1661 14.4785 13.7852 14.2544L17.5267 12.9L13.7852 11.5456C13.2047 11.3354 12.7398 10.8938 12.4993 10.3292L12.4545 10.2149L11.1001 6.47253L9.74573 10.2149Z" fill="#040405"/>
<path d="M18.3001 2.54997C18.5631 2.55002 18.791 2.73279 18.8486 2.98943L19.0577 3.92107C19.1722 4.43023 19.5699 4.82797 20.079 4.94236L21.0107 5.15153C21.2673 5.20915 21.4501 5.43691 21.4501 5.69997C21.4501 5.96303 21.2673 6.19079 21.0107 6.24841L20.079 6.45759C19.5699 6.57197 19.1722 6.96972 19.0577 7.47888L18.8486 8.41052C18.791 8.66715 18.5631 8.84992 18.3001 8.84997C18.0371 8.84997 17.8093 8.66719 17.7517 8.41052L17.5425 7.47888C17.4281 6.96977 17.0303 6.57203 16.5212 6.45759L15.5887 6.24841C15.3322 6.19064 15.1501 5.96289 15.1501 5.69997C15.1501 5.43706 15.3322 5.2093 15.5887 5.15153L16.5212 4.94236C17.0303 4.82791 17.4281 4.43019 17.5425 3.92107L17.7517 2.98943C17.8093 2.73275 18.0371 2.54997 18.3001 2.54997Z" fill="#040405"/>
</svg>
