<svg width="24" height="24" viewBox="0 0 24 24" fill="none" xmlns="http://www.w3.org/2000/svg">
<path fill-rule="evenodd" clip-rule="evenodd" d="M4.83564 2.62528C5.10048 2.61681 5.34476 2.76463 5.4558 3.00055L5.99686 4.15012C6.03455 4.23018 6.05432 4.27186 6.07022 4.30212C6.07493 4.31109 6.07809 4.31666 6.07986 4.31969C6.08274 4.32294 6.0859 4.32592 6.08931 4.32862C6.09247 4.33024 6.09826 4.33312 6.10758 4.33741C6.13902 4.35185 6.18223 4.36966 6.26524 4.40357L7.30854 4.82985C7.55424 4.93024 7.71429 5.16565 7.71429 5.42667C7.71429 5.68768 7.55424 5.92309 7.30854 6.02348L6.26524 6.44976C6.18223 6.48367 6.13902 6.50148 6.10758 6.51592C6.09826 6.52021 6.09247 6.52309 6.08931 6.52471C6.0859 6.52741 6.08274 6.53039 6.07987 6.53364C6.07809 6.53667 6.07493 6.54224 6.07022 6.55121C6.05432 6.58147 6.03454 6.62315 5.99686 6.70321L5.4558 7.85278C5.34476 8.0887 5.10048 8.23652 4.83564 8.22804C4.57081 8.21957 4.33687 8.05645 4.24175 7.81394L3.81826 6.73423C3.78164 6.64085 3.76226 6.59194 3.74628 6.55642C3.74152 6.54586 3.73829 6.53929 3.73645 6.53571L3.70504 6.51598C3.66882 6.50031 3.61894 6.48131 3.52372 6.44539L2.42265 6.03012C2.16802 5.93409 2 5.69419 2 5.42667C2 5.15914 2.16802 4.91924 2.42265 4.82321L3.52372 4.40794C3.61894 4.37202 3.66882 4.35302 3.70504 4.33735C3.71581 4.33269 3.72251 4.32951 3.72616 4.32771C3.72992 4.32469 3.73337 4.32131 3.73645 4.31762L3.74628 4.29691L3.81826 4.1191L4.24175 3.03939C4.33687 2.79688 4.5708 2.63376 4.83564 2.62528ZM11.429 3.48735C11.6939 3.47888 11.9382 3.6267 12.0492 3.86262L13.997 8.00106C14.2643 8.56889 14.3589 8.76101 14.4835 8.91992C14.6033 9.07265 14.7456 9.20704 14.9057 9.31865C15.0723 9.43477 15.2717 9.52024 15.8604 9.76078L19.6162 11.2954C19.8619 11.3958 20.022 11.6312 20.022 11.8922C20.022 12.1532 19.8619 12.3886 19.6162 12.489L15.8604 14.0236C15.2717 14.2641 15.0723 14.3496 14.9057 14.4657C14.7456 14.5773 14.6033 14.7117 14.4835 14.8644C14.3589 15.0234 14.2643 15.2155 13.997 15.7833L12.0492 19.9217C11.9382 20.1577 11.6939 20.3055 11.429 20.297C11.1642 20.2885 10.9303 20.1254 10.8352 19.8829L9.31061 15.996C9.05056 15.3329 8.95733 15.1084 8.824 14.9245C8.69586 14.7478 8.53842 14.5934 8.35821 14.4678C8.1707 14.337 7.94173 14.2456 7.26561 13.9906L3.30177 12.4956C3.04714 12.3996 2.87912 12.1597 2.87912 11.8922C2.87912 11.6247 3.04714 11.3848 3.30177 11.2887L7.26561 9.79375C7.94173 9.53874 8.1707 9.44732 8.35821 9.31658C8.53842 9.19093 8.69586 9.03653 8.824 8.85982C8.95733 8.67595 9.05056 8.45142 9.31061 7.78841L10.8352 3.90146C10.9303 3.65894 11.1642 3.49583 11.429 3.48735ZM19.7415 20.9993C19.6305 21.2353 19.3862 21.3831 19.1214 21.3746C18.8565 21.3661 18.6226 21.203 18.5275 20.9605L18.104 19.8808L18.032 19.703L18.0222 19.6823C18.0191 19.6786 18.0156 19.6752 18.0119 19.6722C18.0082 19.6704 18.0015 19.6672 17.9908 19.6625C17.9545 19.6469 17.9047 19.6279 17.8094 19.5919L16.7084 19.1767C16.4537 19.0806 16.2857 18.8407 16.2857 18.5732C16.2857 18.3057 16.4537 18.0658 16.7084 17.9698L17.8094 17.5545C17.9047 17.5186 17.9545 17.4996 17.9908 17.4839L18.0222 17.4642C18.024 17.4606 18.0272 17.454 18.032 17.4435C18.048 17.4079 18.0674 17.359 18.104 17.2656L18.5275 16.1859C18.6226 15.9434 18.8565 15.7803 19.1214 15.7718C19.3862 15.7634 19.6305 15.9112 19.7415 16.1471L20.2826 17.2967C20.3203 17.3767 20.34 17.4184 20.3559 17.4487C20.3606 17.4576 20.3638 17.4632 20.3656 17.4662C20.3685 17.4695 20.3716 17.4725 20.375 17.4752C20.3782 17.4768 20.384 17.4797 20.3933 17.484C20.4247 17.4984 20.4679 17.5162 20.551 17.5501L21.5943 17.9764C21.84 18.0768 22 18.3122 22 18.5732C22 18.8342 21.84 19.0696 21.5943 19.17L20.551 19.5963C20.4679 19.6302 20.4247 19.648 20.3933 19.6625C20.3869 19.6654 20.3822 19.6677 20.3789 19.6693L20.375 19.6713C20.3716 19.674 20.3685 19.6769 20.3656 19.6802C20.3638 19.6832 20.3606 19.6888 20.3559 19.6978C20.34 19.728 20.3203 19.7697 20.2826 19.8498L19.7415 20.9993Z" fill="#040405"/>
</svg>
