<svg width="24" height="24" viewBox="0 0 24 24" fill="none" xmlns="http://www.w3.org/2000/svg">
<path d="M11.9995 1.8172C12.4748 1.8172 12.9428 1.94037 13.3569 2.17365C13.7183 2.37732 14.0292 2.65905 14.2661 2.99786L14.3608 3.1463L14.3637 3.15021L14.3657 3.15314L22.4721 16.6893L22.4799 16.702C22.7206 17.1196 22.8478 17.593 22.8491 18.075C22.8503 18.5573 22.7255 19.032 22.4868 19.451C22.2479 19.87 21.9024 20.219 21.4868 20.4637C21.0712 20.7083 20.5987 20.8409 20.1166 20.8465H3.88423C3.40173 20.8411 2.92797 20.7094 2.51216 20.4647C2.09645 20.2199 1.75205 19.8701 1.51313 19.451C1.27425 19.0317 1.14847 18.5566 1.14985 18.074C1.15126 17.5918 1.2798 17.1178 1.52095 16.7C1.52334 16.6959 1.52571 16.6918 1.52778 16.6883L9.6352 3.15118L9.73384 2.99884L9.73286 2.99786C9.96971 2.65885 10.2814 2.37742 10.643 2.17365C11.057 1.94046 11.5244 1.81729 11.9995 1.8172ZM11.9995 3.51837C11.817 3.51846 11.6372 3.56451 11.478 3.65411C11.3196 3.74334 11.1868 3.87234 11.0922 4.02716L2.99263 17.5486L2.97309 17.5818L2.97602 17.5848C2.89536 17.7371 2.85157 17.9062 2.85102 18.0789C2.85052 18.2645 2.89881 18.4469 2.99067 18.6082C3.08255 18.7695 3.21443 18.9046 3.37446 18.9988C3.53158 19.0913 3.71001 19.1415 3.89204 19.1453H20.1079C20.2897 19.1414 20.4676 19.0912 20.6245 18.9988C20.7842 18.9048 20.9182 18.7706 21.0102 18.6092C21.102 18.448 21.1493 18.2652 21.1489 18.0799C21.1484 17.8992 21.1011 17.7219 21.0131 17.5643V17.5613L21.0063 17.5496L12.9145 4.0379L12.9077 4.02521C12.813 3.87086 12.6796 3.74296 12.5219 3.65411C12.3625 3.56443 12.1821 3.51837 11.9995 3.51837ZM12.0102 15.1502C12.4795 15.1503 12.8597 15.5306 12.8598 15.9998C12.8598 16.4692 12.4795 16.8503 12.0102 16.8504H11.9995C11.5303 16.8501 11.1499 16.4691 11.1499 15.9998C11.15 15.5307 11.5303 15.1505 11.9995 15.1502H12.0102ZM11.9995 8.15021C12.4689 8.15021 12.8499 8.53052 12.85 8.99982V12.9998C12.85 13.4693 12.4689 13.8504 11.9995 13.8504C11.5303 13.8501 11.1499 13.4691 11.1499 12.9998V8.99982C11.15 8.53065 11.5303 8.15048 11.9995 8.15021Z" fill="currentColor"/>
</svg>
