<svg width="24" height="24" viewBox="0 0 24 24" fill="none" xmlns="http://www.w3.org/2000/svg">
<path d="M18.1504 8.84961H5.84961V18C5.84961 18.305 5.97086 18.5978 6.18652 18.8135C6.40219 19.0291 6.695 19.1504 7 19.1504H17C17.305 19.1504 17.5978 19.0291 17.8135 18.8135C18.0291 18.5978 18.1504 18.305 18.1504 18V8.84961ZM14 11.1504C14.4694 11.1504 14.8496 11.5306 14.8496 12C14.8496 12.4694 14.4694 12.8496 14 12.8496H10C9.53056 12.8496 9.15039 12.4694 9.15039 12C9.15039 11.5306 9.53056 11.1504 10 11.1504H14ZM20.1504 6C20.1504 5.695 20.0291 5.40219 19.8135 5.18652C19.5978 4.97086 19.305 4.84961 19 4.84961H5C4.695 4.84961 4.40219 4.97086 4.18652 5.18652C3.97086 5.40219 3.84961 5.695 3.84961 6C3.84961 6.305 3.97086 6.59781 4.18652 6.81348C4.40219 7.02914 4.695 7.15039 5 7.15039H19C19.305 7.15039 19.5978 7.02914 19.8135 6.81348C20.0291 6.59781 20.1504 6.305 20.1504 6ZM21.8496 6C21.8496 6.75587 21.5501 7.48115 21.0156 8.01562C20.6869 8.34435 20.2853 8.58258 19.8496 8.71875V18C19.8496 18.7559 19.5501 19.4811 19.0156 20.0156C18.4811 20.5501 17.7559 20.8496 17 20.8496H7C6.24413 20.8496 5.51885 20.5501 4.98438 20.0156C4.4499 19.4811 4.15039 18.7559 4.15039 18V8.71875C3.7147 8.58258 3.3131 8.34435 2.98438 8.01562C2.4499 7.48115 2.15039 6.75587 2.15039 6C2.15039 5.24413 2.4499 4.51885 2.98438 3.98438C3.51885 3.4499 4.24413 3.15039 5 3.15039H19C19.7559 3.15039 20.4811 3.4499 21.0156 3.98438C21.5501 4.51885 21.8496 5.24413 21.8496 6Z" fill="#040405"/>
</svg>
