<svg width="24" height="24" viewBox="0 0 24 24" fill="none" xmlns="http://www.w3.org/2000/svg">
<path d="M20.0001 11L6.37994 11L11.5714 5.70016C11.9578 5.30563 11.9512 4.67159 11.5567 4.28512C11.1622 3.89906 10.529 3.90547 10.1426 4.29977L3.28522 11.2998L3.21881 11.3759C2.9065 11.766 2.92823 12.3357 3.28522 12.7002L10.1426 19.7002C10.529 20.0944 11.1622 20.1009 11.5567 19.7148C11.9512 19.3283 11.9578 18.6943 11.5714 18.2998L6.37994 13L20.0001 13C20.5523 13 21.0001 12.5522 21.0001 12C21.0001 11.4477 20.5523 11 20.0001 11Z" fill="#040405"/>
</svg>
