<svg width="24" height="24" viewBox="0 0 24 24" fill="none" xmlns="http://www.w3.org/2000/svg">
<path d="M3.99994 11L17.6201 11L12.4286 5.70016C12.0422 5.30563 12.0488 4.67159 12.4433 4.28512C12.8378 3.89906 13.471 3.90547 13.8574 4.29977L20.7148 11.2998L20.7812 11.3759C21.0935 11.766 21.0718 12.3357 20.7148 12.7002L13.8574 19.7002C13.471 20.0944 12.8378 20.1009 12.4433 19.7148C12.0488 19.3283 12.0422 18.6943 12.4286 18.2998L17.6201 13L3.99994 13C3.44765 13 2.99994 12.5522 2.99994 12C2.99994 11.4477 3.44765 11 3.99994 11Z" fill="#040405"/>
</svg>
