<svg width="24" height="24" viewBox="0 0 24 24" fill="none" xmlns="http://www.w3.org/2000/svg">
<path d="M17.6507 7.17279C17.6506 6.35287 17.325 5.56658 16.7453 4.98671C16.1654 4.40677 15.3785 4.0805 14.5583 4.08043C13.7381 4.08043 12.9513 4.4067 12.3713 4.98671L6.17169 11.1863C5.21241 12.1457 4.67313 13.4464 4.67302 14.8031C4.67302 16.1599 5.21229 17.4613 6.17169 18.4208C7.13114 19.3802 8.43251 19.9195 9.78938 19.9195C11.1461 19.9194 12.4477 19.3802 13.4071 18.4208L19.6067 12.2212C19.9792 11.8491 20.583 11.8489 20.9554 12.2212C21.3279 12.5936 21.3279 13.1983 20.9554 13.5708L14.7558 19.7704C13.4387 21.0875 11.652 21.827 9.78938 21.827C7.92678 21.827 6.14013 21.0874 4.82298 19.7704C3.50579 18.4532 2.76544 16.6659 2.76544 14.8031C2.76556 12.9405 3.50589 11.1538 4.82298 9.83669L11.0226 3.63706C11.9603 2.69954 13.2323 2.17285 14.5583 2.17285C15.8844 2.17293 17.1564 2.69943 18.094 3.63706C19.0317 4.57471 19.5581 5.84676 19.5583 7.17279C19.5583 8.49897 19.0318 9.77169 18.094 10.7094L11.8944 16.9091C11.3362 17.4672 10.5788 17.7808 9.78938 17.7809C8.99999 17.7809 8.24261 17.4671 7.68434 16.9091C7.12603 16.3507 6.81159 15.5927 6.81159 14.8031C6.8117 14.0137 7.12613 13.2563 7.68434 12.698L13.884 6.49843C14.2564 6.12633 14.8603 6.12614 15.2327 6.49843C15.6052 6.87091 15.6052 7.4756 15.2327 7.84807L9.03306 14.0477C8.83266 14.2482 8.71928 14.5196 8.71916 14.8031C8.71916 15.0867 8.83253 15.3588 9.03306 15.5594C9.23363 15.76 9.50573 15.8733 9.78938 15.8733C10.0729 15.8732 10.3452 15.7599 10.5457 15.5594L16.7453 9.35979C17.3251 8.77981 17.6507 7.99288 17.6507 7.17279Z" fill="#040405"/>
</svg>
