<svg width="24" height="24" viewBox="0 0 24 24" fill="none" xmlns="http://www.w3.org/2000/svg">
<path d="M9.4707 2.20898C11.1633 1.75299 12.8967 2.7643 13.3476 4.45605C13.4488 4.83542 13.4737 5.21741 13.4375 5.58691C14.0177 5.69022 14.5804 5.87093 15.1064 6.12793C16.5335 6.82522 17.5845 8.03882 17.9805 9.52441C18.4752 11.3808 19.2809 12.573 20.0605 13.3408C20.5674 13.84 20.9632 14.2296 21.2334 14.5117C21.3672 14.6514 21.487 14.7822 21.5791 14.8965C21.6247 14.9531 21.6765 15.0217 21.7227 15.0967C21.7486 15.1389 21.8042 15.2313 21.8437 15.3574L21.876 15.4932L21.8906 15.5937C21.9041 15.7111 21.9101 15.8774 21.8623 16.0605C21.7984 16.3052 21.6654 16.4766 21.5967 16.5625C21.4857 16.7011 21.3591 16.7823 21.2949 16.8203C21.2193 16.8651 21.1427 16.8991 21.0791 16.9258C20.952 16.979 20.8012 17.0304 20.6426 17.0791C20.3225 17.1774 19.8689 17.299 19.2969 17.4531L16.4316 18.2246C16.4516 19.843 15.386 21.3352 13.7529 21.7754C12.1194 22.2155 10.4517 21.4597 9.6621 20.0488L8.55077 20.3486C7.97876 20.5027 7.52528 20.6244 7.19921 20.7002C7.03764 20.7377 6.88172 20.7703 6.74511 20.7881C6.67684 20.797 6.5937 20.8054 6.50585 20.8047C6.43125 20.8041 6.27954 20.7972 6.11327 20.7324C6.01074 20.6925 5.80967 20.6104 5.63183 20.4297C5.45421 20.2492 5.37524 20.047 5.33691 19.9443C5.26778 19.7592 5.2705 19.5903 5.27245 19.5244C5.27507 19.4363 5.28552 19.3503 5.29687 19.2783C5.31975 19.1333 5.3589 18.9606 5.40527 18.7725C5.49895 18.3924 5.64712 17.8561 5.83788 17.1689C6.1316 16.1109 6.2369 14.6728 5.74218 12.8164C5.34641 11.331 5.65303 9.753 6.54101 8.43359C6.86922 7.94593 7.26752 7.50653 7.71972 7.125C7.50395 6.82256 7.33566 6.47847 7.23437 6.09863C6.78399 4.40861 7.77992 2.66449 9.4707 2.20898ZM11.5176 19.5488C11.9622 20.0055 12.6304 20.2132 13.2842 20.0371C13.938 19.861 14.4138 19.3448 14.5732 18.7256L11.5176 19.5488ZM14.3164 7.74511C13.313 7.25491 12.0744 7.1433 10.8769 7.46582C9.67947 7.78843 8.66058 8.50777 8.03417 9.43847C7.41062 10.365 7.23172 11.4128 7.48242 12.3535C8.05726 14.5109 7.95402 16.2751 7.57226 17.6504C7.43856 18.132 7.3323 18.5217 7.24999 18.8311C7.47886 18.7713 7.75458 18.6988 8.083 18.6103L9.95117 18.1064C9.95368 18.1057 9.95645 18.1052 9.95898 18.1045C9.96096 18.104 9.96285 18.1031 9.96484 18.1025L18.8291 15.7148C19.1608 15.6255 19.4377 15.5501 19.667 15.4863C19.4415 15.2594 19.1547 14.9745 18.7978 14.623C17.7824 13.623 16.8162 12.1459 16.2412 9.98828C15.9906 9.04796 15.3149 8.23301 14.3164 7.74511ZM3.45312 7.51464C3.80703 7.16592 4.37666 7.16973 4.72558 7.52343C5.07452 7.87741 5.07077 8.44793 4.71679 8.79687C4.01147 9.49217 3.73333 10.5309 3.99902 11.4902C4.13173 11.9692 3.85107 12.4649 3.37206 12.5977C2.89307 12.7303 2.39735 12.4497 2.26464 11.9707C1.82511 10.3838 2.28127 8.66983 3.45312 7.51464ZM16.1982 4.43164C16.323 3.95071 16.8139 3.66164 17.2949 3.78613C18.8872 4.19829 20.1355 5.45606 20.5439 7.05175C20.667 7.53315 20.3769 8.02316 19.8955 8.14648C19.414 8.26974 18.9231 7.97955 18.7998 7.49804C18.553 6.53378 17.7975 5.77513 16.8437 5.52832C16.3626 5.40377 16.0737 4.91282 16.1982 4.43164ZM11.6084 4.91992C11.4119 4.18275 10.6616 3.75243 9.93847 3.94726C9.2137 4.1428 8.77673 4.89594 8.97363 5.63476C9.02633 5.83243 9.1193 6.00704 9.24023 6.15429C9.61364 5.97935 10.0048 5.83622 10.4082 5.72754C10.8121 5.61871 11.2227 5.54595 11.6338 5.50976C11.6663 5.31931 11.6615 5.11935 11.6084 4.91992Z" fill="#040405"/>
</svg>
