<svg width="24" height="24" viewBox="0 0 24 24" fill="none" xmlns="http://www.w3.org/2000/svg">
<path d="M13.9678 2.90912C14.7649 2.90917 15.3855 3.11546 15.8055 3.54041C16.225 3.96509 16.4426 4.60597 16.4427 5.47014V6.28615H19.247C20.1584 6.28618 20.8485 6.5326 21.3095 7.02505C21.7702 7.51711 22 8.25189 22 9.2211V18.1551C22 19.1242 21.7701 19.8591 21.3095 20.3511C20.8485 20.8436 20.1584 21.0909 19.247 21.0909H4.74512C3.84209 21.0909 3.1546 20.8436 2.69343 20.3511C2.23265 19.8591 2 19.1244 2 18.1551V9.2211C2 8.25179 2.23265 7.51709 2.69343 7.02505C3.1546 6.53272 3.84218 6.28615 4.74512 6.28615H7.55731V5.47014C7.55735 4.60572 7.79221 3.965 8.21918 3.54041C8.6465 3.11568 9.26421 2.90919 10.0233 2.90912H13.9678ZM20.1762 12.1336C18.399 12.732 16.469 13.1219 14.4384 13.2868L14.3466 13.2949V14.0033C14.3466 14.3521 14.2557 14.6229 14.0803 14.8067C13.9046 14.9909 13.6464 15.0856 13.3178 15.0856H10.6822C10.3536 15.0856 10.0954 14.9909 9.91971 14.8067C9.74434 14.6229 9.65341 14.3521 9.65338 14.0033V13.2949L9.56165 13.2868C7.73671 13.1386 5.99156 12.8106 4.36733 12.3112L3.68771 12.0897V18.104L3.69166 18.2483L3.69264 18.251C3.71415 18.5893 3.81064 18.8482 3.97573 19.0276C4.16377 19.2319 4.44321 19.3368 4.81121 19.337H19.1927L19.318 19.3316H19.322C19.6254 19.3089 19.8601 19.206 20.0243 19.0276C20.1894 18.8482 20.2858 18.5893 20.3074 18.251L20.3083 18.2483L20.3123 18.104V12.0879L20.1762 12.1336ZM4.81121 8.03923C4.44316 8.0394 4.16371 8.14282 3.97573 8.34591C3.7875 8.5496 3.68786 8.85742 3.68771 9.27491V10.2954L3.74887 10.3187C6.17117 11.2667 8.95666 11.7436 12 11.7436C15.0432 11.7436 17.8289 11.2677 20.2511 10.3285L20.3123 10.3043V9.27491C20.3121 8.88357 20.2248 8.58849 20.0588 8.38536C19.8931 8.18283 19.6469 8.06952 19.3229 8.04551L19.319 8.04461L19.1878 8.04013L4.81121 8.03923ZM10.0746 4.46313C9.77012 4.46314 9.53388 4.55333 9.37424 4.72228C9.21436 4.89183 9.12768 5.14374 9.12764 5.47014V6.28615H14.8724V5.47014C14.8723 5.16422 14.7964 4.92398 14.6544 4.75546C14.5126 4.58728 14.3023 4.48866 14.03 4.46761H14.0251L13.9175 4.46313H10.0746Z" fill="#040405"/>
</svg>
