<svg width="24" height="24" viewBox="0 0 24 24" fill="none" xmlns="http://www.w3.org/2000/svg">
<path d="M20.8779 2.10837C21.1567 2.07024 21.4377 2.16428 21.6367 2.36325C21.8357 2.56223 21.9297 2.84324 21.8916 3.12204C21.4792 6.13673 20.2605 8.98461 18.3643 11.3642C16.6334 13.5362 14.3953 15.2418 11.8535 16.3408C11.9699 17.198 11.8597 18.0725 11.5273 18.875C11.1565 19.7702 10.5283 20.5358 9.72266 21.0742C8.91686 21.6126 7.96913 21.9004 7 21.9004H3C2.50294 21.9004 2.09961 21.497 2.09961 21V17C2.09961 16.0308 2.38736 15.0831 2.92578 14.2773C3.46419 13.4716 4.22973 12.8435 5.125 12.4726C5.92716 12.1404 6.80139 12.0293 7.6582 12.1455C8.7572 9.60394 10.4639 7.36646 12.6357 5.63572C15.0154 3.73945 17.8632 2.52075 20.8779 2.10837ZM10.8398 10.1347C10.2686 10.9425 9.77735 11.8069 9.37305 12.7158C9.77099 12.9362 10.1397 13.21 10.4648 13.5351C10.7897 13.86 11.0629 14.2284 11.2832 14.6259C12.1922 14.2216 13.0564 13.7304 13.8643 13.1592C13.1453 11.8984 12.1007 10.8535 10.8398 10.1347ZM19.8838 4.11521C17.6514 4.61273 15.5551 5.61079 13.7578 7.04294C13.117 7.55362 12.5214 8.11397 11.9756 8.71677C13.3262 9.53901 14.4598 10.6729 15.2822 12.0234C15.885 11.4775 16.4463 10.883 16.957 10.2422C18.3893 8.44473 19.3863 6.34783 19.8838 4.11521ZM3.90039 20.0996H7C7.61312 20.0996 8.21286 19.9178 8.72266 19.5771C9.2322 19.2365 9.62969 18.7527 9.86426 18.1865C10.0989 17.6201 10.1596 16.9968 10.04 16.3955C10.0268 16.3291 10.0106 16.2633 9.99316 16.1982C9.98041 16.1723 9.96843 16.1457 9.95801 16.1181C9.93517 16.0576 9.91951 15.996 9.91016 15.9345C9.75586 15.5131 9.51242 15.1276 9.19238 14.8076C8.87205 14.4873 8.48636 14.2431 8.06445 14.0888C8.00337 14.0795 7.94196 14.0647 7.88184 14.042C7.85385 14.0314 7.82706 14.0188 7.80078 14.0058C7.73605 13.9885 7.6705 13.9731 7.60449 13.9599C7.00321 13.8404 6.37986 13.9011 5.81348 14.1357C5.24724 14.3703 4.76345 14.7678 4.42285 15.2773C4.08222 15.7871 3.90039 16.3869 3.90039 17V20.0996Z" fill="#040405"/>
</svg>
