<svg width="24" height="24" viewBox="0 0 24 24" fill="none" xmlns="http://www.w3.org/2000/svg">
<path d="M12.0005 2.10001L12.5093 2.1127C17.7407 2.37774 21.9 6.70422 21.9 12.0005C21.8998 17.4682 17.4682 21.8998 12.0005 21.9C6.53259 21.9 2.10021 17.4683 2.1 12.0005C2.10003 6.53348 6.53241 2.10001 12.0005 2.10001ZM11.1001 3.95061C7.04994 4.39841 3.89985 7.83167 3.89982 12.0005C3.90003 16.4742 7.52671 20.1002 12.0005 20.1002C13.0181 20.1001 13.991 19.9105 14.8882 19.568L11.2007 12.4126C11.135 12.2852 11.1001 12.1438 11.1001 12.0005V3.95061ZM13.3286 12.6138L16.4878 18.7427C18.665 17.2909 20.1 14.8139 20.1002 12.0005C20.1002 11.6784 20.0782 11.3606 20.0416 11.0483L13.3286 12.6138ZM12.8999 10.8657L19.6353 9.29539C18.6179 6.42361 16.0284 4.29644 12.8999 3.95061V10.8657Z" fill="#040405"/>
</svg>
