<svg width="24" height="24" viewBox="0 0 24 24" fill="none" xmlns="http://www.w3.org/2000/svg">
<path d="M15 1.10059C17.7322 1.10059 19.718 1.68282 21.0176 2.98242C22.3172 4.28202 22.8994 6.2678 22.8994 9V15C22.8994 17.7322 22.3172 19.718 21.0176 21.0176C19.718 22.3172 17.7322 22.8994 15 22.8994H9C6.2678 22.8994 4.28202 22.3172 2.98242 21.0176C1.68282 19.718 1.10059 17.7322 1.10059 15V9C1.10059 6.2678 1.68282 4.28202 2.98242 2.98242C4.28202 1.68282 6.2678 1.10059 9 1.10059H15ZM9 2.89941C6.70559 2.89941 5.19459 3.30931 4.25195 4.25195C3.30931 5.19459 2.89941 6.70559 2.89941 9V15C2.89941 17.2944 3.30931 18.8054 4.25195 19.748C5.19459 20.6907 6.70559 21.1006 9 21.1006H15C17.2944 21.1006 18.8054 20.6907 19.748 19.748C20.6907 18.8054 21.1006 17.2944 21.1006 15V9C21.1006 6.70559 20.6907 5.19459 19.748 4.25195C18.8054 3.30931 17.2944 2.89941 15 2.89941H9ZM8.5 10.1006C9.26917 10.1006 10.006 10.4064 10.5498 10.9502C11.0936 11.494 11.3994 12.2308 11.3994 13V16.5049L11.3857 16.7812V16.7842C11.358 17.0672 11.2897 17.3455 11.1807 17.6094C11.0351 17.9612 10.8202 18.2814 10.5508 18.5508C10.2814 18.8202 9.96121 19.0351 9.60938 19.1807C9.34553 19.2897 9.06722 19.358 8.78418 19.3857H8.78125L8.50195 19.3984L8.49512 19.3994C8.11627 19.399 7.74082 19.3254 7.39062 19.1807C7.03879 19.0351 6.71863 18.8202 6.44922 18.5508C6.17981 18.2814 5.96494 17.9612 5.81934 17.6094C5.7375 17.4114 5.67864 17.2053 5.64258 16.9951L5.61426 16.7842V16.7812L5.60059 16.502L5.59961 16.4951L5.60059 13C5.60059 12.2308 5.90637 11.494 6.4502 10.9502C6.99402 10.4064 7.73083 10.1006 8.5 10.1006ZM15.5029 4.60059L15.7842 4.61426L16.0352 4.65039C16.6052 4.75754 17.1338 5.03421 17.5498 5.4502C18.0936 5.99402 18.3994 6.73083 18.3994 7.5V16.5049L18.3857 16.7812V16.7842C18.358 17.0672 18.2897 17.3455 18.1807 17.6094C18.0351 17.9612 17.8202 18.2814 17.5508 18.5508C17.2814 18.8202 16.9612 19.0351 16.6094 19.1807C16.3455 19.2897 16.0672 19.358 15.7842 19.3857H15.7812L15.502 19.3984L15.4951 19.3994C15.1163 19.399 14.7408 19.3254 14.3906 19.1807C14.0388 19.0351 13.7186 18.8202 13.4492 18.5508C13.1798 18.2814 12.9649 17.9612 12.8193 17.6094C12.7375 17.4114 12.6786 17.2053 12.6426 16.9951L12.6143 16.7842V16.7812L12.6006 16.502L12.5996 16.4951L12.6006 7.5C12.6006 6.73083 12.9064 5.99402 13.4502 5.4502C13.994 4.90637 14.7308 4.60059 15.5 4.60059H15.5029ZM8.5 11.8994C8.2083 11.8994 7.928 12.0154 7.72168 12.2217C7.51536 12.428 7.39941 12.7083 7.39941 13V16.5C7.39941 16.7917 7.51536 17.072 7.72168 17.2783C7.928 17.4846 8.2083 17.6006 8.5 17.6006C8.7917 17.6006 9.072 17.4846 9.27832 17.2783C9.48464 17.072 9.60059 16.7917 9.60059 16.5V13C9.60059 12.7083 9.48464 12.428 9.27832 12.2217C9.072 12.0154 8.79169 11.8994 8.5 11.8994ZM15.5 6.39941C15.2083 6.39941 14.928 6.51536 14.7217 6.72168C14.5154 6.928 14.3994 7.20831 14.3994 7.5V16.5C14.3994 16.7917 14.5154 17.072 14.7217 17.2783C14.928 17.4846 15.2083 17.6006 15.5 17.6006C15.7917 17.6006 16.072 17.4846 16.2783 17.2783C16.4846 17.072 16.6006 16.7917 16.6006 16.5V7.5C16.6006 7.2083 16.4846 6.928 16.2783 6.72168C16.072 6.51536 15.7917 6.39941 15.5 6.39941Z" fill="#040405"/>
</svg>
