<svg width="24" height="24" viewBox="0 0 24 24" fill="none" xmlns="http://www.w3.org/2000/svg">
<path d="M12 2.26404C12.332 2.26404 12.6152 2.40076 12.8887 2.65466L18.4453 7.98669C18.6602 8.20154 18.8066 8.47498 18.8066 8.81677C18.8066 9.47107 18.2891 9.94958 17.6738 9.94958C17.4004 9.94958 17.1074 9.86169 16.8535 9.61755L12 4.86169L7.13672 9.61755C6.88281 9.87146 6.58984 9.94958 6.31641 9.94958C5.70117 9.94958 5.18359 9.47107 5.18359 8.81677C5.18359 8.47498 5.33008 8.20154 5.55469 7.98669L11.1016 2.65466C11.375 2.40076 11.6582 2.26404 12 2.26404ZM12 21.8344C11.6582 21.8344 11.375 21.6976 11.1016 21.434L5.55469 16.1117C5.33008 15.8969 5.18359 15.6234 5.18359 15.2816C5.18359 14.6273 5.70117 14.1488 6.31641 14.1488C6.58984 14.1488 6.88281 14.2269 7.13672 14.4808L12 19.2269L16.8535 14.4808C17.1074 14.2367 17.4004 14.1488 17.6738 14.1488C18.2891 14.1488 18.8066 14.6273 18.8066 15.2816C18.8066 15.6234 18.6602 15.8969 18.4453 16.1117L12.8887 21.434C12.6152 21.6976 12.332 21.8344 12 21.8344Z" fill="#040405"/>
</svg>
