<svg width="24" height="24" viewBox="0 0 24 24" fill="none" xmlns="http://www.w3.org/2000/svg">
<path d="M8.96261 4.96078C9.09014 4.96303 9.21621 4.99091 9.33272 5.04281C9.44713 5.09379 9.55041 5.16668 9.63644 5.25766L15.7077 11.3289C15.8836 11.5076 15.9821 11.7482 15.9821 11.9989C15.9821 12.2498 15.8838 12.4911 15.7077 12.6698L9.63644 18.7391C9.54845 18.828 9.44432 18.8992 9.32882 18.9471C9.21399 18.9948 9.09083 19.0186 8.96651 19.0184L8.96456 19.0194C8.83973 19.0206 8.71562 18.996 8.6003 18.9481C8.48419 18.8998 8.37929 18.8284 8.29171 18.7381C8.11659 18.5596 8.01735 18.3193 8.01729 18.0692C8.01729 17.8183 8.11656 17.577 8.29269 17.3983L13.6921 11.9989L8.29366 6.60043C8.20291 6.5145 8.1297 6.41093 8.07882 6.29672C8.02691 6.1802 7.99904 6.05414 7.99679 5.9266C7.9946 5.79924 8.01746 5.67265 8.06515 5.55453C8.11293 5.43624 8.18392 5.32834 8.27413 5.23813C8.36434 5.14792 8.47225 5.07692 8.59054 5.02914C8.70866 4.98145 8.83524 4.95859 8.96261 4.96078Z" fill="#040405"/>
</svg>
