<svg width="24" height="24" viewBox="0 0 24 24" fill="none" xmlns="http://www.w3.org/2000/svg">
<path d="M4.96078 15.0374C4.96303 14.9098 4.9909 14.7838 5.04281 14.6673C5.09378 14.5528 5.16668 14.4496 5.25765 14.3635L11.3289 8.29226C11.5076 8.11637 11.7482 8.01788 11.9989 8.01785C12.2498 8.01785 12.4911 8.11614 12.6698 8.29226L18.7391 14.3635C18.828 14.4515 18.8992 14.5557 18.9471 14.6712C18.9948 14.786 19.0185 14.9092 19.0184 15.0335L19.0194 15.0354C19.0206 15.1603 18.9959 15.2844 18.9481 15.3997C18.8998 15.5158 18.8283 15.6207 18.7381 15.7083C18.5596 15.8834 18.3193 15.9826 18.0692 15.9827C17.8183 15.9827 17.577 15.8834 17.3983 15.7073L11.9989 10.3079L6.60042 15.7063C6.51449 15.7971 6.41092 15.8703 6.29671 15.9212C6.1802 15.9731 6.05413 16.0009 5.9266 16.0032C5.79923 16.0054 5.67265 15.9825 5.55453 15.9348C5.43623 15.8871 5.32833 15.8161 5.23812 15.7259C5.14791 15.6356 5.07692 15.5277 5.02914 15.4094C4.98145 15.2913 4.95859 15.1647 4.96078 15.0374Z" fill="#040405"/>
</svg>
