<svg width="24" height="24" viewBox="0 0 24 24" fill="none" xmlns="http://www.w3.org/2000/svg">
<path d="M15.0162 4.96078C14.8887 4.96303 14.7626 4.99091 14.6461 5.04281C14.5317 5.09379 14.4284 5.16668 14.3424 5.25766L8.2711 11.3289C8.0952 11.5076 7.99671 11.7482 7.99668 11.9989C7.99668 12.2498 8.09497 12.4911 8.2711 12.6698L14.3424 18.7391C14.4304 18.828 14.5345 18.8992 14.65 18.9471C14.7648 18.9948 14.888 19.0186 15.0123 19.0184L15.0143 19.0194C15.1391 19.0206 15.2632 18.996 15.3785 18.9481C15.4946 18.8998 15.5995 18.8284 15.6871 18.7381C15.8622 18.5596 15.9615 18.3193 15.9615 18.0692C15.9615 17.8183 15.8623 17.577 15.6861 17.3983L10.2867 11.9989L15.6852 6.60043C15.7759 6.5145 15.8491 6.41093 15.9 6.29672C15.9519 6.1802 15.9798 6.05414 15.982 5.9266C15.9842 5.79924 15.9614 5.67265 15.9137 5.55453C15.8659 5.43624 15.7949 5.32834 15.7047 5.23813C15.6145 5.14792 15.5066 5.07692 15.3883 5.02914C15.2702 4.98145 15.1436 4.95859 15.0162 4.96078Z" fill="#040405"/>
</svg>
