<svg width="24" height="24" viewBox="0 0 24 24" fill="none" xmlns="http://www.w3.org/2000/svg">
<path d="M19.0392 8.96261C19.037 9.09015 19.0091 9.21621 18.9572 9.33273C18.9062 9.44714 18.8333 9.55042 18.7423 9.63644L12.6711 15.7077C12.4924 15.8836 12.2518 15.9821 12.0011 15.9821C11.7502 15.9821 11.5089 15.8839 11.3302 15.7077L5.2609 9.63644C5.17203 9.54846 5.10084 9.44433 5.0529 9.32883C5.00523 9.214 4.98146 9.09084 4.98161 8.96652L4.98063 8.96457C4.97937 8.83974 5.00405 8.71562 5.05192 8.60031C5.10017 8.4842 5.17166 8.37929 5.26188 8.29172C5.44036 8.1166 5.68073 8.01735 5.93083 8.0173C6.18172 8.0173 6.42304 8.11657 6.60172 8.29269L12.0011 13.6921L17.3996 8.29367C17.4855 8.20292 17.5891 8.12971 17.7033 8.07883C17.8198 8.02692 17.9459 7.99904 18.0734 7.99679C18.2008 7.9946 18.3274 8.01746 18.4455 8.06515C18.5638 8.11293 18.6717 8.18393 18.7619 8.27414C18.8521 8.36435 18.9231 8.47225 18.9709 8.59054C19.0186 8.70867 19.0414 8.83525 19.0392 8.96261Z" fill="#040405"/>
</svg>
