<svg width="24" height="24" viewBox="0 0 24 24" fill="none" xmlns="http://www.w3.org/2000/svg">
<path d="M15.8483 6.80187C16.2213 6.42892 16.826 6.42892 17.1989 6.80187C17.5713 7.17472 17.5713 7.77863 17.1989 8.15148L13.3405 12.0089L17.1989 15.8673C17.5715 16.2403 17.5718 16.845 17.1989 17.2179C16.8261 17.5907 16.2213 17.5905 15.8483 17.2179L11.9899 13.3595L8.1325 17.2179C7.75965 17.5903 7.15574 17.5903 6.78289 17.2179C6.40994 16.8449 6.40994 16.2402 6.78289 15.8673L10.6403 12.0089L6.78289 8.15148C6.40994 7.77853 6.40994 7.17482 6.78289 6.80187C7.15584 6.42892 7.75955 6.42892 8.1325 6.80187L11.9899 10.6593L15.8483 6.80187Z" fill="#040405"/>
</svg>
