<svg width="24" height="24" viewBox="0 0 24 24" fill="none" xmlns="http://www.w3.org/2000/svg">
<path d="M16.7408 18.0944L12.0031 13.3567L7.26531 18.0944C7.08488 18.2722 6.8418 18.3718 6.58852 18.3718C6.33525 18.3718 6.0921 18.2722 5.91166 18.0944C5.73393 17.914 5.63434 17.6709 5.63434 17.4176C5.63434 17.1643 5.73393 16.9212 5.91166 16.7408L10.6494 12.0031L5.91166 7.26533C5.73393 7.08489 5.63434 6.84178 5.63434 6.5885C5.63434 6.33523 5.73393 6.09211 5.91166 5.91168C6.09182 5.7334 6.33507 5.63342 6.58852 5.63342C6.84197 5.63342 7.08516 5.7334 7.26531 5.91168L12.0031 10.6494L16.7408 5.91168C16.9209 5.7334 17.1641 5.63342 17.4176 5.63342C17.671 5.63342 17.9142 5.7334 18.0944 5.91168C18.2721 6.09211 18.3718 6.33523 18.3718 6.5885C18.3718 6.84178 18.2721 7.08489 18.0944 7.26533L13.3567 12.0031L18.0944 16.7408C18.2721 16.9212 18.3718 17.1643 18.3718 17.4176C18.3718 17.6709 18.2721 17.914 18.0944 18.0944C17.9144 18.2729 17.671 18.3727 17.4176 18.3719C17.2921 18.3725 17.1677 18.3483 17.0515 18.3007C16.9354 18.253 16.8298 18.183 16.7408 18.0944Z" fill="#040405"/>
</svg>
