<svg width="24" height="24" viewBox="0 0 24 24" fill="none" xmlns="http://www.w3.org/2000/svg">
<path d="M8.1816 8.18159C8.55811 7.80508 9.1541 7.78124 9.55809 8.11057L9.63622 8.18159L12 10.5453L14.3637 8.18159L14.4419 8.11057C14.8459 7.78124 15.4418 7.80508 15.8184 8.18159C16.1949 8.5581 16.2187 9.15409 15.8894 9.55808L15.8184 9.63621L13.4546 12L15.8184 14.3637C16.22 14.7654 16.22 15.4167 15.8184 15.8183C15.4167 16.22 14.7654 16.22 14.3637 15.8183L12 13.4546L9.63622 15.8183C9.23453 16.22 8.58328 16.22 8.1816 15.8183C7.77991 15.4167 7.77991 14.7654 8.1816 14.3637L10.5454 12L8.1816 9.63621L8.11057 9.55808C7.78125 9.15409 7.80509 8.5581 8.1816 8.18159Z" fill="#040405"/>
</svg>
