<svg width="24" height="24" viewBox="0 0 24 24" fill="none" xmlns="http://www.w3.org/2000/svg">
<g transform="translate(24,0) scale(-1,1)">
<path d="M19.0352 13.8076C19.552 13.8076 19.9297 14.1932 19.9297 14.71C19.9296 15.2349 19.5519 15.6123 19.0352 15.6123H18.4609L16.123 15.4482L17.9277 17.1543L20.1094 19.3281C20.2816 19.5004 20.3809 19.7305 20.3809 19.9766C20.3807 20.5342 19.9782 20.9111 19.4287 20.9111C19.1827 20.9111 18.9613 20.8289 18.7891 20.6484L16.623 18.4668L14.9092 16.6621L15.0732 18.9834V19.4922C15.0732 20.0172 14.6955 20.3945 14.1787 20.3945C13.6538 20.3944 13.2686 20.0089 13.2686 19.4922V15.2754C13.2687 14.3488 13.8098 13.8078 14.7363 13.8076H19.0352ZM4.32812 3.89941C4.57422 3.89941 4.79648 3.98984 4.96875 4.16211L7.13379 6.34375L8.84863 8.14844L8.68457 5.83594V5.31836C8.68476 4.8019 9.06167 4.425 9.57812 4.4248C10.103 4.4248 10.4891 4.80996 10.4893 5.31836V9.54297C10.4893 10.4699 9.94746 11.0039 9.02051 11.0039H4.72266C4.20598 11.0039 3.8205 10.6264 3.82031 10.1016C3.82031 9.58477 4.20586 9.20703 4.72266 9.20703H5.29688L7.63477 9.37109L5.83008 7.66504L3.64746 5.48242C3.47543 5.31024 3.377 5.08903 3.37695 4.83496C3.37695 4.28548 3.77053 3.8996 4.32812 3.89941Z" fill="currentColor"/>
</g>
</svg>
