<svg width="24" height="24" viewBox="0 0 24 24" fill="none" xmlns="http://www.w3.org/2000/svg">
<path d="M8.21094 2.85286C10.0199 2.10357 12.0112 1.90837 13.9316 2.29036C15.852 2.6724 17.6165 3.61489 19.001 4.99935C20.3853 6.38378 21.3279 8.14845 21.71 10.0687C22.0918 11.9889 21.8956 13.9796 21.1465 15.7884C20.3972 17.5973 19.128 19.144 17.5 20.2318C15.872 21.3195 13.9579 21.8997 12 21.8997C10.4934 21.8997 9.06286 21.5613 7.78223 20.9574L7.75195 20.9427L3.18066 21.8812C2.88442 21.9419 2.57711 21.8499 2.36328 21.6361C2.1496 21.4222 2.05738 21.1149 2.11816 20.8187L3.0498 16.2796L3.05664 16.2474L3.04297 16.2171C2.43836 14.9359 2.09966 13.5073 2.09961 12.0003C2.09961 10.0425 2.68089 8.1283 3.76855 6.50032C4.85636 4.87235 6.40208 3.60216 8.21094 2.85286ZM13.5801 4.05501C12.0089 3.74255 10.3803 3.90396 8.90039 4.51693C7.4204 5.13 6.15562 6.16836 5.26562 7.50032C4.37564 8.83232 3.90039 10.3983 3.90039 12.0003C3.90045 13.3412 4.22359 14.6024 4.79883 15.7142C4.89335 15.8971 4.92314 16.1065 4.88184 16.3079L4.18652 19.6947L4.15527 19.8431L4.30469 19.8128L7.69141 19.1175L7.84375 19.1009L7.95801 19.1048C8.07187 19.1154 8.18336 19.1474 8.28613 19.2005L8.70996 19.4036C9.71438 19.8507 10.8277 20.0999 12 20.0999C13.602 20.0999 15.168 19.6247 16.5 18.7347C17.832 17.8447 18.8703 16.5799 19.4834 15.0999C20.0964 13.62 20.2568 11.9914 19.9443 10.4202C19.6318 8.84901 18.8604 7.40462 17.7275 6.27181C16.5948 5.13917 15.1512 4.36752 13.5801 4.05501Z" fill="#040405"/>
</svg>
