<svg width="24" height="24" viewBox="0 0 24 24" fill="none" xmlns="http://www.w3.org/2000/svg">
<path d="M18.333 6.10059L18.5088 6.10547C18.9169 6.12546 19.319 6.21451 19.6973 6.37109C20.1299 6.55031 20.5242 6.81322 20.8555 7.14453C21.1868 7.47584 21.4497 7.87008 21.6289 8.30273C21.8079 8.73523 21.8994 9.19882 21.8994 9.66699V18.333L21.8945 18.5088C21.8745 18.9169 21.7855 19.319 21.6289 19.6973C21.4497 20.1299 21.1868 20.5242 20.8555 20.8555C20.5242 21.1868 20.1299 21.4497 19.6973 21.6289C19.319 21.7855 18.9169 21.8745 18.5088 21.8945L18.333 21.8994H9.66699C9.19882 21.8994 8.73523 21.8079 8.30273 21.6289C7.87008 21.4497 7.47584 21.1868 7.14453 20.8555C6.81322 20.5242 6.55031 20.1299 6.37109 19.6973C6.21451 19.319 6.12546 18.9169 6.10547 18.5088L6.10059 18.333V9.66699C6.10059 8.72101 6.47556 7.8135 7.14453 7.14453C7.8135 6.47556 8.72101 6.10059 9.66699 6.10059H18.333ZM9.66699 7.89941C9.19836 7.89942 8.74837 8.08561 8.41699 8.41699C8.08561 8.74837 7.89942 9.19836 7.89941 9.66699V18.3359L7.9082 18.5039V18.5059C7.92529 18.6786 7.9685 18.8488 8.03516 19.0098C8.12392 19.2238 8.25306 19.4191 8.41699 19.583C8.58093 19.7469 8.7762 19.8761 8.99023 19.9648C9.20455 20.0536 9.4349 20.1006 9.66699 20.1006H18.3359L18.5039 20.0918H18.5059C18.6786 20.0747 18.8488 20.0315 19.0098 19.9648C19.2238 19.8761 19.4191 19.7469 19.583 19.583C19.7469 19.4191 19.8761 19.2238 19.9648 19.0098C20.0315 18.8488 20.0747 18.6786 20.0918 18.5059V18.5039L20.1006 18.3359V9.66699C20.1006 9.4349 20.0536 9.20455 19.9648 8.99023C19.8761 8.7762 19.7469 8.58093 19.583 8.41699C19.4191 8.25306 19.2238 8.12392 19.0098 8.03516C18.8891 7.98516 18.763 7.94817 18.6348 7.92578L18.5059 7.9082H18.5039L18.3359 7.89941H9.66699ZM15 2.10059C15.5434 2.10059 16.0232 2.24369 16.4316 2.54004C16.8206 2.82235 17.085 3.20085 17.2861 3.5625C17.5275 3.99679 17.3715 4.5445 16.9375 4.78613C16.5032 5.02752 15.9555 4.87151 15.7139 4.4375C15.5732 4.18454 15.4618 4.06188 15.374 3.99805C15.3056 3.94845 15.206 3.89941 15 3.89941H5C4.39706 3.89941 3.89941 4.39706 3.89941 5V14.9941L3.90918 15.1426V15.1465C3.92882 15.2887 3.97738 15.4262 4.0498 15.5508C4.1478 15.7189 4.28927 15.8589 4.45801 15.9551C4.88962 16.2013 5.04007 16.7519 4.79395 17.1836C4.54762 17.6149 3.99708 17.7656 3.56543 17.5195C3.12151 17.2664 2.7525 16.8995 2.49512 16.458C2.26996 16.0715 2.1378 15.6381 2.10742 15.1934L2.10059 15.002V5C2.10059 3.40294 3.40294 2.10059 5 2.10059H15Z" fill="#040405"/>
</svg>
