<svg width="24" height="24" viewBox="0 0 24 24" fill="none" xmlns="http://www.w3.org/2000/svg">
<path fill-rule="evenodd" clip-rule="evenodd" d="M13.4253 3.91423C13.7669 3.4189 14.3668 3.16015 14.9673 3.26091C16.3038 3.48522 17.5884 3.86579 18.8072 4.37712L19.3267 4.60466L19.5113 4.70525C19.6895 4.81809 19.8444 4.9656 19.9644 5.14079C22.3284 8.5919 23.5212 12.5458 23.064 17.0754C23.0195 17.5159 22.7895 17.9166 22.4322 18.1779C20.6167 19.5042 18.8356 20.3146 17.107 20.8449C16.475 21.0388 15.7896 20.8136 15.396 20.2824C15.0871 19.8653 14.8013 19.4257 14.5396 18.9689C12.8587 19.3076 11.1425 19.3052 9.45562 18.964C9.19328 19.4223 8.90712 19.864 8.59722 20.2824C8.20381 20.8134 7.51812 21.0385 6.88628 20.8449C5.15379 20.3137 3.38429 19.5037 1.56401 18.1808C1.20216 17.9178 0.97063 17.511 0.928272 17.0656C0.55704 13.1606 1.31175 9.17431 4.04253 5.14665L4.17437 4.98064C4.31579 4.82323 4.48769 4.69483 4.6812 4.60564C6.04663 3.97678 7.50906 3.51719 9.04644 3.26091C9.70045 3.15191 10.3526 3.46862 10.6714 4.04997C10.6901 4.08408 10.7066 4.12093 10.7261 4.1574C11.5754 4.09215 12.427 4.0939 13.2808 4.15935C13.3076 4.11082 13.3341 4.06183 13.3609 4.01579L13.4253 3.91423ZM14.7095 4.79997C14.5348 5.10076 14.3404 5.50907 14.2046 5.82927L13.6509 5.75896C12.3622 5.61894 11.0813 5.64257 9.80816 5.82927L9.56694 5.30779C9.47832 5.1281 9.38583 4.95052 9.30327 4.79997C7.9063 5.03283 6.57728 5.45029 5.33452 6.02263L4.88433 6.71599C2.74019 10.1807 2.16372 13.5707 2.48198 16.9181C3.94218 17.9793 5.35736 18.6776 6.74858 19.1603L7.34429 19.3547C7.73236 18.8307 8.08063 18.2668 8.3814 17.675C7.80916 17.4616 7.26551 17.2002 6.74175 16.8898C6.87753 16.7929 7.0141 16.686 7.14019 16.5793C10.3029 18.0247 13.7291 18.0247 16.8531 16.5793C16.9889 16.6861 17.1157 16.7929 17.2515 16.8898C16.7278 17.2002 16.1841 17.4616 15.6119 17.675C15.8375 18.1189 16.0906 18.5472 16.3667 18.9543L16.65 19.3547C18.0337 18.9301 19.4474 18.3119 20.8912 17.3517L21.5123 16.9181C21.9293 12.7852 20.8505 9.19525 18.6773 6.02263C17.4258 5.45028 16.0968 5.03285 14.7095 4.79997ZM8.81011 10.8C9.77505 10.8 10.5532 11.6852 10.5367 12.7648C10.5382 13.843 9.77511 14.7287 8.81011 14.7287C7.86186 14.7285 7.08452 13.8429 7.08452 12.7648C7.08461 11.6869 7.84532 10.8001 8.81011 10.8ZM15.189 10.8C16.1539 10.8 16.9321 11.6852 16.9156 12.7648C16.9156 13.843 16.154 14.7287 15.189 14.7287C14.2407 14.7286 13.4634 13.8429 13.4634 12.7648C13.4635 11.6868 14.2242 10.8001 15.189 10.8Z" fill="currentColor"/>
</svg>
