<svg width="24" height="24" viewBox="0 0 24 24" fill="none" xmlns="http://www.w3.org/2000/svg">
<path d="M10.5908 18.751V17.626C10.5908 16.6567 10.2088 15.7278 9.5293 15.044C8.84992 14.3603 7.92918 13.9776 6.9707 13.9776H3.61719C3.0939 13.9774 2.59307 13.7681 2.22461 13.3975C1.85625 13.0268 1.65045 12.5249 1.65039 12.0029V4.1299C1.65044 3.60796 1.85624 3.10604 2.22461 2.73536C2.59307 2.36472 3.09389 2.15541 3.61719 2.15529H5.85254C6.37603 2.15529 6.87752 2.36458 7.24609 2.73536C7.37881 2.86891 7.4896 3.02026 7.57812 3.18263C8.33817 2.5233 9.31108 2.15536 10.3232 2.15529H18.1289C18.8879 2.10784 19.5834 2.4316 20.1162 2.96779C20.6543 3.50925 21.0219 4.25462 21.21 5.06154C21.212 5.07049 21.214 5.07987 21.2158 5.08888L22.334 10.7119C22.3448 10.7665 22.3496 10.8223 22.3496 10.8779C22.3496 11.6981 22.0261 12.4858 21.4482 13.0674C20.8701 13.6492 20.0846 13.9776 19.2646 13.9776H16.7617V18.751C16.7616 19.5711 16.4382 20.3589 15.8604 20.9404C15.2822 21.5222 14.4966 21.8495 13.6768 21.8496C12.8568 21.8496 12.0713 21.5222 11.4932 20.9404C10.9152 20.3589 10.5909 19.5712 10.5908 18.751ZM12.291 18.751C12.2911 19.1237 12.4389 19.4802 12.6992 19.7422C12.9594 20.0039 13.3112 20.1504 13.6768 20.1504C14.0423 20.1503 14.3942 20.004 14.6543 19.7422C14.9146 19.4802 15.0614 19.1237 15.0615 18.751V13.127C15.0617 12.6577 15.4428 12.2774 15.9121 12.2774H19.2646C19.6303 12.2774 19.982 12.131 20.2422 11.8692C20.4864 11.6234 20.6294 11.2947 20.6465 10.9473L19.5518 5.43751C19.4178 4.86966 19.1767 4.43425 18.9102 4.16603C18.6495 3.90378 18.4071 3.83655 18.2197 3.85255C18.1957 3.8546 18.1715 3.85547 18.1475 3.85548H10.3232C9.66127 3.85556 9.0254 4.12014 8.55566 4.59279C8.08568 5.06572 7.82031 5.70878 7.82031 6.3799V12.3467C8.91769 12.5252 9.93929 13.0457 10.7344 13.8457C11.7316 14.8492 12.291 16.2092 12.291 17.626V18.751ZM3.34961 12.0029C3.34967 12.0774 3.37993 12.1482 3.43066 12.1992C3.48112 12.2498 3.54827 12.2772 3.61719 12.2774H6.12012V4.1299C6.12007 4.05541 6.09078 3.98467 6.04004 3.93361C5.98947 3.88289 5.92165 3.85548 5.85254 3.85548H3.61719C3.54826 3.8556 3.48112 3.88304 3.43066 3.93361C3.37992 3.98467 3.34966 4.05541 3.34961 4.1299V12.0029Z" fill="#040405"/>
</svg>
