<svg width="24" height="24" viewBox="0 0 24 24" fill="none" xmlns="http://www.w3.org/2000/svg">
<path d="M12 15.6C12.497 15.6 12.9 16.003 12.9 16.5C12.9 16.9971 12.497 17.4 12 17.4H8.39998C7.90292 17.4 7.49998 16.9971 7.49998 16.5C7.49998 16.003 7.90292 15.6 8.39998 15.6H12Z" fill="#040405"/>
<path d="M15.6 12C16.097 12 16.5 12.403 16.5 12.9C16.5 13.3971 16.097 13.8 15.6 13.8H8.39998C7.90292 13.8 7.49998 13.3971 7.49998 12.9C7.49998 12.403 7.90292 12 8.39998 12H15.6Z" fill="#040405"/>
<path d="M13.8 8.40003C14.297 8.40003 14.7 8.80297 14.7 9.30003C14.7 9.79709 14.297 10.2 13.8 10.2H8.39998C7.90292 10.2 7.49998 9.79709 7.49998 9.30003C7.49998 8.80297 7.90292 8.40003 8.39998 8.40003H13.8Z" fill="#040405"/>
<path fill-rule="evenodd" clip-rule="evenodd" d="M13.938 3.00003C14.4433 3.00012 14.9342 3.17059 15.331 3.48343L18.793 6.21331C19.3341 6.63997 19.65 7.29088 19.65 7.97991V18.75C19.65 19.9927 18.6426 21 17.4 21H6.59998C5.35734 21 4.34998 19.9927 4.34998 18.75V5.25003C4.34998 4.00739 5.35733 3.00003 6.59998 3.00003H13.938ZM6.59998 4.80003C6.35145 4.80003 6.14998 5.0015 6.14998 5.25003V18.75C6.14998 18.9986 6.35145 19.2 6.59998 19.2H17.4C17.6485 19.2 17.85 18.9986 17.85 18.75V7.97991C17.85 7.84213 17.7868 7.71192 17.6786 7.62659L14.2166 4.89671C14.1373 4.83421 14.0389 4.80012 13.938 4.80003H6.59998Z" fill="#040405"/>
</svg>
