<svg width="24" height="24" viewBox="0 0 24 24" fill="none" xmlns="http://www.w3.org/2000/svg">
<path fill-rule="evenodd" clip-rule="evenodd" d="M13.938 3C14.4433 3.00009 14.9343 3.17056 15.3311 3.4834L18.7931 6.21328C19.3341 6.63994 19.65 7.29085 19.65 7.97988V18.75C19.65 19.9926 18.6426 21 17.4 21H6.60001C5.35737 21 4.35001 19.9926 4.35001 18.75V5.25C4.35001 4.00736 5.35737 3 6.60001 3H13.938ZM8.40001 15.6C7.90295 15.6 7.50001 16.0029 7.50001 16.5C7.50001 16.9971 7.90295 17.4 8.40001 17.4H12C12.4971 17.4 12.9 16.9971 12.9 16.5C12.9 16.0029 12.4971 15.6 12 15.6H8.40001ZM8.40001 12C7.90295 12 7.50001 12.4029 7.50001 12.9C7.50001 13.3971 7.90295 13.8 8.40001 13.8H15.6C16.0971 13.8 16.5 13.3971 16.5 12.9C16.5 12.4029 16.0971 12 15.6 12H8.40001ZM8.40001 8.4C7.90295 8.4 7.50001 8.80294 7.50001 9.3C7.50001 9.79706 7.90295 10.2 8.40001 10.2H13.8C14.2971 10.2 14.7 9.79706 14.7 9.3C14.7 8.80294 14.2971 8.4 13.8 8.4H8.40001Z" fill="#040405"/>
</svg>
