<svg width="24" height="24" viewBox="0 0 24 24" fill="none" xmlns="http://www.w3.org/2000/svg">
<path d="M16.5699 6.09863C17.6873 6.09863 18.6029 6.09744 19.3355 6.17773C20.0862 6.26007 20.7589 6.43744 21.3462 6.87109C21.6629 7.10496 21.9434 7.38553 22.1773 7.70215C22.611 8.28947 22.7883 8.96215 22.8706 9.71289C22.9509 10.4455 22.9498 11.3611 22.9498 12.4785V14.1191C22.9498 15.2366 22.9509 16.1522 22.8706 16.8848C22.7883 17.6355 22.611 18.3082 22.1773 18.8955C21.9434 19.2121 21.6629 19.4927 21.3462 19.7266C20.7589 20.1602 20.0862 20.3376 19.3355 20.4199C18.6029 20.5002 17.6873 20.499 16.5699 20.499H7.42924C6.3118 20.499 5.39622 20.5002 4.66362 20.4199C3.91289 20.3376 3.24019 20.1602 2.65288 19.7266C2.33626 19.4927 2.05568 19.2121 1.82182 18.8955C1.38817 18.3082 1.2108 17.6355 1.12846 16.8848C1.06834 16.3363 1.05365 15.6839 1.05034 14.9199L1.04936 14.1191V12.4785C1.04936 11.3611 1.04817 10.4455 1.12846 9.71289C1.2108 8.96216 1.38816 8.28946 1.82182 7.70215C2.05569 7.38553 2.33626 7.10496 2.65288 6.87109C3.24019 6.43742 3.91289 6.26008 4.66362 6.17773C5.39622 6.09744 6.3118 6.09863 7.42924 6.09863H16.5699ZM7.42924 7.99902C6.26903 7.99902 5.47565 8.00011 4.87065 8.06641C4.2841 8.13077 3.98884 8.24749 3.78178 8.40039C3.61764 8.52167 3.4724 8.66691 3.35112 8.83105C3.19823 9.03812 3.08149 9.33338 3.01713 9.91992C2.95084 10.5249 2.94975 11.3183 2.94975 12.4785V14.1201L2.95854 15.6055C2.96716 16.0235 2.98389 16.3744 3.01713 16.6777C3.08149 17.2643 3.19823 17.5595 3.35112 17.7666C3.47239 17.9307 3.61764 18.076 3.78178 18.1973C3.98884 18.3502 4.2841 18.4669 4.87065 18.5312C5.47565 18.5975 6.26903 18.5986 7.42924 18.5986H16.5699C17.7301 18.5986 18.5235 18.5975 19.1285 18.5312C19.715 18.4669 20.0103 18.3502 20.2173 18.1973C20.3815 18.076 20.5267 17.9307 20.648 17.7666C20.8009 17.5595 20.9176 17.2643 20.982 16.6777C21.0483 16.0727 21.0494 15.2794 21.0494 14.1191V12.4785C21.0494 11.3183 21.0483 10.5249 20.982 9.91992C20.9176 9.33336 20.8009 9.03812 20.648 8.83105C20.5267 8.66691 20.3815 8.52167 20.2173 8.40039C20.0103 8.24751 19.715 8.13076 19.1285 8.06641C18.5235 8.00012 17.7301 7.99902 16.5699 7.99902H7.42924ZM20.6499 2.89941C21.142 2.89941 21.5469 3.27368 21.5953 3.75293L21.6001 3.84961L21.5953 3.94727C21.5465 4.4259 21.1417 4.7998 20.6499 4.7998H3.34916C2.82499 4.79936 2.39995 4.37413 2.39995 3.84961C2.39995 3.32509 2.82499 2.89985 3.34916 2.89941H20.6499Z" fill="#040405"/>
</svg>
