<svg width="24" height="24" viewBox="0 0 24 24" fill="none" xmlns="http://www.w3.org/2000/svg">
<path d="M19.3691 2.9502C20.297 2.95035 21.0487 3.702 21.0488 4.62988V13.7822C21.0487 14.378 20.8119 14.9488 20.3906 15.3701L15.3691 20.3916C14.9478 20.8129 14.377 21.0496 13.7812 21.0498H4.62891C3.70102 21.0496 2.94938 20.298 2.94922 19.3701V4.62988C2.94938 3.702 3.70102 2.95035 4.62891 2.9502H19.3691ZM4.60742 19.3916H12.8701V13.7002C12.8704 13.2422 13.2412 12.8714 13.6992 12.8711H19.3906V4.6084H4.60742V19.3916ZM14.5293 18.8857L18.8848 14.5303H14.5293V18.8857Z" fill="currentColor"/>
</svg>
