<svg width="24" height="24" viewBox="0 0 24 24" fill="none" xmlns="http://www.w3.org/2000/svg">
<path d="M16.5703 4.9C17.6902 4.9 18.5992 4.89852 19.3252 4.97812C20.0675 5.05952 20.7197 5.23385 21.2871 5.65293C21.5958 5.8809 21.8687 6.15384 22.0967 6.4625C22.5158 7.02992 22.6901 7.68214 22.7715 8.42441C22.8511 9.15037 22.8496 10.0594 22.8496 11.1793V12.8199C22.8496 13.9398 22.8511 14.8488 22.7715 15.5748C22.6901 16.3171 22.5158 16.9693 22.0967 17.5367C21.8687 17.8454 21.5958 18.1183 21.2871 18.3463C20.7197 18.7654 20.0675 18.9397 19.3252 19.0211C18.5992 19.1007 17.6902 19.0992 16.5703 19.0992H7.42969C6.30981 19.0992 5.40076 19.1007 4.67481 19.0211C3.93253 18.9397 3.28032 18.7654 2.71289 18.3463C2.40423 18.1183 2.1313 17.8454 1.90332 17.5367C1.48425 16.9693 1.30992 16.3171 1.22852 15.5748C1.14892 14.8488 1.15039 13.9398 1.15039 12.8199V11.1793C1.15039 10.0594 1.14892 9.15037 1.22852 8.42441C1.30992 7.68213 1.48425 7.02992 1.90332 6.4625C2.1313 6.15384 2.40423 5.8809 2.71289 5.65293C3.28032 5.23385 3.93253 5.05952 4.67481 4.97812C5.40076 4.89852 6.30981 4.9 7.42969 4.9H16.5703ZM7.42969 6.59921C6.27166 6.59921 5.47211 6.60052 4.86035 6.66757C4.26481 6.73288 3.94977 6.85238 3.72266 7.02011C3.55029 7.14743 3.39782 7.29989 3.27051 7.47226C3.10278 7.69937 2.98328 8.01441 2.91797 8.60996C2.85092 9.22171 2.84961 10.0213 2.84961 11.1793V12.8199C2.84961 13.9779 2.85092 14.7775 2.91797 15.3893C2.98328 15.9848 3.10278 16.2998 3.27051 16.5269C3.39782 16.6993 3.55029 16.8518 3.72266 16.9791C3.94977 17.1468 4.26481 17.2663 4.86035 17.3316C5.47211 17.3987 6.27166 17.4 7.42969 17.4H16.5703C17.7283 17.4 18.5279 17.3987 19.1397 17.3316C19.7352 17.2663 20.0502 17.1468 20.2773 16.9791C20.4497 16.8518 20.6022 16.6993 20.7295 16.5269C20.8972 16.2998 21.0167 15.9848 21.082 15.3893C21.1491 14.7775 21.1504 13.9779 21.1504 12.8199V11.1793C21.1504 10.0213 21.1491 9.22171 21.082 8.60996C21.0167 8.01441 20.8972 7.69937 20.7295 7.47226C20.6022 7.29989 20.4497 7.14743 20.2773 7.02011C20.0502 6.85238 19.7352 6.73288 19.1397 6.66757C18.5279 6.60052 17.7283 6.59921 16.5703 6.59921H7.42969ZM7.60004 11.1793C8.06948 11.1793 8.44965 11.5595 8.44965 12.0289C8.44965 12.4983 8.06949 12.8785 7.60004 12.8785H6.10004C5.6306 12.8785 5.25043 12.4983 5.25043 12.0289C5.25043 11.5595 5.6306 11.1793 6.10004 11.1793H7.60004ZM18.1 11.1793C18.5695 11.1793 18.9496 11.5595 18.9497 12.0289C18.9497 12.4983 18.5695 12.8785 18.1 12.8785H11.1C10.6306 12.8785 10.2504 12.4983 10.2504 12.0289C10.2504 11.5595 10.6306 11.1793 11.1 11.1793H18.1Z" fill="#040405"/>
</svg>
