<svg width="24" height="24" viewBox="0 0 24 24" fill="none" xmlns="http://www.w3.org/2000/svg">
<path d="M21 20.0996C21.4971 20.0996 21.9004 20.5029 21.9004 21C21.9004 21.4971 21.4971 21.9004 21 21.9004H3C2.50294 21.9004 2.09961 21.4971 2.09961 21C2.09961 20.5029 2.50294 20.0996 3 20.0996H21ZM11.0996 3C11.0996 2.50294 11.5029 2.09961 12 2.09961C12.4971 2.09961 12.9004 2.50294 12.9004 3V14.8262L17.3633 10.3633C17.7148 10.0118 18.2852 10.0118 18.6367 10.3633C18.9882 10.7148 18.9882 11.2852 18.6367 11.6367L12.6367 17.6367C12.2852 17.9882 11.7148 17.9882 11.3633 17.6367L5.36328 11.6367C5.01181 11.2852 5.01181 10.7148 5.36328 10.3633C5.71475 10.0118 6.28525 10.0118 6.63672 10.3633L11.0996 14.8262V3Z" fill="#040405"/>
</svg>
