<svg width="24" height="24" viewBox="0 0 24 24" fill="none" xmlns="http://www.w3.org/2000/svg">
<path d="M3.48402 20.501C3.21444 20.2193 3.01511 19.878 2.90217 19.5047C2.78923 19.1315 2.76584 18.7369 2.83399 18.353L3.30799 15.038C3.4381 14.3206 3.77092 13.6554 4.26704 13.121L11.626 5.76201C11.6756 5.69495 11.7349 5.63561 11.802 5.58599L12.946 4.442C15.138 2.25 17.363 2.25 19.555 4.442C20.0832 4.88815 20.5041 5.44767 20.7863 6.07891C21.0685 6.71014 21.2048 7.39684 21.185 8.088C21.0078 9.2335 20.4303 10.2791 19.555 11.039L18.355 12.239C18.3285 12.2698 18.2998 12.2985 18.269 12.325L10.879 19.715C10.3448 20.2107 9.68002 20.5434 8.96302 20.674L5.64802 21.147C5.51015 21.1746 5.36953 21.186 5.22901 21.181C4.58058 21.1925 3.95369 20.9482 3.48402 20.501ZM17.496 10.752L18.376 9.872C18.9701 9.37246 19.3746 8.68407 19.522 7.92198C19.5125 7.47424 19.405 7.03407 19.207 6.63237C19.009 6.23068 18.7253 5.87727 18.376 5.59703C16.613 3.83503 15.402 4.331 14.113 5.609L13.228 6.49401C13.582 7.47451 14.1479 8.36486 14.8855 9.10155C15.6231 9.83824 16.5141 10.4032 17.495 10.756L17.496 10.752Z" fill="#040405"/>
</svg>
