<svg width="24" height="24" viewBox="0 0 24 24" fill="none" xmlns="http://www.w3.org/2000/svg">
<path d="M10.0089 3.64095C10.506 3.64095 10.9089 4.04389 10.9089 4.54095C10.9088 5.03794 10.5059 5.44095 10.0089 5.44095H5.50891C5.26038 5.44095 5.05891 5.64242 5.05891 5.89095V18.4909C5.05899 18.7394 5.26043 18.9409 5.50891 18.9409H18.1089C18.3574 18.9409 18.5588 18.7394 18.5589 18.4909V13.9909C18.5589 13.4939 18.9619 13.0909 19.4589 13.0909C19.956 13.0909 20.3589 13.4939 20.3589 13.9909V18.4909C20.3588 19.7335 19.3515 20.7409 18.1089 20.7409H5.50891C4.26632 20.7409 3.25899 19.7335 3.25891 18.4909V5.89095C3.25891 4.64831 4.26627 3.64095 5.50891 3.64095H10.0089Z" fill="#040405"/>
<path fill-rule="evenodd" clip-rule="evenodd" d="M16.461 3.72005C17.076 3.10497 18.0739 3.10498 18.689 3.72005L20.2798 5.31087C20.8949 5.92595 20.8949 6.92382 20.2798 7.5389L13.3883 14.4295C13.093 14.7248 12.6924 14.8909 12.2747 14.8909H10.2339L10.1188 14.8848C9.58949 14.831 9.16896 14.4104 9.11506 13.8811L9.10891 13.7659V11.7251C9.10891 11.3075 9.27509 10.9069 9.57034 10.6116L16.461 3.72005ZM10.9089 11.8183V13.0909H12.1816L18.8481 6.42532L17.5745 5.15179L10.9089 11.8183Z" fill="#040405"/>
</svg>
