<svg width="16" height="16" viewBox="0 0 16 16" fill="none" xmlns="http://www.w3.org/2000/svg">
<path d="M10.3617 2.66003C11.0536 2.66007 11.7201 3.00386 12.3533 3.63628L12.356 3.63954C12.6683 3.90712 12.9182 4.24069 13.0861 4.61633C13.2352 4.95006 13.317 5.30963 13.3271 5.67402V5.83039L13.3265 5.84288L13.3244 5.85754C13.2254 6.49731 12.9181 7.08489 12.4531 7.5315L12.3576 7.61891L12.3554 7.62163L11.7279 8.24984L11.7252 8.24712L11.6856 8.29002C11.6716 8.3054 11.657 8.31999 11.6416 8.334L11.5987 8.37363L11.6015 8.37635L7.53302 12.4459L7.53247 12.4453L7.52976 12.4486L7.52704 12.4513C7.19923 12.7555 6.79115 12.9596 6.35129 13.0399H6.34967L6.34315 13.0415L6.33827 13.0426L4.49973 13.3048H4.49702C4.40804 13.3215 4.31783 13.3292 4.22778 13.326H4.22506C3.81134 13.3297 3.4122 13.1723 3.11228 12.8867L3.10414 12.8791C2.93016 12.6972 2.80194 12.4767 2.72905 12.2357C2.65708 11.9977 2.64142 11.7461 2.68345 11.5011V11.5L2.94726 9.65665L2.94781 9.65448L2.94889 9.64905V9.64797C3.02883 9.2075 3.23336 8.79892 3.53785 8.47082L3.53894 8.46865L3.54057 8.46811L7.63344 4.37308L7.63398 4.37363L7.63724 4.36928C7.66557 4.33511 7.69623 4.30365 7.73006 4.27589L7.7306 4.27643L7.7344 4.27209L8.36733 3.639C9.00133 3.00487 9.66876 2.66005 10.3617 2.66003ZM7.86522 6.06333L4.51493 9.41938L4.51439 9.41884L4.51222 9.42209C4.40425 9.547 4.32784 9.69601 4.28966 9.85646L4.28912 9.86189L4.02693 11.6977L4.02476 11.7074C4.01614 11.7463 4.0167 11.787 4.02639 11.8258C4.03434 11.8575 4.04933 11.8849 4.06493 11.9078L4.07036 11.9165L4.07905 11.9219C4.10213 11.9377 4.12946 11.9525 4.16101 11.9604C4.19985 11.9702 4.2406 11.9706 4.27935 11.9621L4.2788 11.9615L4.2864 11.9604L4.29672 11.9588L4.29617 11.9583L6.12439 11.6971L6.12874 11.6966C6.2906 11.6598 6.44062 11.5834 6.56517 11.4734L6.56734 11.4707L9.91871 8.11844L9.97082 8.06686L9.90677 8.03102C9.08759 7.5718 8.41153 6.89481 7.95262 6.07527L7.91679 6.0112L7.86522 6.06333ZM10.2802 4.02993C9.98157 4.05765 9.68131 4.25466 9.32975 4.6033L8.96715 4.96654L8.94055 4.9926L8.95521 5.02681C9.142 5.47613 9.41517 5.88528 9.76021 6.23002C10.1049 6.57437 10.5138 6.84679 10.9626 7.03306L10.9968 7.04717L11.0228 7.02057L11.3903 6.65353L11.3995 6.64593L11.4001 6.64538C11.6841 6.40647 11.8783 6.0793 11.9548 5.71692L11.9565 5.70986L11.9559 5.70334C11.947 5.49855 11.8963 5.2974 11.8056 5.11314C11.7099 4.91901 11.5726 4.74798 11.4039 4.61253L11.3925 4.6033L11.3854 4.59624C10.9175 4.12855 10.5662 4.00347 10.2802 4.02993Z" fill="#040405"/>
</svg>
