<svg width="24" height="24" viewBox="0 0 24 24" fill="none" xmlns="http://www.w3.org/2000/svg">
<g transform="translate(24,0) scale(-1,1)">
<path d="M5.2875 11.4785C4.7625 11.4785 4.37695 11.093 4.37695 10.5844V6.35977C4.37695 5.43282 4.91836 4.89961 5.84531 4.89961H10.1437C10.6605 4.89961 11.0461 5.27696 11.0461 5.80196C11.0461 6.31875 10.6605 6.6961 10.1437 6.6961H9.56953L7.23164 6.53203L9.03633 8.23828L11.2184 10.4203C11.3906 10.5926 11.4891 10.8141 11.4891 11.0684C11.4891 11.618 11.0953 12.0035 10.5375 12.0035C10.2914 12.0035 10.0699 11.9133 9.89766 11.741L7.73203 9.55899L6.01758 7.7543L6.18164 10.0676V10.5844C6.18164 11.1012 5.8043 11.4785 5.2875 11.4785ZM13.6137 19.9113C13.0969 19.9113 12.7195 19.5258 12.7195 19.009C12.7195 18.484 13.0969 18.1066 13.6137 18.1066H14.1879L16.5258 18.2707L14.7211 16.5645L12.5391 14.3906C12.3668 14.2184 12.2684 13.9887 12.2684 13.7426C12.2684 13.1848 12.6703 12.8074 13.2199 12.8074C13.466 12.8074 13.6875 12.8895 13.8598 13.0699L16.0254 15.252L17.7398 17.0566L17.5758 14.7352V14.2266C17.5758 13.7016 17.9531 13.3242 18.4699 13.3242C18.9949 13.3242 19.3805 13.7098 19.3805 14.2266V18.443C19.3805 19.3699 18.8391 19.9113 17.9121 19.9113H13.6137Z" fill="currentColor"/>
</g>
</svg>
