<svg width="24" height="24" viewBox="0 0 24 24" fill="none" xmlns="http://www.w3.org/2000/svg">
<path d="M12.0031 4.79999C14.5103 4.79999 16.7378 5.93079 18.3238 7.33058C19.1199 8.03317 19.7757 8.82213 20.2381 9.60748C20.6924 10.3784 20.9992 11.2142 20.9992 11.9968C20.9992 12.7795 20.6933 13.6152 20.2381 14.3862C19.7757 15.1715 19.1199 15.9605 18.3238 16.6631C16.7378 18.0629 14.5094 19.1937 12.0031 19.1937C9.49594 19.1937 7.26851 18.0629 5.68251 16.6631C4.88636 15.9605 4.23054 15.1715 3.76815 14.3862C3.31295 13.6152 3.00708 12.7795 3.00708 11.9968C3.00708 11.2142 3.31295 10.3784 3.76815 9.60748C4.23054 8.82213 4.88636 8.03317 5.68251 7.33058C7.26851 5.93079 9.49684 4.79999 12.0031 4.79999ZM12.0031 6.5992C10.0384 6.5992 8.2176 7.49251 6.87359 8.67909C6.20428 9.26923 5.67531 9.91425 5.31817 10.5206C4.95293 11.1413 4.80629 11.655 4.80629 11.9968C4.80629 12.3387 4.95293 12.8524 5.31817 13.4731C5.67531 14.0794 6.20428 14.7235 6.87359 15.3146C8.2176 16.5012 10.0384 17.3945 12.0031 17.3945C13.9679 17.3945 15.7887 16.5012 17.1327 15.3146C17.802 14.7235 18.331 14.0794 18.6881 13.4731C19.0534 12.8524 19.2 12.3387 19.2 11.9968C19.2 11.655 19.0534 11.1413 18.6881 10.5206C18.331 9.91425 17.802 9.27013 17.1327 8.67909C15.7887 7.49251 13.9679 6.5992 12.0031 6.5992ZM12.0031 9.29802C12.0823 9.29802 12.1606 9.30132 12.2379 9.30792C12.0426 9.65053 11.9653 10.0478 12.0178 10.4387C12.0704 10.8296 12.2499 11.1923 12.5288 11.4712C12.8076 11.7501 13.1704 11.9296 13.5613 11.9821C13.9521 12.0347 14.3494 11.9574 14.6921 11.762C14.7394 12.3038 14.6219 12.8471 14.3551 13.321C14.0884 13.7948 13.6846 14.177 13.1969 14.4174C12.7092 14.6579 12.1602 14.7454 11.6219 14.6685C11.0836 14.5917 10.5811 14.354 10.1802 13.9866C9.77924 13.6192 9.49866 13.1393 9.37517 12.6097C9.25169 12.0802 9.29105 11.5256 9.48811 11.0188C9.68516 10.512 10.0307 10.0765 10.4795 9.76948C10.9283 9.46242 11.4594 9.29809 12.0031 9.29802Z" fill="#040405"/>
<path d="M12.0031 4.79999C14.5103 4.79999 16.7378 5.93079 18.3238 7.33058C19.1199 8.03317 19.7757 8.82213 20.2381 9.60748C20.6924 10.3784 20.9992 11.2142 20.9992 11.9968C20.9992 12.7795 20.6933 13.6152 20.2381 14.3862C19.7757 15.1715 19.1199 15.9605 18.3238 16.6631C16.7378 18.0629 14.5094 19.1937 12.0031 19.1937C9.49594 19.1937 7.26851 18.0629 5.68251 16.6631C4.88636 15.9605 4.23054 15.1715 3.76815 14.3862C3.31295 13.6152 3.00708 12.7795 3.00708 11.9968C3.00708 11.2142 3.31295 10.3784 3.76815 9.60748C4.23054 8.82213 4.88636 8.03317 5.68251 7.33058C7.26851 5.93079 9.49684 4.79999 12.0031 4.79999ZM12.0031 6.5992C10.0384 6.5992 8.2176 7.49251 6.87359 8.67909C6.20428 9.26923 5.67531 9.91425 5.31817 10.5206C4.95293 11.1413 4.80629 11.655 4.80629 11.9968C4.80629 12.3387 4.95293 12.8524 5.31817 13.4731C5.67531 14.0794 6.20428 14.7235 6.87359 15.3146C8.2176 16.5012 10.0384 17.3945 12.0031 17.3945C13.9679 17.3945 15.7887 16.5012 17.1327 15.3146C17.802 14.7235 18.331 14.0794 18.6881 13.4731C19.0534 12.8524 19.2 12.3387 19.2 11.9968C19.2 11.655 19.0534 11.1413 18.6881 10.5206C18.331 9.91425 17.802 9.27013 17.1327 8.67909C15.7887 7.49251 13.9679 6.5992 12.0031 6.5992ZM12.0031 9.29802C12.0823 9.29802 12.1606 9.30132 12.2379 9.30792C12.0426 9.65053 11.9653 10.0478 12.0178 10.4387C12.0704 10.8296 12.2499 11.1923 12.5288 11.4712C12.8076 11.7501 13.1704 11.9296 13.5613 11.9821C13.9521 12.0347 14.3494 11.9574 14.6921 11.762C14.7394 12.3038 14.6219 12.8471 14.3551 13.321C14.0884 13.7948 13.6846 14.177 13.1969 14.4174C12.7092 14.6579 12.1602 14.7454 11.6219 14.6685C11.0836 14.5917 10.5811 14.354 10.1802 13.9866C9.77924 13.6192 9.49866 13.1393 9.37517 12.6097C9.25169 12.0802 9.29105 11.5256 9.48811 11.0188C9.68516 10.512 10.0307 10.0765 10.4795 9.76948C10.9283 9.46242 11.4594 9.29809 12.0031 9.29802Z" fill="#040405"/>
</svg>
