<svg width="24" height="24" viewBox="0 0 24 24" fill="none" xmlns="http://www.w3.org/2000/svg">
<path d="M15.8467 2.80344C16.0951 2.37312 16.6458 2.22517 17.0762 2.47336C17.5065 2.72181 17.6544 3.27246 17.4062 3.70287L7.30566 21.1971C7.05709 21.6275 6.50658 21.7747 6.07617 21.5262C5.64597 21.2776 5.49861 20.7271 5.74707 20.2967L7.18945 17.7977C6.64008 17.462 6.13275 17.0872 5.67969 16.6873C4.88362 15.9848 4.22801 15.1953 3.76562 14.41C3.31059 13.6392 3.00406 12.8037 3.00391 12.0213C3.00391 11.2387 3.31051 10.4025 3.76562 9.63162C4.22795 8.84645 4.88377 8.05769 5.67969 7.35524C7.26565 5.95548 9.49378 4.82403 12 4.82397C12.8605 4.82397 13.6878 4.95852 14.4678 5.19018L15.8467 2.80344ZM17.0527 6.39234C17.5099 6.68892 17.935 7.01429 18.3213 7.35524C19.1171 8.05769 19.7731 8.84648 20.2354 9.63162C20.6896 10.4025 20.9961 11.2387 20.9961 12.0213C20.9959 12.8037 20.6903 13.6393 20.2354 14.41C19.773 15.1952 19.1172 15.9849 18.3213 16.6873C16.7353 18.0871 14.5062 19.2176 12 19.2176C11.2421 19.2176 10.5103 19.1124 9.81348 18.9295L10.7559 17.2987C11.1618 17.3754 11.5774 17.4188 12 17.4188C13.9647 17.4188 15.7859 16.5252 17.1299 15.3387C17.799 14.7478 18.3284 14.1031 18.6855 13.4969C19.0504 12.8767 19.1971 12.3631 19.1973 12.0213C19.1973 11.6795 19.0506 11.1653 18.6855 10.5447C18.3284 9.93843 17.7991 9.29391 17.1299 8.70291C16.8271 8.43557 16.4988 8.18458 16.1514 7.95388L17.0527 6.39234ZM12 6.62379C10.0356 6.62385 8.21501 7.51655 6.87109 8.70291C6.20192 9.29296 5.67254 9.93847 5.31543 10.5447C4.9503 11.1653 4.80371 11.6795 4.80371 12.0213C4.80388 12.3631 4.9505 12.8766 5.31543 13.4969C5.67257 14.1032 6.20188 14.7477 6.87109 15.3387C7.24228 15.6664 7.65107 15.9697 8.08789 16.2401L9.70703 13.4363C9.55414 13.1894 9.43878 12.9195 9.37207 12.6336C9.24871 12.1042 9.28844 11.5494 9.48535 11.0428C9.6824 10.5361 10.028 10.1007 10.4766 9.79373C10.9253 9.48671 11.4563 9.32216 12 9.32205C12.0271 9.32205 12.0541 9.32423 12.0811 9.32498L13.5352 6.80641C13.0377 6.69043 12.5243 6.62379 12 6.62379ZM14.6992 11.9891C14.7048 12.4624 14.586 12.9309 14.3525 13.3455C14.0858 13.819 13.6817 14.2008 13.1943 14.4412C12.8977 14.5875 12.5778 14.6764 12.252 14.7069L13.8027 12.0203C14.1122 12.0195 14.4182 11.9405 14.6895 11.7859L14.6992 11.9891Z" fill="#040405"/>
</svg>
