<svg width="24" height="24" viewBox="0 0 24 24" fill="none" xmlns="http://www.w3.org/2000/svg">
<path d="M14.0996 18.2793V13.6572C14.0996 12.3578 14.6163 11.1113 15.5352 10.1924L18.7773 6.94922C18.9579 6.7687 19.0697 6.53216 19.0947 6.28027L19.0996 6.17188V5C19.0996 4.94477 19.0552 4.90039 19 4.90039H5C4.94477 4.90039 4.90039 4.94477 4.90039 5V6.22656C4.90042 6.50006 5.00163 6.76438 5.18555 6.9668L8.62598 10.75C9.44593 11.652 9.90039 12.8279 9.90039 14.0469V19.6123C9.90039 19.6805 9.96656 19.7284 10.0312 19.707L14.0312 18.374C14.0721 18.3604 14.0996 18.3223 14.0996 18.2793ZM20.9004 6.17188C20.9002 6.94087 20.5946 7.67894 20.0508 8.22266L16.8076 11.4648C16.2264 12.0462 15.9004 12.8351 15.9004 13.6572V18.2793C15.9004 19.0971 15.3764 19.8234 14.6006 20.082L10.6006 21.415C9.37034 21.825 8.09961 20.9091 8.09961 19.6123V14.0469C8.09961 13.2757 7.81269 12.5316 7.29395 11.9609L3.85449 8.17773H3.85352C3.36853 7.64414 3.0998 6.94859 3.09961 6.22754V5C3.09961 3.95066 3.95066 3.09961 5 3.09961H19C20.0493 3.09961 20.9004 3.95066 20.9004 5V6.17188Z" fill="#040405"/>
</svg>
