<svg width="72" height="66" viewBox="0 0 72 66" fill="none" xmlns="http://www.w3.org/2000/svg">
    <path
        d="M71.1416 28.29C71.1416 28.29 67.3362 34.7425 61.5459 39.21C52.5136 46.1786 44.7942 46.1628 38.3838 51.6182C31.9735 57.0737 29.3948 62.8684 28.7881 65.5156L21.3428 59.7256C21.9494 57.0785 24.528 51.2838 30.9385 45.8281C37.3489 40.3724 45.4888 40.9023 54.1006 33.4199C62.7124 25.9376 63.6963 22.5 63.6963 22.5L71.1416 28.29ZM65.8467 8.10449C65.8467 8.10449 62.5379 21.5063 50.626 30.9365C41.6815 38.0174 33.8743 37.8891 27.4639 43.3447C21.0539 48.8002 18.4749 54.594 17.8682 57.2412L10.4238 51.4512C11.0305 48.8041 13.609 43.0094 20.0195 37.5537C26.43 32.0982 34.57 32.6278 43.1816 25.1455C55.7489 14.2263 58.4023 2.31445 58.4023 2.31445L65.8467 8.10449ZM52.7764 5.79004C52.7764 5.79004 50.2948 13.7316 40.2031 22.5C31.5915 29.9822 23.4514 29.4528 17.041 34.9082C10.6307 40.3638 8.05201 46.1585 7.44531 48.8057L0 43.0156C0.606623 40.3685 3.18528 34.5739 9.5957 29.1182C16.0062 23.6624 24.1461 24.1923 32.7578 16.71C42.8281 7.96041 45.3203 0.0341986 45.3311 0L52.7764 5.79004Z"
        fill="url(#paint0_linear_3573_294377)" />
    <defs>
        <linearGradient id="paint0_linear_3573_294377" x1="57.5795" y1="2.2279e-06" x2="3.09311"
            y2="2.21564e-06" gradientUnits="userSpaceOnUse">
            <stop stop-color="#FEDA3B" />
            <stop offset="0.47" stop-color="#EF5541" />
            <stop offset="0.815" stop-color="#821EE0" />
            <stop offset="0.98" stop-color="#7F2A8A" />
        </linearGradient>
    </defs>
</svg>
    