<svg width="24" height="24" viewBox="0 0 24 24" fill="none" xmlns="http://www.w3.org/2000/svg">
<path d="M12.6066 2.35938C13.2898 1.68885 14.4617 2.17514 14.462 3.18164V10.2676H18.8478C19.7354 10.2678 20.2369 11.278 19.7755 12.0059L19.6671 12.1504L11.4581 21.5713C10.7867 22.3419 9.53849 21.8578 9.53822 20.8184V13.7324H5.15248C4.20413 13.7324 3.69677 12.5792 4.33217 11.8496L12.5421 2.42871L12.5412 2.42774L12.6066 2.35938ZM12.6339 5.00196L6.5851 11.9453H10.3624C10.867 11.9455 11.2783 12.3653 11.2785 12.8857V19.0977L11.3663 18.9971L17.4142 12.0547H13.6369C13.1325 12.0543 12.721 11.6346 12.7208 11.1143V4.90137L12.6339 5.00196Z" fill="#040405"/>
</svg>
