<svg width="24" height="24" viewBox="0 0 24 24" fill="none" xmlns="http://www.w3.org/2000/svg">
<path d="M2.15039 5.77734C2.15061 4.38391 3.2166 3.15045 4.65625 3.15039H8.7998C9.88189 3.15047 10.802 3.86766 11.1533 4.87305L11.5889 6.12207C11.7225 6.50417 12.0393 6.70508 12.3379 6.70508H17.9072C19.3469 6.70512 20.4129 7.93952 20.4131 9.33301V10.5654C21.416 11.0834 22.0466 12.1995 21.7959 13.4102L20.3955 20.1719C20.3138 20.5665 19.9665 20.8496 19.5635 20.8496H4.65625C3.2166 20.8496 2.15061 19.6161 2.15039 18.2227V5.77734ZM9.10938 11.9609C8.61535 11.9611 8.22404 12.2959 8.1377 12.7129L6.80469 19.1504H18.8721L20.1309 13.0654C20.242 12.5285 19.8186 11.961 19.1592 11.9609H9.10938ZM3.84961 18.2227C3.84982 18.7924 4.26668 19.1503 4.65625 19.1504H5.06934L6.47266 12.3682C6.73036 11.1235 7.84916 10.2609 9.10938 10.2607H18.7139V9.33301C18.7137 8.7632 18.2968 8.40532 17.9072 8.40527H12.3379C11.2558 8.40527 10.3357 7.68793 9.98438 6.68262L9.54785 5.43359C9.41424 5.05161 9.09837 4.84969 8.7998 4.84961H4.65625C4.26668 4.84967 3.84982 5.20761 3.84961 5.77734V18.2227Z" fill="#040405"/>
</svg>
