<svg width="24" height="24" viewBox="0 0 24 24" fill="none" xmlns="http://www.w3.org/2000/svg">
<path d="M12.5021 1.87759C15.0061 2.00398 17.3823 3.05604 19.1635 4.8374C20.9446 6.61878 21.9953 8.99474 22.1215 11.4988L22.1342 12.0009L22.1215 12.503C21.9951 15.0066 20.9446 17.3824 19.1635 19.1634C17.4937 20.8331 15.3011 21.861 12.9706 22.0869L12.5021 22.1214L11.9991 22.1332C9.3127 22.1307 6.73626 21.063 4.83655 19.1634C3.0555 17.3824 2.00492 15.0066 1.87856 12.503L1.86584 12.0009C1.8681 9.31397 2.93678 6.73746 4.83655 4.8374C6.73625 2.93752 9.31244 1.86853 11.9991 1.86578L12.5021 1.87759ZM14.7846 16.8319C14.2799 16.8826 13.7739 16.9208 13.2675 16.9445L12.7609 16.9636L12 16.9735C11.0701 16.9738 10.1408 16.925 9.21544 16.8319L9.1537 16.8256L9.16551 16.8873C9.37464 17.9783 9.65338 19.055 10.0035 20.1095L10.0044 20.1104C10.014 20.1384 10.0212 20.1679 10.028 20.1985L10.0344 20.2266L10.0625 20.2339C10.6973 20.3835 11.3474 20.46 12 20.4599L12.2597 20.4563C12.8234 20.4393 13.3848 20.3643 13.9339 20.2357L13.9602 20.2293L13.9675 20.203L13.9974 20.0959L13.9984 20.0968C14.3473 19.0463 14.6254 17.974 14.8345 16.8873L14.8463 16.8256L14.7846 16.8319ZM19.3814 15.9676C18.4717 16.2218 17.5499 16.4308 16.6186 16.5886L16.5868 16.594L16.5814 16.6258C16.4218 17.5578 16.2114 18.4804 15.9549 19.3904L15.925 19.4966L16.0212 19.444C17.4633 18.6608 18.649 17.4766 19.435 16.0338L19.4876 15.9376L19.3814 15.9676ZM4.56327 16.0329C5.34824 17.4715 6.53202 18.6527 7.97159 19.4358L8.06783 19.4885L8.03787 19.3822C7.78483 18.4749 7.57633 17.5553 7.41867 16.6267L7.41322 16.5949L7.38145 16.5895L6.68417 16.4606C5.98895 16.3229 5.29949 16.1575 4.61684 15.9658L4.51061 15.9358L4.56327 16.0329ZM15.0733 8.88944C13.0309 8.64623 10.9673 8.64616 8.92491 8.88944L8.88859 8.89398L8.88405 8.93029C8.64025 10.9735 8.64027 13.0382 8.88405 15.0814L8.88859 15.1178L8.92491 15.1223C10.9679 15.3638 13.0317 15.361 15.0742 15.1159L15.1106 15.1114L15.1151 15.0751C15.3579 13.0338 15.3575 10.9715 15.1142 8.93029L15.1096 8.89398L15.0733 8.88944ZM16.8311 9.22083C17.0186 11.0729 17.0184 12.9389 16.8302 14.7909L16.8238 14.8526L16.8855 14.8408C17.8304 14.6598 18.7646 14.4271 19.6828 14.1399L20.1096 14.0028L20.1105 14.0019C20.138 13.9924 20.1668 13.9851 20.1967 13.9783L20.2258 13.972L20.2321 13.9438C20.3814 13.3091 20.4576 12.6588 20.4573 12.0063L20.4537 11.7467C20.4367 11.1821 20.3622 10.6197 20.233 10.0697L20.2258 10.0416L20.1976 10.0352L20.095 10.008L20.0932 10.0071C19.0437 9.65854 17.9723 9.3796 16.8864 9.17089L16.8247 9.15909L16.8311 9.22083ZM7.11543 9.16454C6.296 9.32151 5.48474 9.51797 4.68493 9.75468L3.88959 10.0044L3.88778 10.0053C3.86064 10.014 3.83218 10.0205 3.80153 10.0271L3.77338 10.0334L3.76612 10.0616C3.6163 10.6972 3.54053 11.3483 3.54095 12.0018L3.54459 12.2614C3.56169 12.8253 3.6353 13.3872 3.7643 13.9366L3.77156 13.9656L3.80062 13.9711C3.83588 13.9783 3.869 13.9858 3.90049 13.9965L4.01126 14.0346L4.01035 14.0373L4.06119 14.0546C5.06194 14.3797 6.08212 14.6415 7.11543 14.8399L7.17717 14.8517L7.17081 14.79C6.98309 12.9362 6.98302 11.0683 7.17081 9.21447L7.17717 9.15273L7.11543 9.16454ZM7.96705 4.5732C6.52688 5.35767 5.34391 6.54043 4.56055 7.9788L4.50789 8.07504L4.61411 8.04507C5.52333 7.79036 6.44514 7.58148 7.376 7.42315L7.40778 7.4177L7.41322 7.38593C7.57116 6.45608 7.77974 5.53523 8.03333 4.62676L8.06329 4.52054L7.96705 4.5732ZM15.9613 4.62495C16.2155 5.53333 16.4241 6.45416 16.5823 7.38411L16.5877 7.41589L16.6195 7.42133C17.5478 7.57813 18.4673 7.78504 19.3741 8.03781L19.4804 8.06777L19.4277 7.97062C18.6442 6.53466 17.464 5.35421 16.0276 4.57138L15.9313 4.51872L15.9613 4.62495ZM11.7349 3.5536C11.1707 3.57071 10.6085 3.64518 10.0589 3.77423L10.0298 3.78149L10.0244 3.81054C10.0171 3.84578 10.0097 3.87889 9.99897 3.91042C9.64972 4.96092 9.3694 6.03393 9.16006 7.12081L9.14826 7.18255L9.20999 7.1762C10.1343 7.08237 11.0628 7.0337 11.9919 7.03365C12.9217 7.03029 13.8519 7.07629 14.7773 7.16712L14.8391 7.17347L14.8273 7.11173C14.6184 6.02389 14.3409 4.95027 13.992 3.89861C13.9823 3.8701 13.9741 3.8401 13.9675 3.80964L13.9611 3.78149L13.933 3.77423L13.6942 3.72157C13.1353 3.60709 12.5658 3.54956 11.9946 3.54997L11.7349 3.5536Z" fill="#040405"/>
</svg>
