<svg width="24" height="24" viewBox="0 0 24 24" fill="none" xmlns="http://www.w3.org/2000/svg">
<path d="M4.59141 14.7711V11.8461L2.68594 10.9742C2.11641 10.7141 1.79297 10.2148 1.79297 9.65235C1.79297 9.09688 2.11641 8.59063 2.68594 8.33047L9.68203 5.13828C10.4836 4.77266 11.1375 4.61094 11.7703 4.61797C12.4102 4.61094 13.0641 4.77266 13.8656 5.13828L20.8617 8.33047C21.4242 8.59063 21.7547 9.09688 21.7547 9.65235C21.7547 10.2148 21.4242 10.7141 20.8617 10.9742L18.9492 11.8461V14.7711C18.9492 17.2109 15.8836 19.0109 11.7703 19.0109C10.6031 19.0109 9.51328 18.8633 8.55703 18.5961C8.65547 18.7648 8.70469 18.9688 8.70469 19.1938V21.1484C8.70469 21.8164 8.26172 22.2594 7.59375 22.2594H7.15078C6.48281 22.2594 6.03984 21.8164 6.03984 21.1484V19.1938C6.03984 18.6664 6.31406 18.2797 6.75703 18.1391V17.8719C5.40703 17.1125 4.59141 16.0297 4.59141 14.7711ZM11.7703 12.9008C12.1922 12.9008 12.5859 12.7883 13.1625 12.5281L19.0898 9.83516C19.1883 9.78594 19.2305 9.72969 19.2305 9.65235C19.2305 9.575 19.1883 9.51875 19.0898 9.47657L13.1625 6.77657C12.5859 6.51641 12.1922 6.41094 11.7703 6.41094C11.3555 6.41094 10.9547 6.51641 10.3852 6.77657L4.45078 9.47657C4.35938 9.51875 4.31016 9.575 4.31016 9.65235C4.31016 9.72969 4.35938 9.78594 4.45078 9.83516L7.39688 11.1711L10.0828 9.79297C10.0758 9.75078 10.0688 9.70157 10.0688 9.65235C10.0688 9.04063 10.9125 8.62578 11.7914 8.62578C12.6633 8.62578 13.5 9.0336 13.5 9.65235C13.5 10.2781 12.6633 10.7 11.7914 10.7C11.5242 10.7 11.2641 10.6648 11.032 10.5945L8.72578 11.7758L10.3852 12.5281C10.9547 12.7883 11.3555 12.9008 11.7703 12.9008ZM6.29297 14.7711C6.29297 15.1367 6.45469 15.5023 6.75703 15.8258V12.8305L6.29297 12.6195V14.7711ZM11.7703 14.6867C11.1375 14.7008 10.4836 14.532 9.68203 14.1664L7.99453 13.4V16.6766C8.94375 17.1125 10.2516 17.3867 11.7703 17.3867C15.0188 17.3867 17.2547 16.1352 17.2547 14.7711V12.6195L13.8656 14.1664C13.0641 14.532 12.4102 14.7008 11.7703 14.6867Z" fill="#040405"/>
</svg>
