<svg width="24" height="24" viewBox="0 0 24 24" fill="none" xmlns="http://www.w3.org/2000/svg">
<path d="M12.1865 2.10645C12.6159 2.13603 12.9973 2.26916 13.3379 2.50586L13.3398 2.50684L21.0098 7.75488L21.0137 7.75684C21.2902 7.94188 21.5069 8.17715 21.665 8.46484C21.7833 8.68022 21.8568 8.90422 21.8857 9.1377L21.9004 9.375V19.8711C21.9004 20.4288 21.6863 20.9007 21.2471 21.3018C20.9097 21.6095 20.5259 21.7974 20.0889 21.8682L19.8984 21.8916L19.667 21.9004H14.5566C14.2756 21.9003 14.0558 21.8158 13.876 21.6514C13.7575 21.5427 13.6782 21.4201 13.6377 21.2783L13.6104 21.1299L13.6055 21.0322V14.9033H10.3945V21.0381L10.3896 21.1299C10.37 21.3381 10.2817 21.5073 10.124 21.6514C10.0047 21.7602 9.86887 21.8338 9.71094 21.8711L9.5459 21.8965L9.43945 21.9004H4.3291C3.71185 21.9003 3.19195 21.7022 2.75293 21.3018C2.36932 20.9515 2.15769 20.5465 2.11035 20.0762L2.09961 19.8711V9.37598C2.09964 9.0553 2.17884 8.75262 2.33691 8.46484C2.49345 8.18011 2.70567 7.94659 2.97656 7.7627H2.97852L2.99023 7.75488L10.6592 2.50684L10.6621 2.50586C11.0513 2.23543 11.4935 2.09961 12 2.09961L12.1865 2.10645ZM12 3.9834C11.8231 3.9834 11.661 4.03702 11.4775 4.13477C11.2963 4.23137 11.0858 4.37495 10.8145 4.56055L4.91602 8.5957C4.70422 8.74059 4.5404 8.8539 4.41504 8.95801C4.28811 9.06342 4.19488 9.164 4.12891 9.28906C4.06303 9.41404 4.03195 9.5478 4.0166 9.71191C4.00146 9.87396 4.00195 10.0728 4.00195 10.3291V18.0762C4.00195 18.5445 4.00134 18.906 4.03906 19.1865C4.07719 19.4699 4.15612 19.6854 4.32422 19.8535C4.49233 20.0216 4.7078 20.1005 4.99121 20.1387C5.27174 20.1764 5.63318 20.1758 6.10156 20.1758H8.49219V14.041C8.49219 13.7895 8.58186 13.5924 8.76172 13.4287C8.94278 13.2641 9.16302 13.1795 9.44336 13.1787H14.5566L14.6592 13.1826C14.892 13.2009 15.08 13.2836 15.2383 13.4277L15.3018 13.4912C15.4396 13.6429 15.5084 13.822 15.5078 14.041V20.1758H17.8984C18.3668 20.1758 18.7283 20.1764 19.0088 20.1387C19.2922 20.1005 19.5077 20.0216 19.6758 19.8535C19.8439 19.6854 19.9228 19.4699 19.9609 19.1865C19.9987 18.906 19.998 18.5445 19.998 18.0762V10.3291C19.998 10.0728 19.9985 9.87396 19.9834 9.71191C19.968 9.5478 19.937 9.41404 19.8711 9.28906C19.8051 9.164 19.7119 9.06342 19.585 8.95801C19.4596 8.8539 19.2958 8.74059 19.084 8.5957L13.1855 4.56055C12.9142 4.37495 12.7037 4.23137 12.5225 4.13477C12.339 4.03702 12.1769 3.9834 12 3.9834Z" fill="#040405"/>
</svg>
