<svg width="24" height="24" viewBox="0 0 24 24" fill="none" xmlns="http://www.w3.org/2000/svg">
<path d="M16.2076 6.75263C17.3993 6.80664 18.3463 7.72014 18.9586 9.16474L21.8727 16.1091L21.9693 16.3601L21.9703 16.362C22.1795 16.9586 22.2583 17.5954 22.2027 18.2282C22.1392 18.9503 21.9004 19.6454 21.5084 20.2507C21.1244 20.8648 20.5943 21.3718 19.9664 21.7214C19.3386 22.0707 18.6333 22.2517 17.9176 22.2487L6.03085 22.2497C5.29477 22.2492 4.5713 22.0559 3.92929 21.6901C3.28733 21.3243 2.74838 20.7972 2.36288 20.1599C1.97746 19.5224 1.75665 18.7952 1.72421 18.0476C1.69186 17.2999 1.84775 16.5558 2.17636 15.8864L3.77206 12.6198C3.98826 12.1042 4.32919 11.6516 4.76327 11.3054C5.19867 10.9582 5.71504 10.7287 6.26132 10.6394H6.26523L6.28671 10.6374C6.83843 10.6064 7.39017 10.719 7.8873 10.9636C8.38092 11.2067 8.80674 11.5729 9.1246 12.027L9.3248 12.2878L9.33066 12.2937L9.33945 12.3034L9.34238 12.3103C9.46711 12.5026 9.63689 12.6602 9.83554 12.7692C10.0282 12.8749 10.242 12.93 10.4596 12.9333C10.6737 12.893 10.8767 12.8026 11.0494 12.6657C11.2277 12.5243 11.3687 12.3392 11.4605 12.1276L11.4615 12.1247L11.4703 12.1091V12.1071L13.2301 8.86787C13.9792 7.4862 15.0207 6.69918 16.2076 6.75263ZM15.9557 8.72236C15.8463 8.7547 15.713 8.82762 15.5621 8.95674C15.3376 9.14892 15.101 9.4445 14.8883 9.82881L14.8873 9.82783L13.1295 13.0651C12.8922 13.5497 12.5434 13.9699 12.1109 14.2868C11.6751 14.6059 11.1674 14.8111 10.6353 14.8845L10.6344 14.8835L10.6285 14.8854L10.6187 14.8874L10.6109 14.8864C10.0731 14.9077 9.53811 14.7938 9.05429 14.5534C8.57093 14.3131 8.15353 13.954 7.83945 13.5104L7.63925 13.2497L7.62656 13.2341L7.6246 13.2302C7.50605 13.0401 7.3463 12.8801 7.15878 12.7644C6.97397 12.6505 6.76525 12.581 6.55038 12.5612L6.4996 12.5661C6.27246 12.6158 6.06031 12.7228 5.88339 12.8767C5.70562 13.0315 5.56754 13.2307 5.483 13.4548L5.48202 13.4577L5.47812 13.4665L5.47324 13.4763L3.86874 16.7517C3.6828 17.1283 3.59509 17.551 3.61288 17.9733C3.63081 18.3949 3.75298 18.8044 3.96933 19.1628C4.18632 19.5217 4.49121 19.8184 4.85117 20.0231C5.21106 20.2276 5.616 20.3362 6.02695 20.3356H17.9039L18.0543 20.3308L18.3121 20.2995C18.5681 20.2542 18.8167 20.1666 19.0475 20.0397C19.3986 19.8465 19.6983 19.5662 19.9185 19.2253L19.9986 19.0935C20.1714 18.7852 20.277 18.4412 20.3082 18.0856C20.3438 17.6781 20.2801 17.2678 20.1227 16.8923L17.2125 9.94697C17.0436 9.53888 16.846 9.22091 16.6461 9.00947C16.4441 8.79594 16.2595 8.70888 16.1119 8.70283H16.0562L15.9557 8.72236ZM6.73886 1.82295C7.46607 1.67832 8.22076 1.75216 8.90585 2.03584C9.59071 2.31968 10.1766 2.80039 10.5885 3.4167C11.0003 4.03315 11.2212 4.75824 11.2213 5.49971L11.2154 5.68525C11.1676 6.61118 10.7792 7.49039 10.1207 8.14912C9.41801 8.85175 8.46404 9.24759 7.47031 9.2497C6.72885 9.24962 6.00383 9.02976 5.3873 8.61787C4.77069 8.20581 4.29021 7.61922 4.00644 6.93428C3.72292 6.24942 3.64804 5.49534 3.79257 4.76826C3.93727 4.04122 4.29498 3.37352 4.81894 2.84931C5.34322 2.32503 6.01163 1.96772 6.73886 1.82295ZM7.33261 3.654L7.33359 3.65498C7.01621 3.67868 6.70908 3.78389 6.44296 3.96162C6.13896 4.16484 5.90129 4.45408 5.76132 4.7917C5.62161 5.12923 5.58563 5.50139 5.65683 5.86006C5.72823 6.21883 5.9043 6.54977 6.16269 6.8083C6.42126 7.06663 6.75081 7.24375 7.10898 7.31513C7.46789 7.38651 7.84139 7.3496 8.17929 7.20967C8.51697 7.0697 8.80617 6.83194 9.00937 6.52803C9.21181 6.22488 9.31937 5.86767 9.31992 5.50263L9.31113 5.31709C9.26862 4.89372 9.0812 4.4954 8.77792 4.19209C8.43109 3.84544 7.96053 3.64983 7.47031 3.64912L7.33261 3.654Z" fill="#040405"/>
</svg>
