<svg width="24" height="24" viewBox="0 0 24 24" fill="none" xmlns="http://www.w3.org/2000/svg">
<path d="M7.60875 8.43562C7.84935 8.4207 8.08721 8.49744 8.27428 8.64898C8.43912 8.78267 8.55465 8.9664 8.60015 9.17121L8.61607 9.26568C8.62786 9.38568 8.61545 9.50795 8.57892 9.62446C8.55169 9.71093 8.51131 9.7931 8.46004 9.86753L8.40484 9.94077C8.34703 10.0089 8.27895 10.0682 8.20423 10.117L8.11719 10.1669C8.03777 10.2073 7.95199 10.2371 7.86244 10.2539L7.77115 10.2666C6.30235 10.3994 5.34514 10.8015 4.74599 11.5436C4.14148 12.2927 3.86393 13.4343 3.86392 15.1377V15.2587C3.86396 17.1383 4.20628 18.3454 4.9689 19.0916C5.73314 19.8391 6.97103 20.1743 8.89523 20.1743H15.1058C17.0298 20.1742 18.2682 19.8391 19.0322 19.0916C19.7944 18.3454 20.136 17.1379 20.1361 15.2587V15.1377C20.1361 13.4248 19.8535 12.2796 19.2381 11.5308C18.6287 10.7896 17.6549 10.3919 16.1599 10.2677C16.0676 10.2617 15.9747 10.2423 15.8892 10.2104L15.8064 10.1743C15.6953 10.1199 15.5959 10.043 15.5156 9.95139C15.4345 9.85891 15.3721 9.75178 15.334 9.63613C15.2965 9.52158 15.2817 9.39857 15.2926 9.27524L15.2916 9.27418L15.3054 9.18395C15.3231 9.09398 15.355 9.00768 15.3977 8.92814C15.4554 8.82133 15.5341 8.72412 15.6302 8.64685C15.7265 8.56953 15.8379 8.51225 15.955 8.47808C16.0724 8.44393 16.1967 8.43329 16.3191 8.44624H16.3212C18.2469 8.60821 19.6796 9.20204 20.6265 10.3208C21.5712 11.4372 21.9999 13.0393 22 15.1462V15.2682L21.9936 15.6928C21.934 17.7828 21.4227 19.3417 20.3494 20.3898C19.2771 21.4365 17.6826 21.9354 15.541 21.9936L15.1058 22H8.89523C6.53299 22 4.79455 21.5063 3.65057 20.3876C2.57727 19.3377 2.06606 17.7751 2.00637 15.678L2 15.2512V15.1302C2 13.0377 2.4218 11.4466 3.35124 10.3324C4.28397 9.21461 5.69678 8.61436 7.59707 8.43775H7.60132L7.60875 8.43562ZM12.0021 2C12.2468 2.00176 12.4819 2.0985 12.656 2.26855C12.8082 2.41763 12.9049 2.61375 12.9277 2.82369L12.933 2.91498V13.7567L14.5358 12.1889L14.5348 12.1879L14.5411 12.1847C14.7165 12.0249 14.9471 11.9367 15.1854 11.9395L15.2799 11.9448C15.4862 11.968 15.6809 12.0596 15.8308 12.2059C15.9435 12.3163 16.0249 12.4528 16.0686 12.6008L16.0994 12.7515L16.1068 12.8407L16.1025 12.9298C16.0858 13.1324 15.9997 13.3224 15.8605 13.4722L15.8467 13.4871L12.6581 16.6089C12.5933 16.6727 12.5192 16.7262 12.4394 16.7681L12.3567 16.8063C12.2734 16.8402 12.1851 16.8624 12.0945 16.871L12.0032 16.8753C11.8805 16.8756 11.7592 16.8515 11.6476 16.8063C11.5632 16.772 11.4838 16.7255 11.413 16.6683L11.3451 16.6078L8.15434 13.4882L8.14691 13.4818C7.98375 13.3104 7.89377 13.0831 7.8964 12.846L7.90277 12.7515C7.92675 12.5461 8.02102 12.3529 8.17132 12.2059C8.34197 12.0393 8.57093 11.9443 8.80926 11.9395L8.90054 11.9416C9.07681 11.9553 9.24628 12.0187 9.38775 12.1231L9.46418 12.1868L9.4663 12.1879L11.068 13.7535V2.91498C11.0697 2.67206 11.1696 2.43949 11.344 2.26855C11.4967 2.11939 11.697 2.02702 11.9087 2.00531L12 2H12.0021Z" fill="#040405"/>
</svg>
