<svg width="24" height="24" viewBox="0 0 24 24" fill="none" xmlns="http://www.w3.org/2000/svg">
<path d="M16 10.0996C16.3557 10.0996 16.6778 10.3098 16.8223 10.6348L20.8223 19.6348C21.024 20.089 20.8194 20.6204 20.3652 20.8223C19.9111 21.024 19.3796 20.8194 19.1777 20.3652L18.5264 18.9004H13.4736L12.8223 20.3652C12.6204 20.8194 12.0889 21.024 11.6348 20.8223C11.1806 20.6204 10.976 20.089 11.1777 19.6348L15.1777 10.6348L15.2402 10.5186C15.4036 10.2607 15.6888 10.0996 16 10.0996ZM14.2734 17.0996H17.7266L16 13.2149L14.2734 17.0996ZM11 5.47072C11.4971 5.47072 11.9004 5.87405 11.9004 6.37111C11.9003 6.86812 11.497 7.2715 11 7.2715H9.86914C9.74425 9.07516 9.23788 10.5586 8.41602 11.6729C9.13389 11.9169 10.0047 12.0756 11.0225 12.1006C11.5192 12.113 11.9116 12.5257 11.8994 13.0225C11.887 13.5192 11.4743 13.9116 10.9775 13.8994C9.43609 13.8615 8.08248 13.557 6.9873 13.0322C6.10367 13.6089 5.08018 13.9004 4 13.9004C3.50294 13.9004 3.09961 13.4971 3.09961 13C3.09961 12.503 3.50294 12.0996 4 12.0996C4.468 12.0996 4.91208 12.0216 5.32422 11.8682C4.55339 11.0823 4.09961 10.0985 4.09961 9.00002C4.09961 8.50296 4.50294 8.09962 5 8.09962C5.49706 8.09962 5.90039 8.50296 5.90039 9.00002C5.90039 9.63156 6.18275 10.262 6.8125 10.8018C6.8209 10.7917 6.83053 10.7827 6.83887 10.7725C7.46433 10.0087 7.9344 8.86057 8.06348 7.2715H4C3.50298 7.2715 3.09966 6.86812 3.09961 6.37111C3.09961 5.87405 3.50294 5.47072 4 5.47072H11ZM5.96875 2.46779C6.26284 2.06707 6.82585 1.98033 7.22656 2.27443L8.01953 2.85646C8.42012 3.15048 8.5067 3.71358 8.21289 4.11427C7.9188 4.51499 7.35482 4.60173 6.9541 4.30763L6.16113 3.7256C5.76062 3.43147 5.67474 2.86843 5.96875 2.46779Z" fill="#040405"/>
</svg>
