<svg width="24" height="24" viewBox="0 0 24 24" fill="none" xmlns="http://www.w3.org/2000/svg">
<path d="M15.0615 5.24905C15.0614 4.87633 14.9146 4.51979 14.6543 4.25784C14.3942 3.99607 14.0423 3.84972 13.6768 3.84964C13.3112 3.84964 12.9594 3.99618 12.6992 4.25784C12.4389 4.51979 12.2911 4.87633 12.291 5.24905V6.37405C12.291 7.79088 11.7316 9.15087 10.7344 10.1543C9.93933 10.9543 8.91763 11.4739 7.82031 11.6524V17.6201C7.82031 18.2913 8.08568 18.9343 8.55566 19.4073C9.0254 19.8799 9.66127 20.1445 10.3232 20.1446H18.1475L18.2197 20.1475C18.4071 20.1635 18.6495 20.0963 18.9102 19.834C19.1768 19.5656 19.4179 19.1299 19.5518 18.5616L20.6465 13.0518C20.6292 12.7047 20.4861 12.3764 20.2422 12.1309C19.982 11.869 19.6303 11.7227 19.2646 11.7227H15.9121C15.4428 11.7227 15.0617 11.3423 15.0615 10.8731V5.24905ZM3.34961 19.8701C3.34966 19.9446 3.37992 20.0154 3.43066 20.0664C3.48112 20.117 3.54826 20.1444 3.61719 20.1446H5.85254C5.92165 20.1446 5.98947 20.1171 6.04004 20.0664C6.09078 20.0154 6.12007 19.9446 6.12012 19.8701V11.7227H3.61719C3.54827 11.7228 3.48112 11.7503 3.43066 11.8008C3.37993 11.8519 3.34967 11.9226 3.34961 11.9971V19.8701ZM16.7617 10.0225H19.2646C20.0846 10.0225 20.8701 10.3508 21.4482 10.9326C22.0261 11.5143 22.3496 12.3019 22.3496 13.1221C22.3496 13.1777 22.3448 13.2336 22.334 13.2881L21.2158 18.9112C21.214 18.9202 21.212 18.9296 21.21 18.9385C21.0219 19.7454 20.6543 20.4908 20.1162 21.0323C19.5834 21.5684 18.8879 21.8922 18.1289 21.8448H10.3232C9.31087 21.8447 8.33824 21.476 7.57812 20.8164C7.48953 20.9791 7.37901 21.1309 7.24609 21.2647C6.87752 21.6355 6.37602 21.8448 5.85254 21.8448H3.61719C3.0939 21.8446 2.59307 21.6353 2.22461 21.2647C1.85624 20.894 1.65044 20.3921 1.65039 19.8701V11.9971C1.65045 11.4752 1.85625 10.9732 2.22461 10.6026C2.59307 10.2319 3.0939 10.0226 3.61719 10.0225H6.9707C7.92918 10.0225 8.84992 9.63973 9.5293 8.95609C10.2088 8.27226 10.5908 7.34338 10.5908 6.37405V5.24905C10.5909 4.42888 10.9152 3.64117 11.4932 3.0596C12.0713 2.47787 12.8568 2.15042 13.6768 2.15042C14.4966 2.1505 15.2822 2.47785 15.8604 3.0596C16.4382 3.64115 16.7616 4.42895 16.7617 5.24905V10.0225Z" fill="#040405"/>
</svg>
