<svg width="24" height="24" viewBox="0 0 24 24" fill="none" xmlns="http://www.w3.org/2000/svg">
<path d="M9.91416 2.73534C10.4258 2.73534 10.8406 3.15014 10.8406 3.66181C10.8406 4.17348 10.4258 4.58828 9.91416 4.58828H5.28183C5.026 4.58828 4.8186 4.79567 4.8186 5.05151V18.9485C4.8186 19.2043 5.026 19.4117 5.28183 19.4117H9.91416C10.4258 19.4117 10.8406 19.8265 10.8406 20.3382C10.8406 20.8499 10.4258 21.2647 9.91416 21.2647H5.28183C4.00265 21.2647 2.96567 20.2277 2.96567 18.9485V5.05151C2.96567 3.77233 4.00265 2.73534 5.28183 2.73534H9.91416Z" fill="#040405"/>
<path d="M15.0124 6.71263C15.3743 6.35086 15.9607 6.35084 16.3225 6.71263L20.6273 11.0174C21.1699 11.5601 21.1699 12.4399 20.6273 12.9826L16.3225 17.2874L16.252 17.3507C15.8881 17.6475 15.3516 17.6265 15.0124 17.2874C14.6732 16.9482 14.6523 16.4118 14.9491 16.0479L15.0124 15.9773L18.0633 12.9265H9.91416C9.40249 12.9265 8.9877 12.5117 8.9877 12C8.9877 11.4883 9.40249 11.0735 9.91416 11.0735H18.0633L15.0124 8.02271C14.6506 7.66091 14.6506 7.07444 15.0124 6.71263Z" fill="#040405"/>
</svg>
