<svg width="24" height="24" viewBox="0 0 24 24" fill="none" xmlns="http://www.w3.org/2000/svg">
<path d="M8.80859 3.19727C9.15932 3.19727 9.48707 3.29027 9.78906 3.47559L14.7178 6.49121L19.5605 3.81445C19.7011 3.7342 19.8344 3.67335 19.959 3.63184C20.0851 3.58983 20.2095 3.56836 20.332 3.56836C20.6637 3.56836 20.9339 3.66183 21.127 3.8623C21.3191 4.06189 21.4082 4.33724 21.4082 4.67383V17.1055C21.4082 17.4186 21.3437 17.691 21.209 17.918C21.1131 18.0878 20.9752 18.2374 20.7979 18.3672L20.6064 18.4912L15.8018 21.2256C15.5066 21.3971 15.1866 21.4824 14.8438 21.4824C14.4928 21.4824 14.1444 21.3864 13.7998 21.1973L13.7979 21.1963L8.76758 18.333L4.10059 20.875L4.09961 20.876C3.95926 20.9495 3.82647 21.0067 3.70312 21.0479L3.70215 21.0469C3.57679 21.095 3.45296 21.1211 3.33008 21.1211C3.00407 21.1211 2.73579 21.0268 2.53711 20.8281L2.53516 20.8271C2.34237 20.6269 2.25391 20.3444 2.25391 19.9961V7.58398C2.25391 7.27163 2.31492 7.00006 2.44238 6.77344L2.44336 6.77148C2.57802 6.54468 2.78509 6.35692 3.05762 6.20703L7.80176 3.47363C8.10996 3.28912 8.44628 3.19727 8.80859 3.19727ZM19.834 5.49609C19.8162 5.49609 19.7866 5.50317 19.7422 5.52539L19.7412 5.52441L15.5391 7.81934V19.5723C15.5534 19.5643 15.5686 19.5575 15.583 19.5488L15.5869 19.5469C15.6594 19.5073 15.7287 19.4706 15.7949 19.4375L19.6074 17.2051C19.7081 17.1458 19.7704 17.0852 19.8047 17.0273C19.8409 16.9596 19.8613 16.8793 19.8613 16.7832V5.54297C19.8613 5.51724 19.8546 5.5089 19.8516 5.50586L19.8457 5.50098L19.8428 5.49707C19.8411 5.49675 19.8383 5.49609 19.834 5.49609ZM9.67969 16.9688L13.752 19.3086L13.9414 19.3984L13.9482 19.4023L13.9922 19.4258V7.89355L9.81152 5.34473L9.80469 5.3418C9.7663 5.31444 9.72532 5.29177 9.68164 5.27539L9.67969 5.27441V16.9688ZM8.11914 5.11035L8.11133 5.11523C8.06072 5.14054 8.00673 5.16922 7.94922 5.20117L7.94824 5.2002L4.0459 7.48242L4.04688 7.4834C3.9552 7.54074 3.89495 7.60263 3.85938 7.66699C3.828 7.73584 3.81055 7.8181 3.81055 7.91602V19.1367C3.81055 19.1753 3.81889 19.1884 3.82031 19.1904C3.82168 19.191 3.8268 19.1934 3.83789 19.1934C3.83785 19.1934 3.84023 19.1933 3.84473 19.1924C3.84915 19.1914 3.8555 19.1893 3.86328 19.1865C3.87932 19.1808 3.89981 19.1707 3.92578 19.1562L8.13281 16.8408V5.10254C8.12841 5.10521 8.12349 5.10763 8.11914 5.11035Z" fill="#040405"/>
</svg>
