<svg width="24" height="24" viewBox="0 0 24 24" fill="none" xmlns="http://www.w3.org/2000/svg">
<path d="M5.30969 2.79545C4.97297 2.75211 4.63004 2.80648 4.32239 2.95072C4.01519 3.09486 3.75537 3.32358 3.57336 3.6099C3.39128 3.89653 3.29401 4.22954 3.29407 4.56889L3.29407 17.3111L3.29895 17.438C3.31979 17.7332 3.41395 18.0201 3.57337 18.271C3.75539 18.5573 4.01522 18.7861 4.32239 18.9302C4.62989 19.0744 4.97276 19.1269 5.30969 19.0835C5.64635 19.0402 5.96399 18.9031 6.22473 18.6861L10.7042 14.9527L10.7325 14.9292L11.6798 14.9292L11.6798 19.3267C11.6799 19.8283 11.8798 20.3099 12.2345 20.6646C12.5893 21.0193 13.0707 21.2183 13.5724 21.2183L14.6202 21.2183C15.1218 21.2183 15.6034 21.0192 15.9581 20.6646C16.3128 20.3099 16.5128 19.8283 16.5128 19.3267L16.5128 14.9292L18.8136 14.9292C19.3153 14.9292 19.7967 14.7293 20.1515 14.3745C20.5062 14.0198 20.7062 13.5383 20.7062 13.0367L20.7062 8.84428C20.7062 8.34265 20.5062 7.86114 20.1515 7.50639C19.7967 7.15162 19.3153 6.9517 18.8136 6.9517L10.7325 6.9517L10.7042 6.92826L6.22864 3.19682L6.22766 3.19779L6.12512 3.11772C5.88482 2.94488 5.6045 2.83341 5.30969 2.79545ZM14.8253 14.9292L14.8253 19.3267C14.8253 19.3813 14.8029 19.4331 14.7648 19.4712C14.7267 19.5091 14.6749 19.5308 14.6202 19.5308L13.5724 19.5308C13.5176 19.5308 13.4659 19.5092 13.4279 19.4712C13.3898 19.4331 13.3684 19.3813 13.3683 19.3267L13.3683 14.9292L14.8253 14.9292ZM9.88782 8.44389C10.0395 8.57014 10.2308 8.6392 10.4279 8.6392L11.6798 8.6392L11.6798 13.2417L10.4279 13.2417C10.2308 13.2417 10.0395 13.3108 9.88782 13.4371L4.98157 17.524L4.98157 4.35502L9.88782 8.44389ZM18.8136 8.6392C18.8684 8.6392 18.92 8.66165 18.9581 8.69975C18.9961 8.7378 19.0177 8.78955 19.0177 8.84428L19.0177 13.0367C19.0177 13.0913 18.9962 13.1431 18.9581 13.1812C18.9201 13.2192 18.8684 13.2417 18.8136 13.2417L13.3683 13.2417L13.3683 8.6392L18.8136 8.6392Z" fill="#040405"/>
</svg>
