<svg width="24" height="24" viewBox="0 0 24 24" fill="none" xmlns="http://www.w3.org/2000/svg">
<path d="M18.8305 8.38073C19.3335 8.38073 19.7412 8.78583 19.7412 9.28555V10.2469C19.7412 14.1655 16.7513 17.3821 12.9107 17.8265V20.1433H14.7322C15.2352 20.1433 15.6429 20.5485 15.6429 21.0482C15.6429 21.5479 15.2352 21.953 14.7322 21.953H9.26781C8.76483 21.953 8.35708 21.5479 8.35708 21.0482C8.35708 20.5485 8.76483 20.1433 9.26781 20.1433H11.0893V17.8265C7.24874 17.3821 4.25879 14.1655 4.25879 10.2469V9.28555C4.25879 8.78583 4.66654 8.38073 5.16952 8.38073C5.64098 8.38073 6.02905 8.73662 6.0758 9.19277L6.08025 9.28555V10.2469C6.08025 13.4567 8.72341 16.0717 12 16.0717C15.2766 16.0717 17.9198 13.4567 17.9198 10.2469V9.28555C17.9198 8.78583 18.3275 8.38073 18.8305 8.38073Z" fill="#040405"/>
<path fill-rule="evenodd" clip-rule="evenodd" d="M12 2.04701C14.0119 2.04701 15.6429 3.66741 15.6429 5.66628V10.1904C15.6429 12.1892 14.0119 13.8096 12 13.8096C9.98807 13.8096 8.35708 12.1892 8.35708 10.1904V5.66628C8.35708 3.66741 9.98807 2.04701 12 2.04701ZM12 3.85665C10.994 3.85665 10.1785 4.66685 10.1785 5.66628V10.1904C10.1785 11.1898 10.994 12 12 12C13.006 12 13.8215 11.1898 13.8215 10.1904V5.66628C13.8215 4.66685 13.006 3.85665 12 3.85665Z" fill="#040405"/>
</svg>
