<svg width="24" height="24" viewBox="0 0 24 24" fill="none" xmlns="http://www.w3.org/2000/svg">
<path d="M11.934 13.9995C12.3296 13.9995 12.7163 13.8822 13.0451 13.6624C13.374 13.4427 13.6304 13.1303 13.7818 12.7649C13.9331 12.3994 13.9728 11.9973 13.8956 11.6093C13.8184 11.2214 13.6279 10.865 13.3482 10.5853C13.0685 10.3056 12.7122 10.1151 12.3242 10.0379C11.9362 9.96076 11.5341 10.0004 11.1686 10.1517C10.8032 10.3031 10.4908 10.5595 10.2711 10.8884C10.0513 11.2173 9.93401 11.6039 9.93401 11.9995C9.93401 12.5299 10.1447 13.0386 10.5198 13.4137C10.8949 13.7888 11.4036 13.9995 11.934 13.9995Z" fill="currentColor"/>
<path d="M18.934 13.9995C19.3296 13.9995 19.7163 13.8822 20.0452 13.6624C20.374 13.4427 20.6304 13.1303 20.7818 12.7649C20.9331 12.3994 20.9728 11.9973 20.8956 11.6093C20.8184 11.2214 20.6279 10.865 20.3482 10.5853C20.0685 10.3056 19.7122 10.1151 19.3242 10.0379C18.9362 9.96076 18.5341 10.0004 18.1686 10.1517C17.8032 10.3031 17.4908 10.5595 17.2711 10.8884C17.0513 11.2173 16.934 11.6039 16.934 11.9995C16.934 12.5299 17.1447 13.0386 17.5198 13.4137C17.8949 13.7888 18.4036 13.9995 18.934 13.9995Z" fill="currentColor"/>
<path d="M5.06601 14.0005C5.46157 14.0005 5.84825 13.8832 6.17715 13.6634C6.50605 13.4437 6.76239 13.1313 6.91377 12.7659C7.06514 12.4004 7.10475 11.9983 7.02758 11.6103C6.95041 11.2224 6.75993 10.866 6.48022 10.5863C6.20052 10.3066 5.84415 10.1161 5.45619 10.0389C5.06823 9.96176 4.66609 10.0014 4.30064 10.1527C3.93519 10.3041 3.62283 10.5605 3.40307 10.8894C3.18331 11.2183 3.06601 11.6049 3.06601 12.0005C3.06601 12.5309 3.27672 13.0396 3.6518 13.4147C4.02687 13.7898 4.53558 14.0005 5.06601 14.0005Z" fill="currentColor"/>
</svg>
