<svg width="24" height="24" viewBox="0 0 24 24" fill="none" xmlns="http://www.w3.org/2000/svg">
<path d="M13.9995 11.934C13.9995 12.3296 13.8822 12.7163 13.6624 13.0451C13.4427 13.374 13.1303 13.6304 12.7649 13.7818C12.3994 13.9331 11.9973 13.9728 11.6093 13.8956C11.2214 13.8184 10.865 13.6279 10.5853 13.3482C10.3056 13.0685 10.1151 12.7122 10.0379 12.3242C9.96076 11.9362 10.0004 11.5341 10.1517 11.1686C10.3031 10.8032 10.5595 10.4908 10.8884 10.2711C11.2173 10.0513 11.6039 9.93401 11.9995 9.93401C12.5299 9.93401 13.0386 10.1447 13.4137 10.5198C13.7888 10.8949 13.9995 11.4036 13.9995 11.934Z" fill="currentColor"/>
<path d="M13.9995 18.934C13.9995 19.3296 13.8822 19.7163 13.6624 20.0452C13.4427 20.374 13.1303 20.6304 12.7649 20.7818C12.3994 20.9331 11.9973 20.9728 11.6093 20.8956C11.2214 20.8184 10.865 20.6279 10.5853 20.3482C10.3056 20.0685 10.1151 19.7122 10.0379 19.3242C9.96076 18.9362 10.0004 18.5341 10.1517 18.1686C10.3031 17.8032 10.5595 17.4908 10.8884 17.2711C11.2173 17.0513 11.6039 16.934 11.9995 16.934C12.5299 16.934 13.0386 17.1447 13.4137 17.5198C13.7888 17.8949 13.9995 18.4036 13.9995 18.934Z" fill="currentColor"/>
<path d="M14.0005 5.06601C14.0005 5.46157 13.8832 5.84825 13.6634 6.17715C13.4437 6.50605 13.1313 6.76239 12.7659 6.91377C12.4004 7.06514 11.9983 7.10475 11.6103 7.02758C11.2224 6.95041 10.866 6.75993 10.5863 6.48022C10.3066 6.20052 10.1161 5.84415 10.0389 5.45619C9.96176 5.06823 10.0014 4.66609 10.1527 4.30064C10.3041 3.93519 10.5605 3.62283 10.8894 3.40307C11.2183 3.18331 11.6049 3.06601 12.0005 3.06601C12.5309 3.06601 13.0396 3.27672 13.4147 3.6518C13.7898 4.02687 14.0005 4.53558 14.0005 5.06601Z" fill="currentColor"/>
</svg>
