<svg width="24" height="24" viewBox="0 0 24 24" fill="none" xmlns="http://www.w3.org/2000/svg">
<path d="M5.31055 2.79545C4.97383 2.75211 4.6309 2.80648 4.32324 2.95072C4.01604 3.09486 3.75623 3.32358 3.57422 3.6099C3.39214 3.89653 3.29486 4.22954 3.29492 4.56889L3.29492 17.3111L3.29981 17.438C3.32064 17.7332 3.41481 18.0201 3.57422 18.271C3.75624 18.5573 4.01607 18.7861 4.32324 18.9302C4.63074 19.0744 4.97361 19.1269 5.31055 19.0835C5.64721 19.0402 5.96484 18.9031 6.22559 18.6861L10.7051 14.9527L10.7334 14.9292L11.6807 14.9292L11.6807 19.3267C11.6807 19.8283 11.8806 20.3099 12.2354 20.6646C12.5901 21.0193 13.0716 21.2183 13.5732 21.2183L14.6211 21.2183C15.1226 21.2183 15.6042 21.0192 15.959 20.6646C16.3137 20.3099 16.5136 19.8283 16.5137 19.3267L16.5137 14.9292L18.8145 14.9292C19.3161 14.9292 19.7976 14.7293 20.1523 14.3745C20.507 14.0198 20.707 13.5383 20.707 13.0367L20.707 8.84428C20.707 8.34265 20.507 7.86114 20.1523 7.50639C19.7976 7.15162 19.3162 6.9517 18.8145 6.9517L10.7334 6.9517L10.7051 6.92826L6.22949 3.19682L6.22852 3.19779L6.12598 3.11772C5.88567 2.94488 5.60536 2.83341 5.31055 2.79545ZM14.8262 14.9292L14.8262 19.3267C14.8261 19.3813 14.8037 19.4331 14.7656 19.4712C14.7276 19.5091 14.6757 19.5308 14.6211 19.5308L13.5732 19.5308C13.5185 19.5308 13.4668 19.5092 13.4287 19.4712C13.3906 19.4331 13.3692 19.3813 13.3691 19.3267L13.3691 14.9292L14.8262 14.9292ZM9.88867 8.44389C10.0403 8.57014 10.2316 8.6392 10.4287 8.6392L11.6807 8.6392L11.6807 13.2417L10.4287 13.2417C10.2316 13.2417 10.0403 13.3108 9.88867 13.4371L4.98242 17.524L4.98242 4.35502L9.88867 8.44389ZM18.8145 8.6392C18.8692 8.6392 18.9209 8.66165 18.959 8.69975C18.9969 8.7378 19.0186 8.78955 19.0186 8.84428L19.0186 13.0367C19.0185 13.0913 18.997 13.1431 18.959 13.1812C18.9209 13.2192 18.8692 13.2417 18.8145 13.2417L13.3691 13.2417L13.3691 8.6392L18.8145 8.6392Z" fill="currentColor"/>
</svg>
