<svg width="24" height="24" viewBox="0 0 24 24" fill="none" xmlns="http://www.w3.org/2000/svg">
<path d="M10.881 17.898V6.10303C10.881 4.98303 10.408 4.53503 9.21297 4.53503H6.20197C5.00797 4.53503 4.53497 4.98303 4.53497 6.10303V17.903C4.53497 19.023 5.00797 19.471 6.20197 19.471H9.21297C10.408 19.466 10.881 19.018 10.881 17.898Z" fill="#040405"/>
<path d="M19.466 17.898V6.10303C19.466 4.98303 18.993 4.53503 17.798 4.53503H14.787C13.601 4.53503 13.12 4.98303 13.12 6.10303V17.903C13.12 19.023 13.593 19.471 14.787 19.471H17.798C18.993 19.466 19.466 19.018 19.466 17.898Z" fill="#040405"/>
</svg>
