<svg width="24" height="24" viewBox="0 0 24 24" fill="none" xmlns="http://www.w3.org/2000/svg">
<path fill-rule="evenodd" clip-rule="evenodd" d="M12 3C16.9707 3 21 7.02934 21 12C21 16.9707 16.9707 21 12 21C7.02934 21 3 16.9707 3 12C3 7.02934 7.02934 3 12 3ZM4.46906 12C4.46906 7.84087 7.84087 4.46906 12 4.46906C13.8141 4.46906 15.4784 5.11055 16.7785 6.17906L6.17906 16.7785C5.11055 15.4784 4.46906 13.8141 4.46906 12ZM19.5309 12C19.5309 16.1591 16.1591 19.5309 12 19.5309C10.2313 19.5309 8.60502 18.9212 7.31985 17.9004L17.9004 7.31985C18.9212 8.60502 19.5309 10.2313 19.5309 12Z" fill="#040405"/>
</svg>
