<svg width="24" height="24" viewBox="0 0 24 24" fill="none" xmlns="http://www.w3.org/2000/svg">
<path d="M12 22.1594C6.39244 22.1594 1.84064 17.6076 1.84064 12C1.84064 6.39241 6.39244 1.84061 12 1.84061C17.6076 1.84061 22.1594 6.39241 22.1594 12C22.1594 17.6076 17.6076 22.1594 12 22.1594ZM12 20.4661C16.6813 20.4661 20.4662 16.6813 20.4662 12C20.4662 7.3187 16.6813 3.53384 12 3.53384C7.31873 3.53384 3.53387 7.3187 3.53387 12C3.53387 16.6813 7.31873 20.4661 12 20.4661ZM8.07571 13.8924C8.07571 12.8366 8.93228 11.7012 10.3466 11.1932L10.5159 8.85257C9.79882 8.45416 9.20121 7.98603 8.94224 7.64739C8.79284 7.46811 8.72312 7.27886 8.72312 7.1195C8.72312 6.81073 8.96216 6.59161 9.32073 6.59161H14.6793C15.0379 6.59161 15.2769 6.81073 15.2769 7.1195C15.2769 7.27886 15.2072 7.45815 15.0677 7.63743C14.8088 7.97607 14.2112 8.4442 13.4841 8.85257L13.6434 11.1932C15.0677 11.7012 15.9243 12.8366 15.9243 13.8924C15.9243 14.3307 15.6355 14.5996 15.1873 14.5996H12.6175V16.3825C12.6175 17.4681 12.1793 18.3645 12 18.3645C11.8207 18.3645 11.3825 17.4681 11.3825 16.3825V14.5996H8.8028C8.35459 14.5996 8.07571 14.3307 8.07571 13.8924Z" fill="#040405"/>
</svg>
