<svg width="24" height="24" viewBox="0 0 24 24" fill="none" xmlns="http://www.w3.org/2000/svg">
<path d="M11.8229 22.7812C5.96871 22.7812 1.19788 18.0208 1.19788 12.1562C1.19788 6.30204 5.96871 1.5312 11.8229 1.5312C17.6875 1.5312 22.4479 6.30204 22.4479 12.1562C22.4479 18.0208 17.6875 22.7812 11.8229 22.7812ZM7.60413 14.1875C7.60413 14.6562 7.90621 14.9583 8.38538 14.9583H11.1666V16.8645C11.1666 18.0312 11.6354 19.0104 11.8333 19.0104C12.0312 19.0104 12.5 18.0312 12.5 16.8645V14.9583H15.2708C15.75 14.9583 16.0625 14.6562 16.0625 14.1875C16.0625 13.0416 15.1458 11.8125 13.6041 11.2708L13.4375 8.74995C14.2187 8.31245 14.8645 7.80204 15.1458 7.43745C15.2916 7.24995 15.375 7.05204 15.375 6.87495C15.375 6.54162 15.1145 6.30204 14.7291 6.30204H8.93746C8.55204 6.30204 8.29163 6.54162 8.29163 6.87495C8.29163 7.05204 8.37496 7.24995 8.53121 7.44787C8.81246 7.81245 9.45829 8.31245 10.2291 8.74995L10.052 11.2708C8.52079 11.8125 7.60413 13.0416 7.60413 14.1875Z" fill="#040405"/>
</svg>
