<svg width="24" height="24" viewBox="0 0 24 24" fill="none" xmlns="http://www.w3.org/2000/svg">
<path d="M2 19V17C2 16.4477 2.44772 16 3 16C3.55228 16 4 16.4477 4 17V19C4 19.5523 4.44772 20 5 20H7C7.55228 20 8 20.4477 8 21C8 21.5523 7.55228 22 7 22H5C3.34315 22 2 20.6569 2 19ZM13.5 20C14.0523 20 14.5 20.4477 14.5 21C14.5 21.5523 14.0523 22 13.5 22H10.5C9.94772 22 9.5 21.5523 9.5 21C9.5 20.4477 9.94772 20 10.5 20H13.5ZM20 19V17C20 16.4477 20.4477 16 21 16C21.5523 16 22 16.4477 22 17V19C22 20.6569 20.6569 22 19 22H17C16.4477 22 16 21.5523 16 21C16 20.4477 16.4477 20 17 20H19C19.5523 20 20 19.5523 20 19ZM2 13.5V10.5C2 9.94772 2.44772 9.5 3 9.5C3.55228 9.5 4 9.94772 4 10.5V13.5C4 14.0523 3.55228 14.5 3 14.5C2.44772 14.5 2 14.0523 2 13.5ZM20 13.5V10.5C20 9.94772 20.4477 9.5 21 9.5C21.5523 9.5 22 9.94772 22 10.5V13.5C22 14.0523 21.5523 14.5 21 14.5C20.4477 14.5 20 14.0523 20 13.5ZM2 7V5C2 3.34315 3.34315 2 5 2H7C7.55228 2 8 2.44772 8 3C8 3.55228 7.55228 4 7 4H5C4.44772 4 4 4.44772 4 5V7C4 7.55228 3.55228 8 3 8C2.44772 8 2 7.55228 2 7ZM20 7V5C20 4.44772 19.5523 4 19 4H17C16.4477 4 16 3.55228 16 3C16 2.44772 16.4477 2 17 2H19C20.6569 2 22 3.34315 22 5V7C22 7.55228 21.5523 8 21 8C20.4477 8 20 7.55228 20 7ZM13.5 2C14.0523 2 14.5 2.44772 14.5 3C14.5 3.55228 14.0523 4 13.5 4H10.5C9.94772 4 9.5 3.55228 9.5 3C9.5 2.44772 9.94772 2 10.5 2H13.5Z" fill="#040405"/>
</svg>
