<svg width="24" height="24" viewBox="0 0 24 24" fill="none" xmlns="http://www.w3.org/2000/svg">
<path d="M11.0456 19.6603V12.9601L4.34545 12.9601C4.09219 12.9582 3.84986 12.8568 3.67077 12.6777C3.49168 12.4986 3.39019 12.2562 3.38828 12.0029C3.39019 11.7497 3.49168 11.5073 3.67077 11.3282C3.84986 11.1492 4.09219 11.0477 4.34545 11.0458L11.0456 11.0458L11.0456 4.3456C11.0475 4.09234 11.149 3.85001 11.3281 3.67092C11.5072 3.49183 11.7495 3.39034 12.0028 3.38843C12.2562 3.38976 12.4989 3.49107 12.6781 3.67029C12.8574 3.8495 12.9586 4.09216 12.96 4.3456L12.96 11.0458L19.6601 11.0458C19.9136 11.0471 20.1562 11.1484 20.3354 11.3276C20.5147 11.5068 20.6159 11.7495 20.6173 12.0029C20.6153 12.2562 20.5139 12.4985 20.3348 12.6776C20.1557 12.8567 19.9133 12.9582 19.6601 12.9601L12.96 12.9601L12.9599 19.6602C12.958 19.9135 12.8566 20.1559 12.6775 20.335C12.4984 20.5141 12.256 20.6155 12.0028 20.6174C11.7493 20.6164 11.5066 20.5149 11.328 20.3351C11.2388 20.2467 11.168 20.1416 11.1195 20.0258C11.071 19.91 11.0459 19.7858 11.0456 19.6603Z" fill="#040405"/>
</svg>
