<svg width="24" height="24" viewBox="0 0 24 24" fill="none" xmlns="http://www.w3.org/2000/svg">
<path d="M12 6.59998C12.5324 6.59998 12.9707 7.00455 13.0235 7.52308L13.0285 7.62855V10.9714H16.3714L16.4769 10.9764C16.9954 11.0292 17.4 11.4675 17.4 12C17.4 12.5324 16.9954 12.9707 16.4769 13.0235L16.3714 13.0285H13.0285V16.3714C13.0285 16.9395 12.568 17.4 12 17.4C11.4319 17.4 10.9714 16.9395 10.9714 16.3714V13.0285H7.62855C7.06048 13.0285 6.59998 12.568 6.59998 12C6.59998 11.4319 7.06048 10.9714 7.62855 10.9714H10.9714V7.62855L10.9764 7.52308C11.0292 7.00455 11.4675 6.59998 12 6.59998Z" fill="#040405"/>
</svg>
