<svg width="24" height="24" viewBox="0 0 24 24" fill="none" xmlns="http://www.w3.org/2000/svg">
<path d="M18.401 11.0549C18.9285 11.0549 19.356 11.4825 19.356 12.0099C19.3557 12.5369 18.9287 12.9639 18.4017 12.9642L12.9458 12.9635V18.4201C12.9456 18.9474 12.5181 19.3751 11.9908 19.3751C11.4635 19.3751 11.036 18.9474 11.0358 18.4201V12.9635L5.5799 12.9642C5.05291 12.9639 4.62588 12.5369 4.62558 12.0099C4.62558 11.4825 5.05316 11.0549 5.58059 11.0549L11.0365 11.0542V5.59899C11.0365 5.07156 11.4634 4.64468 11.9908 4.64467C12.5182 4.64467 12.9451 5.07156 12.9451 5.59899V11.0542L18.401 11.0549Z" fill="#040405"/>
</svg>
