<svg width="24" height="24" viewBox="0 0 24 24" fill="none" xmlns="http://www.w3.org/2000/svg">
<path d="M12 7.49998C12.497 7.49998 12.9 7.90292 12.9 8.39998V11.1H15.6C16.097 11.1 16.5 11.5029 16.5 12C16.5 12.497 16.097 12.9 15.6 12.9H12.9V15.6C12.9 16.097 12.497 16.5 12 16.5C11.5029 16.5 11.1 16.097 11.1 15.6V12.9H8.39998C7.90292 12.9 7.49998 12.497 7.49998 12C7.49998 11.5029 7.90292 11.1 8.39998 11.1H11.1V8.39998C11.1 7.90292 11.5029 7.49998 12 7.49998Z" fill="#040405"/>
<path fill-rule="evenodd" clip-rule="evenodd" d="M12 2.09998C17.4676 2.09998 21.9 6.53236 21.9 12C21.9 17.4676 17.4676 21.9 12 21.9C6.53236 21.9 2.09998 17.4676 2.09998 12C2.09998 6.53236 6.53236 2.09998 12 2.09998ZM12 3.89998C7.52647 3.89998 3.89998 7.52647 3.89998 12C3.89998 16.4735 7.52647 20.1 12 20.1C16.4735 20.1 20.1 16.4735 20.1 12C20.1 7.52647 16.4735 3.89998 12 3.89998Z" fill="#040405"/>
</svg>
