<svg width="24" height="24" viewBox="0 0 24 24" fill="none" xmlns="http://www.w3.org/2000/svg">
<path d="M11.3864 16.7841V16.3523C11.3864 15.8753 11.773 15.4886 12.25 15.4886C12.727 15.4886 13.1136 15.8753 13.1136 16.3523V16.7841C13.1136 17.2611 12.727 17.6477 12.25 17.6477C11.773 17.6477 11.3864 17.2611 11.3864 16.7841ZM11.3864 13.5455C11.3864 12.5041 11.9363 11.54 12.8328 11.0102L13.3068 10.7302L13.4173 10.656C13.6622 10.4677 13.8182 10.1829 13.8423 9.87078L13.8457 9.76536C13.8368 9.27729 13.5035 8.85271 13.0318 8.72714L12.9289 8.70437L12.5224 8.6369C12.3905 8.6149 12.2563 8.6101 12.1235 8.62256L11.9911 8.64111L11.5314 8.72461C11.0002 8.82127 10.5907 9.24687 10.5143 9.78138C10.4468 10.2535 10.0089 10.5817 9.5368 10.5143C9.06468 10.4468 8.73644 10.0089 8.80389 9.5368C8.98544 8.26628 9.96002 7.25476 11.2227 7.02517L11.6824 6.94167L11.9624 6.90288C12.2434 6.87653 12.5274 6.8867 12.8066 6.93324L13.2132 7.00071L13.4788 7.05806C14.6928 7.38169 15.5489 8.47543 15.5721 9.73162L15.5645 10.0032C15.4982 10.8647 15.0413 11.6447 14.3307 12.1252L14.1856 12.2171L13.7116 12.4971C13.3409 12.7161 13.1136 13.1149 13.1136 13.5455C13.1136 14.0224 12.727 14.4091 12.25 14.4091C11.773 14.4091 11.3864 14.0224 11.3864 13.5455Z" fill="#040405"/>
<path fill-rule="evenodd" clip-rule="evenodd" d="M12 20.4C16.6392 20.4 20.4 16.6392 20.4 12C20.4 7.36081 16.6392 3.6 12 3.6C7.36081 3.6 3.6 7.36081 3.6 12C3.6 16.6392 7.36081 20.4 12 20.4ZM12 22C17.5228 22 22 17.5228 22 12C22 6.47715 17.5228 2 12 2C6.47715 2 2 6.47715 2 12C2 17.5228 6.47715 22 12 22Z" fill="#040405"/>
</svg>
