<svg width="24" height="24" viewBox="0 0 24 24" fill="none" xmlns="http://www.w3.org/2000/svg">
<path d="M3.06448 12.1738C3.57607 12.1027 4.04981 12.4598 4.12117 12.9714C4.36212 14.7052 5.16702 16.3126 6.41082 17.5443C7.65455 18.7758 9.26829 19.5648 11.0041 19.7888C12.7398 20.0127 14.5011 19.6591 16.0166 18.7837C17.1051 18.1549 18.0203 17.2791 18.7008 16.2382H16.4025C15.8862 16.238 15.4677 15.8192 15.4673 15.303C15.4673 14.7864 15.886 14.367 16.4025 14.3667H20.8056C21.3223 14.3667 21.7418 14.7863 21.7418 15.303V19.706C21.7414 20.2224 21.3221 20.6412 20.8056 20.6412C20.2892 20.641 19.8708 20.2222 19.8703 19.706V17.8238C19.0832 18.862 18.0966 19.7435 16.954 20.4037C15.083 21.4846 12.9075 21.9206 10.7644 21.6442C8.62136 21.3676 6.62828 20.3934 5.09293 18.8729C3.55781 17.3526 2.56436 15.3695 2.26687 13.2294C2.19613 12.718 2.55324 12.2452 3.06448 12.1738ZM7.04612 3.59567C8.91721 2.51472 11.0927 2.07977 13.2357 2.35625C15.3785 2.63284 17.3708 3.60618 18.9061 5.12641C20.4412 6.64677 21.4357 8.6299 21.7332 10.7699C21.8043 11.2816 21.4469 11.754 20.9356 11.8255C20.424 11.8966 19.9503 11.5396 19.8789 11.0279C19.6379 9.2943 18.833 7.68774 17.5893 6.45613C16.3456 5.22468 14.7318 4.43566 12.996 4.21162C11.2604 3.98775 9.49889 4.34042 7.98348 5.21563C6.89474 5.84461 5.97884 6.72098 5.29824 7.7622H7.5965C8.11324 7.7622 8.53278 8.18174 8.53278 8.69848C8.53234 9.21479 8.11302 9.6337 7.5965 9.6337H3.19348C2.67718 9.63344 2.25871 9.21463 2.25827 8.69848V4.29547C2.25827 3.77889 2.67696 3.35944 3.19348 3.35918C3.71022 3.35918 4.12977 3.77873 4.12977 4.29547V6.17449C4.91682 5.13659 5.90373 4.25568 7.04612 3.59567Z" fill="#040405"/>
</svg>
