<svg width="24" height="24" viewBox="0 0 24 24" fill="none" xmlns="http://www.w3.org/2000/svg">
<path fill-rule="evenodd" clip-rule="evenodd" d="M10.6501 3.00012C14.8751 3.00012 18.3001 6.42514 18.3001 10.6501C18.3001 12.4382 17.6845 14.0814 16.6566 15.3839L20.7365 19.4638L20.798 19.5323C21.0863 19.8858 21.066 20.4069 20.7365 20.7365C20.4069 21.0659 19.8858 21.0863 19.5324 20.798L19.4638 20.7365L15.3839 16.6566C14.0814 17.6845 12.4382 18.3001 10.6501 18.3001C6.42514 18.3001 3.00012 14.8751 3.00012 10.6501C3.00012 6.42514 6.42514 3.00012 10.6501 3.00012ZM10.6501 4.80012C7.41926 4.80012 4.80012 7.41926 4.80012 10.6501C4.80012 13.881 7.41926 16.5001 10.6501 16.5001C13.881 16.5001 16.5001 13.881 16.5001 10.6501C16.5001 7.41926 13.881 4.80012 10.6501 4.80012Z" fill="#040405"/>
</svg>
