<svg width="24" height="24" viewBox="0 0 24 24" fill="none" xmlns="http://www.w3.org/2000/svg">
<path d="M15.139 3.96301L6.10902 6.96301C0.0390186 8.99301 0.0390186 12.303 6.10902 14.323L8.78902 15.213L9.67902 17.893C11.699 23.963 15.019 23.963 17.039 17.893L20.049 8.873C21.389 4.82 19.189 2.61001 15.139 3.96301ZM15.459 9.34301L11.657 13.163C11.5875 13.2328 11.5049 13.2882 11.414 13.3259C11.323 13.3637 11.2255 13.3832 11.127 13.3832C11.0285 13.3832 10.931 13.3637 10.8401 13.3259C10.7491 13.2882 10.6665 13.2328 10.597 13.163C10.4575 13.0219 10.3793 12.8314 10.3793 12.633C10.3793 12.4346 10.4575 12.2441 10.597 12.103L14.397 8.283C14.5392 8.15052 14.7272 8.0784 14.9215 8.08183C15.1158 8.08526 15.3012 8.16397 15.4386 8.30138C15.5761 8.4388 15.6548 8.62418 15.6582 8.81848C15.6616 9.01278 15.5895 9.20083 15.457 9.34301H15.459Z" fill="#040405"/>
</svg>
