<svg width="24" height="24" viewBox="0 0 24 24" fill="none" xmlns="http://www.w3.org/2000/svg">
<path d="M7.89053 2.23084C8.41682 1.99232 9.01206 1.94035 9.57563 2.08893C10.2191 2.2586 10.7691 2.67614 11.1066 3.24961L11.2222 3.44227L11.2241 3.44415C11.4941 3.9109 11.7795 4.08494 12.0145 4.08511C12.2495 4.08511 12.5357 3.91113 12.8058 3.44415L12.912 3.26182C13.0784 2.97519 13.2996 2.72395 13.5633 2.52313C13.8268 2.32237 14.1272 2.17506 14.4477 2.09081C14.7682 2.00657 15.1024 1.98732 15.4307 2.03254C15.7583 2.07768 16.0739 2.18675 16.3593 2.35396L18.0152 3.30694C18.6459 3.66941 19.1069 4.26734 19.2971 4.96948C19.4873 5.67194 19.3912 6.42171 19.0293 7.05306L19.0227 7.06434L19.0152 7.07468C18.9043 7.21928 18.8305 7.38904 18.8018 7.56902C18.7752 7.73678 18.7894 7.90827 18.8404 8.06995C18.9546 8.19648 19.0956 8.2959 19.2548 8.35753C19.4248 8.42324 19.6089 8.44505 19.7896 8.42144L19.8028 8.4205H19.815C20.5419 8.42187 21.2389 8.71098 21.7529 9.22499C22.2669 9.73899 22.556 10.436 22.5574 11.1629V12.8574C22.5559 13.5841 22.2667 14.2805 21.7529 14.7944C21.2389 15.3084 20.5419 15.5984 19.815 15.5998H19.8028L19.7896 15.5979C19.6089 15.5743 19.4248 15.5961 19.2548 15.6618C19.0958 15.7233 18.9545 15.8222 18.8404 15.9485C18.787 16.1102 18.7713 16.2827 18.7981 16.4513C18.8195 16.5859 18.8668 16.7146 18.9362 16.831L19.0133 16.9437L19.0218 16.9541L19.0283 16.9653C19.2094 17.277 19.327 17.6219 19.3733 17.9794C19.4193 18.3355 19.3929 18.697 19.2981 19.0433L19.299 19.0442C19.2089 19.3951 19.0482 19.7243 18.8272 20.0113C18.6063 20.2982 18.3294 20.5376 18.0133 20.7143L18.0124 20.7134L16.3499 21.6663C15.9657 21.8826 15.5313 21.9971 15.0905 21.999H15.0877C14.8684 21.997 14.6502 21.9691 14.4373 21.9163L14.4336 21.9154C13.873 21.7649 13.3828 21.4291 13.0407 20.9662L12.9035 20.7603L12.7879 20.5677L12.7861 20.5658C12.516 20.0989 12.2307 19.9258 11.9957 19.9258C11.7606 19.9258 11.4745 20.0988 11.2043 20.5658L11.0991 20.7481C10.9337 21.0348 10.7127 21.286 10.4497 21.4868C10.1866 21.6876 9.88629 21.8343 9.56623 21.9182L9.56529 21.9173C9.24657 22.0049 8.91354 22.0278 8.586 21.9831C8.25844 21.9383 7.94382 21.8269 7.66028 21.6569L6.00525 20.7049C5.37431 20.3424 4.91261 19.7447 4.7224 19.0424C4.53222 18.3399 4.62919 17.5901 4.99118 16.9588L4.99776 16.9475L5.00528 16.9372C5.11611 16.7926 5.18908 16.6227 5.21768 16.4428C5.24443 16.2743 5.22975 16.1023 5.17821 15.94C5.06418 15.8142 4.92335 15.7156 4.76469 15.6543C4.59465 15.5886 4.41069 15.5667 4.22993 15.5904L4.21771 15.5923L4.20455 15.5913C3.47736 15.5899 2.78066 15.3003 2.26664 14.7859C1.75262 14.2715 1.46298 13.5743 1.46216 12.8471V11.1526C1.46363 10.426 1.75297 9.72947 2.26664 9.21559C2.7806 8.70163 3.47772 8.41158 4.20455 8.41016H4.21771L4.22993 8.41204C4.41052 8.43589 4.59468 8.41448 4.76469 8.34907C4.92385 8.28782 5.06478 8.1885 5.17915 8.06243C5.23229 7.901 5.24808 7.72969 5.22144 7.5615C5.1929 7.38167 5.11866 7.21132 5.00622 7.0681L4.99776 7.05776L4.99118 7.04554C4.67582 6.49388 4.56163 5.85233 4.66413 5.23075L4.72146 4.96572C4.81168 4.61548 4.97255 4.28707 5.19325 4.00052C5.41424 3.71367 5.69104 3.47422 6.00713 3.29754L7.66967 2.34456L7.89053 2.23084ZM14.8894 3.84827C14.8013 3.87137 14.7185 3.91165 14.646 3.96669C14.5738 4.02155 14.5123 4.08957 14.4665 4.16781L14.3687 4.33792L14.2823 4.50427C14.0684 4.88637 13.7676 5.21459 13.4035 5.461C12.9878 5.74231 12.5042 5.90683 12.0032 5.93843L11.991 5.93937L11.9788 5.93843C11.4775 5.90687 10.9934 5.74252 10.5775 5.461C10.1645 5.18149 9.83364 4.79677 9.61792 4.34732L9.51642 4.16217C9.4229 4.00857 9.27326 3.89702 9.09914 3.85203C8.92497 3.80708 8.73939 3.83147 8.58318 3.92064L8.58412 3.92158L6.91876 4.88396C6.70737 5.00547 6.55313 5.20596 6.48926 5.44127C6.45763 5.55648 6.4489 5.67705 6.46388 5.79558C6.47842 5.91051 6.51476 6.02145 6.57102 6.12264C6.85301 6.53594 7.0198 7.01731 7.05597 7.51639C7.09218 8.01687 6.99484 8.51782 6.77402 8.96842L6.76839 8.97969L6.76181 8.99097C6.48339 9.40932 6.0982 9.74588 5.64624 9.96557C5.19847 10.1832 4.70087 10.2767 4.20455 10.24C4.08458 10.2394 3.96498 10.263 3.854 10.3086C3.74305 10.3542 3.64285 10.4222 3.55796 10.5069C3.47305 10.5917 3.40542 10.692 3.35966 10.8029C3.3139 10.9138 3.29064 11.0326 3.29105 11.1526V12.8471C3.29105 13.0895 3.38744 13.3222 3.5589 13.4937C3.72865 13.6633 3.95816 13.7587 4.19798 13.7606C4.69642 13.7226 5.19654 13.8183 5.64624 14.0369C6.04173 14.2291 6.38638 14.5106 6.65279 14.8583L6.76181 15.0115L6.76839 15.0218L6.77402 15.034C6.99483 15.4846 7.09219 15.9856 7.05597 16.486C7.01987 16.9842 6.85301 17.4642 6.57196 17.877C6.51491 17.9788 6.47853 18.091 6.46388 18.2069C6.44892 18.3254 6.4567 18.446 6.48832 18.5612C6.55143 18.7952 6.70406 18.9961 6.91218 19.1204L8.57378 20.0715L8.57848 20.0743L8.69878 20.1316C8.74039 20.1466 8.78354 20.1572 8.82753 20.1636C8.91588 20.1764 9.00631 20.1716 9.09256 20.1485L9.2232 20.0997C9.34787 20.0387 9.45361 19.9423 9.52582 19.8215L9.62356 19.6514C9.84078 19.2005 10.1743 18.8155 10.5888 18.5348C11.0041 18.2537 11.4868 18.0874 11.9872 18.0537L12.0004 18.0527L12.0126 18.0537C12.5138 18.0852 12.9979 18.2505 13.4139 18.532C13.8253 18.8106 14.1549 19.1936 14.3706 19.641L14.4759 19.8224L14.5548 19.9305C14.6438 20.0299 14.7605 20.1024 14.8913 20.1372C15.0657 20.1837 15.252 20.1594 15.4091 20.0705L17.0716 19.1091C17.283 18.9876 17.4382 18.7861 17.5021 18.5508C17.5336 18.4358 17.5424 18.3158 17.5275 18.1975C17.5125 18.0789 17.474 17.9638 17.4147 17.8601C17.1368 17.449 16.9712 16.9717 16.9354 16.4766C16.8991 15.976 16.9964 15.4744 17.2173 15.0237L17.222 15.0124L17.2295 15.0021C17.508 14.5836 17.8931 14.2472 18.3451 14.0275C18.7946 13.809 19.2942 13.7133 19.7924 13.7512C19.9107 13.7511 20.0279 13.7285 20.1373 13.6835C20.2484 13.6378 20.3494 13.5701 20.4343 13.4852C20.519 13.4005 20.5861 13.2999 20.6317 13.1891C20.6773 13.0781 20.7009 12.9587 20.7003 12.8386V11.146C20.7003 10.9036 20.6038 10.6708 20.4324 10.4994C20.261 10.3279 20.0283 10.2315 19.7858 10.2315C19.2898 10.2681 18.7926 10.1737 18.3451 9.95617C17.893 9.73645 17.508 9.39914 17.2295 8.98063L17.222 8.97029L17.2173 8.95902C16.9964 8.50828 16.8991 8.00672 16.9354 7.50605C16.9713 7.01076 17.1365 6.53379 17.4147 6.12264C17.474 6.01897 17.5124 5.90466 17.5275 5.78618C17.5424 5.66764 17.5337 5.54709 17.5021 5.43187C17.4392 5.19901 17.2886 4.99886 17.082 4.87456L15.4176 3.92158L15.4157 3.92064C15.3371 3.87458 15.2502 3.84477 15.16 3.8323C15.0698 3.81984 14.9775 3.82519 14.8894 3.84827ZM11.2588 8.27201C11.9962 8.12535 12.7606 8.20046 13.4552 8.48817C14.1498 8.77589 14.7433 9.26339 15.161 9.8885C15.5786 10.5136 15.8019 11.2485 15.8019 12.0003C15.8017 13.0084 15.4011 13.9753 14.6883 14.6882C13.9754 15.401 13.0084 15.8016 12.0004 15.8019C11.2486 15.8019 10.5137 15.5786 9.88859 15.1609C9.26349 14.7432 8.77598 14.1497 8.48826 13.4551C8.20056 12.7606 8.12546 11.9961 8.2721 11.2588C8.41877 10.5214 8.78087 9.84402 9.31248 9.31239C9.84411 8.78076 10.5215 8.41869 11.2588 8.27201ZM12.0004 10.0276C11.6103 10.0276 11.2289 10.1427 10.9045 10.3594C10.5801 10.5761 10.3274 10.8851 10.1781 11.2456C10.0289 11.6059 9.98928 12.0022 10.0653 12.3847C10.1414 12.7674 10.3298 13.1191 10.6057 13.395C10.8815 13.6708 11.2325 13.8592 11.615 13.9354C11.9977 14.0115 12.3946 13.9719 12.755 13.8226C13.1155 13.6733 13.4236 13.4205 13.6404 13.0961C13.8571 12.7717 13.973 12.3904 13.9731 12.0003L13.9637 11.8057C13.9183 11.3542 13.7178 10.9293 13.3941 10.6056C13.0705 10.2822 12.6462 10.0823 12.1949 10.037L12.0004 10.0276Z" fill="#040405"/>
</svg>
