<svg width="24" height="24" viewBox="0 0 24 24" fill="none" xmlns="http://www.w3.org/2000/svg">
<path d="M12.9646 4.00272C13.2808 3.85359 13.6548 3.90049 13.9246 4.12273L21.6049 10.4476C21.8089 10.6158 21.9295 10.8653 21.934 11.1297C21.9384 11.3941 21.8261 11.6474 21.6278 11.8224L13.9476 18.599C13.6813 18.8338 13.3024 18.8906 12.9787 18.7446C12.655 18.5985 12.4467 18.2766 12.4467 17.9214V15.2548C9.96925 15.4965 7.88842 16.6969 6.35207 17.9452C5.49747 18.6396 4.8288 19.3355 4.37466 19.8564C4.14803 20.1164 3.97547 20.331 3.862 20.4785C3.8053 20.5522 3.7636 20.6092 3.7367 20.6461C3.72326 20.6646 3.71339 20.6785 3.70759 20.6867C3.70487 20.6906 3.70229 20.6947 3.70229 20.6947L3.61582 20.8014C3.39814 21.0317 3.07169 21.1335 2.75638 21.0609C2.39599 20.9778 2.12271 20.6834 2.06636 20.3179L2.06548 20.3144L2.0646 20.3082L2.06195 20.2905C2.05988 20.276 2.05731 20.2557 2.05401 20.2305C2.04736 20.1798 2.03804 20.1079 2.02842 20.017C2.00913 19.8347 1.98698 19.575 1.97195 19.2555C1.94197 18.6183 1.94155 17.7333 2.06195 16.7399C2.30019 14.7744 3.0272 12.2557 5.07439 10.4644C7.00915 8.77146 9.06377 7.92675 10.6307 7.50488C11.3559 7.30967 11.9805 7.20479 12.4467 7.14752V4.8198C12.4467 4.47016 12.6484 4.15195 12.9646 4.00272Z" fill="#040405"/>
</svg>
