<svg width="20" height="20" viewBox="0 0 20 20" fill="none" xmlns="http://www.w3.org/2000/svg">
<path fill-rule="evenodd" clip-rule="evenodd" d="M16.8504 4.00214C17.2405 4.00866 17.4772 4.03473 17.667 4.1391C17.8541 4.24194 18.008 4.39588 18.1109 4.58295C18.25 4.83607 18.25 5.17236 18.25 5.84491V14.155L18.2478 14.6003C18.2413 14.9905 18.2152 15.2271 18.1109 15.4169L18.0699 15.4858C17.9689 15.6419 17.8306 15.7708 17.667 15.8608L17.5674 15.9069C17.3938 15.9734 17.1753 15.9923 16.8504 15.9977L16.4051 15.9999H3.595L3.14969 15.9977C2.82474 15.9923 2.60626 15.9734 2.43265 15.9069L2.33304 15.8608C2.16944 15.7708 2.03111 15.6419 1.93021 15.4858L1.88919 15.4169C1.78483 15.2271 1.75875 14.9905 1.75223 14.6003L1.75003 14.155V5.84491C1.75003 5.17236 1.75004 4.83607 1.88919 4.58295C1.99203 4.39588 2.14598 4.24194 2.33304 4.1391C2.52288 4.03473 2.75951 4.00866 3.14969 4.00214L3.595 3.99994H16.4051L16.8504 4.00214ZM3.2515 5.5014C3.25055 5.59866 3.25003 5.70997 3.25003 5.84491V14.155C3.25003 14.2896 3.25056 14.4007 3.2515 14.4977C3.34876 14.4987 3.46006 14.4999 3.595 14.4999H7.00003V5.49994H3.595C3.46007 5.49994 3.34876 5.50046 3.2515 5.5014ZM8.50003 14.4999H16.4051C16.5397 14.4999 16.6507 14.4987 16.7478 14.4977C16.7488 14.4007 16.75 14.2896 16.75 14.155V5.84491C16.75 5.70997 16.7488 5.59867 16.7478 5.5014C16.6507 5.50047 16.5397 5.49994 16.4051 5.49994H8.50003V14.4999Z" fill="#040405"/>
</svg>
