<svg width="24" height="24" viewBox="0 0 24 24" fill="none" xmlns="http://www.w3.org/2000/svg">
<path d="M20 17C20 17.5523 19.5523 18 19 18H5C4.44772 18 4 17.5523 4 17C4 16.4477 4.44772 16 5 16H19C19.5523 16 20 16.4477 20 17Z" fill="#040405"/>
<path d="M14 11C14 11.5523 13.5523 12 13 12H5C4.44772 12 4 11.5523 4 11C4 10.4477 4.44772 10 5 10H13C13.5523 10 14 10.4477 14 11Z" fill="#040405"/>
<path d="M10 5C10 5.55228 9.55228 6 9 6H5C4.44772 6 4 5.55228 4 5C4 4.44772 4.44772 4 5 4H9C9.55228 4 10 4.44772 10 5Z" fill="#040405"/>
</svg>
