<svg width="24" height="24" viewBox="0 0 24 24" fill="none" xmlns="http://www.w3.org/2000/svg">
<path d="M20 7C20 6.44772 19.5523 6 19 6H5C4.44772 6 4 6.44772 4 7C4 7.55228 4.44772 8 5 8H19C19.5523 8 20 7.55228 20 7Z" fill="#040405"/>
<path d="M14 13C14 12.4477 13.5523 12 13 12H5C4.44772 12 4 12.4477 4 13C4 13.5523 4.44772 14 5 14H13C13.5523 14 14 13.5523 14 13Z" fill="#040405"/>
<path d="M10 19C10 18.4477 9.55228 18 9 18H5C4.44772 18 4 18.4477 4 19C4 19.5523 4.44772 20 5 20H9C9.55228 20 10 19.5523 10 19Z" fill="#040405"/>
</svg>
