<svg width="24" height="24" viewBox="0 0 24 24" fill="none" xmlns="http://www.w3.org/2000/svg">
<path d="M19.3701 2.9502C20.298 2.95035 21.0496 3.702 21.0498 4.62988V13.7822C21.0496 14.378 20.8129 14.9488 20.3916 15.3701L15.3701 20.3916C14.9488 20.8129 14.378 21.0496 13.7822 21.0498H4.62988C3.702 21.0496 2.95035 20.298 2.9502 19.3701V4.62988C2.95035 3.702 3.702 2.95035 4.62988 2.9502H19.3701ZM4.6084 19.3916H12.8711V13.7002C12.8714 13.2422 13.2422 12.8714 13.7002 12.8711H19.3916V4.6084H4.6084V19.3916ZM14.5303 18.8857L18.8857 14.5303H14.5303V18.8857Z" fill="#040405"/>
</svg>
