<svg width="16" height="16" viewBox="0 0 16 16" fill="none" xmlns="http://www.w3.org/2000/svg">
<g clip-path="url(#clip0_56218_6497)">
<mask id="mask0_56218_6497" style="mask-type:alpha" maskUnits="userSpaceOnUse" x="2" y="2" width="12" height="12">
<circle cx="8" cy="8" r="6" fill="white"/>
</mask>
<g mask="url(#mask0_56218_6497)">
<rect x="2" y="2" width="12" height="12" fill="#F53913"/>
<path d="M8.51881 5.8114H8.08024C7.27652 5.8114 6.85426 6.2433 6.85426 6.88187C6.85426 7.60703 7.14665 7.94397 7.74739 8.3755L8.24275 8.72953L6.81482 11H5.75L7.03275 8.97113C6.29397 8.41007 5.87987 7.8661 5.87987 6.94227C5.87987 5.78557 6.63497 5 8.07208 5H9.5V11H8.51745L8.51881 5.8114Z" fill="white"/>
</g>
<g clip-path="url(#clip1_56218_6497)">
<path fill-rule="evenodd" clip-rule="evenodd" d="M8 14C11.3137 14 14 11.3137 14 8C14 4.68629 11.3137 2 8 2C4.68629 2 2 4.68629 2 8C2 11.3137 4.68629 14 8 14ZM8 13.5C11.0376 13.5 13.5 11.0376 13.5 8C13.5 4.96243 11.0376 2.5 8 2.5C4.96243 2.5 2.5 4.96243 2.5 8C2.5 11.0376 4.96243 13.5 8 13.5Z" fill="url(#paint0_linear_56218_6497)"/>
<circle cx="8" cy="8" r="5.5" fill="url(#paint1_linear_56218_6497)"/>
</g>
</g>
<defs>
<linearGradient id="paint0_linear_56218_6497" x1="2" y1="2" x2="14" y2="14" gradientUnits="userSpaceOnUse">
<stop stop-color="white" stop-opacity="0.15"/>
<stop offset="1" stop-opacity="0.1"/>
</linearGradient>
<linearGradient id="paint1_linear_56218_6497" x1="2" y1="2" x2="14" y2="14" gradientUnits="userSpaceOnUse">
<stop offset="0.1475" stop-opacity="0.15"/>
<stop offset="0.500721" stop-color="white" stop-opacity="0"/>
<stop offset="0.852707" stop-color="white" stop-opacity="0.15"/>
</linearGradient>
<clipPath id="clip0_56218_6497">
<rect width="12" height="12" fill="white" transform="translate(2 2)"/>
</clipPath>
<clipPath id="clip1_56218_6497">
<rect x="2" y="2" width="12" height="12" rx="6" fill="white"/>
</clipPath>
</defs>
</svg>
