<svg width="24" height="24" viewBox="0 0 24 24" fill="none" xmlns="http://www.w3.org/2000/svg">
<path fill-rule="evenodd" clip-rule="evenodd" d="M17.4004 3.18457C18.0182 3.18457 18.5251 3.18497 18.9365 3.21484C19.3551 3.24525 19.7416 3.31 20.1074 3.47559L20.3164 3.5791C20.7926 3.83868 21.1932 4.21783 21.4619 4.68652L21.5322 4.82031C21.6848 5.13618 21.7497 5.46771 21.7813 5.81055C21.8161 6.18966 21.8154 6.65338 21.8154 7.19727V16.8037C21.8154 17.3475 21.8161 17.8107 21.7813 18.1895C21.7452 18.5813 21.6657 18.9579 21.4619 19.3135C21.1547 19.8482 20.6751 20.2672 20.1084 20.5244C19.7429 20.6903 19.3565 20.7547 18.9385 20.7852C18.5276 20.815 18.0211 20.8154 17.4043 20.8154H6.59668C5.97978 20.8154 5.47272 20.8151 5.06152 20.7852C4.64354 20.7547 4.2571 20.6903 3.8916 20.5244C3.32437 20.2674 2.84506 19.8489 2.53809 19.3135C2.33421 18.9577 2.25482 18.5806 2.21875 18.1885C2.18387 17.809 2.18457 17.3447 2.18457 16.7998V7.2002C2.18457 6.6553 2.18387 6.19096 2.21875 5.81152C2.25482 5.41943 2.33421 5.04232 2.53809 4.68652C2.84548 4.15013 3.32429 3.73285 3.89258 3.47559C4.25839 3.31 4.64489 3.24525 5.06348 3.21484C5.47493 3.18497 5.98184 3.18457 6.59961 3.18457H17.4004ZM3.81543 16.7998C3.81543 17.3749 3.81536 17.7515 3.8418 18.0391C3.86706 18.3138 3.91084 18.4308 3.95215 18.5029C4.07651 18.7198 4.28628 18.9136 4.56543 19.04C4.68012 19.0921 4.84879 19.1361 5.17969 19.1602C5.51803 19.1848 5.95583 19.1846 6.59668 19.1846H11.1846V15.8154H3.81543V16.7998ZM12.8154 19.1846H17.4043C18.0451 19.1846 18.4823 19.1847 18.8203 19.1602C19.1511 19.1361 19.3197 19.0921 19.4346 19.04C19.7138 18.9133 19.9231 18.7191 20.0479 18.502C20.0892 18.4295 20.1331 18.3128 20.1582 18.04C20.1846 17.7533 20.1846 17.3779 20.1846 16.8037V15.8154H12.8154V19.1846ZM3.81543 14.1846H11.1846V9.81543H3.81543V14.1846ZM12.8154 14.1846H20.1846V9.81543H12.8154V14.1846ZM6.59961 4.81543C5.95805 4.81543 5.52033 4.81526 5.18164 4.83984C4.84992 4.86394 4.68009 4.90858 4.56445 4.96094C4.28473 5.08764 4.07672 5.27965 3.95215 5.49707C3.91084 5.56916 3.86706 5.68625 3.8418 5.96094C3.81536 6.2485 3.81543 6.62509 3.81543 7.2002V8.18457H11.1846V4.81543H6.59961ZM12.8154 8.18457H20.1846V7.19727C20.1846 6.62315 20.1846 6.2471 20.1582 5.95996C20.1329 5.68557 20.0888 5.56932 20.0479 5.49805C19.9235 5.28117 19.7147 5.0864 19.4355 4.95996C19.3199 4.90761 19.1501 4.86394 18.8184 4.83984C18.4797 4.81526 18.0419 4.81543 17.4004 4.81543H12.8154V8.18457Z" fill="#040405"/>
</svg>
