<svg width="24" height="24" viewBox="0 0 24 24" fill="none" xmlns="http://www.w3.org/2000/svg">
<path d="M20.5996 11.1504C21.0138 11.1504 21.3496 11.4862 21.3496 11.9004V12C21.3496 17.1639 17.1639 21.3496 12 21.3496C6.83614 21.3496 2.65039 17.1639 2.65039 12C2.65039 6.83613 6.83614 2.65039 12 2.65039H12.0996C12.5138 2.65039 12.8496 2.98617 12.8496 3.40039V3.59961C12.8496 4.01382 12.5138 4.34961 12.0996 4.34961H12C7.77502 4.34961 4.34961 7.77502 4.34961 12C4.34961 16.225 7.77502 19.6504 12 19.6504C16.225 19.6504 19.6504 16.225 19.6504 12V11.9004C19.6504 11.4862 19.9862 11.1504 20.4004 11.1504H20.5996ZM16.3496 11.1504C16.7638 11.1504 17.0996 11.4862 17.0996 11.9004V12C17.0996 14.8166 14.8167 17.0996 12 17.0996C9.18335 17.0996 6.90039 14.8166 6.90039 12C6.90039 9.18334 9.18335 6.90039 12 6.90039H12.0996C12.5138 6.90039 12.8496 7.23617 12.8496 7.65039V7.84961C12.8496 8.26382 12.5138 8.59961 12.0996 8.59961H12C10.1222 8.59961 8.59961 10.1222 8.59961 12C8.59961 13.8778 10.1222 15.4004 12 15.4004C13.8778 15.4004 15.4004 13.8778 15.4004 12V11.9004C15.4004 11.4862 15.7362 11.1504 16.1504 11.1504H16.3496ZM18.0986 2.59082C18.337 2.62988 18.5421 2.7817 18.6494 2.99804L18.71 3.12011L19.4326 4.56543L20.8809 5.29004H20.8799L21.002 5.35058C21.2183 5.4579 21.3701 5.66304 21.4092 5.90136C21.4482 6.13961 21.3699 6.38202 21.1992 6.55273L18.5215 9.23047C18.3808 9.37112 18.1901 9.45019 17.9912 9.45019H15.752L12.6006 12.6006L12.5342 12.668C12.394 12.8101 12.2026 12.8908 12.0029 12.8916C11.8031 12.8923 11.611 12.8132 11.4697 12.6719L11.3281 12.5303C11.1868 12.389 11.1077 12.1969 11.1084 11.9971C11.1092 11.7974 11.1899 11.606 11.332 11.4658L11.4033 11.3955L14.5498 8.24804V6.00879C14.5498 5.80987 14.6289 5.61916 14.7695 5.47851L17.4473 2.80078L17.5146 2.74121C17.6787 2.61247 17.8902 2.55672 18.0986 2.59082ZM16.0498 6.31933V7.95019H17.6807L19.4023 6.22754L18.5381 5.7959C18.3931 5.72331 18.2756 5.60497 18.2031 5.45996L17.7715 4.59668L16.0498 6.31933Z" fill="currentColor"/>
</svg>
