<svg width="24" height="24" viewBox="0 0 24 24" fill="none" xmlns="http://www.w3.org/2000/svg">
<path fill-rule="evenodd" clip-rule="evenodd" d="M3.19242 10.6815C8.02425 8.56468 11.2462 7.16912 12.8584 6.49486C17.4613 4.5697 18.4177 4.23528 19.0411 4.22424C19.1783 4.22181 19.4848 4.25598 19.6834 4.41801C19.8511 4.55483 19.8972 4.73965 19.9193 4.86937C19.9414 4.99908 19.9689 5.29458 19.947 5.52548C19.6976 8.16087 18.6183 14.5563 18.0692 17.508C17.8369 18.7569 17.3794 19.1757 16.9365 19.2167C15.974 19.3058 15.2431 18.5771 14.3108 17.9626C12.852 17.001 12.0279 16.4024 10.6119 15.4641C8.9755 14.3797 10.0363 13.7838 10.9689 12.8097C11.213 12.5548 15.4539 8.676 15.5359 8.32413C15.5462 8.28013 15.5557 8.11609 15.4588 8.02947C15.3619 7.94285 15.2189 7.97247 15.1157 7.99603C14.9693 8.02942 12.6389 9.5783 8.12439 12.6427C7.46291 13.0994 6.86376 13.322 6.32695 13.3103C5.73515 13.2974 4.59677 12.9738 3.7505 12.6972C2.71251 12.3579 1.88754 12.1785 1.95938 11.6023C1.99679 11.3022 2.40781 10.9953 3.19242 10.6815Z" fill="#040405"/>
</svg>
