<svg width="24" height="24" viewBox="0 0 24 24" fill="none" xmlns="http://www.w3.org/2000/svg">
<path d="M18.026 2.53967C18.5918 2.53967 19.0499 2.99785 19.0499 3.56362C19.0499 4.12939 18.5918 4.58756 18.026 4.58756H15.1836L10.9478 19.4124H13.2052C13.771 19.4124 14.2291 19.8706 14.2291 20.4364C14.2291 21.0021 13.771 21.4603 13.2052 21.4603H5.97402C5.40825 21.4603 4.95007 21.0021 4.95007 20.4364C4.95007 19.8706 5.40825 19.4124 5.97402 19.4124H8.81635L13.0522 4.58756H10.7948C10.229 4.58756 9.77086 4.12939 9.77086 3.56362C9.77086 2.99785 10.229 2.53967 10.7948 2.53967H18.026Z" fill="#040405"/>
</svg>
