<svg width="24" height="24" viewBox="0 0 24 24" fill="none" xmlns="http://www.w3.org/2000/svg">
<path d="M19.7975 18.8511C20.3205 18.8511 20.744 19.2746 20.744 19.7975C20.744 20.3205 20.3205 20.744 19.7975 20.744H4.20245C3.67952 20.744 3.25604 20.3205 3.25604 19.7975C3.25604 19.2746 3.67952 18.8511 4.20245 18.8511H19.7975ZM5.48391 9.77213V4.20245C5.48391 3.67952 5.9074 3.25604 6.43032 3.25604C6.95325 3.25604 7.37673 3.67952 7.37673 4.20245V9.77213L7.38326 10.0017C7.44002 11.1441 7.91839 12.2284 8.73108 13.0411C9.59803 13.908 10.7739 14.3954 12 14.3954L12.2295 14.3889C13.372 14.3321 14.4562 13.8537 15.2689 13.0411C16.1359 12.1741 16.6233 10.9982 16.6233 9.77213V4.20245C16.6233 3.67952 17.0467 3.25604 17.5697 3.25604C18.0926 3.25604 18.5161 3.67952 18.5161 4.20245V9.77213L18.5085 10.0952C18.4286 11.7059 17.7538 13.2345 16.608 14.3802C15.4623 15.5259 13.9337 16.2007 12.3231 16.2806L12 16.2882C10.2717 16.2882 8.61405 15.6023 7.39196 14.3802C6.16988 13.1581 5.48391 11.5004 5.48391 9.77213Z" fill="#040405"/>
</svg>
