<svg width="24" height="24" viewBox="0 0 24 24" fill="none" xmlns="http://www.w3.org/2000/svg">
<path d="M2.94513 18.8765V18.8653C2.94513 18.3281 3.38017 17.8931 3.91738 17.8931C4.45459 17.8931 4.88963 18.3281 4.88963 18.8653V18.8765C4.88963 19.4137 4.45459 19.8499 3.91738 19.8499C3.38017 19.8499 2.94513 19.4137 2.94513 18.8765ZM21.0826 17.8931C21.6198 17.8931 22.0549 18.3281 22.0549 18.8653C22.0549 19.4025 21.6198 19.8376 21.0826 19.8376H8.49478C7.95757 19.8376 7.52253 19.4025 7.52253 18.8653C7.52253 18.3281 7.95757 17.8931 8.49478 17.8931H21.0826ZM2.94513 12.0104V11.9992C2.94513 11.462 3.38017 11.027 3.91738 11.027C4.45459 11.027 4.88963 11.462 4.88963 11.9992V12.0104C4.88963 12.5476 4.45459 12.9838 3.91738 12.9838C3.38017 12.9838 2.94513 12.5476 2.94513 12.0104ZM21.0826 11.027C21.6198 11.027 22.0549 11.462 22.0549 11.9992C22.0549 12.5364 21.6198 12.9715 21.0826 12.9715H8.49478C7.95757 12.9715 7.52253 12.5364 7.52253 11.9992C7.52253 11.462 7.95757 11.027 8.49478 11.027H21.0826ZM2.94513 5.14431V5.13314C2.94513 4.59593 3.38017 4.16089 3.91738 4.16089C4.45459 4.16089 4.88963 4.59593 4.88963 5.13314V5.14431C4.88963 5.68152 4.45459 6.11768 3.91738 6.11768C3.38017 6.11768 2.94513 5.68152 2.94513 5.14431ZM21.0826 4.16089C21.6198 4.16089 22.0549 4.59593 22.0549 5.13314C22.0549 5.67034 21.6198 6.10539 21.0826 6.10539H8.49478C7.95757 6.10539 7.52253 5.67034 7.52253 5.13314C7.52253 4.59593 7.95757 4.16089 8.49478 4.16089H21.0826Z" fill="#040405"/>
</svg>
