<svg width="16" height="16" viewBox="0 0 16 16" fill="none" xmlns="http://www.w3.org/2000/svg">
<path d="M2.23438 11.4688C2.70037 11.4688 3.07812 11.8465 3.07812 12.3125C3.07812 12.7785 2.70037 13.1562 2.23438 13.1562H1.67188C1.20588 13.1562 0.828125 12.7785 0.828125 12.3125C0.828125 11.8465 1.20588 11.4688 1.67188 11.4688H2.23438Z" fill="#040405"/>
<path d="M14.4988 11.5662C14.8769 11.6047 15.1719 11.9242 15.1719 12.3125C15.1719 12.7008 14.8769 13.0203 14.4988 13.0588L14.4219 13.0625H5.42188C5.00766 13.0625 4.67188 12.7267 4.67188 12.3125C4.67188 11.8983 5.00766 11.5625 5.42188 11.5625H14.4219L14.4988 11.5662Z" fill="#040405"/>
<path d="M2.23438 7.15625C2.70037 7.15625 3.07812 7.53401 3.07812 8C3.07812 8.46599 2.70037 8.84375 2.23438 8.84375H1.67188C1.20588 8.84375 0.828125 8.46599 0.828125 8C0.828125 7.53401 1.20588 7.15625 1.67188 7.15625H2.23438Z" fill="#040405"/>
<path d="M14.4988 7.25366C14.8769 7.29216 15.1719 7.61174 15.1719 8C15.1719 8.38826 14.8769 8.70784 14.4988 8.74634L14.4219 8.75H5.42188C5.00766 8.75 4.67188 8.41421 4.67188 8C4.67188 7.58579 5.00766 7.25 5.42188 7.25H14.4219L14.4988 7.25366Z" fill="#040405"/>
<path d="M2.23438 2.84375C2.70037 2.84375 3.07812 3.22151 3.07812 3.6875C3.07812 4.15349 2.70037 4.53125 2.23438 4.53125H1.67188C1.20588 4.53125 0.828125 4.15349 0.828125 3.6875C0.828125 3.22151 1.20588 2.84375 1.67188 2.84375H2.23438Z" fill="#040405"/>
<path d="M14.4988 2.94116C14.8769 2.97966 15.1719 3.29924 15.1719 3.6875C15.1719 4.07576 14.8769 4.39534 14.4988 4.43384L14.4219 4.4375H5.42188C5.00766 4.4375 4.67188 4.10171 4.67188 3.6875C4.67188 3.27329 5.00766 2.9375 5.42188 2.9375H14.4219L14.4988 2.94116Z" fill="#040405"/>
</svg>
