<svg width="24" height="24" viewBox="0 0 24 24" fill="none" xmlns="http://www.w3.org/2000/svg">
<path d="M17.2086 15.944C17.2086 15.152 16.8937 14.3923 16.3337 13.8322C15.8437 13.3422 15.2006 13.0406 14.5169 12.9728L14.222 12.9574H7.29141V18.9306H14.222C15.014 18.9306 15.7737 18.6157 16.3337 18.0557C16.8937 17.4957 17.2086 16.736 17.2086 15.944ZM16.0817 8.05603C16.0817 7.26405 15.7669 6.50429 15.2069 5.94428C14.6469 5.38427 13.8871 5.06943 13.0951 5.06943H7.29141V11.0426H13.0951C13.8871 11.0426 14.6469 10.7278 15.2069 10.1678C15.7669 9.60776 16.0817 8.848 16.0817 8.05603ZM17.9965 8.05603C17.9965 9.35606 17.4808 10.6031 16.5615 11.5224C16.5364 11.5476 16.509 11.5705 16.4834 11.595C16.9237 11.824 17.331 12.1202 17.6884 12.4776C18.6076 13.3969 19.1234 14.6439 19.1234 15.944C19.1234 17.244 18.6076 18.4911 17.6884 19.4104C16.7691 20.3296 15.522 20.8453 14.222 20.8453H6.33403C5.80504 20.8453 5.37665 20.417 5.37665 19.888V4.11205C5.37665 3.58306 5.80504 3.15466 6.33403 3.15466H13.0951C14.3952 3.15466 15.6423 3.67037 16.5615 4.58964C17.4808 5.5089 17.9965 6.75599 17.9965 8.05603Z" fill="#040405"/>
</svg>
