<svg width="24" height="24" viewBox="0 0 24 24" fill="none" xmlns="http://www.w3.org/2000/svg">
<path d="M16.073 15.9051C16.073 15.121 15.7612 14.3687 15.2067 13.8142C14.7215 13.3289 14.0847 13.0304 13.4078 12.9632L13.1158 12.9479H4.18966C3.66588 12.9479 3.2417 12.5238 3.2417 12C3.24171 11.4762 3.66588 11.052 4.18966 11.052H7.03791C6.38929 10.2084 6.03111 9.17057 6.03111 8.0948C6.03111 6.80756 6.54175 5.57274 7.45196 4.66252C8.36218 3.75231 9.597 3.24167 10.8842 3.24167H12V3.24276C13.1075 3.22692 14.2168 3.39647 15.1522 3.74725C16.0638 4.08915 16.8986 4.63731 17.3064 5.42852C17.5463 5.89407 17.3633 6.46666 16.8978 6.70663C16.4322 6.94654 15.8597 6.76355 15.6197 6.29803C15.5215 6.10753 15.1968 5.78978 14.4865 5.52332C13.8037 5.26728 12.9298 5.12315 12.0153 5.13759L12 5.13868V5.13759H10.8842C10.1001 5.13759 9.34777 5.44934 8.79327 6.00383C8.23878 6.55833 7.92704 7.31063 7.92703 8.0948C7.92703 8.87898 8.23878 9.63126 8.79327 10.1858C9.34777 10.7403 10.1001 11.052 10.8842 11.052H19.8103C20.3341 11.052 20.7583 11.4762 20.7583 12C20.7583 12.5238 20.3341 12.9479 19.8103 12.9479H16.9621C17.6107 13.7915 17.9689 14.8294 17.9689 15.9051C17.9689 17.1924 17.4583 18.4272 16.548 19.3374C15.6378 20.2476 14.403 20.7583 13.1158 20.7583H11.4421V20.7572C10.3347 20.773 9.22527 20.6035 8.28987 20.2527C7.37831 19.9108 6.54348 19.3626 6.13571 18.5714C5.89581 18.1059 6.0788 17.5333 6.54431 17.2933C7.00986 17.0534 7.58245 17.2364 7.82243 17.7019C7.92059 17.8924 8.24537 18.2102 8.95562 18.4766C9.63839 18.7327 10.5123 18.8768 11.4269 18.8623H13.1158L13.4078 18.8471C14.0847 18.7799 14.7215 18.4813 15.2067 17.9961C15.7612 17.4416 16.073 16.6893 16.073 15.9051Z" fill="#040405"/>
</svg>
