<svg width="24" height="24" viewBox="0 0 24 24" fill="none" xmlns="http://www.w3.org/2000/svg">
<g clip-path="url(#clip0_9010_7973)">
<path d="M5.38719 9.49214L5.3934 9.4873L5.40169 9.4804C5.54327 9.38722 5.70955 9.33955 5.87954 9.33953C6.00726 9.33953 6.1327 9.3666 6.2469 9.41963L6.35739 9.48178L6.37258 9.49145L6.47547 9.575L6.47754 9.57707L6.48583 9.58398L6.49273 9.5895C6.65325 9.75262 6.74064 9.97349 6.74064 10.2006C6.74049 10.3707 6.69064 10.5366 6.5977 10.6778L6.59701 10.6799L6.59148 10.6881L6.58665 10.6944L6.5024 10.7966L6.49688 10.8035L6.49066 10.8111L5.40998 11.8904C4.52177 12.7787 4.02269 13.984 4.02269 15.2401C4.02269 16.4963 4.52177 17.7016 5.40998 18.5899L5.58054 18.7522C6.4494 19.5387 7.58226 19.9772 8.75976 19.9772C10.0158 19.9772 11.2212 19.4781 12.1095 18.5899L13.1895 17.5099C13.3517 17.3478 13.5713 17.2573 13.8 17.2572C14.0281 17.2573 14.2482 17.3467 14.4104 17.5085L14.4138 17.512L14.4649 17.5686L14.4684 17.5721C14.5944 17.7261 14.6631 17.9204 14.6631 18.1204C14.6631 18.349 14.5725 18.5687 14.4104 18.7308L13.3304 19.8108C12.1183 21.0228 10.4745 21.704 8.76045 21.7042C7.0462 21.7042 5.40141 21.0229 4.18911 19.8108C2.97693 18.5985 2.29636 16.9544 2.29636 15.2401C2.29636 13.5259 2.97693 11.8818 4.18911 10.6695L5.28361 9.575L5.38719 9.49214ZM10.6691 4.18953C11.8813 2.97731 13.5255 2.29689 15.2397 2.29677C16.954 2.29683 18.5982 2.97744 19.8104 4.18953C21.0225 5.40178 21.7038 7.04655 21.7038 8.76086C21.7036 10.4749 21.0224 12.1188 19.8104 13.3308L18.7235 14.4177C18.5614 14.5798 18.3416 14.6703 18.113 14.6705C17.9127 14.6704 17.719 14.6009 17.5654 14.475L17.562 14.4716L17.5054 14.4205L17.5019 14.417C17.3405 14.2553 17.25 14.0359 17.2499 13.8073C17.25 13.5787 17.3406 13.3589 17.5026 13.1969L18.5895 12.11C19.4778 11.2217 19.9767 10.0164 19.9768 8.76017C19.9768 7.58256 19.5382 6.44985 18.7518 5.58095L18.5902 5.4097L18.4203 5.24812C17.5513 4.46131 16.4175 4.02315 15.2397 4.02311C13.9836 4.02322 12.7782 4.52218 11.8899 5.41039L10.8106 6.4897C10.6489 6.6514 10.4293 6.74228 10.2002 6.74243C9.97147 6.74243 9.75123 6.65243 9.58909 6.49039C9.42699 6.32821 9.33704 6.10795 9.33704 5.87926C9.33718 5.65074 9.42766 5.43095 9.58978 5.26883L10.6691 4.18953ZM14.284 8.49501L14.3938 8.40731L14.4014 8.40109L14.5112 8.33964C14.6255 8.28633 14.7515 8.25818 14.88 8.25815C15.0515 8.25817 15.2175 8.30941 15.3578 8.40179L15.3654 8.40662L15.4759 8.49501L15.478 8.49708L15.4862 8.50398L15.4932 8.50951C15.6531 8.67212 15.7417 8.89216 15.7417 9.11994C15.7417 9.34834 15.6512 9.56724 15.4911 9.72968L9.72996 15.4908C9.56755 15.651 9.34842 15.7413 9.12022 15.7415C8.89212 15.7415 8.67356 15.6512 8.51117 15.4915L8.50909 15.4894L8.45178 15.4266C8.32717 15.2727 8.25843 15.0797 8.25843 14.8797C8.25852 14.7083 8.30946 14.5423 8.40206 14.4018L8.41173 14.3866L8.49528 14.2838L14.284 8.49501Z" fill="#040405"/>
</g>
<defs>
<clipPath id="clip0_9010_7973">
<rect width="24" height="24" fill="white"/>
</clipPath>
</defs>
</svg>
