<svg width="24" height="24" viewBox="0 0 24 24" fill="none" xmlns="http://www.w3.org/2000/svg">
<path d="M6.73268 16.3446C6.73268 16.0133 6.60099 15.6952 6.36675 15.461C6.16169 15.2559 5.89234 15.1297 5.60625 15.1014L5.48321 15.0951C5.15194 15.0951 4.83391 15.2268 4.59966 15.461C4.36542 15.6952 4.23373 16.0133 4.23373 16.3446C4.23373 16.8544 3.82082 17.2673 3.31094 17.2673C2.80107 17.2673 2.38815 16.8544 2.38815 16.3446C2.38815 15.5236 2.71346 14.7358 3.29397 14.1553C3.87449 13.5748 4.66224 13.2495 5.48321 13.2495L5.78868 13.2643C6.49748 13.3346 7.16438 13.6473 7.67244 14.1553C8.25296 14.7358 8.57826 15.5236 8.57826 16.3446L8.56659 16.5652C8.51233 17.0664 8.27975 17.4638 8.04156 17.7669C7.79253 18.0837 7.44621 18.4015 7.22165 18.6261C7.20192 18.6458 7.18157 18.6655 7.16014 18.6833L5.86081 19.7663H7.65547C8.16535 19.7663 8.57826 20.1792 8.57826 20.6891C8.57826 21.199 8.16535 21.6119 7.65547 21.6119H3.31094C2.92225 21.6119 2.57563 21.3685 2.44331 21.003C2.31107 20.6376 2.42158 20.2283 2.72015 19.9795L5.95521 17.2832C6.25134 16.9887 6.43874 16.8188 6.59055 16.6256C6.72547 16.4538 6.73268 16.3796 6.73268 16.3446ZM20.6891 17.594C21.1989 17.594 21.6118 18.0069 21.6118 18.5168C21.6118 19.0267 21.1989 19.4396 20.6891 19.4396H12C11.4901 19.4396 11.0772 19.0267 11.0772 18.5168C11.0772 18.0069 11.4901 17.594 12 17.594H20.6891ZM20.6891 11.0772C21.1989 11.0772 21.6118 11.4901 21.6118 12C21.6118 12.5099 21.1989 12.9228 20.6891 12.9228H10.9139C10.404 12.9228 9.99108 12.5099 9.99108 12C9.99108 11.4901 10.404 11.0772 10.9139 11.0772H20.6891ZM4.56042 9.82776V5.53838L3.96326 6.13554C3.60272 6.49608 3.01916 6.49608 2.65863 6.13554C2.29809 5.775 2.29809 5.19145 2.65863 4.83091L4.83089 2.65865C5.09492 2.39461 5.49144 2.3153 5.83641 2.45818C6.18139 2.60107 6.406 2.93756 6.406 3.31096V9.82776C6.406 10.3376 5.99308 10.7505 5.48321 10.7505C4.97333 10.7505 4.56042 10.3376 4.56042 9.82776ZM20.6891 4.56044C21.1989 4.56044 21.6118 4.97335 21.6118 5.48323C21.6118 5.9931 21.1989 6.40601 20.6891 6.40601H10.9139C10.404 6.40601 9.99108 5.9931 9.99108 5.48323C9.99108 4.97335 10.404 4.56044 10.9139 4.56044H20.6891Z" fill="#040405"/>
</svg>
