<svg width="24" height="24" viewBox="0 0 24 24" fill="none" xmlns="http://www.w3.org/2000/svg">
<path d="M12.0009 18.0073C12.4976 18.0076 12.9007 18.4106 12.9009 18.9073V21C12.9009 21.4969 12.4977 21.8998 12.0009 21.9C11.5038 21.9 11.1009 21.4971 11.1009 21V18.9073C11.101 18.4104 11.5039 18.0073 12.0009 18.0073Z" fill="#040405"/>
<path d="M6.4365 16.2917C6.78798 15.9403 7.35771 15.9403 7.70916 16.2917C8.06058 16.6432 8.06054 17.2129 7.70916 17.5644L6.28005 18.9935C5.92857 19.3447 5.35879 19.3448 5.0074 18.9935C4.656 18.6421 4.65616 18.0723 5.0074 17.7208L6.4365 16.2917Z" fill="#040405"/>
<path d="M16.2917 16.2917C16.6431 15.9403 17.2129 15.9403 17.5643 16.2917L18.9934 17.7208C19.3447 18.0723 19.3448 18.6421 18.9934 18.9935C18.642 19.3448 18.0723 19.3447 17.7208 18.9935L16.2917 17.5644C15.9403 17.2129 15.9402 16.6432 16.2917 16.2917Z" fill="#040405"/>
<path d="M12 7.81465C14.3119 7.81465 16.1862 9.68892 16.1862 12.0009C16.186 14.3126 14.3118 16.1862 12 16.1862C9.68834 16.186 7.81486 14.3125 7.81462 12.0009C7.81462 9.68905 9.68819 7.81487 12 7.81465Z" fill="#040405"/>
<path d="M5.09265 11.1009C5.58971 11.1009 5.99265 11.5038 5.99265 12.0009C5.99242 12.4977 5.58956 12.9009 5.09265 12.9009H2.99998C2.50317 12.9008 2.10021 12.4977 2.09998 12.0009C2.09998 11.5039 2.50302 11.101 2.99998 11.1009H5.09265Z" fill="#040405"/>
<path d="M21 11.1009C21.497 11.1009 21.9 11.5038 21.9 12.0009C21.8997 12.4977 21.4969 12.9009 21 12.9009H18.9073C18.4105 12.9007 18.0075 12.4976 18.0073 12.0009C18.0073 11.5039 18.4104 11.1011 18.9073 11.1009H21Z" fill="#040405"/>
<path d="M5.0074 5.00743C5.35879 4.65605 5.92857 4.6562 6.28005 5.00743L7.70916 6.43653C8.06054 6.788 8.06058 7.35774 7.70916 7.70919C7.35771 8.06063 6.78798 8.06058 6.4365 7.70919L5.0074 6.28008C4.65616 5.92859 4.65601 5.35882 5.0074 5.00743Z" fill="#040405"/>
<path d="M17.7208 5.00743C18.0723 4.6562 18.642 4.65606 18.9934 5.00743C19.3448 5.35882 19.3447 5.92859 18.9934 6.28008L17.5643 7.70919C17.2129 8.06058 16.6431 8.06063 16.2917 7.70919C15.9403 7.35774 15.9403 6.788 16.2917 6.43653L17.7208 5.00743Z" fill="#040405"/>
<path d="M12.0009 2.10001C12.4977 2.10024 12.9008 2.50317 12.9009 3.00001V5.09268C12.9009 5.58959 12.4977 5.99244 12.0009 5.99268C11.5038 5.99268 11.1009 5.58974 11.1009 5.09268V3.00001C11.1009 2.50302 11.5038 2.10001 12.0009 2.10001Z" fill="#040405"/>
</svg>
