<svg width="24" height="24" viewBox="0 0 24 24" fill="none" xmlns="http://www.w3.org/2000/svg">
<path d="M21.0329 15.7249C20.8812 15.4689 20.4547 15.0709 19.3931 15.2604C18.8055 15.3677 18.2078 15.4091 17.6111 15.3836C16.5461 15.3354 15.5015 15.074 14.5393 14.6149C13.5771 14.1557 12.7168 13.5082 12.0093 12.7107C11.0136 11.6203 10.3549 10.265 10.1127 8.8084C9.87049 7.35181 10.0552 5.85624 10.6444 4.50231C11.0615 3.54498 10.7676 3.04262 10.5591 2.8341C10.3506 2.62557 9.82926 2.31278 8.82453 2.72983C6.94106 3.51613 5.35078 4.872 4.27655 6.60744C3.20231 8.34288 2.69794 10.3709 2.83412 12.4074C3.00279 14.321 3.72299 16.1446 4.90741 17.6571C6.09183 19.1696 7.68959 20.306 9.50699 20.9286C10.3894 21.2364 11.3125 21.4121 12.2463 21.4499C12.3979 21.4594 12.5496 21.4688 12.7012 21.4688C14.2632 21.4715 15.8038 21.1065 17.1985 20.4034C18.5932 19.7003 19.8028 18.6788 20.7295 17.4215C21.3646 16.54 21.194 15.9817 21.0329 15.7249Z" fill="#040405"/>
</svg>
