<svg width="24" height="24" viewBox="0 0 24 24" fill="none" xmlns="http://www.w3.org/2000/svg">
<path d="M12 2C14.6509 2.00424 17.192 3.05916 19.0664 4.93359C20.9409 6.80804 21.9958 9.34915 22 12C22 13.9778 21.4133 15.9112 20.3145 17.5557C19.2157 19.2001 17.6543 20.4824 15.8272 21.2393C13.9999 21.9961 11.9886 22.1935 10.0488 21.8076C8.10914 21.4217 6.32718 20.4697 4.92872 19.0713C3.53027 17.6728 2.57829 15.8909 2.19239 13.9512C1.80654 12.0114 2.00388 10.0001 2.76075 8.17285C3.51763 6.34566 4.79992 4.78433 6.44435 3.68555C8.08884 2.58673 10.0222 2 12 2ZM16.2442 8.43848C16.05 8.43513 15.8618 8.50728 15.7197 8.63965L10.5801 13.7803L8.28028 11.4805C8.21162 11.4068 8.12814 11.3476 8.03614 11.3066C7.94418 11.2657 7.84481 11.243 7.74415 11.2412C7.64355 11.2395 7.5435 11.2582 7.45021 11.2959C7.35693 11.3336 7.27234 11.3898 7.20118 11.4609C7.13009 11.532 7.07386 11.6168 7.03614 11.71C6.99842 11.8033 6.97968 11.9042 6.98146 12.0049C6.98328 12.1055 7.00496 12.205 7.04591 12.2969C7.08688 12.3888 7.14614 12.4714 7.21974 12.54L10.0498 15.3701C10.1193 15.4399 10.202 15.4954 10.293 15.5332C10.3839 15.571 10.4816 15.5898 10.5801 15.5898C10.6785 15.5898 10.7763 15.571 10.8672 15.5332C10.9581 15.4954 11.0409 15.4399 11.1104 15.3701L16.7803 9.7002C16.9127 9.5581 16.9848 9.36994 16.9815 9.17578C16.978 8.98148 16.8991 8.79562 16.7617 8.6582C16.6243 8.52079 16.4384 8.4419 16.2442 8.43848Z" fill="#040405"/>
</svg>
