<svg width="16" height="16" viewBox="0 0 16 16" fill="none" xmlns="http://www.w3.org/2000/svg">
<path d="M11.2819 5.00006C11.4675 5.00249 11.6484 5.07539 11.7838 5.20844C11.9023 5.32501 11.9786 5.47998 11.9963 5.64731L12 5.71972L11.9968 5.79268C11.9803 5.95951 11.9052 6.11378 11.7881 6.231L11.7886 6.23155L11.7876 6.23321L11.7838 6.23653L7.04926 10.7933L7.0498 10.7938C6.93039 10.9097 6.77632 10.9802 6.61369 10.9961L6.60995 10.9967H6.60567L6.55109 10.9994L6.54359 11L6.51202 10.9994C6.41386 10.9952 6.31707 10.971 6.22842 10.9287C6.13957 10.8863 6.05919 10.8261 5.99351 10.7507L4.17953 8.66801L4.17525 8.66359L4.1715 8.65917C4.04761 8.51319 3.98531 8.32173 4.00294 8.12743C4.02078 7.93325 4.1163 7.7573 4.26247 7.63661C4.40846 7.51621 4.59546 7.45814 4.78151 7.47189C4.92424 7.48253 5.06069 7.53517 5.17374 7.62279L5.22083 7.66203L5.22618 7.66756L5.26471 7.70625L5.26524 7.70736L5.26631 7.70846L5.27006 7.71178L5.27327 7.71565L6.58854 9.22572L10.7719 5.19849L10.7821 5.18854L10.7885 5.18357C10.9254 5.06207 11.1018 4.9978 11.2819 5.00006Z" fill="#040405"/>
</svg>
