<svg width="24" height="24" viewBox="0 0 24 24" fill="none" xmlns="http://www.w3.org/2000/svg">
<path d="M18.4325 6.45987C18.7246 6.46362 19.0061 6.57583 19.2146 6.77645C19.4234 6.9775 19.5437 7.25133 19.5447 7.53873C19.5456 7.8262 19.4273 8.1007 19.2198 8.3031L19.2167 8.30622L9.73915 17.236C9.55424 17.4117 9.31456 17.5199 9.06018 17.5442L8.95083 17.5494H8.90189C8.74839 17.543 8.59691 17.5058 8.45826 17.4411C8.31976 17.3764 8.19572 17.2847 8.09482 17.1714L4.45211 13.0788L4.45002 13.0767C4.25983 12.8574 4.16607 12.5724 4.19281 12.2853C4.21963 11.9985 4.36427 11.7361 4.59061 11.5532C4.81671 11.3706 5.10757 11.2811 5.39975 11.3022C5.65534 11.3208 5.89663 11.4232 6.08394 11.5917L6.161 11.6678L6.16308 11.6698L9.02164 14.8814L17.64 6.75874L17.6432 6.75666C17.857 6.56158 18.1405 6.45624 18.4325 6.45987Z" fill="#040405"/>
</svg>
