<svg width="24" height="24" viewBox="0 0 24 24" fill="none" xmlns="http://www.w3.org/2000/svg">
<path d="M14.1504 4C14.1504 3.96022 14.1346 3.92169 14.1064 3.89355C14.0924 3.87953 14.0756 3.86879 14.0576 3.86133L14 3.84961H10C9.96022 3.84961 9.92169 3.86542 9.89355 3.89355C9.86542 3.92169 9.84961 3.96022 9.84961 4V6.15039H14.1504V4ZM6.84668 18.9297C6.84862 18.9531 6.84961 18.9765 6.84961 19C6.84961 19.305 6.97086 19.5978 7.18652 19.8135C7.40219 20.0291 7.695 20.1504 8 20.1504H16C16.305 20.1504 16.5978 20.0291 16.8135 19.8135C17.0291 19.5978 17.1504 19.305 17.1504 19C17.1504 18.9765 17.1514 18.9531 17.1533 18.9297L18.0771 7.84961H5.92285L6.84668 18.9297ZM9.15039 17V11C9.15039 10.5306 9.53056 10.1504 10 10.1504C10.4694 10.1504 10.8496 10.5306 10.8496 11V17C10.8496 17.4694 10.4694 17.8496 10 17.8496C9.53056 17.8496 9.15039 17.4694 9.15039 17ZM13.1504 17V11C13.1504 10.5306 13.5306 10.1504 14 10.1504C14.4694 10.1504 14.8496 10.5306 14.8496 11V17C14.8496 17.4694 14.4694 17.8496 14 17.8496C13.5306 17.8496 13.1504 17.4694 13.1504 17ZM15.8496 6.15039H20C20.4694 6.15039 20.8496 6.53056 20.8496 7C20.8496 7.46944 20.4694 7.84961 20 7.84961H19.7822L18.8467 19.0703L18.8457 19.0693C18.8279 19.8 18.5337 20.4975 18.0156 21.0156C17.4811 21.5501 16.7559 21.8496 16 21.8496H8C7.24413 21.8496 6.51885 21.5501 5.98438 21.0156C5.46627 20.4975 5.1711 19.8001 5.15332 19.0693V19.0703L4.21777 7.84961H4C3.53056 7.84961 3.15039 7.46944 3.15039 7C3.15039 6.53056 3.53056 6.15039 4 6.15039H8.15039V4C8.15039 3.50935 8.34446 3.03835 8.69141 2.69141C9.03835 2.34446 9.50935 2.15039 10 2.15039H14C14.4907 2.15039 14.9617 2.34446 15.3086 2.69141C15.6555 3.03835 15.8496 3.50935 15.8496 4V6.15039Z" fill="#040405"/>
</svg>
