<svg width="24" height="24" viewBox="0 0 24 24" fill="none" xmlns="http://www.w3.org/2000/svg">
<path fill-rule="evenodd" clip-rule="evenodd" d="M13.9327 2.10964C14.2383 2.15512 14.5029 2.3561 14.6271 2.64578L15.7433 5.24998H21L21.0923 5.25437C21.546 5.30057 21.9 5.68407 21.9 6.14998C21.9 6.61588 21.546 6.99938 21.0923 7.04558L21 7.04998H20.2591L19.2923 19.8196C19.2034 20.9929 18.2251 21.9 17.0484 21.9H6.95157C5.77487 21.9 4.79661 20.9929 4.70772 19.8196L3.74092 7.04998H3.00001C2.50295 7.04998 2.10001 6.64703 2.10001 6.14998C2.10001 5.65292 2.50295 5.24998 3.00001 5.24998H8.25674L9.37296 2.64578L9.43448 2.52712C9.59669 2.26437 9.88498 2.09998 10.2 2.09998H13.8L13.9327 2.10964ZM10.2 8.84998C9.70295 8.84998 9.30001 9.25292 9.30001 9.74998V17.4C9.30001 17.897 9.70295 18.3 10.2 18.3C10.6971 18.3 11.1 17.897 11.1 17.4V9.74998C11.1 9.25292 10.6971 8.84998 10.2 8.84998ZM13.8 8.84998C13.3029 8.84998 12.9 9.25292 12.9 9.74998V17.4C12.9 17.897 13.3029 18.3 13.8 18.3C14.2971 18.3 14.7 17.897 14.7 17.4V9.74998C14.7 9.25292 14.2971 8.84998 13.8 8.84998ZM10.2149 5.24998H13.7851L13.2067 3.89998H10.7933L10.2149 5.24998Z" fill="#040405"/>
</svg>
