<svg width="24" height="24" viewBox="0 0 20 20" fill="none" xmlns="http://www.w3.org/2000/svg">
<path fill-rule="evenodd" clip-rule="evenodd" d="M10 4.54545C11.9561 4.54545 13.5417 6.13112 13.5417 8.08712C13.5417 10.0431 11.9561 11.6288 10 11.6288C8.04399 11.6288 6.45833 10.0431 6.45833 8.08712C6.45833 6.13112 8.04399 4.54545 10 4.54545ZM10 6.21212C8.96446 6.21212 8.125 7.05158 8.125 8.08712C8.125 9.12265 8.96446 9.96212 10 9.96212C11.0355 9.96212 11.875 9.12265 11.875 8.08712C11.875 7.05158 11.0355 6.21212 10 6.21212Z" fill="currentColor"/>
<path fill-rule="evenodd" clip-rule="evenodd" d="M10 0.378784C15.0627 0.378784 19.1667 4.48284 19.1667 9.54545C19.1667 14.6081 15.0627 18.7121 10 18.7121C4.93739 18.7121 0.833328 14.6081 0.833328 9.54545C0.833328 4.48284 4.93739 0.378784 10 0.378784ZM10 14.5455C8.4154 14.5455 6.94336 14.9683 5.70638 15.6937C6.92286 16.5448 8.40267 17.0455 10 17.0455C11.5971 17.0455 13.0764 16.5446 14.2929 15.6937C13.0559 14.9685 11.5843 14.5455 10 14.5455ZM10 2.04545C5.85786 2.04545 2.49999 5.40332 2.49999 9.54545C2.49999 11.465 3.22149 13.2157 4.40755 14.5422C5.98935 13.4932 7.92073 12.8788 10 12.8788C12.079 12.8788 14.0099 13.4934 15.5917 14.5422C16.7779 13.2156 17.5 11.4652 17.5 9.54545C17.5 5.40332 14.1421 2.04545 10 2.04545Z" fill="currentColor"/>
</svg>
