<svg width="24" height="24" viewBox="0 0 24 24" fill="none" xmlns="http://www.w3.org/2000/svg">
<path d="M10.4219 2.66992C13.2871 2.81529 15.5842 5.11324 15.7295 7.97852L15.7373 8.2666C15.7372 10.0224 14.9283 11.5897 13.6641 12.6172L13.541 12.7178L13.6855 12.7852C14.5653 13.1957 15.3766 13.7584 16.0762 14.458C17.6519 16.034 18.5381 18.1718 18.5381 20.4004L18.5332 20.4961C18.4883 20.9368 18.1371 21.288 17.6963 21.333L17.6006 21.3379C17.1156 21.3379 16.7161 20.9686 16.668 20.4961L16.6631 20.4004C16.6631 18.6688 15.9743 17.0077 14.75 15.7832C13.5256 14.559 11.8652 13.8712 10.1338 13.8711C8.40207 13.8711 6.74116 14.5587 5.5166 15.7832C4.29204 17.0078 3.60449 18.6686 3.60449 20.4004L3.59961 20.4961C3.55467 20.937 3.20355 21.2881 2.7627 21.333L2.66699 21.3379C2.18196 21.3379 1.78249 20.9686 1.73438 20.4961L1.72949 20.4004C1.72949 18.1716 2.61539 16.034 4.19141 14.458C4.89094 13.7585 5.70143 13.1956 6.58105 12.7852L6.72559 12.7178L6.60254 12.6172C5.41724 11.654 4.6326 10.2163 4.53906 8.59375L4.5293 8.2666C4.52949 5.17192 7.03908 2.66211 10.1338 2.66211L10.4219 2.66992ZM16.374 3.77441C16.6381 3.33001 17.2133 3.18364 17.6582 3.44727C18.4499 3.91695 19.1136 4.57511 19.5908 5.3623C20.0681 6.14993 20.3446 7.04424 20.3945 7.96387C20.4443 8.88333 20.2662 9.80123 19.877 10.6357C19.6627 11.0949 19.3856 11.5202 19.0586 11.9033L18.998 11.9736L19.0645 12.0391C20.7851 13.7485 22.2702 16.4987 22.2705 19.4658C22.2705 19.9833 21.8505 20.4033 21.333 20.4033C20.8479 20.4032 20.4483 20.034 20.4004 19.5615L20.3955 19.4658C20.3952 16.6575 18.7032 13.9986 17.0371 12.749C16.831 12.5942 16.6989 12.3622 16.6689 12.1094L16.6621 12C16.6622 11.7054 16.8015 11.4269 17.0371 11.25C17.5274 10.8821 17.9205 10.3983 18.1797 9.84277C18.4385 9.28752 18.5566 8.67623 18.5234 8.06445C18.4901 7.4527 18.3067 6.85793 17.9893 6.33398C17.6716 5.80989 17.2283 5.37126 16.7012 5.05859C16.2567 4.79436 16.1102 4.21922 16.374 3.77441ZM10.1338 4.53711C8.07408 4.53711 6.4045 6.20697 6.4043 8.2666L6.40918 8.45898C6.50949 10.4292 8.13863 11.9951 10.1338 11.9951C12.1288 11.9949 13.7572 10.4291 13.8574 8.45898L13.8623 8.2666C13.8621 6.20714 12.1933 4.53736 10.1338 4.53711Z" fill="#040405"/>
</svg>
