<svg width="24" height="24" viewBox="0 0 24 24" fill="none" xmlns="http://www.w3.org/2000/svg">
<path d="M18.9658 8.65039C18.9658 8.57969 18.9377 8.51191 18.8877 8.46191C18.8377 8.41196 18.7699 8.38379 18.6992 8.38379H5.30078C4.81535 8.38379 4.34272 8.26674 3.91699 8.05273V18.6992C3.91699 19.0661 4.06287 19.4183 4.32227 19.6777C4.58166 19.9371 4.93395 20.083 5.30078 20.083H18.6992C18.7698 20.083 18.8377 20.0547 18.8877 20.0049C18.9376 19.955 18.9657 19.887 18.9658 19.8164V17.3164H16.4668C15.6491 17.3164 14.8643 16.9913 14.2861 16.4131C13.7081 15.835 13.3829 15.051 13.3828 14.2334C13.3828 13.4157 13.7079 12.6309 14.2861 12.0527C14.8643 11.4746 15.6492 11.1504 16.4668 11.1504H18.9658V8.65039ZM15.083 14.2334C15.0831 14.6001 15.229 14.9516 15.4883 15.2109C15.7477 15.4703 16.1 15.6162 16.4668 15.6162H20.083V12.8496H16.4668C16.1002 12.8497 15.7475 12.9957 15.4883 13.2549C15.2289 13.5143 15.083 13.8666 15.083 14.2334ZM16.7324 4.18359C16.7323 4.11305 16.7051 4.04502 16.6553 3.99512C16.6053 3.94512 16.5365 3.91699 16.4658 3.91699H5.30078C4.93395 3.91699 4.58166 4.06287 4.32227 4.32227C4.06287 4.58166 3.91699 4.93395 3.91699 5.30078C3.91706 5.66741 4.06308 6.01901 4.32227 6.27832C4.58166 6.53771 4.93395 6.68359 5.30078 6.68359H16.7324V4.18359ZM18.4326 6.68359H18.6992C19.2208 6.68359 19.721 6.891 20.0898 7.25977C20.4586 7.62857 20.666 8.12882 20.666 8.65039V11.1504H20.9326C21.4021 11.1504 21.7822 11.5306 21.7822 12V16.4668C21.782 16.936 21.4019 17.3164 20.9326 17.3164H20.666V19.8164C20.6659 20.3378 20.4586 20.8383 20.0898 21.207C19.7211 21.5756 19.2206 21.7822 18.6992 21.7822H5.30078C4.48308 21.7822 3.69832 21.4581 3.12012 20.8799C2.54191 20.3017 2.21777 19.5169 2.21777 18.6992V5.30078C2.21777 4.48308 2.54191 3.69832 3.12012 3.12012C3.69832 2.54191 4.48308 2.21777 5.30078 2.21777H16.4668L16.6611 2.22656C17.111 2.27132 17.5339 2.47061 17.8564 2.79297C18.2252 3.16169 18.4325 3.66216 18.4326 4.18359V6.68359Z" fill="#040405"/>
</svg>
