<svg xmlns="http://www.w3.org/2000/svg" fill="none" overflow="visible" preserveAspectRatio="none" style="display:block" viewBox="0 0 1432 890"><g clip-path="url(#a)" opacity=".3"><path fill="#B5AEFF" d="m1523.26 40.244-18.48-10.114-18.19 10.637 18.48 10.114zm-475.22 277.879-18.49-10.114-18.19 10.636 18.49 10.114zM572.811 596.001l-18.486-10.114-18.191 10.637 18.486 10.114zM97.584 873.88l-18.486-10.114-18.19 10.636 18.486 10.114zM1902.23 247.583l-18.49-10.114-18.19 10.637 18.49 10.114zM1427 525.462l-18.48-10.114-18.2 10.636 18.49 10.114zM951.775 803.34l-18.486-10.114-18.191 10.637 18.486 10.114zm-475.227 277.88-18.486-10.12-18.19 10.64 18.486 10.12zM2281.19 454.922l-18.48-10.114-18.19 10.637 18.48 10.114zm-475.22 277.879-18.49-10.114-18.19 10.636 18.49 10.114zm-475.23 277.879-18.49-10.11-18.19 10.63 18.49 10.12zm-475.228 277.88-18.486-10.12-18.19 10.64 18.486 10.11zM2660.16 662.261l-18.49-10.114-18.19 10.636 18.49 10.115zM2184.93 940.14l-18.49-10.114-18.19 10.636 18.49 10.114zm-475.23 277.88-18.48-10.12-18.19 10.64 18.48 10.11zm-475.22 277.88-18.49-10.12-18.19 10.64 18.49 10.11z"/><path fill="var(--fill-0, white)" fill-opacity=".2" d="m2748.06 680.173-3.67 2.143-3.72-2.037 3.66-2.143zm-34.04 19.901-3.67 2.143-3.72-2.036 3.67-2.143zm-34.04 19.902-3.66 2.143-3.72-2.037 3.66-2.143zm-34.03 19.901-3.67 2.143-3.72-2.036 3.67-2.143zm-34.04 19.901-3.66 2.144-3.72-2.037 3.66-2.143zm-34.03 19.902-3.67 2.143-3.72-2.036 3.67-2.144zm135.75-118.344-3.67 2.143-3.72-2.037 3.66-2.143zm-34.04 19.901-3.67 2.143-3.72-2.036 3.67-2.143zm-34.04 19.901-3.66 2.144-3.72-2.037 3.66-2.143zm-34.03 19.902-3.67 2.143-3.72-2.036 3.67-2.144zm-34.04 19.901-3.66 2.144-3.72-2.037 3.66-2.143zm-34.03 19.902-3.67 2.143-3.72-2.036 3.67-2.144zm135.75-118.345-3.67 2.144-3.72-2.037 3.66-2.143zm-34.04 19.902-3.66 2.143-3.73-2.036 3.67-2.144zm-34.03 19.901-3.67 2.144-3.72-2.037 3.66-2.143zm-34.04 19.902-3.67 2.143-3.72-2.036 3.67-2.144zm-34.04 19.901-3.66 2.143-3.72-2.036 3.66-2.143zm-34.03 19.902-3.67 2.143-3.72-2.037 3.67-2.143zm135.75-118.345-3.67 2.144-3.72-2.037 3.66-2.143zm-34.04 19.902-3.66 2.143-3.73-2.036 3.67-2.144zm-34.03 19.901-3.67 2.143-3.72-2.036 3.66-2.143zm-34.04 19.902-3.66 2.143-3.73-2.037 3.67-2.143zm-34.03 19.901-3.67 2.143-3.72-2.036 3.66-2.143zm-34.04 19.902-3.67 2.143-3.72-2.037 3.67-2.143zm135.75-118.345-3.67 2.143-3.72-2.036 3.66-2.143zm-34.04 19.902-3.66 2.143-3.73-2.037 3.67-2.143zm-34.03 19.901-3.67 2.143-3.72-2.036 3.66-2.143zm-34.04 19.902-3.66 2.143-3.73-2.037 3.67-2.143zm-34.03 19.901-3.67 2.143-3.72-2.036 3.66-2.143zm-34.04 19.902-3.67 2.143-3.72-2.037 3.67-2.143zm135.75-118.345-3.67 2.143-3.72-2.036 3.67-2.143zm-34.04 19.902-3.66 2.143-3.73-2.037 3.67-2.143zm-34.03 19.901-3.67 2.143-3.72-2.036 3.66-2.143zm-34.04 19.901-3.66 2.144-3.73-2.037 3.67-2.143zm-34.03 19.902-3.67 2.143-3.72-2.036 3.66-2.144zm-34.04 19.901-3.66 2.144-3.73-2.037 3.67-2.143zm135.75-118.344-3.67 2.143-3.72-2.036 3.67-2.143zm-34.04 19.901-3.66 2.144-3.72-2.037 3.66-2.143zm-34.03 19.902-3.67 2.143-3.72-2.036 3.66-2.144zm-34.04 19.901-3.66 2.144-3.73-2.037 3.67-2.143zm-34.03 19.902-3.67 2.143-3.72-2.036 3.66-2.144zm-34.04 19.901-3.66 2.143-3.73-2.036 3.67-2.143zm135.75-118.344-3.67 2.143-3.72-2.036 3.67-2.144zm-34.04 19.901-3.66 2.144-3.72-2.037 3.66-2.143zm-34.03 19.902-3.67 2.143-3.72-2.036 3.67-2.144zm-34.04 19.901-3.66 2.143-3.73-2.036 3.67-2.143zm-34.03 19.902-3.67 2.143-3.72-2.036 3.66-2.144zm-34.04 19.901-3.66 2.143-3.73-2.036 3.67-2.143zm135.75-118.344-3.67 2.143-3.72-2.036 3.67-2.144zm-34.04 19.901-3.66 2.143-3.72-2.036 3.66-2.143zm-34.03 19.902-3.67 2.143-3.72-2.037 3.67-2.143zm-34.04 19.901-3.66 2.143-3.72-2.036 3.66-2.143zm-34.03 19.902-3.67 2.143-3.72-2.037 3.67-2.143zm-34.04 19.901-3.66 2.143-3.73-2.036 3.67-2.143zm135.75-118.344-3.67 2.143-3.72-2.037 3.67-2.143zm-34.04 19.901-3.66 2.143-3.72-2.036 3.66-2.143zm-34.03 19.902-3.67 2.143-3.72-2.037 3.67-2.143zm-34.04 19.901-3.66 2.143-3.72-2.036 3.66-2.143zm-34.03 19.901-3.67 2.144-3.72-2.037 3.67-2.143zm-34.04 19.902-3.66 2.143-3.73-2.036 3.67-2.144zm135.75-118.344-3.67 2.143-3.72-2.037 3.67-2.143zm-34.04 19.901-3.66 2.143-3.72-2.036 3.66-2.143zm-34.03 19.901-3.67 2.144-3.72-2.037 3.67-2.143zm-34.04 19.902-3.66 2.143-3.72-2.036 3.66-2.144zm-34.03 19.901-3.67 2.144-3.72-2.037 3.67-2.143zm-34.04 19.902-3.66 2.143-3.72-2.036 3.66-2.144zm135.75-118.345-3.67 2.144-3.72-2.037 3.67-2.143zm-34.04 19.902-3.66 2.143-3.72-2.036 3.66-2.144zm-34.03 19.901-3.67 2.144-3.72-2.037 3.67-2.143zm-34.04 19.902-3.66 2.143-3.72-2.036 3.66-2.144zm-34.03 19.901-3.67 2.143-3.72-2.036 3.67-2.143zm-34.04 19.902-3.66 2.143-3.72-2.037 3.66-2.143zm135.75-118.345-3.67 2.144-3.72-2.037 3.67-2.143zm-34.04 19.902-3.66 2.143-3.72-2.036 3.66-2.144zm-34.03 19.901-3.67 2.143-3.72-2.036 3.67-2.143zm-34.04 19.902-3.66 2.143-3.72-2.037 3.66-2.143zm-34.03 19.901-3.67 2.143-3.72-2.036 3.67-2.143zm-34.04 19.902-3.66 2.143-3.72-2.037 3.66-2.143zm135.75-118.345-3.66 2.143-3.73-2.036 3.67-2.143zm-34.03 19.902-3.67 2.143-3.72-2.037 3.66-2.143zm-34.04 19.901-3.67 2.143-3.72-2.036 3.67-2.143zm-34.04 19.902-3.66 2.143-3.72-2.037 3.66-2.143zm-34.03 19.901-3.67 2.143-3.72-2.036 3.67-2.143zm-34.04 19.901-3.66 2.144-3.72-2.037 3.66-2.143zm135.75-118.344-3.66 2.143-3.73-2.036 3.67-2.143zm-34.03 19.902-3.67 2.143-3.72-2.037 3.66-2.143zm-34.04 19.901-3.66 2.143-3.73-2.036 3.67-2.143zm-34.03 19.901-3.67 2.144-3.72-2.037 3.66-2.143zm-34.04 19.902-3.67 2.143-3.72-2.036 3.67-2.144zm-34.04 19.901-3.66 2.144-3.72-2.037 3.66-2.143zm135.75-118.344-3.66 2.143-3.73-2.036 3.67-2.144zm-34.03 19.901-3.67 2.144-3.72-2.037 3.66-2.143zm-34.04 19.902-3.66 2.143-3.73-2.036 3.67-2.144zm-34.03 19.901-3.67 2.144-3.72-2.037 3.66-2.143zm-34.04 19.902-3.67 2.143-3.72-2.036 3.67-2.144zm-34.04 19.901-3.66 2.143-3.72-2.036 3.66-2.143zm135.75-118.344-3.66 2.143-3.73-2.036 3.67-2.144zm-34.03 19.901-3.67 2.143-3.72-2.036 3.66-2.143zm-34.04 19.902-3.66 2.143-3.73-2.037 3.67-2.143zm-34.03 19.901-3.67 2.143-3.72-2.036 3.66-2.143zm-34.04 19.902-3.66 2.143-3.73-2.037 3.67-2.143zm-34.03 19.901-3.67 2.143-3.72-2.036 3.66-2.143zm135.74-118.344-3.66 2.143-3.73-2.037 3.67-2.143zm-34.03 19.901-3.67 2.143-3.72-2.036 3.66-2.143zm-34.04 19.902-3.66 2.143-3.73-2.037 3.67-2.143zm-34.03 19.901-3.67 2.143-3.72-2.036 3.66-2.143zm-34.04 19.901-3.66 2.144-3.73-2.037 3.67-2.143zm-34.03 19.902-3.67 2.143-3.72-2.036 3.66-2.143zm135.74-118.344-3.66 2.143-3.72-2.037 3.66-2.143zm-34.03 19.901-3.67 2.143-3.72-2.036 3.67-2.143zm-34.04 19.902-3.66 2.143-3.73-2.037 3.67-2.143zm-34.03 19.901-3.67 2.143-3.72-2.036 3.66-2.144zm-34.04 19.901-3.66 2.144-3.73-2.037 3.67-2.143zm-34.03 19.902-3.67 2.143-3.72-2.036 3.66-2.144zm135.74-118.344-3.66 2.143-3.72-2.037 3.66-2.143zm-34.03 19.901-3.67 2.143-3.72-2.036 3.67-2.143zm-34.04 19.901-3.66 2.144-3.72-2.037 3.66-2.143zm-34.03 19.902-3.67 2.143-3.72-2.036 3.67-2.144zm-34.04 19.901-3.66 2.144-3.73-2.037 3.67-2.143zm-34.03 19.902-3.67 2.143-3.72-2.036 3.66-2.144zm135.74-118.345-3.66 2.144-3.72-2.037 3.66-2.143zm-34.03 19.902-3.67 2.143-3.72-2.036 3.67-2.144zm-34.04 19.901-3.66 2.143-3.72-2.036 3.66-2.143zm-34.03 19.902-3.67 2.143-3.72-2.037 3.67-2.143zm-34.04 19.901-3.66 2.143-3.73-2.036 3.67-2.143zm-34.03 19.902-3.67 2.143-3.72-2.037 3.66-2.143zm135.74-118.345-3.66 2.143-3.72-2.036 3.66-2.143zM1991 304.495l-3.67 2.143-3.72-2.036 3.67-2.144zm-34.04 19.901-3.66 2.143-3.72-2.036 3.66-2.143zm-34.03 19.902-3.67 2.143-3.72-2.037 3.67-2.143zm-34.04 19.901-3.66 2.143-3.72-2.036 3.66-2.143zm-34.03 19.902-3.67 2.143-3.72-2.037 3.67-2.143zm135.74-118.345-3.66 2.143-3.72-2.036 3.66-2.143zm-34.03 19.902-3.67 2.143-3.72-2.037 3.67-2.143zm-34.04 19.901-3.66 2.143-3.72-2.036 3.66-2.143zm-34.03 19.901-3.67 2.144-3.72-2.037 3.67-2.143zm-34.04 19.902-3.66 2.143-3.72-2.036 3.66-2.144zm-34.03 19.901-3.67 2.144-3.72-2.037 3.67-2.143zm135.74-118.344-3.66 2.143-3.72-2.036 3.66-2.143zm-34.03 19.901-3.67 2.144-3.72-2.037 3.67-2.143zm-34.04 19.902-3.66 2.143-3.72-2.036 3.66-2.144zm-34.03 19.901-3.67 2.144-3.72-2.037 3.67-2.143zm-34.04 19.902-3.66 2.143-3.72-2.036 3.66-2.144zM1786 346.426l-3.67 2.144-3.72-2.037 3.67-2.143zm135.75-118.344-3.67 2.143-3.72-2.036 3.66-2.144zm-34.04 19.901-3.67 2.144-3.72-2.037 3.67-2.143zm-34.04 19.902-3.66 2.143-3.72-2.036 3.66-2.144zm-34.03 19.901-3.67 2.143-3.72-2.036 3.67-2.143zm-34.04 19.902-3.66 2.143-3.72-2.036 3.66-2.144zm-34.03 19.901-3.67 2.143-3.72-2.036 3.67-2.143zm135.75-118.344-3.67 2.143-3.72-2.036 3.66-2.144zm-34.04 19.901-3.66 2.143-3.73-2.036 3.67-2.143zm-34.03 19.902-3.67 2.143-3.72-2.037 3.66-2.143zm-34.04 19.901-3.67 2.143-3.72-2.036 3.67-2.143zm-34.04 19.902-3.66 2.143-3.72-2.037 3.66-2.143zm-34.03 19.901-3.67 2.143-3.72-2.036 3.67-2.143zm135.75-118.344-3.67 2.143-3.72-2.037 3.66-2.143zm-34.04 19.901-3.66 2.143-3.73-2.036 3.67-2.143zm-34.03 19.902-3.67 2.143-3.72-2.037 3.66-2.143zm-34.04 19.901-3.67 2.143-3.72-2.036 3.67-2.143zm-34.04 19.901-3.66 2.144-3.72-2.037 3.66-2.143zm-34.03 19.902-3.67 2.143-3.72-2.036 3.67-2.144zm135.75-118.344-3.67 2.143-3.72-2.037 3.66-2.143zm-34.04 19.901-3.66 2.143-3.73-2.036 3.67-2.143zm-34.03 19.901-3.67 2.144-3.72-2.037 3.66-2.143zm-34.04 19.902-3.66 2.143-3.73-2.036 3.67-2.144zm-34.03 19.901-3.67 2.144-3.72-2.037 3.66-2.143zm-34.04 19.902-3.67 2.143-3.72-2.036 3.67-2.144zm135.75-118.345-3.67 2.144-3.72-2.037 3.66-2.143zm-34.04 19.902-3.66 2.143-3.73-2.036 3.67-2.144zm-34.03 19.901-3.67 2.144-3.72-2.037 3.66-2.143zm-34.04 19.902-3.66 2.143-3.73-2.036 3.67-2.144zm-34.03 19.901-3.67 2.143-3.72-2.036 3.66-2.143zm-34.04 19.902-3.67 2.143-3.72-2.037 3.67-2.143zm135.75-118.345-3.67 2.144-3.72-2.037 3.67-2.143zm-34.04 19.902-3.66 2.143-3.73-2.036 3.67-2.144zm-34.03 19.901-3.67 2.143-3.72-2.036 3.66-2.143zm-34.04 19.902-3.66 2.143-3.73-2.037 3.67-2.143zm-34.03 19.901-3.67 2.143-3.72-2.036 3.66-2.143zm-34.04 19.902-3.66 2.143-3.73-2.037 3.67-2.143zm135.75-118.345-3.67 2.143-3.72-2.036 3.67-2.143zm-34.04 19.902-3.66 2.143-3.72-2.037 3.66-2.143zm-34.03 19.901-3.67 2.143-3.72-2.036 3.67-2.143zm-34.04 19.902-3.66 2.143-3.73-2.037 3.67-2.143zm-34.03 19.901-3.67 2.143-3.72-2.036 3.66-2.143zm-34.04 19.901-3.66 2.144-3.73-2.037 3.67-2.143zm135.75-118.344-3.67 2.143-3.72-2.036 3.67-2.143zm-34.04 19.902-3.66 2.143-3.72-2.037 3.66-2.143zm-34.03 19.901-3.67 2.143-3.72-2.036 3.67-2.143zm-34.04 19.901-3.66 2.144-3.73-2.037 3.67-2.143zm-34.03 19.902-3.67 2.143-3.72-2.036 3.66-2.144zm-34.04 19.901-3.66 2.144-3.73-2.037 3.67-2.143zm135.75-118.344-3.67 2.143-3.72-2.036 3.67-2.144zm-34.04 19.901-3.66 2.144-3.72-2.037 3.66-2.143zm-34.03 19.902-3.67 2.143-3.72-2.036 3.67-2.144zm-34.04 19.901-3.66 2.143-3.72-2.036 3.66-2.143zm-34.03 19.902-3.67 2.143-3.72-2.036 3.67-2.144zm-34.04 19.901-3.66 2.143-3.73-2.036 3.67-2.143zm135.75-118.344-3.67 2.143-3.72-2.036 3.67-2.144zm-34.04 19.902-3.66 2.142-3.72-2.036 3.66-2.143zm-34.03 19.9-3.67 2.144-3.72-2.037 3.67-2.143zm-34.04 19.902-3.66 2.143-3.72-2.036 3.66-2.143zm-34.03 19.902-3.67 2.143-3.72-2.037 3.67-2.143zm-34.04 19.901-3.66 2.143-3.73-2.036 3.67-2.143zM1577.45 39.71l-3.67 2.144-3.72-2.036 3.67-2.144zm-34.04 19.902-3.66 2.143-3.72-2.036 3.66-2.143zm-34.03 19.902-3.67 2.143-3.72-2.037 3.67-2.143zm-34.04 19.901-3.66 2.143-3.72-2.036 3.66-2.143zm-34.03 19.902-3.67 2.143-3.72-2.037 3.67-2.143zm-34.04 19.901-3.66 2.143-3.72-2.036 3.66-2.143zm135.75-118.344-3.67 2.143-3.72-2.037 3.67-2.143zm-34.04 19.901-3.66 2.143-3.72-2.036 3.66-2.143zm-34.03 19.902-3.67 2.143-3.72-2.037 3.67-2.143zm-34.04 19.901-3.66 2.143-3.72-2.036 3.66-2.144zm-34.03 19.901-3.67 2.144-3.72-2.037 3.67-2.143zm-34.04 19.902-3.66 2.143-3.72-2.036 3.66-2.144zM1508.59 2.036l-3.66 2.144-3.73-2.037L1504.87 0zm-34.04 19.902-3.66 2.143-3.72-2.036 3.66-2.144zm-34.03 19.902-3.67 2.143-3.72-2.037 3.67-2.143zm-34.04 19.9-3.66 2.144-3.72-2.036 3.66-2.144zm-34.03 19.902-3.67 2.144-3.72-2.037 3.67-2.143zm-34.04 19.902-3.66 2.143-3.72-2.037 3.66-2.143zm1203.61 699.103-3.67 2.144-3.72-2.037 3.67-2.143zm-34.04 19.902-3.66 2.143-3.72-2.036 3.66-2.143zm-34.03 19.901-3.67 2.144-3.72-2.037 3.67-2.143zm-34.04 19.902-3.66 2.143-3.72-2.036 3.66-2.143zm-34.03 19.901-3.67 2.143-3.72-2.036 3.67-2.143zm-34.04 19.902-3.66 2.143-3.72-2.036 3.66-2.144zm-34.03 19.901-3.67 2.143-3.72-2.036 3.67-2.143zm-34.04 19.902-3.66 2.143-3.72-2.037 3.66-2.143zm-34.03 19.901-3.67 2.143-3.72-2.036 3.66-2.143zm-34.04 19.901-3.66 2.144-3.73-2.037 3.67-2.143zm-34.03 19.902-3.67 2.148-3.72-2.041 3.66-2.144zm-34.04 19.898-3.66 2.15-3.73-2.04 3.67-2.14zm-34.03 19.9-3.67 2.15-3.72-2.04 3.66-2.14zm-34.04 19.91-3.67 2.14-3.72-2.04 3.67-2.14zm-34.04 19.9-3.66 2.14-3.72-2.04 3.66-2.14zm-34.03 19.9-3.67 2.14-3.72-2.03 3.67-2.15zm-34.04 19.9-3.66 2.14-3.72-2.03 3.66-2.15zm-34.03 19.9-3.67 2.15-3.72-2.04 3.67-2.14zm-34.04 19.9-3.66 2.15-3.72-2.04 3.66-2.14zm-34.03 19.9-3.67 2.15-3.72-2.04 3.67-2.14zm-34.04 19.91-3.66 2.14-3.73-2.04 3.67-2.14zm-34.03 19.9-3.67 2.14-3.72-2.04 3.66-2.14zm-34.04 19.9-3.66 2.14-3.73-2.03 3.67-2.15zm-34.03 19.9-3.67 2.14-3.72-2.03 3.66-2.15zm-34.04 19.9-3.66 2.15-3.73-2.04 3.67-2.14zm-34.03 19.9-3.67 2.15-3.72-2.04 3.66-2.14zm-34.04 19.91-3.67 2.14-3.72-2.04 3.67-2.14zm-34.04 19.9-3.66 2.14-3.72-2.04 3.66-2.14zm-34.03 19.9-3.67 2.14-3.72-2.04 3.67-2.14zm918.56-576.08-3.67 2.144-3.72-2.037 3.67-2.143zm-34.04 19.902-3.66 2.143-3.72-2.036 3.66-2.144zm-34.03 19.901-3.67 2.143-3.72-2.036 3.67-2.143zm-34.04 19.902-3.66 2.143-3.72-2.037 3.66-2.143zm-34.03 19.901-3.67 2.143-3.72-2.036 3.67-2.143zm-34.04 19.902-3.66 2.143-3.72-2.037 3.66-2.143zm-34.03 19.901-3.67 2.143-3.72-2.036 3.67-2.143zm-34.04 19.901-3.66 2.144-3.72-2.037 3.66-2.143zm-34.03 19.902-3.67 2.143-3.72-2.036 3.67-2.143zm-34.04 19.901-3.66 2.144-3.73-2.037 3.67-2.143zm-34.03 19.902-3.67 2.143-3.72-2.036 3.66-2.144zm-34.04 19.905-3.66 2.14-3.73-2.04 3.67-2.14zm-34.03 19.9-3.67 2.14-3.72-2.04 3.66-2.14zm-34.04 19.9-3.66 2.14-3.73-2.03 3.67-2.15zm-34.03 19.9-3.67 2.14-3.72-2.03 3.66-2.15zm-34.04 19.9-3.67 2.15-3.72-2.04 3.67-2.14zm-34.04 19.9-3.66 2.15-3.72-2.04 3.66-2.14zm-34.03 19.9-3.67 2.15-3.72-2.04 3.67-2.14zm-34.04 19.91-3.66 2.14-3.72-2.04 3.66-2.14zm-34.03 19.9-3.67 2.14-3.72-2.04 3.67-2.14zm-34.04 19.9-3.66 2.14-3.72-2.03 3.66-2.15zm-34.03 19.9-3.67 2.14-3.72-2.03 3.67-2.15zm-34.04 19.9-3.66 2.15-3.73-2.04 3.67-2.14zm-34.03 19.9-3.67 2.15-3.72-2.04 3.66-2.14zm-34.04 19.91-3.66 2.14-3.73-2.04 3.67-2.14zm-34.03 19.9-3.67 2.14-3.72-2.04 3.66-2.14zm-34.04 19.9-3.66 2.14-3.73-2.04 3.67-2.14zm-34.03 19.9-3.67 2.14-3.72-2.03 3.66-2.15zm-34.04 19.9-3.67 2.14-3.72-2.03 3.67-2.15zm918.56-576.077-3.66 2.143-3.73-2.036 3.67-2.143zm-34.03 19.902-3.67 2.143-3.72-2.037 3.66-2.143zm-34.04 19.901-3.67 2.143-3.72-2.036 3.67-2.143zm-34.04 19.902-3.66 2.143-3.72-2.037 3.66-2.143zm-34.03 19.901-3.67 2.143-3.72-2.036 3.67-2.143zm-34.04 19.901-3.66 2.144-3.72-2.037 3.66-2.143zm-34.03 19.902-3.67 2.143-3.72-2.036 3.67-2.144zm-34.04 19.901-3.66 2.144-3.72-2.037 3.66-2.143zm-34.03 19.902-3.67 2.143-3.72-2.036 3.67-2.144zm-34.04 19.901-3.66 2.143-3.73-2.036 3.67-2.143zm-34.03 19.902-3.67 2.143-3.72-2.037 3.66-2.143zm-34.04 19.901-3.66 2.143-3.73-2.036 3.67-2.143zm-34.03 19.901-3.67 2.14-3.72-2.03 3.66-2.146zm-34.04 19.9-3.66 2.15-3.73-2.04 3.67-2.14zm-34.03 19.9-3.67 2.15-3.72-2.04 3.66-2.14zm-34.04 19.9-3.67 2.15-3.72-2.04 3.67-2.14zm-34.04 19.91-3.66 2.14-3.72-2.04 3.66-2.14zm-34.03 19.9-3.67 2.14-3.72-2.04 3.67-2.14zm-34.04 19.9-3.66 2.14-3.72-2.03 3.66-2.15zm-34.03 19.9-3.67 2.14-3.72-2.03 3.67-2.15zm-34.04 19.9-3.66 2.15-3.72-2.04 3.66-2.14zm-34.03 19.9-3.67 2.15-3.72-2.04 3.67-2.14zm-34.04 19.91-3.66 2.14-3.73-2.04 3.67-2.14zm-34.03 19.9-3.67 2.14-3.72-2.04 3.66-2.14zm-34.04 19.9-3.66 2.14-3.73-2.04 3.67-2.14zm-34.03 19.9-3.67 2.14-3.72-2.03 3.66-2.15zm-34.04 19.9-3.66 2.14-3.73-2.03 3.67-2.15zm-34.03 19.9-3.67 2.15-3.72-2.04 3.66-2.14zm-34.04 19.9-3.67 2.15-3.72-2.04 3.67-2.14zm918.56-576.074-3.66 2.143-3.73-2.036 3.67-2.143zm-34.03 19.902-3.67 2.143-3.72-2.037 3.66-2.143zm-34.04 19.901-3.66 2.143-3.73-2.036 3.67-2.143zm-34.04 19.902-3.66 2.143-3.72-2.037 3.66-2.143zm-34.03 19.901-3.67 2.143-3.72-2.036 3.67-2.144zm-34.04 19.901-3.66 2.144-3.72-2.037 3.66-2.143zm-34.03 19.902-3.67 2.143-3.72-2.036 3.67-2.144zm-34.04 19.901-3.66 2.143-3.72-2.036 3.66-2.143zm-34.03 19.902-3.67 2.143-3.72-2.036 3.67-2.144zm-34.04 19.901-3.66 2.143-3.72-2.036 3.66-2.143zm-34.03 19.902-3.67 2.143-3.72-2.037 3.67-2.143zm-34.04 19.901-3.66 2.143-3.73-2.036 3.67-2.143zm-34.03 19.901-3.67 2.144-3.72-2.037 3.66-2.143zm-34.04 19.897-3.66 2.15-3.73-2.04 3.67-2.14zm-34.03 19.91-3.67 2.14-3.72-2.04 3.66-2.14zm-34.04 19.9-3.66 2.14-3.73-2.04 3.67-2.14zm-34.03 19.9-3.67 2.14-3.72-2.03 3.66-2.15zm-34.04 19.9-3.67 2.14-3.72-2.03 3.67-2.15zm-34.04 19.9-3.66 2.15-3.72-2.04 3.66-2.14zm-34.03 19.9-3.67 2.15-3.72-2.04 3.67-2.14zm-34.04 19.91-3.66 2.14-3.72-2.04 3.66-2.14zm-34.03 19.9-3.67 2.14-3.72-2.04 3.67-2.14zm-34.04 19.9-3.66 2.14-3.72-2.04 3.66-2.14zm-34.03 19.9-3.67 2.14-3.72-2.03 3.67-2.15zm-34.04 19.9-3.66 2.14-3.73-2.03 3.67-2.15zm-34.03 19.9-3.67 2.15-3.72-2.04 3.66-2.14zm-34.04 19.9-3.66 2.15-3.73-2.04 3.67-2.14zm-34.03 19.91-3.67 2.14-3.72-2.04 3.66-2.14zm-34.04 19.9-3.66 2.14-3.73-2.04 3.67-2.14zm918.56-576.081-3.66 2.143-3.73-2.036 3.67-2.143zm-34.03 19.901-3.67 2.144-3.72-2.037 3.66-2.143zm-34.04 19.902-3.66 2.143-3.73-2.036 3.67-2.144zm-34.03 19.901-3.67 2.144-3.72-2.037 3.66-2.143zm-34.04 19.902-3.67 2.143-3.72-2.036 3.67-2.144zm-34.04 19.901-3.66 2.143-3.72-2.036 3.66-2.143zm-34.03 19.902-3.67 2.143-3.72-2.037 3.67-2.143zm-34.04 19.901-3.66 2.143-3.72-2.036 3.66-2.143zm-34.03 19.902-3.67 2.143-3.72-2.037 3.67-2.143zm-34.04 19.901-3.66 2.143-3.72-2.036 3.66-2.143zm-34.03 19.901-3.67 2.144-3.72-2.037 3.67-2.143zm-34.04 19.902-3.66 2.143-3.73-2.036 3.67-2.143zm-34.03 19.901-3.67 2.144-3.72-2.037 3.66-2.143zm-34.04 19.902-3.66 2.143-3.73-2.036 3.67-2.144zm-34.03 19.902-3.67 2.14-3.72-2.03 3.66-2.15zm-34.04 19.9-3.66 2.14-3.73-2.03 3.67-2.15zm-34.03 19.9-3.67 2.15-3.72-2.04 3.66-2.14zm-34.04 19.9-3.67 2.15-3.72-2.04 3.67-2.14zm-34.04 19.91-3.66 2.14-3.72-2.04 3.66-2.14zm-34.03 19.9-3.67 2.14-3.72-2.04 3.67-2.14zm-34.04 19.9-3.66 2.14-3.72-2.04 3.66-2.14zm-34.03 19.9-3.67 2.14-3.72-2.03 3.67-2.15zm-34.04 19.9-3.66 2.14-3.72-2.03 3.66-2.15zm-34.03 19.9-3.67 2.15-3.72-2.04 3.67-2.14zm-34.04 19.9-3.66 2.15-3.72-2.04 3.66-2.14zm-34.03 19.91-3.67 2.14-3.72-2.04 3.67-2.14zm-34.04 19.9-3.66 2.14-3.73-2.04 3.67-2.14zm-34.03 19.9-3.67 2.14-3.72-2.04 3.66-2.14zm-34.04 19.9-3.66 2.14-3.73-2.03 3.67-2.15zm918.56-576.078-3.66 2.143-3.73-2.036 3.67-2.144zm-34.03 19.901-3.67 2.144-3.72-2.037 3.66-2.143zm-34.04 19.902-3.66 2.143-3.73-2.036 3.67-2.144zm-34.03 19.901-3.67 2.143-3.72-2.036 3.66-2.143zm-34.04 19.902-3.66 2.143-3.73-2.037 3.67-2.143zm-34.03 19.901-3.67 2.143-3.72-2.036 3.66-2.143zm-34.04 19.902-3.67 2.143-3.72-2.037 3.67-2.143zm-34.04 19.901-3.66 2.143-3.72-2.036 3.66-2.143zm-34.03 19.901-3.67 2.144-3.72-2.037 3.67-2.143zm-34.04 19.902-3.66 2.143-3.72-2.036 3.66-2.144zm-34.03 19.901-3.67 2.144-3.72-2.037 3.67-2.143zm-34.04 19.902-3.66 2.143-3.72-2.036 3.66-2.144zm-34.03 19.901-3.67 2.144-3.72-2.037 3.67-2.143zm-34.04 19.902-3.66 2.143-3.73-2.036 3.67-2.144zm-34.03 19.901-3.67 2.143-3.72-2.036 3.66-2.143zm-34.04 19.898-3.66 2.15-3.73-2.04 3.67-2.14zm-34.03 19.91-3.67 2.14-3.72-2.04 3.66-2.14zm-34.04 19.9-3.66 2.14-3.73-2.04 3.67-2.14zm-34.03 19.9-3.67 2.14-3.72-2.04 3.66-2.14zm-34.04 19.9-3.67 2.14-3.72-2.03 3.67-2.15zm-34.04 19.9-3.66 2.14-3.72-2.03 3.66-2.15zm-34.03 19.9-3.67 2.15-3.72-2.04 3.67-2.14zm-34.04 19.9-3.66 2.15-3.72-2.04 3.66-2.14zm-34.03 19.91-3.67 2.14-3.72-2.04 3.67-2.14zm-34.04 19.9-3.66 2.14-3.72-2.04 3.66-2.14zm-34.03 19.9-3.67 2.14-3.72-2.04 3.67-2.14zm-34.04 19.9-3.66 2.14-3.73-2.03 3.67-2.15zm-34.03 19.9-3.67 2.14-3.72-2.03 3.66-2.15zm-34.04 19.9-3.66 2.15-3.73-2.04 3.67-2.14zm918.56-576.075-3.66 2.143-3.73-2.036 3.67-2.144zm-34.03 19.901-3.67 2.143-3.72-2.036 3.66-2.143zm-34.04 19.902-3.66 2.143-3.73-2.037 3.67-2.143zm-34.03 19.901-3.67 2.143-3.72-2.036 3.66-2.143zm-34.04 19.902-3.66 2.143-3.73-2.037 3.67-2.143zm-34.03 19.901-3.67 2.143-3.72-2.036 3.66-2.143zm-34.04 19.901-3.67 2.144-3.72-2.037 3.67-2.143zm-34.04 19.902-3.66 2.143-3.72-2.036 3.66-2.144zm-34.03 19.901-3.67 2.144-3.72-2.037 3.67-2.143zm-34.04 19.902-3.66 2.143-3.72-2.036 3.66-2.144zm-34.03 19.901-3.67 2.144-3.72-2.037 3.67-2.143zm-34.04 19.902-3.66 2.143-3.72-2.036 3.66-2.144zm-34.03 19.901-3.67 2.143-3.72-2.036 3.67-2.143zm-34.04 19.902-3.66 2.143-3.73-2.037 3.67-2.143zm-34.03 19.901-3.67 2.143-3.72-2.036 3.67-2.143zm-34.04 19.902-3.66 2.143-3.73-2.037 3.67-2.143zm-34.03 19.903-3.67 2.14-3.72-2.04 3.66-2.14zm-34.04 19.9-3.66 2.14-3.73-2.03 3.67-2.15zm-34.03 19.9-3.67 2.14-3.72-2.03 3.66-2.15zm-34.04 19.9-3.67 2.15-3.72-2.04 3.67-2.14zm-34.04 19.9-3.66 2.15-3.72-2.04 3.66-2.14zm-34.03 19.91-3.67 2.14-3.72-2.04 3.67-2.14zm-34.04 19.9-3.66 2.14-3.72-2.04 3.66-2.14zm-34.03 19.9-3.67 2.14-3.72-2.04 3.67-2.14zm-34.04 19.9-3.66 2.14-3.72-2.03 3.66-2.15zm-34.03 19.9-3.67 2.14-3.72-2.03 3.67-2.15zm-34.04 19.9-3.66 2.15-3.72-2.04 3.66-2.14zm-34.03 19.9-3.67 2.15-3.72-2.04 3.67-2.14zm-34.04 19.91-3.66 2.14-3.73-2.04 3.67-2.14zm918.56-576.082-3.66 2.143-3.72-2.037 3.66-2.143zm-34.03 19.901-3.67 2.143-3.72-2.036 3.67-2.143zm-34.04 19.902-3.66 2.143-3.73-2.037 3.67-2.143zm-34.03 19.901-3.67 2.143-3.72-2.036 3.66-2.143zm-34.04 19.901-3.66 2.144-3.73-2.037 3.67-2.143zm-34.03 19.902-3.67 2.143-3.72-2.036 3.66-2.144zm-34.04 19.901-3.66 2.144-3.73-2.037 3.67-2.143zm-34.03 19.902-3.67 2.143-3.72-2.036 3.66-2.144zm-34.04 19.901-3.67 2.144-3.72-2.037 3.67-2.143zm-34.04 19.902-3.66 2.143-3.72-2.037 3.66-2.143zm-34.03 19.901-3.67 2.143-3.72-2.036 3.67-2.143zm-34.04 19.902-3.66 2.143-3.72-2.037 3.66-2.143zm-34.03 19.901-3.67 2.143-3.72-2.036 3.67-2.143zm-34.04 19.902-3.66 2.143-3.72-2.037 3.66-2.143zm-34.03 19.901-3.67 2.143-3.72-2.036 3.67-2.144zm-34.04 19.901-3.66 2.144-3.73-2.037 3.67-2.143zm-34.03 19.902-3.67 2.143-3.72-2.036 3.66-2.144zm-34.04 19.899-3.66 2.15-3.73-2.04 3.67-2.14zm-34.03 19.9-3.67 2.15-3.72-2.04 3.66-2.14zm-34.04 19.91-3.66 2.14-3.73-2.04 3.67-2.14zm-34.03 19.9-3.67 2.14-3.72-2.04 3.66-2.14zm-34.04 19.9-3.67 2.14-3.72-2.04 3.67-2.14zm-34.04 19.9-3.66 2.14-3.72-2.03 3.66-2.15zm-34.03 19.9-3.67 2.14-3.72-2.03 3.67-2.15zm-34.04 19.9-3.66 2.15-3.72-2.04 3.66-2.14zm-34.03 19.9-3.67 2.15-3.72-2.04 3.67-2.14zm-34.04 19.91-3.66 2.14-3.72-2.04 3.66-2.14zm-34.03 19.9-3.67 2.14-3.72-2.04 3.67-2.14zm-34.04 19.9-3.66 2.14-3.73-2.03 3.67-2.15zm918.56-576.079-3.66 2.143-3.72-2.037 3.66-2.143zm-34.03 19.901-3.67 2.143-3.72-2.036 3.67-2.143zm-34.04 19.901-3.66 2.144-3.72-2.037 3.66-2.143zm-34.03 19.902-3.67 2.143-3.72-2.036 3.67-2.144zm-34.04 19.901-3.66 2.144-3.73-2.037 3.67-2.143zm-34.03 19.902-3.67 2.143-3.72-2.036 3.66-2.144zm-34.04 19.901-3.66 2.144-3.73-2.037 3.67-2.143zm-34.03 19.902-3.67 2.143-3.72-2.037 3.66-2.143zm-34.04 19.901-3.67 2.143-3.72-2.036 3.67-2.143zm-34.04 19.902-3.66 2.143-3.72-2.037 3.66-2.143zm-34.03 19.901-3.67 2.143-3.72-2.036 3.67-2.143zm-34.04 19.902-3.66 2.143-3.72-2.037 3.66-2.143zm-34.03 19.901-3.67 2.143-3.72-2.036 3.67-2.144zm-34.04 19.901-3.66 2.144-3.72-2.037 3.66-2.143zm-34.03 19.902-3.67 2.143-3.72-2.036 3.67-2.144zm-34.04 19.901-3.66 2.144-3.72-2.037 3.66-2.143zm-34.03 19.902-3.67 2.143-3.72-2.036 3.67-2.144zm-34.04 19.901-3.66 2.143-3.73-2.036 3.67-2.143zm-34.03 19.905-3.67 2.14-3.72-2.04 3.66-2.14zm-34.04 19.9-3.66 2.14-3.73-2.04 3.67-2.14zm-34.03 19.9-3.67 2.14-3.72-2.03 3.66-2.15zm-34.04 19.9-3.67 2.14-3.72-2.03 3.67-2.15zm-34.04 19.9-3.66 2.15-3.72-2.04 3.66-2.14zm-34.03 19.9-3.67 2.15-3.72-2.04 3.67-2.14zm-34.04 19.91-3.66 2.14-3.72-2.04 3.66-2.14zm-34.03 19.9-3.67 2.14-3.72-2.04 3.67-2.14zm-34.04 19.9-3.66 2.14-3.72-2.03 3.66-2.15zm-34.03 19.9-3.67 2.14-3.72-2.03 3.67-2.15zm-34.04 19.9-3.66 2.14-3.72-2.03 3.66-2.15zm918.56-576.077-3.66 2.144-3.72-2.037 3.66-2.143zm-34.03 19.902-3.67 2.143-3.72-2.036 3.67-2.144zm-34.04 19.901-3.66 2.144-3.72-2.037 3.66-2.143zm-34.03 19.902-3.67 2.143-3.72-2.036 3.67-2.144zm-34.04 19.901-3.66 2.143-3.73-2.036 3.67-2.143zm-34.03 19.902-3.67 2.143-3.72-2.037 3.66-2.143zm-34.04 19.901-3.66 2.143-3.73-2.036 3.67-2.143zm-34.03 19.902-3.67 2.143-3.72-2.037 3.66-2.143zm-34.04 19.901-3.66 2.143-3.73-2.036 3.67-2.143zm-34.03 19.901-3.67 2.144-3.72-2.037 3.66-2.143zm-34.04 19.902-3.67 2.143-3.72-2.036 3.67-2.144zm-34.04 19.901-3.66 2.144-3.72-2.037 3.66-2.143zm-34.03 19.902-3.67 2.143-3.72-2.036 3.67-2.144zm-34.04 19.901-3.66 2.144-3.72-2.037 3.66-2.143zm-34.03 19.902-3.67 2.143-3.72-2.036 3.67-2.144zm-34.04 19.901-3.66 2.143-3.72-2.036 3.66-2.143zm-34.03 19.902-3.67 2.143-3.72-2.037 3.67-2.143zm-34.04 19.901-3.66 2.143-3.73-2.036 3.67-2.143zm-34.03 19.902-3.67 2.143-3.72-2.037 3.66-2.143zm-34.04 19.9-3.66 2.14-3.73-2.03 3.67-2.15zm-34.03 19.9-3.67 2.15-3.72-2.04 3.66-2.14zm-34.04 19.9-3.66 2.15-3.73-2.04 3.67-2.14zm-34.03 19.91-3.67 2.14-3.72-2.04 3.66-2.14zm-34.04 19.9-3.67 2.14-3.72-2.04 3.67-2.14zm-34.04 19.9-3.66 2.14-3.72-2.03 3.66-2.15zm-34.03 19.9-3.67 2.14-3.72-2.03 3.67-2.15zm-34.04 19.9-3.66 2.14-3.72-2.03 3.66-2.15zm-34.03 19.9-3.67 2.15-3.72-2.04 3.67-2.14zm-34.04 19.9-3.66 2.15-3.72-2.04 3.66-2.14zm918.56-576.074-3.66 2.144-3.72-2.037 3.66-2.143zm-34.03 19.902-3.67 2.143-3.72-2.036 3.67-2.144zm-34.04 19.901-3.66 2.143-3.72-2.036 3.66-2.143zm-34.03 19.902-3.67 2.143-3.72-2.036 3.67-2.144zm-34.04 19.901-3.66 2.143-3.72-2.036 3.66-2.143zm-34.03 19.902-3.67 2.143-3.72-2.037 3.67-2.143zm-34.04 19.901-3.66 2.143-3.73-2.036 3.67-2.143zm-34.03 19.901-3.67 2.144-3.72-2.037 3.66-2.143zm-34.04 19.902-3.66 2.143-3.73-2.036 3.67-2.144zm-34.03 19.901-3.67 2.144-3.72-2.037 3.66-2.143zm-34.04 19.902-3.66 2.143-3.73-2.036 3.67-2.144zm-34.04 19.901-3.66 2.144-3.72-2.037 3.66-2.143zm-34.03 19.902-3.67 2.143-3.72-2.036 3.67-2.144zm-34.04 19.901-3.66 2.143-3.72-2.036 3.66-2.143zm-34.03 19.902-3.67 2.143-3.72-2.037 3.67-2.143zm-34.04 19.901-3.66 2.143-3.72-2.036 3.66-2.143zm-34.03 19.902-3.67 2.143-3.72-2.037 3.67-2.143zm-34.04 19.901-3.66 2.143-3.72-2.036 3.66-2.144zm-34.03 19.901-3.67 2.144-3.72-2.037 3.67-2.143zm-34.04 19.902-3.66 2.143-3.73-2.036 3.67-2.144zm-34.03 19.906-3.67 2.14-3.72-2.04 3.66-2.14zm-34.04 19.9-3.66 2.14-3.73-2.04 3.67-2.14zm-34.03 19.9-3.67 2.14-3.72-2.03 3.66-2.15zm-34.04 19.9-3.66 2.14-3.73-2.03 3.67-2.15zm-34.04 19.9-3.66 2.14-3.72-2.03 3.66-2.15zm-34.03 19.9-3.67 2.15-3.72-2.04 3.67-2.14zm-34.04 19.9-3.66 2.15-3.72-2.04 3.66-2.14zm-34.03 19.91-3.67 2.14-3.72-2.04 3.67-2.14zm-34.04 19.9-3.66 2.14-3.72-2.04 3.66-2.14zm918.56-576.081-3.66 2.143-3.72-2.036 3.66-2.143zm-34.03 19.902-3.67 2.143-3.72-2.037 3.67-2.143zm-34.04 19.901-3.66 2.143-3.72-2.036 3.66-2.143zm-34.03 19.902-3.67 2.143-3.72-2.037 3.67-2.143zm-34.04 19.901-3.66 2.143-3.72-2.036 3.66-2.143zm-34.03 19.901-3.67 2.144-3.72-2.037 3.67-2.143zm-34.04 19.902-3.66 2.143-3.73-2.036 3.67-2.144zm-34.03 19.901-3.67 2.144-3.72-2.037 3.66-2.143zm-34.04 19.902-3.66 2.143-3.73-2.036 3.67-2.144zm-34.03 19.901-3.67 2.143-3.72-2.036 3.66-2.143zm-34.04 19.902-3.66 2.143-3.73-2.036 3.67-2.144zm-34.03 19.901-3.67 2.143-3.72-2.036 3.66-2.143zm-34.04 19.902-3.67 2.143-3.72-2.037 3.67-2.143zm-34.04 19.901-3.66 2.143-3.72-2.036 3.66-2.143zm-34.03 19.901-3.67 2.144-3.72-2.037 3.67-2.143zm-34.04 19.902-3.66 2.143-3.72-2.036 3.66-2.144zm-34.03 19.901-3.67 2.144-3.72-2.037 3.67-2.143zm-34.04 19.902-3.66 2.143-3.72-2.036 3.66-2.144zm-34.03 19.901-3.67 2.144-3.72-2.037 3.67-2.143zm-34.04 19.902-3.66 2.143-3.73-2.036 3.67-2.144zm-34.03 19.901-3.67 2.143-3.72-2.036 3.66-2.143zm-34.04 19.902-3.66 2.14-3.73-2.03 3.67-2.15zm-34.03 19.9-3.67 2.14-3.72-2.03 3.66-2.15zm-34.04 19.9-3.66 2.15-3.73-2.04 3.67-2.14zm-34.03 19.9-3.67 2.15-3.72-2.04 3.66-2.14zm-34.04 19.91-3.67 2.14-3.72-2.04 3.67-2.14zm-34.04 19.9-3.66 2.14-3.72-2.04 3.66-2.14zm-34.03 19.9-3.67 2.14-3.72-2.03 3.67-2.15zm-34.04 19.9-3.66 2.14-3.72-2.03 3.66-2.15zm918.56-576.078-3.66 2.143-3.72-2.036 3.66-2.143zm-34.03 19.902-3.67 2.143-3.72-2.037 3.67-2.143zm-34.04 19.901-3.66 2.143-3.72-2.036 3.66-2.143zm-34.03 19.901-3.67 2.144-3.72-2.037 3.67-2.143zm-34.04 19.902-3.66 2.143-3.72-2.036 3.66-2.144zm-34.03 19.901-3.67 2.144-3.72-2.037 3.67-2.143zm-34.04 19.902-3.66 2.143-3.72-2.036 3.66-2.144zm-34.03 19.901-3.67 2.143-3.72-2.036 3.67-2.143zm-34.04 19.902-3.66 2.143-3.73-2.036 3.67-2.144zm-34.03 19.901-3.67 2.143-3.72-2.036 3.66-2.143zm-34.04 19.902-3.66 2.143-3.73-2.037 3.67-2.143zm-34.03 19.901-3.67 2.143-3.72-2.036 3.66-2.143zm-34.04 19.901-3.66 2.144-3.73-2.037 3.67-2.143zm-34.03 19.902-3.67 2.143-3.72-2.036 3.66-2.143zm-34.04 19.901-3.67 2.144-3.72-2.037 3.67-2.143zm-34.04 19.902-3.66 2.143-3.72-2.036 3.66-2.144zm-34.03 19.901-3.67 2.144-3.72-2.037 3.67-2.143zm-34.04 19.902-3.66 2.143-3.72-2.036 3.66-2.144zm-34.03 19.901-3.67 2.143-3.72-2.036 3.67-2.143zm-34.04 19.902-3.66 2.143-3.72-2.037 3.66-2.143zm-34.03 19.901-3.67 2.143-3.72-2.036 3.67-2.143zm-34.04 19.902-3.66 2.143-3.73-2.037 3.67-2.143zm-34.03 19.897-3.67 2.15-3.72-2.04 3.66-2.14zm-34.04 19.91-3.66 2.14-3.73-2.04 3.67-2.14zm-34.03 19.9-3.67 2.14-3.72-2.04 3.66-2.14zm-34.04 19.9-3.66 2.14-3.73-2.03 3.67-2.15zm-34.03 19.9-3.67 2.14-3.72-2.03 3.66-2.15zm-34.04 19.9-3.67 2.14-3.72-2.03 3.67-2.15zm-34.04 19.9-3.66 2.15-3.72-2.04 3.66-2.14zm918.57-576.075-3.67 2.143-3.72-2.036 3.66-2.143zm-34.04 19.901-3.67 2.144-3.72-2.037 3.67-2.143zm-34.04 19.902-3.66 2.143-3.72-2.036 3.66-2.144zm-34.03 19.901-3.67 2.144-3.72-2.037 3.67-2.143zm-34.04 19.902-3.66 2.143-3.72-2.036 3.66-2.144zm-34.03 19.901-3.67 2.143-3.72-2.036 3.67-2.143zm-34.04 19.902-3.66 2.143-3.72-2.037 3.66-2.143zm-34.03 19.901-3.67 2.143-3.72-2.036 3.67-2.143zm-34.04 19.902-3.66 2.143-3.73-2.037 3.67-2.143zm-34.03 19.901-3.67 2.143-3.72-2.036 3.66-2.143zm-34.04 19.901-3.66 2.144-3.73-2.037 3.67-2.143zm-34.03 19.902-3.67 2.143-3.72-2.036 3.66-2.144zm-34.04 19.901-3.66 2.144-3.73-2.037 3.67-2.143zm-34.03 19.902-3.67 2.143-3.72-2.036 3.66-2.144zm-34.04 19.901-3.67 2.143-3.72-2.036 3.67-2.143zm-34.04 19.902-3.66 2.143-3.72-2.037 3.66-2.143zm-34.03 19.901-3.67 2.143-3.72-2.036 3.67-2.143zm-34.04 19.902-3.66 2.143-3.72-2.037 3.66-2.143zm-34.03 19.901-3.67 2.143-3.72-2.036 3.67-2.143zm-34.04 19.901-3.66 2.144-3.72-2.037 3.66-2.143zm-34.03 19.902-3.67 2.143-3.72-2.036 3.67-2.143zm-34.04 19.901-3.66 2.144-3.73-2.037 3.67-2.143zm-34.03 19.902-3.67 2.143-3.72-2.036 3.66-2.144zm-34.04 19.903-3.66 2.14-3.73-2.03 3.67-2.15zm-34.03 19.9-3.67 2.14-3.72-2.03 3.66-2.15zm-34.04 19.9-3.66 2.14-3.73-2.03 3.67-2.15zm-34.03 19.9-3.67 2.15-3.72-2.04 3.66-2.14zm-34.04 19.9-3.67 2.15-3.72-2.04 3.67-2.14zm-34.04 19.91-3.66 2.14-3.72-2.04 3.66-2.14zm918.57-576.082-3.67 2.143-3.72-2.036 3.66-2.144zm-34.04 19.901-3.66 2.144-3.73-2.037 3.67-2.143zm-34.03 19.902-3.67 2.143-3.72-2.036 3.66-2.144zm-34.04 19.901-3.67 2.143-3.72-2.036 3.67-2.143zm-34.04 19.902-3.66 2.143-3.72-2.037 3.66-2.143zm-34.03 19.901-3.67 2.143-3.72-2.036 3.67-2.143zm-34.04 19.902-3.66 2.143-3.72-2.037 3.66-2.143zm-34.03 19.901-3.67 2.143-3.72-2.036 3.67-2.143zm-34.04 19.901-3.66 2.144-3.72-2.037 3.66-2.143zm-34.03 19.902-3.67 2.143-3.72-2.036 3.67-2.144zm-34.04 19.901-3.66 2.144-3.73-2.037 3.67-2.143zm-34.03 19.902-3.67 2.143-3.72-2.036 3.66-2.144zm-34.04 19.901-3.66 2.143-3.73-2.036 3.67-2.143zm-34.03 19.902-3.67 2.143-3.72-2.036 3.66-2.144zm-34.04 19.901-3.66 2.143-3.73-2.036 3.67-2.143zm-34.03 19.902-3.67 2.143-3.72-2.037 3.66-2.143zm-34.04 19.901-3.67 2.143-3.72-2.036 3.67-2.143zm-34.04 19.901-3.66 2.144-3.72-2.037 3.66-2.143zm-34.03 19.902-3.67 2.143-3.72-2.036 3.67-2.143zm-34.04 19.901-3.66 2.144-3.72-2.037 3.66-2.143zm-34.03 19.902-3.67 2.143-3.72-2.036 3.67-2.144zm-34.04 19.901-3.66 2.144-3.72-2.037 3.66-2.143zm-34.03 19.902-3.67 2.143-3.72-2.036 3.67-2.144zm-34.04 19.901-3.66 2.143-3.73-2.036 3.67-2.143zm-34.03 19.899-3.67 2.15-3.72-2.04 3.66-2.14zm-34.04 19.9-3.66 2.15-3.73-2.04 3.67-2.14zm-34.03 19.91-3.67 2.14-3.72-2.04 3.66-2.14zm-34.04 19.9-3.66 2.14-3.73-2.04 3.67-2.14zm-34.03 19.9-3.67 2.14-3.72-2.03 3.66-2.15zm918.56-576.079-3.67 2.143-3.72-2.037 3.66-2.143zm-34.04 19.901-3.66 2.143-3.73-2.036 3.67-2.143zm-34.03 19.902-3.67 2.143-3.72-2.037 3.66-2.143zm-34.04 19.901-3.67 2.143-3.72-2.036 3.67-2.143zm-34.04 19.902-3.66 2.143-3.72-2.037 3.66-2.143zm-34.03 19.901-3.67 2.143-3.72-2.036 3.67-2.143zm-34.04 19.901-3.66 2.144-3.72-2.037 3.66-2.143zm-34.03 19.902-3.67 2.143-3.72-2.036 3.67-2.144zm-34.04 19.901-3.66 2.144-3.72-2.037 3.66-2.143zm-34.03 19.902-3.67 2.143-3.72-2.036 3.67-2.144zm-34.04 19.901-3.66 2.144-3.73-2.037 3.67-2.143zm-34.03 19.902-3.67 2.143-3.72-2.037 3.66-2.143zm-34.04 19.901-3.66 2.143-3.73-2.036 3.67-2.143zm-34.03 19.902-3.67 2.143-3.72-2.037 3.66-2.143zm-34.04 19.901-3.66 2.143-3.73-2.036 3.67-2.143zm-34.03 19.901-3.67 2.144-3.72-2.037 3.66-2.143zm-34.04 19.902-3.67 2.143-3.72-2.036 3.67-2.144zm-34.04 19.901-3.66 2.144-3.72-2.037 3.66-2.143zm-34.03 19.902-3.67 2.143-3.72-2.036 3.67-2.144zm-34.04 19.901-3.66 2.143-3.72-2.036 3.66-2.143zm-34.03 19.902-3.67 2.143-3.72-2.036 3.67-2.144zm-34.04 19.901-3.66 2.143-3.72-2.036 3.66-2.143zm-34.03 19.902-3.67 2.143-3.72-2.037 3.67-2.143zm-34.04 19.901-3.66 2.143-3.72-2.036 3.66-2.143zm-34.03 19.902-3.67 2.143-3.72-2.037 3.67-2.143zm-34.04 19.904-3.66 2.14-3.73-2.04 3.67-2.14zm-34.03 19.9-3.67 2.14-3.72-2.03 3.66-2.15zm-34.04 19.9-3.66 2.14-3.73-2.03 3.67-2.15zm-34.03 19.9-3.67 2.14-3.72-2.03 3.66-2.15zm918.56-576.076-3.67 2.143-3.72-2.037 3.66-2.143zm-34.04 19.901-3.66 2.143-3.73-2.036 3.67-2.143zm-34.03 19.901-3.67 2.144-3.72-2.037 3.66-2.143zm-34.04 19.902-3.66 2.143-3.73-2.036 3.67-2.143zm-34.03 19.901-3.67 2.144-3.72-2.037 3.66-2.143zm-34.04 19.902-3.67 2.143-3.72-2.036 3.67-2.144zm-34.04 19.901-3.66 2.144-3.72-2.037 3.66-2.143zm-34.03 19.902-3.67 2.143-3.72-2.036 3.67-2.144zm-34.04 19.901-3.66 2.143-3.72-2.036 3.66-2.143zm-34.03 19.902-3.67 2.143-3.72-2.037 3.67-2.143zm-34.04 19.901-3.66 2.143-3.72-2.036 3.66-2.143zm-34.03 19.902-3.67 2.143-3.72-2.037 3.67-2.143zm-34.04 19.901-3.66 2.143-3.73-2.036 3.67-2.143zm-34.03 19.901-3.67 2.144-3.72-2.037 3.66-2.143zm-34.04 19.902-3.66 2.143-3.73-2.036 3.67-2.144zm-34.03 19.901-3.67 2.144-3.72-2.037 3.66-2.143zm-34.04 19.902-3.66 2.143-3.73-2.036 3.67-2.144zm-34.03 19.901-3.67 2.143-3.72-2.036 3.66-2.143zm-34.04 19.902-3.67 2.143-3.72-2.037 3.67-2.143zm-34.04 19.901-3.66 2.143-3.72-2.036 3.66-2.143zm-34.03 19.902-3.67 2.143-3.72-2.037 3.67-2.143zm-34.04 19.901-3.66 2.143-3.72-2.036 3.66-2.143zm-34.03 19.902-3.67 2.143-3.72-2.037 3.67-2.143zm-34.04 19.901-3.66 2.143-3.72-2.036 3.66-2.143zm-34.03 19.901-3.67 2.144-3.72-2.037 3.67-2.143zm-34.04 19.902-3.66 2.143-3.73-2.036 3.67-2.144zm-34.03 19.9-3.67 2.14-3.72-2.03 3.66-2.15zm-34.04 19.9-3.66 2.15-3.73-2.04 3.67-2.14zm-34.03 19.9-3.67 2.15-3.72-2.04 3.66-2.14zm918.56-576.074-3.67 2.144-3.72-2.037 3.66-2.143zm-34.04 19.902-3.66 2.143-3.73-2.036 3.67-2.143zm-34.03 19.901-3.67 2.144-3.72-2.037 3.66-2.143zm-34.04 19.902-3.66 2.143-3.73-2.036 3.67-2.144zm-34.03 19.901-3.67 2.144-3.72-2.037 3.66-2.143zm-34.04 19.902-3.67 2.143-3.72-2.036 3.67-2.144zm-34.04 19.901-3.66 2.143-3.72-2.036 3.66-2.143zm-34.03 19.902-3.67 2.143-3.72-2.037 3.67-2.143zm-34.04 19.901-3.66 2.143-3.72-2.036 3.66-2.143zm-34.03 19.902-3.67 2.143-3.72-2.037 3.67-2.143zm-34.04 19.901-3.66 2.143-3.72-2.036 3.66-2.143zm-34.03 19.901-3.67 2.144-3.72-2.037 3.67-2.143zm-34.04 19.902-3.66 2.143-3.72-2.036 3.66-2.144zm-34.03 19.901-3.67 2.144-3.72-2.037 3.67-2.143zm-34.04 19.902-3.66 2.143-3.73-2.036 3.67-2.144zm-34.03 19.901-3.67 2.143-3.72-2.036 3.66-2.143zm-34.04 19.902-3.66 2.143-3.73-2.037 3.67-2.143zm-34.03 19.901-3.67 2.143-3.72-2.036 3.66-2.143zm-34.04 19.902-3.67 2.143-3.72-2.037 3.67-2.143zm-34.03 19.901-3.67 2.143-3.72-2.036 3.66-2.144zm-34.04 19.902-3.67 2.143-3.72-2.037 3.67-2.143zm-34.04 19.901-3.66 2.143-3.72-2.036 3.66-2.144zm-34.03 19.901-3.67 2.144-3.72-2.037 3.67-2.143zm-34.04 19.902-3.66 2.143-3.72-2.036 3.66-2.144zm-34.03 19.901-3.67 2.143-3.72-2.036 3.67-2.143zm-34.04 19.902-3.66 2.143-3.72-2.036 3.66-2.144zm-34.03 19.901-3.67 2.143-3.72-2.036 3.67-2.143zm-34.04 19.906-3.66 2.14-3.73-2.04 3.67-2.14zm-34.03 19.9-3.67 2.14-3.721-2.04 3.661-2.14zm918.56-576.081-3.67 2.144-3.72-2.037 3.67-2.143zm-34.04 19.902-3.66 2.143-3.73-2.036 3.67-2.144zm-34.03 19.901-3.67 2.143-3.72-2.036 3.66-2.143zm-34.04 19.902-3.66 2.143-3.73-2.036 3.67-2.144zm-34.03 19.901-3.67 2.143-3.72-2.036 3.66-2.143zm-34.04 19.902-3.66 2.143-3.73-2.037 3.67-2.143zm-34.03 19.901-3.67 2.143-3.72-2.036 3.66-2.143zm-34.04 19.902-3.67 2.143-3.72-2.037 3.67-2.143zM1650 620.791l-3.66 2.143-3.72-2.036 3.66-2.143zm-34.03 19.901-3.67 2.144-3.72-2.037 3.67-2.143zm-34.04 19.902-3.66 2.143-3.72-2.036 3.66-2.144zm-34.03 19.901-3.67 2.144-3.72-2.037 3.67-2.143zm-34.04 19.902-3.66 2.143-3.72-2.036 3.66-2.144zm-34.03 19.901-3.67 2.143-3.72-2.036 3.67-2.143zm-34.04 19.902-3.66 2.143-3.73-2.037 3.67-2.143zm-34.03 19.901-3.67 2.143-3.72-2.036 3.66-2.143zm-34.04 19.902-3.66 2.143-3.73-2.037 3.67-2.143zm-34.03 19.901-3.67 2.143-3.72-2.036 3.66-2.143zm-34.04 19.902-3.66 2.143-3.73-2.037 3.67-2.143zm-34.03 19.901-3.67 2.143-3.72-2.036 3.66-2.144zm-34.04 19.901-3.67 2.144-3.72-2.037 3.67-2.143zm-34.04 19.902-3.66 2.143-3.72-2.036 3.66-2.144zm-34.03 19.901-3.67 2.143-3.72-2.036 3.67-2.143zm-34.04 19.902-3.66 2.143-3.72-2.036 3.66-2.144zm-34.03 19.901-3.67 2.143-3.72-2.036 3.67-2.143zm-34.04 19.902-3.66 2.143-3.72-2.037 3.66-2.143zm-34.03 19.901-3.67 2.143-3.72-2.036 3.67-2.143zm-34.04 19.901-3.663 2.142-3.722-2.035 3.665-2.143zm-34.033 19.902-3.665 2.14-3.723-2.03 3.666-2.15zm918.563-576.078-3.67 2.143-3.72-2.036 3.67-2.143zm-34.04 19.902-3.66 2.143-3.72-2.037 3.66-2.143zm-34.03 19.901-3.67 2.143-3.72-2.036 3.67-2.143zm-34.04 19.902-3.66 2.143-3.73-2.037 3.67-2.143zm-34.03 19.901-3.67 2.143-3.72-2.036 3.66-2.143zm-34.04 19.902-3.66 2.143-3.73-2.037 3.67-2.143zm-34.03 19.901-3.67 2.143-3.72-2.036 3.66-2.143zm-34.04 19.901-3.67 2.144-3.72-2.037 3.67-2.143zm-34.04 19.902-3.66 2.143-3.72-2.036 3.66-2.144zm-34.03 19.901-3.67 2.144-3.72-2.037 3.67-2.143zm-34.04 19.902-3.66 2.143-3.72-2.036 3.66-2.144zm-34.03 19.901-3.67 2.143-3.72-2.036 3.67-2.143zm-34.04 19.902-3.66 2.143-3.72-2.037 3.66-2.143zm-34.03 19.901-3.67 2.143-3.72-2.036 3.67-2.143zm-34.04 19.902-3.66 2.143-3.72-2.037 3.66-2.143zm-34.03 19.901-3.67 2.143-3.72-2.036 3.67-2.143zm-34.04 19.901-3.66 2.144-3.73-2.037 3.67-2.143zm-34.03 19.902-3.67 2.143-3.72-2.036 3.66-2.144zm-34.04 19.901-3.66 2.144-3.73-2.037 3.67-2.143zm-34.03 19.902-3.67 2.143-3.72-2.036 3.66-2.144zm-34.04 19.901-3.66 2.144-3.73-2.037 3.67-2.143zm-34.03 19.902-3.67 2.143-3.72-2.036 3.66-2.144zm-34.04 19.901-3.67 2.143-3.72-2.036 3.67-2.143zm-34.04 19.902-3.66 2.143-3.72-2.037 3.66-2.143zm-34.03 19.901-3.67 2.143-3.72-2.036 3.67-2.143zm-34.04 19.901-3.66 2.144-3.72-2.037 3.66-2.143zm-34.03 19.902-3.667 2.143-3.722-2.036 3.665-2.143zm-34.037 19.901-3.666 2.144-3.722-2.037 3.666-2.143zm-34.036 19.902-3.665 2.147-3.722-2.04 3.665-2.144zm918.563-576.078-3.67 2.143-3.72-2.036 3.67-2.143zm-34.04 19.902-3.66 2.143-3.72-2.037 3.66-2.143zm-34.03 19.901-3.67 2.143-3.72-2.036 3.67-2.143zm-34.04 19.901-3.66 2.144-3.73-2.037 3.67-2.143zm-34.03 19.902-3.67 2.143-3.72-2.036 3.66-2.143zm-34.04 19.901-3.66 2.143-3.73-2.036 3.67-2.143zm-34.03 19.902-3.67 2.143-3.72-2.036 3.66-2.144zm-34.04 19.901-3.66 2.143-3.73-2.036 3.67-2.143zm-34.03 19.902-3.67 2.143-3.72-2.036 3.66-2.144zm-34.04 19.901-3.67 2.143-3.72-2.036 3.67-2.143zm-34.04 19.902-3.66 2.143-3.72-2.037 3.66-2.143zm-34.03 19.901-3.67 2.143-3.72-2.036 3.67-2.143zM1445 662.722l-3.66 2.144-3.72-2.037 3.66-2.143zm-34.03 19.902-3.67 2.143-3.72-2.036 3.67-2.143zm-34.04 19.901-3.66 2.144-3.72-2.037 3.66-2.143zm-34.03 19.902-3.67 2.143-3.72-2.036 3.67-2.144zm-34.04 19.901-3.66 2.144-3.73-2.037 3.67-2.143zm-34.03 19.902-3.67 2.143-3.72-2.036 3.66-2.144zm-34.04 19.901-3.66 2.143-3.73-2.036 3.67-2.143zm-34.03 19.902-3.67 2.143-3.72-2.037 3.66-2.143zm-34.04 19.901-3.66 2.143-3.73-2.036 3.67-2.143zm-34.03 19.902-3.67 2.143-3.72-2.037 3.66-2.143zm-34.04 19.901-3.67 2.143-3.72-2.036 3.67-2.143zm-34.04 19.901-3.66 2.144-3.72-2.037 3.66-2.143zm-34.03 19.902-3.67 2.143-3.72-2.036 3.67-2.143zm-34.04 19.901-3.661 2.144-3.722-2.037 3.665-2.143zm-34.032 19.902-3.665 2.143-3.722-2.036 3.665-2.143zm-34.035 19.901-3.665 2.143-3.722-2.036 3.665-2.143zm-34.035 19.902-3.666 2.143-3.722-2.036 3.666-2.144zM1819 405.068l-3.67 2.143-3.72-2.036 3.67-2.143zm-34.04 19.901-3.66 2.144-3.72-2.037 3.66-2.143zm-34.03 19.902-3.67 2.143-3.72-2.036 3.67-2.144zm-34.04 19.901-3.66 2.144-3.72-2.037 3.66-2.143zm-34.03 19.902-3.67 2.143-3.72-2.036 3.67-2.144zm-34.04 19.901-3.66 2.144-3.73-2.037 3.67-2.143zm-34.03 19.902-3.67 2.143-3.72-2.036 3.66-2.144zm-34.04 19.901-3.66 2.143-3.73-2.036 3.67-2.143zm-34.03 19.902-3.67 2.143-3.72-2.037 3.66-2.143zm-34.04 19.901-3.67 2.143-3.72-2.036 3.67-2.143zm-34.04 19.902-3.66 2.143-3.72-2.037 3.66-2.143zm-34.03 19.901-3.67 2.143-3.72-2.036 3.67-2.143zm-34.04 19.901-3.66 2.144-3.72-2.037 3.66-2.143zm-34.03 19.902-3.67 2.143-3.72-2.036 3.67-2.144zm-34.04 19.901-3.66 2.144-3.72-2.037 3.66-2.143zm-34.03 19.902-3.67 2.143-3.72-2.036 3.67-2.144zm-34.04 19.901-3.66 2.143-3.72-2.036 3.66-2.143zm-34.03 19.902-3.67 2.143-3.72-2.037 3.67-2.143zm-34.04 19.901-3.66 2.143-3.73-2.036 3.67-2.143zm-34.03 19.901-3.67 2.144-3.72-2.037 3.66-2.143zm-34.04 19.902-3.66 2.143-3.73-2.036 3.67-2.143zm-34.03 19.901-3.67 2.144-3.72-2.037 3.66-2.143zm-34.04 19.902-3.66 2.143-3.73-2.036 3.67-2.143zm-34.03 19.901-3.67 2.144-3.72-2.037 3.66-2.143zm-34.04 19.902-3.666 2.143-3.722-2.036 3.666-2.144zm-34.036 19.901-3.665 2.144-3.722-2.037 3.665-2.143zm-34.035 19.902-3.665 2.143-3.722-2.036 3.665-2.144zm-34.035 19.901-3.666 2.143-3.722-2.036 3.666-2.143zm-34.036 19.902-3.665 2.143-3.722-2.037 3.665-2.143zm918.562-576.078-3.67 2.143-3.72-2.036 3.67-2.144zm-34.04 19.901-3.66 2.144-3.72-2.037 3.66-2.143zm-34.03 19.902-3.67 2.143-3.72-2.036 3.67-2.144zm-34.04 19.901-3.66 2.144-3.72-2.037 3.66-2.143zm-34.03 19.902-3.67 2.143-3.72-2.036 3.67-2.144zm-34.04 19.901-3.66 2.143-3.73-2.036 3.67-2.143zm-34.03 19.902-3.67 2.143-3.72-2.037 3.66-2.143zm-34.04 19.901-3.66 2.143-3.73-2.036 3.67-2.143zm-34.03 19.902-3.67 2.143-3.72-2.037 3.66-2.143zm-34.04 19.901-3.66 2.143-3.73-2.036 3.67-2.144zm-34.03 19.901-3.67 2.144-3.72-2.037 3.66-2.143zm-34.04 19.902-3.67 2.143-3.72-2.036 3.67-2.144zm-34.04 19.901-3.66 2.144-3.72-2.037 3.66-2.143zm-34.03 19.902-3.67 2.143-3.72-2.036 3.67-2.144zm-34.04 19.901-3.66 2.143-3.72-2.036 3.66-2.143zm-34.03 19.902-3.67 2.143-3.72-2.037 3.67-2.143zM1240 704.654l-3.66 2.143-3.72-2.036 3.66-2.143zm-34.03 19.902-3.67 2.143-3.72-2.037 3.67-2.143zm-34.04 19.901-3.66 2.143-3.73-2.036 3.67-2.143zm-34.03 19.901-3.67 2.144-3.72-2.037 3.67-2.143zm-34.04 19.902-3.66 2.143-3.73-2.036 3.67-2.143zm-34.03 19.901-3.67 2.144-3.72-2.037 3.66-2.143zm-34.04 19.902-3.66 2.143-3.73-2.036 3.67-2.144zm-34.03 19.901-3.67 2.144-3.722-2.037 3.665-2.143zm-34.04 19.902-3.665 2.143-3.722-2.037 3.665-2.143zm-34.035 19.901-3.666 2.143-3.722-2.036 3.666-2.143zm-34.036 19.902-3.665 2.143-3.722-2.037 3.665-2.143zm-34.035 19.901-3.665 2.143-3.722-2.036 3.665-2.143zm-34.035 19.902-3.666 2.143-3.722-2.037 3.665-2.143zm918.561-576.078-3.67 2.143-3.72-2.036 3.67-2.144zm-34.04 19.901-3.66 2.143-3.72-2.036 3.66-2.143zm-34.03 19.902-3.67 2.143-3.72-2.037 3.67-2.143zm-34.04 19.901-3.66 2.143-3.72-2.036 3.66-2.143zM1614 447l-3.67 2.143-3.72-2.037 3.67-2.143zm-34.04 19.901-3.66 2.143-3.72-2.036 3.66-2.143zm-34.03 19.902-3.67 2.143-3.72-2.037 3.67-2.143zm-34.04 19.901-3.66 2.143-3.73-2.036 3.67-2.144zm-34.03 19.901-3.67 2.144-3.72-2.037 3.66-2.143zm-34.04 19.902-3.66 2.143-3.73-2.036 3.67-2.144zm-34.03 19.901-3.67 2.144-3.72-2.037 3.66-2.143zm-34.04 19.902-3.66 2.143-3.73-2.036 3.67-2.144zm-34.03 19.901-3.67 2.143-3.72-2.036 3.66-2.143zm-34.04 19.902-3.67 2.143-3.72-2.037 3.67-2.143zm-34.04 19.901-3.66 2.143-3.72-2.036 3.66-2.143zm-34.03 19.902-3.67 2.143-3.72-2.037 3.67-2.143zm-34.04 19.901-3.66 2.143-3.72-2.036 3.66-2.143zm-34.03 19.901-3.67 2.144-3.72-2.037 3.67-2.143zm-34.04 19.902-3.66 2.143-3.72-2.036 3.66-2.143zm-34.03 19.901-3.67 2.144-3.72-2.037 3.67-2.143zm-34.04 19.902-3.66 2.143-3.73-2.036 3.67-2.144zm-34.03 19.901-3.67 2.144-3.72-2.037 3.66-2.143zm-34.04 19.902-3.664 2.143-3.722-2.037 3.665-2.143zm-34.034 19.901-3.665 2.143-3.723-2.036 3.666-2.143zm-34.035 19.902-3.666 2.143-3.722-2.037 3.665-2.143zm-34.036 19.901-3.665 2.143-3.722-2.036 3.665-2.143zm-34.035 19.902-3.666 2.143-3.722-2.037 3.666-2.143zm-34.035 19.901-3.666 2.143-3.722-2.036 3.665-2.144zm-34.036 19.901-3.665 2.144-3.722-2.037 3.665-2.143zm918.561-576.077-3.67 2.143-3.72-2.037 3.67-2.143zm-34.04 19.901-3.66 2.143-3.72-2.036 3.66-2.143zm-34.03 19.902-3.67 2.143-3.72-2.037 3.67-2.143zm-34.04 19.901-3.66 2.143-3.72-2.036 3.66-2.143zm-34.03 19.901-3.67 2.144-3.72-2.037 3.67-2.143zm-34.04 19.902-3.66 2.143-3.72-2.036 3.66-2.143zm-34.03 19.901-3.67 2.144-3.72-2.037 3.67-2.143zm-34.04 19.902-3.66 2.143-3.72-2.036 3.66-2.144zm-34.03 19.901-3.67 2.144-3.72-2.037 3.66-2.143zm-34.04 19.902-3.66 2.143-3.73-2.036 3.67-2.144zm-34.03 19.901-3.67 2.143-3.72-2.036 3.66-2.143zm-34.04 19.902-3.66 2.143-3.73-2.037 3.67-2.143zm-34.03 19.901-3.67 2.143-3.72-2.036 3.66-2.143zm-34.04 19.901-3.67 2.144-3.72-2.037 3.67-2.143zm-34.04 19.902-3.66 2.143-3.72-2.036 3.66-2.144zm-34.03 19.901-3.67 2.144-3.72-2.037 3.67-2.143zm-34.04 19.902-3.66 2.143-3.72-2.036 3.66-2.144zm-34.03 19.901-3.67 2.144-3.72-2.037 3.67-2.143zm-34.04 19.902-3.66 2.143-3.72-2.036 3.66-2.144zm-34.03 19.901-3.67 2.143-3.72-2.036 3.67-2.143zM1035 746.586l-3.66 2.143-3.72-2.037 3.66-2.143zm-34.03 19.901-3.668 2.143-3.722-2.036 3.665-2.143zm-34.038 19.902-3.666 2.143-3.722-2.037 3.666-2.143zm-34.036 19.901-3.665 2.143-3.722-2.036 3.665-2.143zm-34.035 19.901-3.665 2.144-3.722-2.037 3.665-2.143zm-34.035 19.902-3.666 2.143-3.722-2.036 3.666-2.144zm-34.036 19.901-3.665 2.144-3.722-2.037 3.665-2.143zm-34.035 19.902-3.666 2.143-3.722-2.036 3.666-2.144zm-34.036 19.901-3.665 2.143-3.722-2.036 3.665-2.143zM1681.28 329.72l-3.66 2.143-3.73-2.037 3.67-2.143zm-34.03 19.901-3.67 2.143-3.72-2.036 3.66-2.143zm-34.04 19.901-3.67 2.144-3.72-2.037 3.67-2.143zm-34.04 19.902-3.66 2.143-3.72-2.036 3.66-2.144zm-34.03 19.901-3.67 2.144-3.72-2.037 3.67-2.143zm-34.04 19.902-3.66 2.143-3.72-2.036 3.66-2.144zm-34.03 19.901-3.67 2.143-3.72-2.036 3.67-2.143zm-34.04 19.902-3.66 2.143-3.72-2.037 3.66-2.143zM1409 488.931l-3.67 2.143-3.72-2.036 3.67-2.143zm-34.04 19.902-3.66 2.143-3.73-2.037 3.67-2.143zm-34.03 19.901-3.67 2.143-3.72-2.036 3.66-2.143zm-34.04 19.902-3.66 2.143-3.73-2.037 3.67-2.143zm-34.03 19.901-3.67 2.143-3.72-2.036 3.66-2.144zm-34.04 19.901-3.66 2.144-3.73-2.037 3.67-2.143zm-34.03 19.902-3.67 2.143-3.72-2.036 3.66-2.144zm-34.04 19.901-3.67 2.144-3.72-2.037 3.67-2.143zm-34.04 19.902-3.66 2.143-3.72-2.036 3.66-2.144zm-34.03 19.901-3.67 2.143-3.72-2.036 3.67-2.143zm-34.04 19.902-3.66 2.143-3.72-2.037 3.66-2.143zm-34.03 19.901-3.67 2.143-3.72-2.036 3.67-2.143zm-34.04 19.902-3.662 2.143-3.723-2.037 3.666-2.143zm-34.033 19.901-3.665 2.143-3.722-2.036 3.665-2.143zm-34.035 19.902-3.665 2.143-3.722-2.037 3.665-2.143zm-34.035 19.901-3.666 2.143-3.722-2.036 3.666-2.144zm-34.036 19.901-3.665 2.144-3.722-2.037 3.665-2.143zm-34.035 19.902-3.665 2.143-3.722-2.036 3.665-2.144zm-34.036 19.901-3.665 2.144-3.722-2.037 3.665-2.143zm-34.035 19.902-3.665 2.143-3.722-2.037 3.665-2.143zM728.29 886.96l-3.665 2.143-3.723-2.036 3.666-2.143zm918.56-576.078-3.66 2.144-3.73-2.037 3.67-2.143zm-34.03 19.902-3.67 2.143-3.72-2.036 3.66-2.144zm-34.04 19.901-3.67 2.144-3.72-2.037 3.67-2.143zm-34.04 19.902-3.66 2.143-3.72-2.036 3.66-2.144zm-34.03 19.901-3.67 2.143-3.72-2.036 3.67-2.143zm-34.04 19.902-3.66 2.143-3.72-2.037 3.66-2.143zm-34.03 19.901-3.67 2.143-3.72-2.036 3.67-2.143zm-34.04 19.902-3.66 2.143-3.72-2.037 3.66-2.143zm-34.03 19.901-3.67 2.143-3.72-2.036 3.67-2.143zm-34.04 19.901-3.66 2.144-3.73-2.037 3.67-2.143zm-34.03 19.902-3.67 2.143-3.72-2.036 3.66-2.144zm-34.04 19.901-3.66 2.144-3.73-2.037 3.67-2.143zm-34.03 19.902-3.67 2.143-3.72-2.036 3.66-2.144zm-34.04 19.901-3.66 2.144-3.73-2.037 3.67-2.143zm-34.03 19.902-3.67 2.143-3.72-2.037 3.66-2.143zm-34.04 19.901-3.67 2.143-3.72-2.036 3.67-2.143zm-34.04 19.902-3.66 2.143-3.72-2.037 3.66-2.143zm-34.03 19.901-3.67 2.143-3.72-2.036 3.67-2.143zm-34.04 19.902-3.66 2.143-3.72-2.037 3.66-2.143zm-34.03 19.901-3.667 2.143-3.722-2.036 3.666-2.144zm-34.037 19.902-3.665 2.143-3.722-2.037 3.665-2.143zm-34.035 19.901-3.665 2.143-3.723-2.036 3.666-2.144zm-34.036 19.901-3.665 2.144-3.722-2.037 3.665-2.143zm-34.035 19.902-3.665 2.143-3.722-2.036 3.665-2.144zm-34.035 19.901-3.665 2.143-3.723-2.036 3.666-2.143zm-34.036 19.902-3.665 2.143-3.722-2.037 3.665-2.143zm-34.035 19.901-3.665 2.143-3.722-2.036 3.665-2.143zm-34.035 19.902-3.666 2.143-3.722-2.037 3.666-2.143zm-34.036 19.901-3.665 2.143-3.722-2.036 3.665-2.143zm918.56-576.078-3.66 2.144-3.73-2.037 3.67-2.143zm-34.03 19.902-3.67 2.143-3.72-2.036 3.66-2.144zm-34.04 19.901-3.66 2.143-3.73-2.036 3.67-2.143zm-34.04 19.902-3.66 2.143-3.72-2.037 3.66-2.143zm-34.03 19.901-3.67 2.143-3.72-2.036 3.67-2.143zm-34.04 19.901-3.66 2.144-3.72-2.037 3.66-2.143zm-34.03 19.902-3.67 2.143-3.72-2.036 3.67-2.143zm-34.04 19.901-3.66 2.143-3.72-2.036 3.66-2.143zm-34.03 19.902-3.67 2.143-3.72-2.036 3.67-2.144zm-34.04 19.901-3.66 2.144-3.72-2.037 3.66-2.143zm-34.03 19.902-3.67 2.143-3.72-2.036 3.67-2.144zm-34.04 19.901-3.66 2.144-3.73-2.037 3.67-2.143zM1204 530.863l-3.67 2.143-3.72-2.037 3.66-2.143zm-34.04 19.901-3.66 2.143-3.73-2.036 3.67-2.143zm-34.03 19.902-3.67 2.143-3.72-2.037 3.66-2.143zm-34.04 19.901-3.66 2.143-3.73-2.036 3.67-2.143zm-34.03 19.901-3.67 2.144-3.72-2.037 3.66-2.143zm-34.04 19.902-3.67 2.143-3.72-2.036 3.67-2.144zm-34.036 19.901-3.665 2.144-3.722-2.037 3.665-2.143zm-34.035 19.902-3.665 2.143-3.722-2.036 3.665-2.144zm-34.035 19.901-3.666 2.144-3.722-2.037 3.666-2.143zm-34.036 19.902-3.665 2.143-3.722-2.036 3.665-2.144zm-34.035 19.901-3.665 2.143-3.722-2.036 3.665-2.143zm-34.035 19.902-3.666 2.143-3.722-2.037 3.666-2.143zm-34.036 19.901-3.665 2.143-3.722-2.036 3.665-2.143zm-34.035 19.902-3.666 2.143-3.722-2.037 3.666-2.143zm-34.036 19.901-3.665 2.143-3.722-2.036 3.665-2.143zm-34.035 19.901-3.665 2.144-3.722-2.037 3.665-2.143zm-34.035 19.902-3.666 2.143-3.722-2.036 3.666-2.143zm918.559-576.078-3.66 2.143-3.73-2.036 3.67-2.143zm-34.03 19.902-3.67 2.143-3.72-2.037 3.66-2.143zm-34.04 19.901-3.66 2.143-3.73-2.036 3.67-2.143zm-34.03 19.902-3.67 2.143-3.72-2.037 3.66-2.143zm-34.04 19.901-3.67 2.143-3.72-2.036 3.67-2.143zm-34.04 19.901-3.66 2.144-3.72-2.037 3.66-2.143zm-34.03 19.902-3.67 2.143-3.72-2.036 3.67-2.144zm-34.04 19.901-3.66 2.144-3.72-2.037 3.66-2.143zm-34.03 19.902-3.67 2.143-3.72-2.036 3.67-2.144zm-34.04 19.901-3.66 2.143-3.72-2.036 3.66-2.143zm-34.03 19.902-3.67 2.143-3.72-2.036 3.67-2.144zm-34.04 19.901-3.66 2.143-3.72-2.036 3.66-2.143zm-34.03 19.902-3.67 2.143-3.72-2.037 3.67-2.143zm-34.04 19.901-3.66 2.143-3.73-2.036 3.67-2.143zm-34.03 19.901-3.67 2.144-3.72-2.037 3.66-2.143zm-34.04 19.902-3.66 2.143-3.73-2.036 3.67-2.144zm-34.03 19.901-3.67 2.144-3.72-2.037 3.66-2.143zm-34.04 19.902-3.665 2.143-3.722-2.036 3.665-2.144zm-34.035 19.901-3.665 2.144-3.723-2.037 3.666-2.143zm-34.035 19.902-3.666 2.143-3.722-2.036 3.666-2.144zm-34.036 19.901-3.665 2.143-3.722-2.036 3.665-2.143zm-34.035 19.902-3.666 2.143-3.722-2.037 3.666-2.143zm-34.036 19.901-3.665 2.143-3.722-2.036 3.665-2.143zm-34.035 19.902-3.665 2.143-3.722-2.037 3.665-2.143zm-34.035 19.901-3.666 2.143-3.722-2.036 3.666-2.143zm-34.036 19.901-3.665 2.144-3.722-2.037 3.665-2.143zm-34.035 19.902-3.666 2.143-3.722-2.036 3.666-2.143zm-34.035 19.901-3.666 2.144-3.722-2.037 3.666-2.143zm-34.036 19.902-3.665 2.143-3.722-2.036 3.665-2.144zm918.559-576.078-3.66 2.143-3.73-2.036 3.67-2.143zm-34.03 19.902-3.67 2.143-3.72-2.037 3.66-2.143zm-34.04 19.901-3.66 2.143-3.73-2.036 3.67-2.143zm-34.03 19.901-3.67 2.144-3.72-2.037 3.66-2.143zm-34.04 19.902-3.66 2.143-3.73-2.036 3.67-2.144zm-34.03 19.901-3.67 2.144-3.72-2.037 3.66-2.143zm-34.04 19.902-3.67 2.143-3.72-2.036 3.67-2.144zm-34.04 19.901-3.66 2.143-3.72-2.036 3.66-2.143zm-34.03 19.902-3.67 2.143-3.72-2.037 3.67-2.143zm-34.04 19.901-3.66 2.143-3.72-2.036 3.66-2.143zm-34.03 19.902-3.67 2.143-3.72-2.037 3.67-2.143zm-34.04 19.901-3.66 2.143-3.72-2.036 3.66-2.143zm-34.03 19.901-3.67 2.144-3.72-2.037 3.67-2.143zm-34.04 19.902-3.66 2.143-3.73-2.036 3.67-2.144zm-34.03 19.901-3.67 2.144-3.72-2.037 3.66-2.143zm-34.04 19.902-3.66 2.143-3.73-2.036 3.67-2.144zm-34.034 19.901-3.665 2.144-3.722-2.037 3.665-2.143zm-34.035 19.902-3.666 2.143-3.722-2.037 3.666-2.143zm-34.036 19.901-3.665 2.143-3.722-2.036 3.665-2.143zm-34.035 19.902-3.665 2.143-3.722-2.037 3.665-2.143zM862.854 652.4l-3.665 2.143-3.722-2.036 3.665-2.143zm-34.035 19.902-3.665 2.143-3.722-2.037 3.665-2.143zm-34.035 19.901-3.666 2.143-3.722-2.036 3.666-2.143zm-34.036 19.901-3.665 2.144-3.722-2.037 3.665-2.143zm-34.035 19.902-3.665 2.143-3.722-2.036 3.665-2.144zm-34.035 19.901-3.666 2.144-3.722-2.037 3.666-2.143zm-34.036 19.902-3.665 2.143-3.722-2.036 3.665-2.144zm-34.035 19.901-3.665 2.143-3.722-2.036 3.665-2.143zm-34.036 19.902-3.665 2.143-3.722-2.037 3.665-2.143zm918.559-576.078-3.66 2.143-3.72-2.036 3.66-2.143zm-34.03 19.901-3.67 2.144-3.72-2.037 3.66-2.143zm-34.04 19.902-3.66 2.143-3.73-2.036 3.67-2.144zm-34.03 19.901-3.67 2.144-3.72-2.037 3.66-2.143zm-34.04 19.902-3.66 2.143-3.73-2.036 3.67-2.144zm-34.03 19.901-3.67 2.143-3.72-2.036 3.66-2.143zm-34.04 19.902-3.67 2.143-3.72-2.037 3.67-2.143zm-34.04 19.901-3.66 2.143-3.72-2.036 3.66-2.143zm-34.03 19.902-3.67 2.143-3.72-2.037 3.67-2.143zm-34.04 19.901-3.66 2.143-3.72-2.036 3.66-2.143zm-34.03 19.901-3.67 2.144-3.72-2.037 3.67-2.143zm-34.04 19.902-3.66 2.143-3.72-2.036 3.66-2.144zm-34.03 19.901-3.67 2.144-3.72-2.037 3.67-2.143zm-34.04 19.902-3.66 2.143-3.72-2.036 3.66-2.144zm-34.03 19.901-3.67 2.143-3.72-2.036 3.67-2.143zm-34.038 19.902-3.665 2.143-3.723-2.037 3.666-2.143zm-34.036 19.901-3.665 2.143-3.722-2.036 3.665-2.143zm-34.035 19.902-3.665 2.143-3.722-2.037 3.665-2.143zm-34.035 19.901-3.666 2.143-3.722-2.036 3.666-2.143zm-34.036 19.901-3.665 2.144-3.722-2.037 3.665-2.143zm-34.035 19.902-3.665 2.143-3.723-2.036 3.666-2.143zm-34.035 19.901-3.666 2.144-3.722-2.037 3.665-2.143zm-34.036 19.902-3.665 2.143-3.722-2.036 3.665-2.144zm-34.035 19.901-3.666 2.144-3.722-2.037 3.666-2.143zm-34.036 19.902-3.665 2.143-3.722-2.036 3.665-2.144zm-34.035 19.901-3.665 2.143-3.722-2.036 3.665-2.143zm-34.035 19.902-3.666 2.143-3.722-2.037 3.665-2.143zm-34.036 19.901-3.665 2.143-3.722-2.036 3.665-2.143zm-34.035 19.902-3.665 2.143-3.722-2.037 3.665-2.143zM1474.7 216.697l-3.66 2.143-3.72-2.036 3.66-2.144zm-34.03 19.901-3.67 2.144-3.72-2.037 3.67-2.143zm-34.04 19.902-3.66 2.143-3.73-2.036 3.67-2.144zm-34.03 19.901-3.67 2.144-3.72-2.037 3.66-2.143zm-34.04 19.902-3.66 2.143-3.73-2.037 3.67-2.143zm-34.03 19.901-3.67 2.143-3.72-2.036 3.66-2.143zm-34.04 19.902-3.66 2.143-3.73-2.037 3.67-2.143zm-34.03 19.901-3.67 2.143-3.72-2.036 3.66-2.143zm-34.04 19.901-3.67 2.144-3.72-2.037 3.67-2.143zm-34.04 19.902-3.66 2.143-3.72-2.036 3.66-2.144zm-34.03 19.901-3.67 2.144-3.72-2.037 3.67-2.143zm-34.04 19.902-3.66 2.143-3.72-2.036 3.66-2.144zm-34.03 19.901-3.67 2.143-3.72-2.036 3.67-2.143zm-34.04 19.902-3.66 2.143-3.72-2.036 3.66-2.144zm-34.032 19.901-3.666 2.143-3.722-2.036 3.666-2.143zm-34.036 19.902-3.665 2.143-3.722-2.037 3.665-2.143zm-34.035 19.901-3.666 2.143-3.722-2.036 3.666-2.143zm-34.035 19.901-3.666 2.144-3.722-2.037 3.666-2.143zm-34.036 19.902-3.665 2.143-3.722-2.036 3.665-2.143zm-34.035 19.901-3.666 2.144-3.722-2.037 3.666-2.143zm-34.036 19.902-3.665 2.143-3.722-2.036 3.665-2.144zm-34.035 19.901-3.665 2.144-3.723-2.037 3.666-2.143zm-34.036 19.902-3.665 2.143-3.722-2.036 3.665-2.144zm-34.035 19.901-3.665 2.143-3.722-2.036 3.665-2.143zm-34.035 19.902-3.665 2.143-3.723-2.037 3.666-2.143zm-34.035 19.901-3.666 2.143-3.722-2.036 3.665-2.143zm-34.036 19.902-3.665 2.143-3.722-2.037 3.665-2.143zm-34.035 19.901-3.666 2.143-3.722-2.036 3.666-2.143zm-34.036 19.901-3.665 2.144-3.722-2.037 3.665-2.143zM1440.27 197.86l-3.66 2.143-3.72-2.037 3.66-2.143zm-34.03 19.901-3.67 2.143-3.72-2.036 3.67-2.143zm-34.04 19.902-3.66 2.143-3.72-2.037 3.66-2.143zm-34.03 19.901-3.67 2.143-3.72-2.036 3.67-2.143zm-34.04 19.902-3.66 2.143-3.73-2.037 3.67-2.143zm-34.03 19.901-3.67 2.143-3.72-2.036 3.66-2.143zm-34.04 19.901-3.66 2.144-3.73-2.037 3.67-2.143zm-34.03 19.902-3.67 2.143-3.72-2.036 3.66-2.144zm-34.04 19.901-3.67 2.144-3.72-2.037 3.67-2.143zm-34.04 19.902-3.66 2.143-3.72-2.036 3.66-2.144zm-34.03 19.901-3.67 2.143-3.72-2.036 3.67-2.143zm-34.04 19.902-3.66 2.143-3.72-2.037 3.66-2.143zm-34.03 19.901-3.67 2.143-3.72-2.036 3.67-2.143zm-34.037 19.902-3.665 2.143-3.722-2.037 3.665-2.143zm-34.035 19.901-3.665 2.143-3.722-2.036 3.665-2.143zm-34.035 19.901-3.666 2.144-3.722-2.037 3.666-2.143zm-34.036 19.902-3.665 2.143-3.722-2.036 3.665-2.144zm-34.035 19.901-3.665 2.144-3.723-2.037 3.666-2.143zm-34.036 19.902-3.665 2.143-3.722-2.036 3.665-2.144zm-34.035 19.901-3.665 2.143-3.722-2.036 3.665-2.143zm-34.035 19.902-3.666 2.143-3.722-2.036 3.666-2.144zM725.53 615.79l-3.665 2.143-3.722-2.036 3.665-2.143zm-34.035 19.902-3.665 2.143-3.722-2.037 3.665-2.143zm-34.035 19.901-3.666 2.143-3.722-2.036 3.666-2.143zm-34.036 19.902-3.665 2.143-3.722-2.037 3.665-2.143zm-34.035 19.901-3.665 2.143-3.723-2.036 3.666-2.144zm-34.036 19.902-3.665 2.143-3.722-2.037 3.665-2.143zm-34.035 19.901-3.665 2.143-3.722-2.036 3.665-2.144zM487.283 755.1l-3.666 2.144-3.722-2.037 3.666-2.143zm918.557-576.077-3.66 2.143-3.72-2.037 3.66-2.143zm-34.03 19.901-3.67 2.143-3.72-2.036 3.67-2.143zm-34.04 19.901-3.66 2.144-3.72-2.037 3.66-2.143zm-34.03 19.902-3.67 2.143-3.72-2.036 3.67-2.143zm-34.04 19.901-3.66 2.144-3.73-2.037 3.67-2.143zm-34.03 19.902-3.67 2.143-3.72-2.036 3.66-2.144zm-34.04 19.901-3.66 2.144-3.73-2.037 3.67-2.143zm-34.03 19.902-3.67 2.143-3.72-2.036 3.66-2.144zm-34.04 19.901-3.66 2.143-3.73-2.036 3.67-2.143zm-34.03 19.902-3.67 2.143-3.72-2.037 3.66-2.143zm-34.04 19.901-3.67 2.143-3.72-2.036 3.67-2.143zm-34.04 19.902-3.66 2.143-3.72-2.037 3.66-2.143zm-34.031 19.901-3.665 2.143-3.722-2.036 3.665-2.143zm-34.035 19.901-3.666 2.144-3.722-2.037 3.666-2.143zm-34.035 19.902-3.666 2.143-3.722-2.036 3.665-2.144zm-34.036 19.901-3.665 2.144-3.722-2.037 3.665-2.143zm-34.035 19.902-3.666 2.143-3.722-2.036 3.666-2.144zm-34.036 19.901-3.665 2.143-3.722-2.036 3.665-2.143zm-34.035 19.902-3.665 2.143-3.723-2.037 3.666-2.143zm-34.035 19.901-3.666 2.143-3.722-2.036 3.666-2.143zm-34.036 19.902-3.665 2.143-3.722-2.037 3.665-2.143zm-34.035 19.901-3.666 2.143-3.722-2.036 3.666-2.143zm-34.036 19.902-3.665 2.143-3.722-2.037 3.665-2.143zm-34.035 19.901-3.665 2.143-3.722-2.036 3.665-2.143zm-34.035 19.901-3.666 2.144-3.722-2.037 3.666-2.143zm-34.036 19.902-3.665 2.143-3.722-2.036 3.665-2.144zm-34.035 19.901-3.665 2.144-3.723-2.037 3.666-2.143zm-34.035 19.902-3.666 2.143-3.722-2.036 3.666-2.144zm-34.036 19.901-3.665 2.143-3.722-2.036 3.665-2.143zm918.557-576.078-3.66 2.144-3.72-2.037 3.66-2.143zm-34.03 19.902-3.67 2.143-3.72-2.036 3.67-2.144zm-34.04 19.901-3.66 2.144-3.72-2.037 3.66-2.143zm-34.03 19.902-3.67 2.143-3.72-2.036 3.67-2.144zm-34.04 19.901-3.66 2.144-3.72-2.037 3.66-2.143zm-34.03 19.902-3.67 2.143-3.72-2.037 3.66-2.143zm-34.04 19.901-3.66 2.143-3.73-2.036 3.67-2.143zm-34.03 19.901-3.67 2.144-3.72-2.037 3.66-2.143zm-34.04 19.902-3.66 2.143-3.73-2.036 3.67-2.143zm-34.03 19.902-3.67 2.143-3.72-2.037 3.66-2.143zm-34.04 19.901-3.66 2.143-3.73-2.036 3.67-2.143zm-34.035 19.901-3.665 2.144-3.723-2.037 3.666-2.143zm-34.035 19.902-3.666 2.143-3.722-2.036 3.666-2.144zm-34.036 19.901-3.665 2.144-3.722-2.037 3.665-2.143zm-34.035 19.902-3.665 2.143-3.723-2.036 3.666-2.144zm-34.035 19.901-3.666 2.143-3.722-2.036 3.665-2.143zm-34.036 19.902-3.665 2.143-3.722-2.036 3.665-2.144zm-34.035 19.901-3.666 2.143-3.722-2.036 3.666-2.143zm-34.036 19.902-3.665 2.143-3.722-2.037 3.665-2.143zm-34.035 19.901-3.665 2.143-3.722-2.036 3.665-2.143zm-34.035 19.902-3.666 2.143-3.722-2.037 3.665-2.143zm-34.036 19.901-3.665 2.143-3.722-2.036 3.665-2.143zm-34.035 19.901-3.665 2.144-3.723-2.037 3.666-2.143zm-34.035 19.902-3.666 2.143-3.722-2.036 3.665-2.144zm-34.036 19.901-3.665 2.144-3.722-2.037 3.665-2.143zm-34.035 19.902-3.666 2.143-3.722-2.036 3.666-2.144zm-34.036 19.901-3.665 2.143-3.722-2.036 3.665-2.143zm-34.035 19.902-3.665 2.143-3.722-2.037 3.665-2.143zm-34.035 19.901-3.666 2.143-3.722-2.036 3.665-2.143zm918.556-576.078-3.66 2.144-3.72-2.037 3.66-2.143zm-34.03 19.902-3.67 2.143-3.72-2.036 3.67-2.144zm-34.04 19.901-3.66 2.143-3.72-2.036 3.66-2.143zm-34.03 19.902-3.67 2.143-3.72-2.036 3.67-2.144zm-34.04 19.901-3.66 2.143-3.72-2.036 3.66-2.143zm-34.03 19.902-3.67 2.143-3.72-2.037 3.67-2.143zm-34.04 19.901-3.66 2.143-3.73-2.036 3.67-2.143zm-34.03 19.902-3.67 2.143-3.72-2.037 3.66-2.143zm-34.04 19.901-3.66 2.143-3.73-2.036 3.67-2.143zm-34.03 19.901-3.67 2.144-3.72-2.037 3.66-2.143zm-34.039 19.902-3.666 2.143-3.722-2.036 3.666-2.144zm-34.036 19.901-3.665 2.144-3.722-2.037 3.665-2.143zm-34.035 19.902-3.665 2.143-3.722-2.036 3.665-2.144zm-34.035 19.901-3.666 2.143-3.722-2.036 3.666-2.143zm-34.036 19.902-3.665 2.143-3.722-2.037 3.665-2.143zm-34.035 19.901-3.665 2.143-3.722-2.036 3.665-2.143zm-34.035 19.902-3.666 2.143-3.722-2.037 3.665-2.143zm-34.036 19.901-3.665 2.143-3.722-2.036 3.665-2.143zm-34.035 19.902-3.666 2.143-3.722-2.037 3.666-2.143zm-34.035 19.901-3.666 2.143-3.722-2.036 3.665-2.144zm-34.036 19.901-3.665 2.144-3.722-2.037 3.665-2.143zm-34.035 19.902-3.666 2.143-3.722-2.036 3.666-2.144zm-34.036 19.901-3.665 2.144-3.722-2.037 3.665-2.143zm-34.035 19.902-3.665 2.143-3.723-2.036 3.666-2.144zm-34.035 19.901-3.666 2.143-3.722-2.036 3.665-2.143zM486.1 638.885l-3.665 2.143-3.722-2.037 3.665-2.143zm-34.035 19.901-3.666 2.143-3.722-2.036 3.666-2.143zm-34.035 19.901-3.666 2.144-3.722-2.037 3.665-2.143zm-34.036 19.902-3.665 2.143-3.722-2.036 3.665-2.143zm918.556-576.078-3.66 2.143-3.72-2.036 3.66-2.143zm-34.03 19.902-3.67 2.143-3.72-2.037 3.67-2.143zm-34.04 19.901-3.66 2.143-3.72-2.036 3.66-2.143zm-34.03 19.902-3.67 2.143-3.72-2.037 3.67-2.143zm-34.04 19.901-3.66 2.143-3.72-2.036 3.66-2.143zm-34.03 19.901-3.67 2.144-3.72-2.037 3.67-2.143zm-34.04 19.902-3.66 2.143-3.72-2.036 3.66-2.143zm-34.03 19.901-3.67 2.144-3.72-2.037 3.67-2.143zm-34.04 19.902-3.66 2.143-3.73-2.036 3.67-2.144zm-34.033 19.901-3.666 2.144-3.722-2.037 3.666-2.143zm-34.036 19.902-3.665 2.143-3.722-2.036 3.665-2.144zm-34.035 19.901-3.666 2.143-3.722-2.036 3.666-2.143zm-34.035 19.902-3.666 2.143-3.722-2.037 3.665-2.143zm-34.036 19.901-3.665 2.143-3.722-2.036 3.665-2.143zm-34.035 19.901-3.666 2.144-3.722-2.037 3.666-2.143zm-34.036 19.902-3.665 2.143-3.722-2.036 3.665-2.143zm-34.035 19.901-3.665 2.144-3.723-2.037 3.666-2.143zm-34.035 19.902-3.666 2.143-3.722-2.036 3.666-2.144zm-34.036 19.901-3.665 2.144-3.722-2.037 3.665-2.143zm-34.035 19.902-3.665 2.143-3.723-2.036 3.666-2.144zm-34.036 19.901-3.665 2.143-3.722-2.036 3.665-2.143zm-34.035 19.902-3.665 2.143-3.722-2.036 3.665-2.144zm-34.035 19.901-3.666 2.143-3.722-2.036 3.665-2.143zm-34.036 19.902-3.665 2.143-3.722-2.037 3.665-2.143zm-34.035 19.901-3.665 2.143-3.722-2.036 3.665-2.143zm-34.035 19.901-3.666 2.144-3.722-2.037 3.665-2.143zm-34.036 19.902-3.665 2.143-3.722-2.036 3.665-2.143zM383.6 659.85l-3.665 2.144-3.723-2.037 3.666-2.143zm-34.036 19.902-3.665 2.143-3.722-2.036 3.665-2.144zM1553.17 1378.86l-3.66 2.14-3.73-2.04 3.67-2.14zm-34.03 19.9-3.67 2.14-3.72-2.04 3.66-2.14zm-34.04 19.9-3.67 2.14-3.72-2.03 3.67-2.15zm-34.04 19.9-3.66 2.14-3.72-2.03 3.66-2.15zm-34.03 19.9-3.67 2.14-3.72-2.03 3.67-2.15zm-34.04 19.9-3.66 2.15-3.72-2.04 3.66-2.14zm-34.03 19.9-3.67 2.15-3.72-2.04 3.67-2.14zm-34.04 19.91-3.66 2.14-3.72-2.04 3.66-2.14zm-34.03 19.9-3.67 2.14-3.72-2.04 3.67-2.14zm-34.04 19.9-3.66 2.14-3.73-2.03 3.67-2.15zm271.89-197.95-3.66 2.14-3.73-2.03 3.67-2.15zm-34.03 19.9-3.67 2.14-3.72-2.03 3.66-2.15zm-34.04 19.9-3.66 2.14-3.73-2.03 3.67-2.15zm-34.03 19.9-3.67 2.15-3.72-2.04 3.66-2.14zm-34.04 19.9-3.67 2.15-3.72-2.04 3.67-2.14zm-34.04 19.91-3.66 2.14-3.72-2.04 3.66-2.14zm-34.03 19.9-3.67 2.14-3.72-2.04 3.67-2.14zm-34.04 19.9-3.66 2.14-3.72-2.03 3.66-2.15zm-34.03 19.9-3.67 2.14-3.72-2.03 3.67-2.15zm-34.04 19.9-3.66 2.14-3.72-2.03 3.66-2.15zm271.89-197.95-3.66 2.14-3.73-2.03 3.67-2.15zm-34.03 19.9-3.67 2.15-3.72-2.04 3.66-2.14zm-34.04 19.9-3.66 2.15-3.73-2.04 3.67-2.14zm-34.03 19.91-3.67 2.14-3.72-2.04 3.66-2.14zm-34.04 19.9-3.67 2.14-3.72-2.04 3.67-2.14zm-34.04 19.9-3.66 2.14-3.72-2.03 3.66-2.15zm-34.03 19.9-3.67 2.14-3.72-2.03 3.67-2.15zm-34.04 19.9-3.66 2.14-3.72-2.03 3.66-2.14zm-34.03 19.9-3.67 2.15-3.72-2.04 3.67-2.14zm-34.04 19.9-3.66 2.15-3.72-2.04 3.66-2.14zm271.89-197.95-3.66 2.15-3.73-2.04 3.67-2.14zm-34.03 19.91-3.67 2.14-3.72-2.04 3.66-2.14zm-34.04 19.9-3.66 2.14-3.73-2.04 3.67-2.14zm-34.03 19.9-3.67 2.14-3.72-2.03 3.66-2.15zm-34.04 19.9-3.66 2.14-3.73-2.03 3.67-2.15zm-34.03 19.9-3.67 2.14-3.72-2.03 3.66-2.15zm-34.04 19.9-3.67 2.15-3.72-2.04 3.67-2.14zm-34.04 19.9-3.66 2.15-3.72-2.04 3.66-2.14zm-34.03 19.91-3.67 2.14-3.72-2.04 3.67-2.14zm-34.04 19.9-3.66 2.14-3.72-2.04 3.66-2.14zm271.89-197.95-3.66 2.14-3.73-2.04 3.67-2.14zm-34.03 19.9-3.67 2.14-3.72-2.03 3.66-2.15zm-34.04 19.9-3.66 2.14-3.73-2.03 3.67-2.15zm-34.03 19.9-3.67 2.14-3.72-2.03 3.66-2.14zm-34.04 19.9-3.66 2.15-3.73-2.04 3.67-2.14zm-34.03 19.9-3.67 2.15-3.72-2.04 3.66-2.14zm-34.04 19.91-3.67 2.14-3.72-2.04 3.67-2.14zm-34.04 19.9-3.66 2.14-3.72-2.04 3.66-2.14zm-34.03 19.9-3.67 2.14-3.72-2.03 3.67-2.15zm-34.04 19.9-3.66 2.14-3.72-2.03 3.66-2.15zm271.89-197.95-3.66 2.14-3.72-2.03 3.66-2.15zm-34.03 19.9-3.67 2.14-3.72-2.03 3.67-2.14zm-34.04 19.9-3.66 2.15-3.73-2.04 3.67-2.14zm-34.03 19.9-3.67 2.15-3.72-2.04 3.66-2.14zm-34.04 19.91-3.66 2.14-3.73-2.04 3.67-2.14zm-34.03 19.9-3.67 2.14-3.72-2.04 3.66-2.14zm-34.04 19.9-3.66 2.14-3.73-2.03 3.67-2.15zm-34.03 19.9-3.67 2.14-3.72-2.03 3.66-2.15zm-34.04 19.9-3.67 2.14-3.72-2.03 3.67-2.14zm-34.04 19.9-3.66 2.15-3.72-2.04 3.66-2.14zm271.89-197.95-3.66 2.15-3.72-2.04 3.66-2.14zm-34.03 19.9-3.67 2.15-3.72-2.04 3.67-2.14zm-34.04 19.91-3.66 2.14-3.72-2.04 3.66-2.14zm-34.03 19.9-3.67 2.14-3.72-2.04 3.67-2.14zm-34.04 19.9-3.66 2.14-3.73-2.03 3.67-2.15zm-34.03 19.9-3.67 2.14-3.72-2.03 3.66-2.15zm-34.04 19.9-3.66 2.14-3.73-2.03 3.67-2.14zm-34.03 19.9-3.67 2.15-3.72-2.04 3.66-2.14zm-34.04 19.9-3.67 2.15-3.72-2.04 3.67-2.14zm-34.03 19.91-3.67 2.14-3.72-2.04 3.66-2.14zM1312.16 1247l-3.66 2.14-3.72-2.04 3.66-2.14zm-34.03 19.9-3.67 2.14-3.72-2.04 3.67-2.14zm-34.04 19.9-3.66 2.14-3.72-2.03 3.66-2.15zm-34.03 19.9-3.67 2.14-3.72-2.03 3.67-2.15zm-34.04 19.9-3.66 2.14-3.73-2.03 3.67-2.14zm-34.03 19.9-3.67 2.15-3.72-2.04 3.66-2.14zm-34.04 19.9-3.66 2.15-3.73-2.04 3.67-2.14zm-34.03 19.91-3.67 2.14-3.72-2.04 3.66-2.14zm-34.04 19.9-3.66 2.14-3.73-2.04 3.67-2.14zm-34.03 19.9-3.67 2.14-3.722-2.03 3.662-2.15zm271.88-197.95-3.66 2.14-3.72-2.03 3.66-2.15zm-34.03 19.9-3.67 2.14-3.72-2.03 3.67-2.15zm-34.04 19.9-3.66 2.14-3.72-2.03 3.66-2.14zm-34.03 19.9-3.67 2.15-3.72-2.04 3.67-2.14zm-34.04 19.9-3.66 2.15-3.72-2.04 3.66-2.14zm-34.03 19.91-3.67 2.14-3.72-2.04 3.67-2.14zm-34.04 19.9-3.66 2.14-3.73-2.04 3.67-2.14zm-34.03 19.9-3.67 2.14-3.72-2.03 3.66-2.15zm-34.04 19.9-3.66 2.14-3.726-2.03 3.666-2.15zm-34.034 19.9-3.665 2.14-3.723-2.03 3.666-2.14zm271.884-197.95-3.66 2.14-3.72-2.03 3.66-2.14zm-34.03 19.9-3.67 2.15-3.72-2.04 3.67-2.14zm-34.04 19.9-3.66 2.15-3.72-2.04 3.66-2.14zm-34.03 19.91-3.67 2.14-3.72-2.04 3.67-2.14zm-34.04 19.9-3.66 2.14-3.72-2.04 3.66-2.14zm-34.03 19.9-3.67 2.14-3.72-2.03 3.67-2.15zm-34.04 19.9-3.66 2.14-3.73-2.03 3.67-2.15zm-34.03 19.9-3.67 2.14-3.72-2.03 3.66-2.14zm-34.038 19.9-3.666 2.15-3.722-2.04 3.666-2.14zm-34.036 19.9-3.665 2.15-3.722-2.04 3.665-2.14zm271.884-197.95-3.66 2.15-3.72-2.04 3.66-2.14zm-34.03 19.91-3.67 2.14-3.72-2.04 3.67-2.14zm-34.04 19.9-3.66 2.14-3.72-2.04 3.66-2.14zm-34.03 19.9-3.67 2.14-3.72-2.03 3.67-2.15zm-34.04 19.9-3.66 2.14-3.72-2.03 3.66-2.15zm-34.03 19.9-3.67 2.14-3.72-2.03 3.67-2.14zm-34.04 19.9-3.66 2.15-3.725-2.04 3.665-2.14zm-34.033 19.9-3.665 2.15-3.722-2.04 3.665-2.14zm-34.035 19.91-3.665 2.14-3.722-2.04 3.665-2.14zm-34.035 19.9-3.666 2.14-3.722-2.04 3.666-2.14zm271.893-197.95-3.67 2.14-3.72-2.04 3.66-2.14zm-34.04 19.9-3.67 2.14-3.72-2.03 3.67-2.15zm-34.04 19.9-3.66 2.14-3.72-2.03 3.66-2.15zm-34.03 19.9-3.67 2.14-3.72-2.03 3.67-2.14zm-34.04 19.9-3.66 2.15-3.72-2.04 3.66-2.14zm-34.03 19.9-3.67 2.15-3.719-2.04 3.669-2.14zm-34.037 19.91-3.665 2.14-3.722-2.04 3.665-2.14zm-34.035 19.9-3.666 2.14-3.722-2.04 3.666-2.14zm-34.036 19.9-3.665 2.14-3.722-2.03 3.665-2.15zm-34.035 19.9-3.665 2.14-3.722-2.03 3.665-2.15zm271.893-197.95-3.67 2.14-3.72-2.03 3.66-2.15zm-34.04 19.9-3.66 2.14-3.73-2.03 3.67-2.14zm-34.03 19.9-3.67 2.15-3.72-2.04 3.66-2.14zm-34.04 19.9-3.67 2.15-3.72-2.04 3.67-2.14zm-34.04 19.91-3.66 2.14-3.723-2.04 3.663-2.14zm-34.031 19.9-3.665 2.14-3.722-2.04 3.665-2.14zm-34.035 19.9-3.666 2.14-3.722-2.03 3.665-2.15zm-34.036 19.9-3.665 2.14-3.722-2.03 3.665-2.15zm-34.035 19.9-3.666 2.15-3.722-2.04 3.666-2.14zm-34.035 19.9-3.666 2.15-3.722-2.04 3.665-2.14zm271.892-197.95-3.67 2.15-3.72-2.04 3.66-2.14zm-34.04 19.9-3.66 2.15-3.73-2.04 3.67-2.14zm-34.03 19.91-3.67 2.14-3.72-2.04 3.66-2.14zm-34.04 19.9-3.665 2.14-3.722-2.04 3.665-2.14zm-34.035 19.9-3.666 2.14-3.722-2.03 3.666-2.15zm-34.036 19.9-3.665 2.14-3.722-2.03 3.665-2.15zm-34.035 19.9-3.665 2.15-3.722-2.04 3.665-2.14zm-34.035 19.9-3.666 2.15-3.722-2.04 3.666-2.14zm-34.036 19.9-3.665 2.15-3.722-2.04 3.665-2.14zm-34.035 19.91-3.665 2.14-3.722-2.04 3.665-2.14zm271.892-197.95-3.67 2.14-3.72-2.04 3.66-2.14zm-34.04 19.9-3.66 2.14-3.73-2.04 3.67-2.14zm-34.03 19.9-3.669 2.14-3.723-2.03 3.666-2.15zm-34.039 19.9-3.666 2.14-3.722-2.03 3.665-2.15zm-34.036 19.9-3.665 2.15-3.722-2.04 3.665-2.14zm-34.035 19.9-3.666 2.15-3.722-2.04 3.666-2.14zm-34.036 19.9-3.665 2.15-3.722-2.04 3.665-2.14zm-34.035 19.91-3.665 2.14-3.722-2.04 3.665-2.14zm-34.035 19.9-3.666 2.14-3.722-2.04 3.666-2.14zm-34.036 19.9-3.665 2.14-3.722-2.03 3.665-2.15zm271.892-197.95-3.67 2.14-3.72-2.03 3.66-2.15zm-34.04 19.9-3.664 2.14-3.722-2.03 3.666-2.15zm-34.034 19.9-3.665 2.15-3.722-2.04 3.665-2.14zm-34.035 19.9-3.665 2.15-3.723-2.04 3.666-2.14zm-34.035 19.9-3.666 2.15-3.722-2.04 3.666-2.14zm-34.036 19.91-3.665 2.14-3.722-2.04 3.665-2.14zm-34.035 19.9-3.666 2.14-3.722-2.04 3.666-2.14zm-34.035 19.9-3.666 2.14-3.722-2.03 3.665-2.15zm-34.036 19.9-3.665 2.14-3.722-2.03 3.665-2.15zm-34.035 19.9-3.666 2.15-3.722-2.04 3.666-2.14zm271.891-197.95-3.668 2.15-3.722-2.04 3.665-2.14zm-34.038 19.9-3.665 2.15-3.722-2.04 3.665-2.14zm-34.035 19.9-3.666 2.15-3.722-2.04 3.666-2.14zm-34.036 19.91-3.665 2.14-3.722-2.04 3.665-2.14zm-34.035 19.9-3.665 2.14-3.722-2.04 3.665-2.14zm-34.035 19.9-3.666 2.14-3.722-2.03 3.666-2.15zm-34.036 19.9-3.665 2.14-3.722-2.03 3.665-2.15zm-34.035 19.9-3.665 2.15-3.723-2.04 3.666-2.14zm-34.035 19.9-3.666 2.15-3.722-2.04 3.665-2.14zm-34.036 19.9-3.665 2.15-3.722-2.04 3.665-2.14zm271.889-197.95-3.666 2.15-3.722-2.04 3.666-2.14zm-34.036 19.91-3.665 2.14-3.722-2.04 3.665-2.14zm-34.035 19.9-3.665 2.14-3.722-2.04 3.665-2.14zm-34.035 19.9-3.665 2.14-3.723-2.03 3.666-2.15zm-34.036 19.9-3.665 2.14-3.722-2.03 3.665-2.15zm-34.035 19.9-3.665 2.15-3.722-2.04 3.665-2.14zm-34.035 19.9-3.666 2.15-3.722-2.04 3.666-2.14zm-34.036 19.9-3.665 2.15-3.722-2.04 3.665-2.14zm-34.035 19.91-3.665 2.14-3.723-2.04 3.666-2.14zm-34.035 19.9-3.666 2.14-3.722-2.04 3.666-2.14zm271.888-197.95-3.665 2.14-3.722-2.04 3.665-2.14zm-34.035 19.9-3.665 2.14-3.723-2.03 3.666-2.15zm-34.035 19.9-3.666 2.14-3.722-2.03 3.665-2.15zm-34.036 19.9-3.665 2.15-3.722-2.04 3.665-2.14zm-34.035 19.9-3.665 2.15-3.723-2.04 3.666-2.14zm-34.036 19.9-3.665 2.15-3.722-2.04 3.665-2.14zm-34.035 19.91-3.665 2.14-3.722-2.04 3.665-2.14zm-34.035 19.9-3.666 2.14-3.722-2.04 3.666-2.14zm-34.036 19.9-3.665 2.14-3.722-2.03 3.665-2.15zm-34.035 19.9-3.665 2.14-3.722-2.03 3.665-2.15zm271.889-197.95-3.666 2.14-3.722-2.03 3.666-2.15zm-34.036 19.9-3.665 2.15-3.722-2.04 3.665-2.14zm-34.035 19.9-3.665 2.15-3.722-2.04 3.665-2.14zm-34.035 19.9-3.666 2.15-3.722-2.04 3.666-2.14zm-34.036 19.91-3.665 2.14-3.722-2.04 3.665-2.14zm-34.035 19.9-3.665 2.14-3.723-2.04 3.666-2.14zm-34.036 19.9-3.665 2.14-3.722-2.03 3.665-2.15zm-34.035 19.9-3.665 2.14-3.722-2.03 3.665-2.15zm-34.035 19.9-3.666 2.15-3.722-2.04 3.666-2.14zm-34.035 19.9-3.666 2.15-3.722-2.04 3.665-2.14zm271.888-197.95-3.665 2.15-3.722-2.04 3.665-2.14zm-34.036 19.9-3.665 2.15-3.722-2.04 3.665-2.14zm-34.035 19.91-3.665 2.14-3.722-2.04 3.665-2.14zm-34.035 19.9-3.665 2.14-3.723-2.04 3.666-2.14zm-34.035 19.9-3.666 2.14-3.722-2.03 3.666-2.15zm-34.036 19.9-3.665 2.14-3.722-2.03 3.665-2.15zm-34.035 19.9-3.666 2.15-3.722-2.04 3.666-2.14zm-34.035 19.9-3.666 2.15-3.722-2.04 3.666-2.14zm-34.036 19.9-3.665 2.15-3.722-2.04 3.665-2.14zm-34.035 19.91-3.666 2.14-3.722-2.04 3.666-2.14zM830.15 983.276l-3.666 2.143-3.722-2.036 3.665-2.143zm-34.036 19.904-3.665 2.14-3.722-2.04 3.665-2.14zm-34.035 19.9-3.666 2.14-3.722-2.03 3.666-2.15zm-34.036 19.9-3.665 2.14-3.722-2.03 3.665-2.15zm-34.035 19.9-3.665 2.15-3.722-2.04 3.665-2.14zm-34.035 19.9-3.666 2.15-3.722-2.04 3.666-2.14zm-34.036 19.9-3.665 2.15-3.722-2.04 3.665-2.14zm-34.035 19.91-3.665 2.14-3.722-2.04 3.665-2.14zm-34.035 19.9-3.666 2.14-3.722-2.04 3.666-2.14zm-34.036 19.9-3.665 2.14-3.722-2.03 3.665-2.15zM795.72 964.439l-3.665 2.143-3.723-2.036 3.666-2.143zm-34.035 19.902-3.666 2.143-3.722-2.037 3.665-2.143zm-34.036 19.899-3.665 2.15-3.722-2.04 3.665-2.14zm-34.035 19.9-3.666 2.15-3.722-2.04 3.666-2.14zm-34.035 19.9-3.666 2.15-3.722-2.04 3.665-2.14zm-34.036 19.91-3.665 2.14-3.722-2.04 3.665-2.14zm-34.035 19.9-3.666 2.14-3.722-2.04 3.666-2.14zm-34.036 19.9-3.665 2.14-3.722-2.03 3.665-2.15zm-34.035 19.9-3.665 2.14-3.722-2.03 3.665-2.15zm-34.035 19.9-3.666 2.15-3.722-2.04 3.666-2.14zM761.29 945.602l-3.665 2.143-3.722-2.036 3.665-2.143zm-34.035 19.901-3.665 2.144-3.723-2.037 3.666-2.143zm-34.035 19.902-3.666 2.143-3.722-2.036 3.666-2.144zm-34.036 19.905-3.665 2.14-3.722-2.04 3.665-2.14zm-34.035 19.9-3.665 2.14-3.722-2.04 3.665-2.14zm-34.035 19.9-3.666 2.14-3.722-2.03 3.665-2.15zm-34.036 19.9-3.665 2.14-3.722-2.03 3.665-2.15zm-34.035 19.9-3.666 2.15-3.722-2.04 3.666-2.14zm-34.036 19.9-3.665 2.15-3.722-2.04 3.665-2.14zm-34.035 19.9-3.665 2.15-3.722-2.04 3.665-2.14zm271.889-197.945-3.666 2.143-3.722-2.036 3.666-2.144zm-34.036 19.901-3.665 2.144-3.722-2.037 3.665-2.143zm-34.035 19.902-3.665 2.143-3.722-2.036 3.665-2.144zm-34.035 19.901-3.666 2.143-3.722-2.036 3.666-2.143zm-34.036 19.901-3.665 2.14-3.722-2.03 3.665-2.15zm-34.035 19.9-3.665 2.15-3.722-2.04 3.665-2.14zm-34.035 19.9-3.666 2.15-3.722-2.04 3.665-2.14zm-34.036 19.9-3.665 2.15-3.722-2.04 3.665-2.14zm-34.035 19.91-3.666 2.14-3.722-2.04 3.666-2.14zm-34.035 19.9-3.666 2.14-3.722-2.04 3.665-2.14zm271.888-197.952-3.665 2.143-3.722-2.036 3.665-2.144zm-34.035 19.901-3.666 2.143-3.722-2.036 3.666-2.143zm-34.035 19.902-3.666 2.143-3.722-2.037 3.665-2.143zm-34.036 19.901-3.665 2.143-3.722-2.036 3.665-2.143zm-34.035 19.901-3.666 2.144-3.722-2.037 3.666-2.143zm-34.036 19.897-3.665 2.15-3.722-2.04 3.665-2.14zm-34.035 19.91-3.665 2.14-3.723-2.04 3.666-2.14zm-34.035 19.9-3.666 2.14-3.722-2.04 3.666-2.14zm-34.036 19.9-3.665 2.14-3.722-2.03 3.665-2.15zm-34.035 19.9-3.665 2.14-3.723-2.03 3.666-2.15zm271.889-197.949-3.666 2.143-3.722-2.037 3.666-2.143zm-34.036 19.901-3.665 2.143-3.722-2.036 3.665-2.143zm-34.035 19.901-3.665 2.144-3.723-2.037 3.666-2.143zm-34.035 19.902-3.666 2.143-3.722-2.036 3.665-2.143zm-34.036 19.901-3.665 2.144-3.722-2.037 3.665-2.143zm-34.035 19.902-3.666 2.143-3.722-2.036 3.666-2.144zm-34.036 19.902-3.665 2.14-3.722-2.03 3.665-2.15zm-34.035 19.9-3.665 2.14-3.722-2.03 3.665-2.15zm-34.035 19.9-3.666 2.15-3.722-2.04 3.666-2.14zm-34.036 19.9-3.665 2.15-3.722-2.04 3.665-2.14zm271.889-197.947-3.665 2.144-3.722-2.037 3.665-2.143zm-34.036 19.902-3.665 2.143-3.722-2.036 3.665-2.144zm-34.035 19.901-3.665 2.144-3.722-2.037 3.665-2.143zm-34.035 19.902-3.666 2.143-3.722-2.037 3.666-2.143zm-34.035 19.901-3.666 2.143-3.722-2.036 3.666-2.143zm-34.036 19.901-3.665 2.144-3.722-2.037 3.665-2.143zm-34.035 19.902-3.666 2.143-3.722-2.036 3.666-2.143zm-34.036 19.898-3.665 2.15-3.722-2.04 3.665-2.14zm-34.035 19.91-3.665 2.14-3.722-2.04 3.665-2.14zm-34.035 19.9-3.666 2.14-3.722-2.04 3.666-2.14zm271.888-197.954-3.665 2.144-3.722-2.037 3.665-2.143zm-34.035 19.902-3.665 2.143-3.722-2.036 3.665-2.144zm-34.035 19.901-3.666 2.143-3.722-2.036 3.666-2.143zm-34.036 19.902-3.665 2.143-3.722-2.036 3.665-2.144zm-34.035 19.901-3.665 2.143-3.722-2.036 3.665-2.143zm-34.035 19.902-3.666 2.143-3.722-2.037 3.666-2.143zm-34.036 19.901-3.665 2.143-3.722-2.036 3.665-2.143zm-34.035 19.901-3.665 2.144-3.723-2.037 3.666-2.143zm-34.036 19.904-3.665 2.14-3.722-2.04 3.665-2.14zm-34.035 19.9-3.665 2.14-3.722-2.03 3.665-2.15zm271.889-197.951-3.665 2.144-3.723-2.037 3.666-2.143zm-34.036 19.902-3.665 2.143-3.722-2.036 3.665-2.144zm-34.035 19.901-3.665 2.143-3.722-2.036 3.665-2.143zm-34.035 19.902-3.666 2.143-3.722-2.037 3.666-2.143zm-34.036 19.901-3.665 2.143-3.722-2.036 3.665-2.143zm-34.035 19.901-3.665 2.144-3.722-2.037 3.665-2.143zm-34.035 19.902-3.666 2.143-3.722-2.036 3.666-2.143zm-34.036 19.901-3.665 2.144-3.722-2.037 3.665-2.143zm-34.035 19.902-3.665 2.143-3.723-2.036 3.666-2.144zm-34.035 19.899-3.666 2.15-3.722-2.04 3.666-2.14zm271.888-197.948-3.665 2.143-3.722-2.036 3.665-2.143zm-34.035 19.902-3.665 2.143-3.723-2.037 3.666-2.143zm-34.035 19.901-3.666 2.143-3.722-2.036 3.666-2.143zm-34.036 19.902-3.665 2.143-3.722-2.037 3.665-2.143zm-34.035 19.901-3.665 2.143-3.723-2.036 3.666-2.144zm-34.036 19.901-3.665 2.144-3.722-2.037 3.665-2.143zm-34.035 19.902-3.665 2.143-3.722-2.036 3.665-2.144zm-34.035 19.901-3.666 2.144-3.722-2.037 3.666-2.143zM248 972.954l-3.665 2.143-3.722-2.036 3.665-2.144zm-34.035 19.901-3.665 2.143-3.722-2.036 3.665-2.143zm271.889-197.95-3.666 2.143-3.722-2.036 3.666-2.143zm-34.036 19.902-3.665 2.143-3.722-2.037 3.665-2.143zm-34.035 19.901-3.665 2.143-3.722-2.036 3.665-2.144zm-34.035 19.901-3.665 2.144-3.723-2.037 3.666-2.143zm-34.036 19.902-3.665 2.143-3.722-2.036 3.665-2.144zm-34.035 19.901-3.665 2.144-3.722-2.037 3.665-2.143zm-34.036 19.902-3.665 2.143-3.722-2.036 3.665-2.144zm-34.035 19.901-3.665 2.143-3.722-2.036 3.665-2.143zm-34.035 19.902-3.666 2.143-3.722-2.037 3.666-2.143zm-34.036 19.901-3.665 2.143-3.722-2.036 3.665-2.143zm271.889-197.95-3.665 2.143-3.722-2.036 3.665-2.144zm-34.035 19.901-3.666 2.144-3.722-2.037 3.666-2.143zm-34.036 19.902-3.665 2.143-3.722-2.036 3.665-2.144zm-34.035 19.901-3.665 2.143-3.723-2.036 3.666-2.143zm-34.035 19.902-3.666 2.143-3.722-2.037 3.666-2.143zm-34.036 19.901-3.665 2.143-3.722-2.036 3.665-2.143zm-34.035 19.902-3.666 2.143-3.722-2.037 3.666-2.143zm-34.035 19.901-3.666 2.143-3.722-2.036 3.665-2.143zm-34.036 19.901-3.665 2.144-3.722-2.037 3.665-2.143zm-34.035 19.902-3.666 2.143-3.722-2.036 3.666-2.144zm271.889-197.95-3.666 2.143-3.722-2.036 3.665-2.144zm-34.036 19.901-3.665 2.144-3.722-2.037 3.665-2.143zm-34.035 19.902-3.666 2.143-3.722-2.037 3.666-2.143zm-34.036 19.901-3.665 2.143-3.722-2.036 3.665-2.143zm-34.035 19.902-3.665 2.143-3.722-2.037 3.665-2.143zm-34.035 19.901-3.666 2.143-3.722-2.036 3.666-2.143zm-34.036 19.901-3.665 2.144-3.722-2.037 3.665-2.143zm-34.035 19.902-3.665 2.143-3.722-2.036 3.665-2.144zm-34.035 19.901-3.666 2.144-3.722-2.037 3.665-2.143zm-34.036 19.902-3.665 2.143-3.722-2.036 3.665-2.144zm271.889-197.95-3.665 2.143-3.723-2.037 3.666-2.143zm-34.036 19.901-3.665 2.143-3.722-2.036 3.665-2.143zm-34.035 19.902-3.665 2.143-3.722-2.037 3.665-2.143zm-34.035 19.901-3.666 2.143-3.722-2.036 3.666-2.144zm-34.035 19.901-3.666 2.144-3.722-2.037 3.665-2.143zm-34.036 19.902-3.665 2.143-3.722-2.036 3.665-2.144zm-34.035 19.901-3.666 2.144-3.722-2.037 3.666-2.143zm-34.036 19.902-3.665 2.143-3.722-2.036 3.665-2.144zm-34.035 19.901-3.665 2.144-3.722-2.037 3.665-2.143zm-34.035 19.902-3.666 2.143-3.722-2.037 3.666-2.143zm271.888-197.95-3.665 2.143-3.722-2.037 3.665-2.143zM314.1 739.458l-3.665 2.143-3.722-2.036 3.665-2.143zm-34.035 19.901-3.666 2.144-3.722-2.037 3.666-2.143zm-34.036 19.902-3.665 2.143-3.722-2.036 3.665-2.144zm-34.035 19.901-3.665 2.144-3.722-2.037 3.665-2.143zm-34.035 19.902-3.666 2.143-3.722-2.036 3.665-2.144zm-34.036 19.901-3.665 2.144-3.722-2.037 3.665-2.143zm-34.035 19.902-3.665 2.143-3.723-2.037 3.666-2.143zm-34.035 19.901-3.666 2.143-3.722-2.036 3.665-2.143zM41.817 898.67l-3.665 2.143-3.722-2.037 3.665-2.143zm271.889-197.951-3.666 2.144-3.722-2.037 3.666-2.143zm-34.036 19.902-3.665 2.143-3.722-2.036 3.665-2.144zm-34.035 19.901-3.665 2.144-3.722-2.037 3.665-2.143zM211.6 760.424l-3.666 2.143-3.722-2.036 3.666-2.144zm-34.036 19.901-3.665 2.143-3.722-2.036 3.665-2.143zm-34.035 19.902-3.665 2.143-3.723-2.037 3.666-2.143zm-34.035 19.901-3.666 2.143-3.722-2.036 3.665-2.143zM75.458 840.03l-3.665 2.143-3.722-2.037 3.665-2.143zm-34.035 19.901-3.666 2.143-3.722-2.036 3.666-2.143zM7.388 879.832l-3.666 2.144L0 879.939l3.665-2.143z"/></g><defs><clipPath id="a"><path fill="#fff" d="M0 0h1432v890H0z"/></clipPath></defs></svg>