<?xml version="1.0" encoding="utf-8"?>
<!-- Generator: Adobe Illustrator 26.0.1, SVG Export Plug-In . SVG Version: 6.00 Build 0)  -->
<svg version="1.1" id="Layer_1" xmlns="http://www.w3.org/2000/svg" xmlns:xlink="http://www.w3.org/1999/xlink" x="0px" y="0px"
	 viewBox="0 0 20 22" style="enable-background:new 0 0 20 22;" xml:space="preserve">
<style type="text/css">
	.st0{fill:#231F20;}
</style>
<path class="st0" d="M11.1,21.7c-3.1,0-5.7-2.6-5.7-5.7V4.7c0-2.4,2-4.4,4.4-4.4s4.4,2,4.4,4.4v9.8c0,1.5-1.2,2.7-2.7,2.7
	c-1.5,0-2.7-1.2-2.7-2.7V8c0-0.4,0.3-0.8,0.8-0.8s0.8,0.3,0.8,0.8v6.5c0,0.6,0.5,1.2,1.2,1.2c0.6,0,1.2-0.5,1.2-1.2V4.7
	c0-1.6-1.3-2.9-2.9-2.9c-1.6,0-2.9,1.3-2.9,2.9V16c0,2.3,1.9,4.2,4.2,4.2c2.3,0,4.2-1.9,4.2-4.2v-2.5c0-0.4,0.3-0.8,0.8-0.8
	s0.8,0.3,0.8,0.8V16C16.8,19.1,14.2,21.7,11.1,21.7z"/>
</svg>
