<?xml version="1.0" encoding="utf-8"?>
<!-- Generator: Adobe Illustrator 26.0.1, SVG Export Plug-In . SVG Version: 6.00 Build 0)  -->
<svg version="1.1" id="Layer_1" xmlns="http://www.w3.org/2000/svg" xmlns:xlink="http://www.w3.org/1999/xlink" x="0px" y="0px"
	 viewBox="0 0 12 12" style="enable-background:new 0 0 12 12;" xml:space="preserve">
<style type="text/css">
	.st0{fill:none;stroke:#000000;stroke-miterlimit:10;}
</style>
<path class="st0" d="M10.7,4.9h-0.4c-0.3,0-0.6-0.3-0.6-0.7c0-0.2,0.1-0.3,0.2-0.5l0.3-0.3c0.3-0.3,0.3-0.7,0-1L9.5,1.9
	C9.4,1.8,9.2,1.7,9,1.7c-0.2,0-0.4,0.1-0.5,0.2L8.3,2.2C8.1,2.3,8,2.4,7.8,2.4c-0.4,0-0.7-0.3-0.7-0.6V1.3c0-0.4-0.3-0.7-0.7-0.7
	H5.6C5.2,0.6,4.9,1,4.9,1.3v0.4c0,0.3-0.3,0.6-0.7,0.6c-0.2,0-0.3-0.1-0.5-0.2L3.5,1.9C3.4,1.8,3.2,1.7,3.1,1.7
	c-0.2,0-0.4,0.1-0.5,0.2L1.9,2.5c-0.3,0.3-0.3,0.7,0,1l0.3,0.3c0.1,0.1,0.2,0.3,0.2,0.5c0,0.4-0.3,0.7-0.6,0.7H1.4
	C1,4.9,0.7,5.2,0.7,5.6V6v0.4c0,0.4,0.3,0.7,0.7,0.7h0.4c0.3,0,0.6,0.3,0.6,0.7c0,0.2-0.1,0.3-0.2,0.5L1.9,8.5c-0.3,0.3-0.3,0.7,0,1
	l0.6,0.6c0.1,0.1,0.3,0.2,0.5,0.2s0.4-0.1,0.5-0.2l0.3-0.3c0.1-0.1,0.3-0.2,0.5-0.2c0.4,0,0.7,0.3,0.7,0.6v0.4
	c0,0.4,0.3,0.7,0.7,0.7h0.8c0.4,0,0.7-0.3,0.7-0.7v-0.4c0-0.3,0.3-0.6,0.7-0.6c0.2,0,0.3,0.1,0.5,0.2l0.3,0.3
	c0.1,0.1,0.3,0.2,0.5,0.2c0.2,0,0.4-0.1,0.5-0.2l0.6-0.6c0.3-0.3,0.3-0.7,0-1L9.8,8.2C9.7,8.1,9.6,7.9,9.6,7.8
	c0-0.4,0.3-0.7,0.6-0.7h0.4c0.4,0,0.6-0.3,0.6-0.7V6V5.6C11.3,5.2,11.1,4.9,10.7,4.9z M8.3,6L8.3,6c0,1.2-1,2.2-2.2,2.2
	S3.8,7.2,3.8,6l0,0l0,0c0-1.2,1-2.2,2.2-2.2S8.3,4.8,8.3,6L8.3,6z"/>
</svg>
