<?xml version="1.0" encoding="utf-8"?>
<!-- Generator: Adobe Illustrator 26.0.1, SVG Export Plug-In . SVG Version: 6.00 Build 0)  -->
<svg version="1.1" id="Layer_1" xmlns="http://www.w3.org/2000/svg" xmlns:xlink="http://www.w3.org/1999/xlink" x="0px" y="0px"
	 viewBox="0 0 756 236" style="enable-background:new 0 0 756 236;" xml:space="preserve">
<style type="text/css">
	.st0{fill:#272F40;}
	.st1{fill:#0AA461;}
</style>
<path class="st0" d="M91.7,74.9v78.2c0,1-0.8,1.9-2,1.9H80c-1,0-2-0.9-2-1.9V74.9c0.2-1,1-1.9,2.2-1.9h9.6
	C90.8,73,91.7,73.9,91.7,74.9z"/>
<path class="st0" d="M117,100.3h-9.6c-1,0-2,0.7-2,1.7v51.2c0,0.9,0.8,1.7,2,1.7h9.6c1,0,2-0.7,2-1.7V102
	C119,101,118.1,100.3,117,100.3z"/>
<path class="st0" d="M115.6,79.8h-6.7c-1.9,0-3.4,1.5-3.4,3.4v6.8c0,1.9,1.5,3.4,3.4,3.4h6.7c1.9,0,3.4-1.5,3.4-3.4v-6.8
	C119,81.4,117.5,79.8,115.6,79.8z"/>
<path class="st0" d="M221.4,123.4v29.4c0,1.2-0.9,2-2,2h-9c-1.2,0-2-0.9-2-2v-27.7c0-4.6-1-8.2-2.9-10.4c-1.9-2.4-4.8-3.4-8.5-3.4
	c-4.1,0-7.3,1.4-9.7,4.1s-3.6,6.7-3.6,11.8v25.8c0,1.2-0.9,2-2,2h-9c-1.2,0-2-0.9-2-2v-27.8c0-4.6-1-8.2-2.9-10.4
	c-1.9-2.4-4.8-3.4-8.5-3.4c-4.1,0-7.3,1.4-9.7,4.1c-2.4,2.7-3.6,6.7-3.6,11.8v25.8c0,1.2-0.9,2-2,2h-9c-1.2,0-2-0.9-2-2V102
	c0-1.2,0.9-2,2-2h8.4c1,0,2,0.9,2,2v4.3c1.9-2,4.3-3.8,6.8-5c3.1-1.4,6.3-1.9,10.1-1.9c3.9,0,7.5,0.9,10.6,2.4
	c2.4,1.2,4.3,2.7,6,4.8c0.7,0.9,1.9,0.9,2.6,0.2c1.9-2,4.3-3.6,6.8-4.8c3.4-1.5,7.3-2.4,11.4-2.4c6.6,0,12.1,2,16,6
	C219.4,109.4,221.4,115.3,221.4,123.4z"/>
<path class="st0" d="M280.5,112.5c-2.4-4.1-5.6-7.4-9.8-9.6c-4.2-2.2-9-3.4-14.2-3.4c-5.6,0-10.5,1.2-14.7,3.4
	c-4.2,2.4-7.6,5.7-10,9.9c-2.4,4.3-3.6,9.2-3.6,14.7c0,5.7,1.2,10.6,3.7,14.9c2.4,4.3,5.8,7.7,10.2,9.9c4.2,2.4,9.1,3.4,14.5,3.4
	c6.6,0,12.2-1.5,16.8-4.8c3.6-2.6,6.3-5.7,8.1-9.4c0,0,0.2-0.2,0.2-0.3c0-0.2,0.2-0.3,0.2-0.5c0-0.9-0.7-1.5-1.5-1.5h-10.5
	c-0.5,0-1,0.3-1.4,0.9c-2.5,3.6-6.3,5.5-11.5,5.5c-4.1,0-7.6-1.2-10.5-3.8c-2.7-2.4-4.2-5.5-4.7-9.4H282c1.2,0,2.2-0.9,2.4-2.1
	s0.2-2.6,0.2-4.1C284.1,121.4,282.9,116.6,280.5,112.5z M242.8,123.1c-1,0-1.9-1-1.7-2.1c0.8-3.1,2.4-5.8,4.6-7.7
	c2.9-2.4,6.3-3.6,10.2-3.6c4.4,0,8,1.2,11,3.8c2.5,2.1,3.9,4.6,4.4,7.9c0.2,1-0.7,1.9-1.7,1.9h-26.7V123.1z"/>
<path class="st0" d="M342.3,152.2l-18.6-23.7c-0.3-0.5-0.3-1.4,0-2l18.6-23.7c0.9-1,0-2.6-1.4-2.6h-11.1c-0.5,0-1,0.3-1.4,0.7
	l-11.7,13.6c-0.7,1-2,1-2.7,0L302.5,101c-0.3-0.5-0.9-0.7-1.4-0.7h-11.2c-1.4,0-2.2,1.5-1.4,2.6l18.4,23.8c0.3,0.5,0.3,1.4,0,2
	l-18.6,23.7c-0.9,1,0,2.6,1.4,2.6h11.1c0.5,0,1-0.3,1.4-0.7l11.6-14.6c0.7-1,2-1,2.7,0l11.7,14.6c0.3,0.5,0.9,0.7,1.4,0.7h11.1
	C342.3,155,343.1,153.4,342.3,152.2z"/>
<path class="st1" d="M424.1,128.8l-23-23.5c-0.7-0.9-1.9-1.2-2.9-1.2c-1,0-2.2,0.3-2.9,1.2l-23,23.5c-2.1,2.2-1.9,5.7,0.5,7.6
	c7.4,6,16.5,8.9,25.4,8.9s18.1-2.9,25.6-8.8C426.2,134.6,426.4,131,424.1,128.8z"/>
<path class="st1" d="M498,110.5V79.8h9.4V155H498v-9.2c-4.6,7.1-11.4,10.6-20.3,10.6c-7.6,0-14-2.7-19.2-8.2c-5.3-5.5-8-12.2-8-20.1
	c0-7.8,2.7-14.5,8-20c5.3-5.5,11.7-8.3,19.2-8.3C486.7,99.9,493.4,103.4,498,110.5z M478.9,147.4c5.4,0,10-1.8,13.7-5.5
	c3.7-3.8,5.5-8.4,5.5-13.8c0-5.4-1.8-10-5.5-13.7c-3.7-3.7-8.2-5.6-13.7-5.6c-5.4,0-9.9,1.9-13.5,5.6c-3.7,3.7-5.5,8.2-5.5,13.7
	c0,5.4,1.8,10,5.5,13.8C469,145.6,473.5,147.4,478.9,147.4z"/>
<path class="st1" d="M522,91.5c-1.8,0-3.3-0.6-4.5-1.8c-1.2-1.2-1.8-2.7-1.8-4.4c0-1.7,0.6-3.2,1.8-4.4c1.2-1.3,2.7-1.9,4.5-1.9
	c1.7,0,3.2,0.6,4.4,1.9c1.2,1.2,1.8,2.7,1.8,4.4c0,1.7-0.6,3.2-1.8,4.4C525.2,90.9,523.7,91.5,522,91.5z M526.6,155h-9.4v-53.7h9.4
	V155z"/>
<path class="st1" d="M581.1,110.5v-9.2h9.4V155h-9.4v-9.2c-4.6,7.1-11.4,10.6-20.3,10.6c-7.6,0-14-2.7-19.2-8.2
	c-5.3-5.5-8-12.2-8-20.1c0-7.8,2.7-14.5,8-20c5.3-5.5,11.7-8.3,19.2-8.3C569.7,99.9,576.5,103.4,581.1,110.5z M561.9,147.4
	c5.4,0,10-1.8,13.7-5.5c3.7-3.8,5.5-8.4,5.5-13.8c0-5.4-1.8-10-5.5-13.7c-3.7-3.7-8.2-5.6-13.7-5.6c-5.4,0-9.9,1.9-13.5,5.6
	c-3.7,3.7-5.5,8.2-5.5,13.7c0,5.4,1.8,10,5.5,13.8C552,145.6,556.6,147.4,561.9,147.4z"/>
<path class="st1" d="M609.6,101.3v9c3.1-6.7,8.7-10,16.8-10v9.8c-4.6-0.2-8.5,1-11.8,3.7c-3.3,2.7-4.9,6.9-4.9,12.8V155h-9.4v-53.7
	H609.6z"/>
<path class="st1" d="M660.5,143.4l15.5-42.1h10L664,158.3c-2.4,6.1-5.6,10.7-9.8,13.9c-4.1,3.2-8.8,4.7-14.1,4.3v-8.7
	c6.6,0.5,11.4-3.2,14.5-11l1-2l-23.4-53.5h10L660.5,143.4z"/>
</svg>
