<?xml version="1.0" encoding="utf-8"?>
<!-- Generator: Adobe Illustrator 26.0.1, SVG Export Plug-In . SVG Version: 6.00 Build 0)  -->
<svg version="1.1" id="Layer_1" xmlns="http://www.w3.org/2000/svg" xmlns:xlink="http://www.w3.org/1999/xlink" x="0px" y="0px"
	 viewBox="0 0 20 22" style="enable-background:new 0 0 20 22;" xml:space="preserve">
<style type="text/css">
	.st0{fill-rule:evenodd;clip-rule:evenodd;fill:#231F20;}
</style>
<path class="st0" d="M5,5.6c0-2.8,2.2-5.1,5-5.1s5,2.3,5,5.1V10c0,2.8-2.2,5.1-5,5.1S5,12.9,5,10V5.6z M2.8,8.8
	c0.4,0,0.7,0.3,0.7,0.7V10c0,3.6,2.9,6.6,6.4,6.6s6.4-3,6.4-6.6V9.5c0-0.4,0.3-0.7,0.7-0.7c0.4,0,0.7,0.3,0.7,0.7V10
	c0,4.2-3.1,7.7-7.2,8v2.7c0,0.4-0.3,0.7-0.7,0.7s-0.7-0.3-0.7-0.7V18c-4-0.4-7.2-3.8-7.2-8V9.5C2.1,9.1,2.4,8.8,2.8,8.8z"/>
</svg>
