<?xml version="1.0" encoding="utf-8"?>
<!-- Generator: Adobe Illustrator 26.0.1, SVG Export Plug-In . SVG Version: 6.00 Build 0)  -->
<svg version="1.1" id="Layer_1" xmlns="http://www.w3.org/2000/svg" xmlns:xlink="http://www.w3.org/1999/xlink" x="0px" y="0px"
	 viewBox="0 0 19 19" style="enable-background:new 0 0 19 19;" xml:space="preserve">
<style type="text/css">
	.st0{fill:#535C6D;stroke:#231F20;stroke-miterlimit:10;}
</style>
<path class="st0" d="M8.5,1.8c0.2-0.4,0.1-0.8-0.3-1c-0.4-0.2-0.8-0.1-1,0.3l0.7,0.4L8.5,1.8z M5.2,6.1v0.8l0,0V6.1z M14.4,1.8
	c0.2-0.4,0.1-0.8-0.3-1c-0.4-0.2-0.8-0.1-1,0.3l0.7,0.4L14.4,1.8z M11.2,6.1v0.8l0,0V6.1z M18,6.8c0.4,0,0.8-0.3,0.8-0.8
	c0-0.4-0.3-0.8-0.8-0.8v0.8V6.8z M1,5.3c-0.4,0-0.8,0.3-0.8,0.8c0,0.4,0.3,0.8,0.8,0.8V6.1V5.3z M1,7.8h0.8H1z M1.5,3.3l0.7,0.3l0,0
	L1.5,3.3z M7.8,1v0.8V1z M3.3,1.5l0.3,0.7L3.3,1.5z M7.8,18v0.8l0,0V18z M3.3,17.5l0.3-0.7l0,0L3.3,17.5z M1,11.2H0.2H1z M1.5,15.7
	l0.7-0.3L1.5,15.7z M18,11.2h0.8l0,0H18z M17.5,15.7l-0.7-0.3l0,0L17.5,15.7z M11.2,18v-0.8l0,0V18z M15.7,17.5l-0.3-0.7L15.7,17.5z
	 M18,7.8h-0.8l0,0H18z M17.5,3.3l-0.7,0.3L17.5,3.3z M11.2,1V0.2V1z M15.7,1.5l-0.3,0.7l0,0L15.7,1.5z M7.8,1.4L7.1,1.1L4.6,5.7
	l0.7,0.4l0.7,0.4l2.5-4.7L7.8,1.4z M13.8,1.4l-0.7-0.4l-2.6,4.7l0.7,0.4l0.7,0.4l2.5-4.7L13.8,1.4z M18,6.1V5.3h-6.8v0.8v0.8H18V6.1
	z M11.2,6.1V5.3H5.2v0.8v0.8h5.9V6.1z M5.2,6.1V5.3H1v0.8v0.8h4.2V6.1z M18,7.8h-0.8v3.4H18h0.8V7.8H18z M11.2,18v-0.8H7.8V18v0.8
	h3.4V18z M1,11.2h0.8V7.8H1H0.2v3.4H1z M7.8,1v0.8h3.4V1V0.2H7.8V1z M1,7.8h0.8c0-1.2,0-2.1,0.1-2.7C1.9,4.4,2,4,2.1,3.7L1.5,3.3
	L0.8,3c-0.3,0.6-0.4,1.2-0.5,2C0.2,5.7,0.2,6.6,0.2,7.8H1z M7.8,1V0.2c-1.2,0-2.1,0-2.9,0.1C4.2,0.4,3.6,0.5,3,0.8l0.3,0.7l0.3,0.7
	C4,2,4.4,1.9,5.1,1.8c0.7-0.1,1.5-0.1,2.7-0.1V1z M1.5,3.3l0.7,0.3C2.5,3,3,2.5,3.7,2.1L3.3,1.5L3,0.8C2,1.3,1.3,2,0.8,3L1.5,3.3z
	 M7.8,18v-0.8c-1.2,0-2.1,0-2.7-0.1C4.4,17.1,4,17,3.7,16.9l-0.3,0.7L3,18.2c0.6,0.3,1.2,0.4,2,0.5c0.7,0.1,1.7,0.1,2.9,0.1V18z
	 M1,11.2H0.2c0,1.2,0,2.1,0.1,2.9c0.1,0.8,0.2,1.4,0.5,2l0.7-0.3l0.7-0.3C2,15,1.9,14.6,1.8,13.9c-0.1-0.7-0.1-1.5-0.1-2.7H1z
	 M3.3,17.5l0.3-0.7C3,16.5,2.5,16,2.1,15.3l-0.7,0.3L0.8,16C1.3,17,2,17.7,3,18.2L3.3,17.5z M18,11.2h-0.8c0,1.2,0,2.1-0.1,2.7
	c-0.1,0.7-0.2,1.1-0.3,1.4l0.7,0.3l0.7,0.3c0.3-0.6,0.4-1.2,0.5-2c0.1-0.7,0.1-1.7,0.1-2.9H18z M11.2,18v0.8c1.2,0,2.1,0,2.9-0.1
	c0.8-0.1,1.4-0.2,2-0.5l-0.3-0.7l-0.3-0.7c-0.3,0.2-0.7,0.3-1.4,0.3c-0.7,0.1-1.5,0.1-2.7,0.1V18z M17.5,15.7l-0.7-0.3
	c-0.3,0.7-0.9,1.2-1.5,1.5l0.3,0.7l0.3,0.7c0.9-0.5,1.7-1.2,2.2-2.2L17.5,15.7z M18,7.8h0.8c0-1.2,0-2.1-0.1-2.9
	c-0.1-0.8-0.2-1.4-0.5-2l-0.7,0.3l-0.7,0.3C17,4,17.1,4.4,17.2,5.1c0.1,0.7,0.1,1.5,0.1,2.7H18z M11.2,1v0.8c1.2,0,2.1,0,2.7,0.1
	C14.6,1.9,15,2,15.3,2.1l0.3-0.7L16,0.8c-0.6-0.3-1.2-0.4-2-0.5c-0.7-0.1-1.7-0.1-2.9-0.1V1z M17.5,3.3L18.2,3C17.7,2,17,1.3,16,0.8
	l-0.3,0.7l-0.3,0.7C16,2.5,16.5,3,16.9,3.7L17.5,3.3z"/>
</svg>
