<?xml version="1.0" encoding="utf-8"?>
<!-- Generator: Adobe Illustrator 26.0.1, SVG Export Plug-In . SVG Version: 6.00 Build 0)  -->
<svg version="1.1" id="Layer_1" xmlns="http://www.w3.org/2000/svg" xmlns:xlink="http://www.w3.org/1999/xlink" x="0px" y="0px"
	 viewBox="0 0 18 18" style="enable-background:new 0 0 18 18;" xml:space="preserve">
<style type="text/css">
	.st0{fill:none;stroke:#231F20;stroke-width:2;stroke-linecap:round;stroke-linejoin:round;}
</style>
<path class="st0" d="M10.5,8.5l0.8,0.1c0.6,0.1,1,0.1,1.3,0.1c0.8,0,1.5-0.3,2.1-0.7c0.2-0.2,0.5-0.4,0.9-0.9c1.3-1.3,1.3-3.5,0-4.8
	s-3.5-1.3-4.8,0l-4,4 M7.6,9.6L6.5,9.4C5.7,9.2,5.3,9.2,4.9,9.2s-0.7,0.2-1,0.3C3.5,9.7,3.2,10,2.6,10.6l-0.2,0.2
	c-1.3,1.3-1.3,3.5,0,4.8s3.5,1.3,4.8,0l4-4"/>
</svg>
