<?xml version="1.0" encoding="utf-8"?>
<!-- Generator: Adobe Illustrator 26.0.1, SVG Export Plug-In . SVG Version: 6.00 Build 0)  -->
<svg version="1.1" id="Layer_1" xmlns="http://www.w3.org/2000/svg" xmlns:xlink="http://www.w3.org/1999/xlink" x="0px" y="0px"
	 viewBox="0 0 12 12" style="enable-background:new 0 0 12 12;" xml:space="preserve">
<style type="text/css">
	.st0{fill:#FFFFFF;stroke:#000000;stroke-linecap:round;stroke-linejoin:round;stroke-miterlimit:10;}
	.st1{fill:none;stroke:#000000;stroke-linecap:round;stroke-linejoin:round;stroke-miterlimit:10;}
</style>
<g>
	<path class="st0" d="M1.8,10.2l8.3-8.3L1.8,10.2z"/>
	<path class="st1" d="M1.8,10.2l8.3-8.3"/>
	<path class="st0" d="M8.2,0.5L0.5,8.2L8.2,0.5z"/>
	<path class="st1" d="M8.2,0.5L0.5,8.2"/>
	<path class="st0" d="M5.3,0.2L0.2,5.3L5.3,0.2z"/>
	<path class="st1" d="M5.3,0.2L0.2,5.3"/>
	<path class="st0" d="M0.5,8.2l7.7-7.7L0.5,8.2z"/>
	<path class="st1" d="M0.5,8.2l7.7-7.7"/>
	<path class="st0" d="M0.2,5.3l5.2-5.1L0.2,5.3z"/>
	<path class="st1" d="M0.2,5.3l5.2-5.1"/>
	<path class="st0" d="M10.2,1.8l-8.3,8.3L10.2,1.8z"/>
	<path class="st1" d="M10.2,1.8l-8.3,8.3"/>
	<path class="st0" d="M3.8,11.5l7.7-7.7L3.8,11.5z"/>
	<path class="st1" d="M3.8,11.5l7.7-7.7"/>
	<path class="st0" d="M6.7,11.8l5.1-5.1L6.7,11.8z"/>
	<path class="st1" d="M6.7,11.8l5.1-5.1"/>
	<path class="st0" d="M11.5,3.8l-7.7,7.7L11.5,3.8z"/>
	<path class="st1" d="M11.5,3.8l-7.7,7.7"/>
	<path class="st0" d="M11.8,6.7l-5.1,5.1L11.8,6.7z"/>
	<path class="st1" d="M11.8,6.7l-5.1,5.1"/>
</g>
</svg>
