<?xml version="1.0" encoding="utf-8"?>
<!-- Generator: Adobe Illustrator 26.0.1, SVG Export Plug-In . SVG Version: 6.00 Build 0)  -->
<svg version="1.1" id="Layer_1" xmlns="http://www.w3.org/2000/svg" xmlns:xlink="http://www.w3.org/1999/xlink" x="0px" y="0px"
	 viewBox="0 0 12 12" style="enable-background:new 0 0 12 12;" xml:space="preserve">
<style type="text/css">
	.st0{fill:#1A0C21;}
</style>
<path class="st0" d="M1.1,2.3c-0.2,0-0.4,0.2-0.4,0.4s0.2,0.4,0.4,0.4V2.7V2.3z M4.1,1.2L3.7,1l0,0L4.1,1.2z M10.9,3.2
	c0.2,0,0.4-0.2,0.4-0.4s-0.2-0.4-0.4-0.4v0.4V3.2z M7.9,1.2L8.3,1l0,0L7.9,1.2z M2.2,2.7V2.3c-0.1,0-0.2,0-0.3,0.1
	C1.8,2.5,1.8,2.7,1.8,2.8L2.2,2.7z M9.8,2.7l0.4,0c0-0.1,0-0.2-0.1-0.3C10,2.4,9.9,2.3,9.8,2.3V2.7z M3.6,11.3l0.2-0.4L3.6,11.3z
	 M2.6,9L3,9L2.6,9z M2.9,10.6l0.4-0.2L2.9,10.6z M9.4,9L9,9L9.4,9z M9.1,10.6l-0.4-0.2L9.1,10.6z M8.4,11.3l-0.2-0.4L8.4,11.3z
	 M1.1,2.7v0.4h2.2V2.7V2.3H1.1V2.7z M3.3,2.7l0.4,0.2l0.8-1.6L4.1,1.2L3.7,1L2.9,2.6L3.3,2.7z M5,0.6V1H7V0.6V0.2H5V0.6z M3.3,2.7
	v0.4h5.4V2.7V2.3H3.3V2.7z M8.7,2.7v0.4h2.2V2.7V2.3H8.7V2.7z M7.9,1.2L7.6,1.4l0.8,1.6l0.4-0.2l0.4-0.2L8.3,1L7.9,1.2z M7,0.6V1
	c0.3,0,0.5,0.1,0.6,0.4l0.4-0.2L8.3,1C8,0.5,7.5,0.2,7,0.2V0.6z M4.1,1.2l0.4,0.2C4.6,1.1,4.8,1,5,1V0.6V0.2C4.5,0.2,4,0.5,3.7,1
	L4.1,1.2z M2.2,2.7v0.4h7.6V2.7V2.3H2.2V2.7z M9.8,2.7l-0.4,0L9,9l0.4,0l0.4,0l0.4-6.2L9.8,2.7z M6.8,11.4V11H5.2v0.4v0.4h1.6V11.4z
	 M2.6,9L3,9L2.6,2.7l-0.4,0l-0.4,0L2.2,9L2.6,9z M5.2,11.4V11c-0.4,0-0.7,0-1,0c-0.2,0-0.4-0.1-0.5-0.1l-0.2,0.4l-0.2,0.4
	c0.2,0.1,0.5,0.2,0.8,0.2c0.3,0,0.6,0,1,0V11.4z M2.6,9L2.2,9c0,0.4,0,0.8,0.1,1c0,0.3,0.1,0.5,0.2,0.8l0.4-0.2l0.4-0.2
	c-0.1-0.1-0.1-0.2-0.1-0.5C3,9.7,3,9.4,3,9L2.6,9z M3.6,11.3l0.2-0.4c-0.2-0.1-0.4-0.3-0.5-0.5l-0.4,0.2l-0.4,0.2
	c0.2,0.4,0.5,0.6,0.9,0.8L3.6,11.3z M9.4,9L9,9c0,0.4,0,0.7-0.1,1c0,0.2-0.1,0.4-0.1,0.5l0.4,0.2l0.4,0.2c0.1-0.2,0.2-0.5,0.2-0.8
	c0-0.3,0.1-0.6,0.1-1L9.4,9z M6.8,11.4v0.4c0.4,0,0.8,0,1,0c0.3,0,0.5-0.1,0.8-0.2l-0.2-0.4l-0.2-0.4C8.2,10.9,8,11,7.8,11
	c-0.2,0-0.5,0-1,0V11.4z M9.1,10.6l-0.4-0.2c-0.1,0.2-0.3,0.4-0.5,0.5l0.2,0.4l0.2,0.4c0.4-0.2,0.7-0.5,0.9-0.8L9.1,10.6z"/>
</svg>
