<svg width="24" height="24" viewBox="0 0 24 24" fill="none" xmlns="http://www.w3.org/2000/svg">
<g clip-path="url(#clip0_9010_15658)">
<path d="M12 24C18.6274 24 24 18.6274 24 12C24 5.37258 18.6274 0 12 0C5.37258 0 0 5.37258 0 12C0 18.6274 5.37258 24 12 24Z" fill="#F0F0F0"/>
<path d="M20.3971 3.42862C18.2327 1.308 15.2694 0 12 0C10.9565 0 7.9034 1.308 5.73914 3.42862H20.3971Z" fill="#6DA544"/>
<path d="M12 10.2857H23.8776C23.7044 9.07519 23.3508 7.92301 22.8445 6.85716H11.4783L12 10.2857Z" fill="#6DA544"/>
<path d="M1.15551 17.1429H22.8445C23.3508 16.0771 23.7044 14.9248 23.8776 13.7143H0.122437C0.29564 14.9249 0.649124 16.0771 1.15551 17.1429Z" fill="#6DA544"/>
<path d="M3.60291 20.5714C5.76726 22.692 8.73061 24 12 24C15.2694 24 18.2327 22.692 20.3971 20.5714H3.60291Z" fill="#6DA544"/>
<path d="M12 0C5.95472 0 0.954374 4.47052 0.122437 10.2857H12V0Z" fill="#D80027"/>
<path d="M5.99999 9.20001L5.47827 8.15658V6.06961L6.78262 5.02612L8.08696 6.06961V7.63481L8.60868 7.11309V8.15658L7.56519 9.20001H5.99999Z" fill="#F0F0F0"/>
<path d="M3.19378 6L3.33192 6.42516H3.77892L3.41728 6.68798L3.55547 7.11309L3.19378 6.85031L2.8321 7.11309L2.97028 6.68798L2.60864 6.42516H3.05564L3.19378 6Z" fill="#F0F0F0"/>
<path d="M4.23724 4.95651L4.37538 5.38167H4.82243L4.46074 5.6445L4.59888 6.06961L4.23724 5.80687L3.8756 6.06961L4.01379 5.6445L3.6521 5.38167H4.09905L4.23724 4.95651Z" fill="#F0F0F0"/>
<path d="M5.2807 3.91302L5.41884 4.33818H5.86579L5.5042 4.60101L5.64229 5.02612L5.2807 4.76338L4.91901 5.02612L5.05715 4.60101L4.69556 4.33818H5.14251L5.2807 3.91302Z" fill="#F0F0F0"/>
<path d="M10.3713 6L10.2332 6.42516H9.78625L10.1478 6.68798L10.0097 7.11309L10.3713 6.85031L10.733 7.11309L10.5949 6.68798L10.9565 6.42516H10.5095L10.3713 6Z" fill="#F0F0F0"/>
<path d="M9.32789 4.95651L9.18975 5.38167H8.7428L9.10439 5.6445L8.96625 6.06961L9.32789 5.80687L9.68958 6.06961L9.55139 5.6445L9.91303 5.38167H9.46608L9.32789 4.95651Z" fill="#F0F0F0"/>
<path d="M8.28436 3.91302L8.14617 4.33818H7.69922L8.06081 4.60101L7.92267 5.02612L8.28436 4.76338L8.646 5.02612L8.50786 4.60101L8.86945 4.33818H8.4225L8.28436 3.91302Z" fill="#F0F0F0"/>
<path d="M6.78253 3.39131L6.64434 3.81647H6.19739L6.55898 4.07925L6.42084 4.50436L6.78253 4.24162L7.14417 4.50436L7.00603 4.07925L7.36762 3.81647H6.92067L6.78253 3.39131Z" fill="#F0F0F0"/>
</g>
<defs>
<clipPath id="clip0_9010_15658">
<rect width="24" height="24" fill="white"/>
</clipPath>
</defs>
</svg>
