<svg width="24" height="24" viewBox="0 0 24 24" fill="none" xmlns="http://www.w3.org/2000/svg">
<g clip-path="url(#clip0_9010_15636)">
<path d="M24 12C24 18.6274 18.6274 24 12 24C5.37262 24 0 18.6274 0 12C0 12.0028 12 0.00135937 12 0C18.6274 0 24 5.37262 24 12Z" fill="#0052B4"/>
<path d="M11.9999 0C11.9993 0 11.9986 4.6875e-05 11.9979 4.6875e-05L11.9999 0Z" fill="#F0F0F0"/>
<path d="M11.9679 12H12C12 11.9891 12 11.9787 12 11.9679C11.9893 11.9786 11.9786 11.9893 11.9679 12Z" fill="#F0F0F0"/>
<path d="M12 6.26092C12 4.14944 12 2.76583 12 6.10352e-05H11.998C5.3715 0.00113916 0 5.37325 0 12H6.26086V8.47445L9.78642 12H11.9679C11.9787 11.9893 11.9894 11.9786 12 11.9679C12 11.1595 12 10.4381 12 9.78653L8.47444 6.26092H12Z" fill="#F0F0F0"/>
<path d="M6.071 1.56522C4.19417 2.63392 2.63389 4.1942 1.56519 6.07103V12H4.69564V4.69572L12 4.69567C12 3.70834 12 2.76775 12 1.56522H6.071Z" fill="#D80027"/>
<path d="M12 10.5244L7.73654 6.26098H6.26086L11.9999 12H12C12 12 12 10.9826 12 10.5244Z" fill="#D80027"/>
<path d="M7.23729 14.087L7.89588 15.4641L9.38309 15.1203L8.71709 16.4939L9.91305 17.4423L8.42398 17.7779L8.42815 19.3043L7.23729 18.3494L6.04648 19.3043L6.05065 17.7779L4.56152 17.4423L5.75754 16.4939L5.09145 15.1203L6.57874 15.4641L7.23729 14.087Z" fill="#F0F0F0"/>
<path d="M17.9665 16.6956L18.2958 17.3842L19.0394 17.2123L18.7064 17.8991L19.3044 18.3733L18.5599 18.5411L18.5619 19.3043L17.9665 18.8268L17.3711 19.3043L17.3732 18.5411L16.6287 18.3733L17.2266 17.8991L16.8936 17.2123L17.6372 17.3842L17.9665 16.6956Z" fill="#F0F0F0"/>
<path d="M14.9031 9.39133L15.2323 10.0799L15.976 9.90798L15.643 10.5947L16.241 11.069L15.4964 11.2368L15.4985 12L14.9031 11.5225L14.3077 12L14.3097 11.2368L13.5652 11.069L14.1632 10.5947L13.8302 9.90798L14.5738 10.0799L14.9031 9.39133Z" fill="#F0F0F0"/>
<path d="M17.9665 5.21738L18.2958 5.90597L19.0394 5.73408L18.7064 6.42085L19.3044 6.89503L18.5599 7.06289L18.5619 7.82611L17.9665 7.3486L17.3711 7.82611L17.3732 7.06289L16.6287 6.89503L17.2266 6.42085L16.8936 5.73408L17.6372 5.90597L17.9665 5.21738Z" fill="#F0F0F0"/>
<path d="M20.6422 8.34784L20.9715 9.03643L21.7151 8.8645L21.3821 9.55126L21.9801 10.0255L21.2355 10.1934L21.2376 10.9565L20.6422 10.4791L20.0468 10.9565L20.0488 10.1934L19.3043 10.0255L19.9023 9.55126L19.5693 8.8645L20.3129 9.03643L20.6422 8.34784Z" fill="#F0F0F0"/>
<path d="M18.7289 12L18.9879 12.7972H19.8261L19.148 13.2899L19.4071 14.087L18.7289 13.5943L18.0508 14.087L18.3098 13.2899L17.6317 12.7972H18.4699L18.7289 12Z" fill="#F0F0F0"/>
</g>
<defs>
<clipPath id="clip0_9010_15636">
<rect width="24" height="24" fill="white"/>
</clipPath>
</defs>
</svg>
