<svg width="24" height="24" viewBox="0 0 24 24" fill="none" xmlns="http://www.w3.org/2000/svg">
<g clip-path="url(#clip0_9010_15527)">
<path d="M12 24C18.6274 24 24 18.6274 24 12C24 5.37258 18.6274 0 12 0C5.37258 0 0 5.37258 0 12C0 18.6274 5.37258 24 12 24Z" fill="#F0F0F0"/>
<path d="M0 12C0 16.5485 2.53078 20.5057 6.26086 22.5409V1.45908C2.53078 3.49429 0 7.45148 0 12Z" fill="#D80027"/>
<path d="M0 12C0 17.5443 3.76036 22.2096 8.86955 23.5866V0.413391C3.76036 1.79039 0 6.45567 0 12Z" fill="#0052B4"/>
<path d="M4.30432 4.17389V6.1304C4.30432 7.10292 5.09267 7.89126 6.06518 7.89126C7.0377 7.89126 7.82604 7.10292 7.82604 6.1304V4.17389H4.30432Z" fill="#D80027"/>
<path d="M6.06515 6.84781C5.66958 6.84781 5.34778 6.52602 5.34778 6.13044V5.21741H6.78258V6.13044C6.78258 6.52602 6.46073 6.84781 6.06515 6.84781Z" fill="#F0F0F0"/>
<path d="M13.0436 12.5217H9.9131C9.9131 11.9454 9.4459 11.4782 8.86962 11.4782C8.29333 11.4782 7.82613 11.9454 7.82613 12.5217H4.69568C4.69568 13.0981 5.19766 13.5652 5.7739 13.5652H5.73916C5.73916 14.1415 6.20627 14.6087 6.78265 14.6087C6.78265 15.185 7.24976 15.6522 7.82613 15.6522H9.9131C10.4894 15.6522 10.9566 15.185 10.9566 14.6087C11.5329 14.6087 12.0001 14.1415 12.0001 13.5652H11.9653C12.5416 13.5652 13.0436 13.0981 13.0436 12.5217Z" fill="#FFDA44"/>
<path d="M13.4723 10.8519L13.1984 11.2905L13.5307 11.6865L13.0289 11.5616L12.7549 12L12.7188 11.4841L12.217 11.359L12.6966 11.1653L12.6605 10.6495L12.9929 11.0457L13.4723 10.8519Z" fill="#FFDA44"/>
<path d="M11.8737 9.51056L11.7663 10.0164L12.2141 10.2749L11.6998 10.3292L11.5923 10.8349L11.3819 10.3625L10.8677 10.4165L11.252 10.0704L11.0417 9.59812L11.4895 9.85664L11.8737 9.51056Z" fill="#FFDA44"/>
<path d="M9.91303 8.79694L9.98498 9.30905L10.4942 9.39881L10.0295 9.6255L10.1014 10.1376L9.74226 9.76561L9.27745 9.9923L9.52021 9.53569L9.16101 9.16378L9.67031 9.2535L9.91303 8.79694Z" fill="#FFDA44"/>
<path d="M7.82627 8.79694L8.06909 9.2535L8.57829 9.16373L8.21909 9.53578L8.46185 9.99234L7.99713 9.76561L7.63788 10.1375L7.70988 9.6255L7.24512 9.39886L7.75432 9.30905L7.82627 8.79694Z" fill="#FFDA44"/>
<path d="M5.86541 9.51056L6.24969 9.85664L6.69744 9.59812L6.48726 10.0706L6.8714 10.4165L6.35722 10.3625L6.1468 10.8349L6.03946 10.3291L5.52515 10.2751L5.9729 10.0164L5.86541 9.51056Z" fill="#FFDA44"/>
<path d="M4.26688 10.8519L4.74646 11.0457L5.07867 10.6495L5.04276 11.1655L5.52215 11.3592L5.02035 11.4842L4.98417 12L4.71037 11.5616L4.20862 11.6866L4.54101 11.2905L4.26688 10.8519Z" fill="#FFDA44"/>
</g>
<defs>
<clipPath id="clip0_9010_15527">
<rect width="24" height="24" fill="white"/>
</clipPath>
</defs>
</svg>
