<svg width="24" height="24" viewBox="0 0 24 24" fill="none" xmlns="http://www.w3.org/2000/svg">
<g clip-path="url(#clip0_9010_15627)">
<path d="M12 24C18.6274 24 24 18.6274 24 12C24 5.37258 18.6274 0 12 0C5.37258 0 0 5.37258 0 12C0 18.6274 5.37258 24 12 24Z" fill="#F0F0F0"/>
<path d="M0.101685 13.5652C0.380872 15.708 1.22565 17.6728 2.48083 19.3057L8.86961 13.5652H0.101685Z" fill="#D80027"/>
<path d="M10.4348 23.8984V15.1305L4.69434 21.5193C6.32732 22.7745 8.29204 23.6193 10.4348 23.8984Z" fill="#D80027"/>
<path d="M10.4348 0.101593C8.29204 0.38078 6.32732 1.22556 4.69434 2.48073L10.4348 8.86961V0.101593Z" fill="#D80027"/>
<path d="M0.101685 10.4348H8.86961L2.48078 4.69431C1.22561 6.32724 0.380825 8.29201 0.101685 10.4348Z" fill="#D80027"/>
<path d="M13.5653 0.101593V8.86956L19.3059 2.48073C17.6729 1.22566 15.7082 0.380734 13.5653 0.101593Z" fill="#D80027"/>
<path d="M23.8985 10.4348C23.6193 8.29202 22.7745 6.32726 21.5193 4.69427L15.1305 10.4348H23.8985Z" fill="#D80027"/>
<path d="M15.1305 13.5652L21.5194 19.3058C22.7745 17.6728 23.6193 15.708 23.8985 13.5652H15.1305Z" fill="#D80027"/>
<path d="M13.5653 23.8984C15.7081 23.6192 17.6729 22.7745 19.3059 21.5192L13.5653 15.1305V23.8984Z" fill="#D80027"/>
<path d="M21.5202 19.3067L14.2136 12L14.2135 12L21.5202 4.6933C21.2051 4.2838 20.8604 3.88986 20.4853 3.51467C20.1102 3.13958 19.7162 2.79481 19.3066 2.47977L12 9.78641H12L4.69331 2.47977C4.28381 2.79486 3.88983 3.13953 3.51464 3.51467C3.13955 3.88986 2.79478 4.2838 2.47974 4.69334L9.78638 11.9999L9.78642 12L2.47978 19.3067C2.79488 19.7161 3.1396 20.1101 3.51469 20.4853C3.88983 20.8604 4.28381 21.2052 4.69336 21.5202L12 14.2136L19.3066 21.5202C19.7161 21.2051 20.1101 20.8604 20.4853 20.4853C20.8604 20.1101 21.2051 19.7161 21.5202 19.3067Z" fill="#496E2D"/>
<path d="M13.5652 23.8984V13.5653V13.5653H23.8984C23.9652 13.0529 24 12.5305 24 12C24 11.4696 23.9652 10.9472 23.8984 10.4348H13.5653L13.5653 10.4348V0.101625C13.0529 0.0349219 12.5306 0 12 0C11.4695 4.6875e-05 10.9471 0.0349219 10.4348 0.101625L10.4348 10.4347V10.4348H0.101625C0.034875 10.9471 0 11.4695 0 12C4.6875e-05 12.5306 0.034875 13.0529 0.101625 13.5652H10.4347L10.4348 23.8984C10.9472 23.9651 11.4694 24 12 24C12.5306 24 13.0529 23.9651 13.5652 23.8984Z" fill="#F0F0F0"/>
</g>
<defs>
<clipPath id="clip0_9010_15627">
<rect width="24" height="24" fill="white"/>
</clipPath>
</defs>
</svg>
