<svg width="24" height="24" viewBox="0 0 24 24" fill="none" xmlns="http://www.w3.org/2000/svg">
<g clip-path="url(#clip0_9010_15619)">
<path d="M3.51471 20.4853C-1.17157 15.799 -1.17157 8.20106 3.51471 3.51473C8.20099 -1.1716 15.799 -1.17155 20.4853 3.51473C20.4853 3.51637 23.6713 14.2987 18.985 18.985C14.2988 23.6714 3.51799 20.4886 3.51471 20.4853Z" fill="#FFDA44"/>
<path d="M3.51465 20.4853C8.20093 25.1716 15.7989 25.1716 20.4853 20.4853C25.1716 15.799 25.1716 8.20107 20.4853 3.51474L3.51465 20.4853Z" fill="#FF9811"/>
<path d="M18.7883 6.78259V4.69562H14.7882L14.4825 5.0012C13.3955 6.08818 13.5784 7.35624 13.7119 8.28212C13.8357 9.14101 13.8506 9.47002 13.5312 9.78948C13.2118 10.1088 12.8826 10.094 12.0238 9.97013C11.098 9.83668 9.82995 9.65382 8.74297 10.7408C7.65603 11.8277 7.83898 13.0957 7.97258 14.0215C8.09647 14.8803 8.11138 15.2093 7.79206 15.5286C7.4727 15.8478 7.14359 15.833 6.28499 15.7091C5.9502 15.6608 5.60403 15.6109 5.23447 15.6068L5.21155 17.6936C5.44283 17.6962 5.70716 17.7343 5.987 17.7747C6.31831 17.8225 6.69331 17.8766 7.08828 17.8766C7.49759 17.8766 7.92819 17.8183 8.35344 17.6347V19.3044H11.4839V17.7392H9.91869V16.6957H10.9622V15.1305H10.1282C10.1677 14.6242 10.0982 14.1393 10.0382 13.7236C9.91428 12.8648 9.89938 12.5358 10.2187 12.2166C10.5381 11.8972 10.8671 11.912 11.726 12.0358C12.4007 12.1331 13.257 12.256 14.0926 11.8952V13.5653H17.2231V12.0001H15.6579V10.9566H16.7014V9.39137H15.8674C15.907 8.88498 15.8375 8.40015 15.7775 7.98432C15.691 7.38427 15.6576 7.04284 15.7544 6.78263L18.7883 6.78259Z" fill="#F0F0F0"/>
</g>
<defs>
<clipPath id="clip0_9010_15619">
<rect width="24" height="24" fill="white"/>
</clipPath>
</defs>
</svg>
