<svg width="24" height="24" viewBox="0 0 24 24" fill="none" xmlns="http://www.w3.org/2000/svg">
<g clip-path="url(#clip0_9010_15614)">
<path d="M24 12C24 18.6274 18.6274 24 12 24C5.37262 24 0 18.6274 0 12C0 12.0029 12 0.0013125 12 0C18.6274 0 24 5.37262 24 12Z" fill="#0052B4"/>
<path d="M11.9679 12H12C12 11.9892 12 11.9787 12 11.9679C11.9893 11.9786 11.9786 11.9893 11.9679 12Z" fill="#F0F0F0"/>
<path d="M12 6.26086C12 4.14937 12 2.76586 12 0H11.998C5.37145 0.001125 0 5.37323 0 12H6.26086V8.47448L9.78638 12H11.9679C11.9786 11.9893 11.9893 11.9786 12 11.9679C12 11.1594 12 10.4381 12 9.78647L8.47444 6.26086H12Z" fill="#F0F0F0"/>
<path d="M6.071 1.56522C4.19417 2.63392 2.63384 4.1942 1.56519 6.07103V12H4.69564V4.69576V4.69567H12C12 3.70834 12 2.76775 12 1.56522H6.071Z" fill="#D80027"/>
<path d="M17.2174 12L13.974 15.2434C14.5819 16.4158 15.8057 17.2174 17.2174 17.2174C18.6292 17.2174 19.853 16.4158 20.4608 15.2434L17.2174 12Z" fill="#FFDA44"/>
<path d="M12 10.5243L7.73649 6.26089H6.26086V6.26099L11.9999 12H12C12 12 12 10.9825 12 10.5243Z" fill="#D80027"/>
<path d="M13.5652 6.26086V12V12C13.5652 14.7956 17.2174 15.6522 17.2174 15.6522C17.2174 15.6522 20.8695 14.7956 20.8695 12V12V6.26086H13.5652Z" fill="#6DA544"/>
<path d="M18 8.86954H16.4348V13.0434H18V8.86954Z" fill="#F0F0F0"/>
<path d="M17.2173 9.65216C17.6495 9.65216 17.9999 9.30177 17.9999 8.86954C17.9999 8.43731 17.6495 8.08691 17.2173 8.08691C16.7851 8.08691 16.4347 8.43731 16.4347 8.86954C16.4347 9.30177 16.7851 9.65216 17.2173 9.65216Z" fill="#A2001D"/>
<path d="M15.6521 7.30435H14.6086V8.34784H15.6521V7.30435Z" fill="#FFDA44"/>
<path d="M15.6521 9.65219H14.6086V10.6957H15.6521V9.65219Z" fill="#FFDA44"/>
<path d="M15.6521 12H14.6086V13.0435H15.6521V12Z" fill="#FFDA44"/>
<path d="M19.8261 7.30435H18.7826V8.34784H19.8261V7.30435Z" fill="#FFDA44"/>
<path d="M19.8261 9.65219H18.7826V10.6957H19.8261V9.65219Z" fill="#FFDA44"/>
<path d="M19.8261 12H18.7826V13.0435H19.8261V12Z" fill="#FFDA44"/>
</g>
<defs>
<clipPath id="clip0_9010_15614">
<rect width="24" height="24" fill="white"/>
</clipPath>
</defs>
</svg>
