<svg width="24" height="24" viewBox="0 0 24 24" fill="none" xmlns="http://www.w3.org/2000/svg">
<g clip-path="url(#clip0_9010_15621)">
<path d="M0 12C0 5.37262 5.37262 0 12 0C18.6274 0 24 5.37262 24 12H0Z" fill="#F0F0F0"/>
<path d="M8.86952 11.344L8.2135 12H8.86952V11.344Z" fill="#0052B4"/>
<path d="M15.1305 11.344V12H15.7865L15.1305 11.344Z" fill="#0052B4"/>
<path d="M0.346219 9.13049C0.120516 10.05 0 11.0109 0 12H3.78642L6.65592 9.13049H0.346219Z" fill="#0052B4"/>
<path d="M17.344 9.13049L20.2135 12H24C24 11.0109 23.8794 10.05 23.6538 9.13049H17.344Z" fill="#0052B4"/>
<path d="M16.6062 9.13049H15.1305L18 12H19.4757L16.6062 9.13049Z" fill="#D80027"/>
<path d="M8.86959 10.6061V9.13049H8.8695L6 12H7.47572L8.86959 10.6061Z" fill="#D80027"/>
<path d="M5.62134 1.83478C5.12671 2.14584 4.65641 2.49187 4.21387 2.86954H6.65605L5.62134 1.83478Z" fill="#0052B4"/>
<path d="M19.7861 2.86954C19.3435 2.49182 18.8733 2.14579 18.3787 1.83478L17.344 2.86954H19.7861Z" fill="#0052B4"/>
<path d="M13.5652 7.5652H23.1535C22.6999 6.42525 22.0763 5.37159 21.3145 4.43475H13.5653H13.5652V0.101578C13.0529 0.034875 12.5305 0 12 0C11.4695 0 10.9472 0.034875 10.4348 0.101578V4.4347L2.6856 4.43475C1.92375 5.37159 1.30021 6.42525 0.846558 7.5652H10.4347H10.4348V12H13.5652V7.5652Z" fill="#D80027"/>
<path d="M8.86956 2.86955L7.06051 1.06046C6.72606 1.21172 6.40009 1.37836 6.08289 1.5585L7.39393 2.86955H8.86956Z" fill="#D80027"/>
<path d="M15.1305 2.86954L16.9396 1.06049C16.5955 0.904916 16.2426 0.765416 15.8822 0.642181L15.1305 1.39392V2.86954Z" fill="#D80027"/>
<path d="M24 12C24 18.6274 18.6274 24 12 24C5.37262 24 0 18.6274 0 12C0.521719 12 24 12 24 12Z" fill="#F0F0F0"/>
<path d="M21.9999 13.5305C20.9999 13.5305 20.9999 12.6161 19.9998 12.6161C18.9999 12.6161 18.9999 13.5305 17.9999 13.5305C17 13.5305 16.9999 12.6161 16 12.6161C15 12.6161 15 13.5305 14 13.5305C13 13.5305 12.9999 12.6161 11.9998 12.6161C10.9998 12.6161 10.9998 13.5305 9.99991 13.5305C9.00006 13.5305 9.00006 12.6161 8.00008 12.6161C7 12.6161 7 13.5305 5.99992 13.5305C4.99984 13.5305 4.99984 12.6161 3.99977 12.6161C2.99992 12.6161 2.99992 13.5305 1.99994 13.5305C1.00534 13.5305 0.999578 12.6262 0.015625 12.6165C0.0433281 13.1654 0.108859 13.7043 0.207953 14.2313C1.00502 14.3484 1.07481 15.1304 1.99998 15.1304C2.99997 15.1304 2.99997 14.2162 3.99981 14.2162C4.99989 14.2162 4.99989 15.1304 5.99997 15.1304C7.00005 15.1304 7.00005 14.2162 8.00013 14.2162C9.00011 14.2162 9.00011 15.1304 9.99995 15.1304C10.9999 15.1304 10.9999 14.2162 11.9999 14.2162C13 14.2162 13 15.1304 14 15.1304C15.0001 15.1304 15.0001 14.2162 16 14.2162C17 14.2162 17 15.1304 18 15.1304C18.9999 15.1304 19 14.2162 19.9999 14.2162C21 14.2162 21 15.1304 21.9999 15.1304C22.9252 15.1304 22.995 14.3485 23.7921 14.2313C23.8912 13.7043 23.9567 13.1655 23.9845 12.6166C23.0004 12.6263 22.9945 13.5305 21.9999 13.5305Z" fill="#0052B4"/>
<path d="M19.9999 15.7466C18.9999 15.7466 18.9999 16.6609 18 16.6609C17 16.6609 17 15.7466 16 15.7466C15.0001 15.7466 15.0001 16.6609 14 16.6609C12.9999 16.6609 13 15.7466 11.9999 15.7466C10.9999 15.7466 10.9999 16.6609 9.99995 16.6609C9.00011 16.6609 9.00011 15.7466 8.00012 15.7466C7.00004 15.7466 7.00004 16.6609 5.99997 16.6609C4.99989 16.6609 4.99989 15.7466 3.99981 15.7466C2.99997 15.7466 2.99997 16.6609 1.99998 16.6609C1.28547 16.6609 1.08137 16.1942 0.658325 15.9276C0.93995 16.7413 1.30633 17.5154 1.74756 18.2389C1.82429 18.2531 1.90783 18.2609 1.99998 18.2609C2.99997 18.2609 2.99997 17.3467 3.99981 17.3467C4.99989 17.3467 4.99989 18.2609 5.99997 18.2609C7.00004 18.2609 7.00004 17.3467 8.00012 17.3467C9.00011 17.3467 9.00011 18.2609 9.99995 18.2609C10.9999 18.2609 10.9999 17.3467 11.9999 17.3467C13 17.3467 12.9999 18.2609 14 18.2609C15.0001 18.2609 15.0001 17.3467 16 17.3467C17 17.3467 17 18.2609 18 18.2609C18.9999 18.2609 19 17.3467 19.9999 17.3467C21 17.3467 21 18.2609 21.9999 18.2609C22.0921 18.2609 22.1757 18.2531 22.2524 18.2389C22.6937 17.5154 23.06 16.7413 23.3417 15.9277C22.9187 16.1941 22.7146 16.6609 21.9999 16.6609C21 16.6609 21 15.7466 19.9999 15.7466Z" fill="#0052B4"/>
<path d="M23.9935 11.623C23.9946 11.6563 23.9957 11.6896 23.9965 11.7231C23.9957 11.6897 23.9945 11.6563 23.9935 11.623Z" fill="#F0F0F0"/>
<path d="M0.00354004 11.723C0.00433691 11.6896 0.00546191 11.6563 0.00649316 11.6229C0.00550879 11.6563 0.00429004 11.6897 0.00354004 11.723Z" fill="#F0F0F0"/>
<path d="M0 12C0 12.2186 0.0061875 12.4358 0.0178594 12.6514C0.999563 12.6624 1.00608 13.5652 1.99997 13.5652C2.99995 13.5652 2.99995 12.651 3.9998 12.651C4.99988 12.651 4.99988 13.5652 5.99995 13.5652C7.00003 13.5652 7.00003 12.651 8.00011 12.651C9.00009 12.651 9.00009 13.5652 9.99994 13.5652C10.9999 13.5652 10.9999 12.651 11.9999 12.651C12.9999 12.651 12.9999 13.5652 14 13.5652C15.0001 13.5652 15.0001 12.651 16 12.651C17 12.651 17 13.5652 18 13.5652C18.9999 13.5652 18.9999 12.651 19.9999 12.651C21 12.651 21 13.5652 21.9999 13.5652C22.9939 13.5652 23.0004 12.6624 23.9823 12.6514C23.9938 12.4357 24 12.2186 24 12H0Z" fill="#F0F0F0"/>
<path d="M23.9965 11.7231C23.9986 11.8151 24 11.9074 24 12C24 11.9074 23.9986 11.8152 23.9965 11.7231Z" fill="#F0F0F0"/>
<path d="M19.9998 18.877C18.9998 18.877 18.9998 19.7913 17.9998 19.7913C16.9999 19.7913 16.9999 18.877 15.9999 18.877C14.9999 18.877 14.9999 19.7913 13.9999 19.7913C12.9998 19.7913 12.9998 18.877 11.9998 18.877C10.9998 18.877 10.9998 19.7913 9.99983 19.7913C8.99999 19.7913 8.99999 18.877 8 18.877C6.99993 18.877 6.99993 19.7913 5.99985 19.7913C4.99977 19.7913 4.99977 18.877 3.99969 18.877C3.30904 18.877 3.09533 19.3131 2.69971 19.583C3.74919 20.8686 5.06029 21.9319 6.55114 22.6932L11.9999 22.4187L17.4487 22.6932C18.9395 21.9318 20.2506 20.8686 21.3001 19.583C20.9043 19.3132 20.6906 18.877 19.9998 18.877Z" fill="#0052B4"/>
<path d="M18.6554 19.1632L15.005 19.8614L14.5426 16.1739L12 18.8859L9.45746 16.1739L8.99481 19.8613L5.3446 19.1631L7.13471 22.4187L6.55009 22.6936C8.18546 23.5289 10.0376 24 12 24C13.9623 24 15.8145 23.5289 17.4498 22.6937L16.8654 22.4188L18.6554 19.1632Z" fill="#FFDA44"/>
</g>
<defs>
<clipPath id="clip0_9010_15621">
<rect width="24" height="24" fill="white"/>
</clipPath>
</defs>
</svg>
