<svg width="24" height="24" viewBox="0 0 24 24" fill="none" xmlns="http://www.w3.org/2000/svg">
<g clip-path="url(#clip0_9010_15612)">
<path d="M12.0001 23.9983C18.6265 23.9983 23.9983 18.6265 23.9983 12.0001C23.9983 5.37363 18.6265 0.00183105 12.0001 0.00183105C5.37363 0.00183105 0.00183105 5.37363 0.00183105 12.0001C0.00183105 18.6265 5.37363 23.9983 12.0001 23.9983Z" fill="#F0F0F0"/>
<path d="M1.60928 6.00089C1.06772 6.93878 0.668243 7.91933 0.402222 8.91812L20.4679 20.5031C21.1998 19.7733 21.8494 18.937 22.3908 17.9991L1.60928 6.00089Z" fill="black"/>
<path d="M17.9991 1.6092C13.1983 -1.16253 7.27876 -0.238742 3.5321 3.4969L23.5978 15.0818C24.9596 9.9694 22.7999 4.38098 17.9991 1.6092Z" fill="#FFDA44"/>
<path d="M6.00091 22.3908C10.8017 25.1625 16.7213 24.2387 20.4679 20.5032L0.402184 8.91812C-0.959611 14.0307 1.20006 19.6191 6.00091 22.3908Z" fill="#FFDA44"/>
<path d="M15.3908 10.6958C15.3908 12.5685 13.8727 14.0867 12 14.0867C10.1273 14.0867 8.60916 12.5685 8.60916 10.6958C8.60916 10.1119 8.75677 9.56251 9.01675 9.08282C8.28094 9.83533 7.82666 10.8643 7.82666 12C7.82666 14.3048 9.69509 16.1733 12 16.1733C14.3049 16.1733 16.1733 14.3049 16.1733 12C16.1733 10.8643 15.7191 9.83533 14.9832 9.08282C15.2432 9.5626 15.3908 10.1119 15.3908 10.6958Z" fill="#D80027"/>
<path d="M12.7827 6.78342H11.2177V14.6084H12.7827V6.78342Z" fill="#D80027"/>
<path d="M14.6083 8.34836H9.39172C9.39172 8.70851 9.70546 9.00045 10.0656 9.00045H10.0438C10.0438 9.3606 10.3358 9.65254 10.6959 9.65254C10.6959 10.0127 10.9879 10.3046 11.348 10.3046H12.6521C13.0123 10.3046 13.3042 10.0127 13.3042 9.65254C13.6644 9.65254 13.9563 9.3606 13.9563 9.00045H13.9346C14.2946 9.0004 14.6083 8.70855 14.6083 8.34836Z" fill="#D80027"/>
<path d="M15.6518 15.13H8.34851V16.695H15.6518V15.13Z" fill="#D80027"/>
<path d="M16.695 15.6517H13.5651V17.2167H16.695V15.6517Z" fill="#D80027"/>
<path d="M10.4351 15.6517H7.30518V17.2167H10.4351V15.6517Z" fill="#D80027"/>
</g>
<defs>
<clipPath id="clip0_9010_15612">
<rect width="24" height="24" fill="white"/>
</clipPath>
</defs>
</svg>
