<svg width="24" height="24" viewBox="0 0 24 24" fill="none" xmlns="http://www.w3.org/2000/svg">
<g clip-path="url(#clip0_9010_15591)">
<path d="M12 24C18.6274 24 24 18.6274 24 12C24 5.37258 18.6274 0 12 0C5.37258 0 0 5.37258 0 12C0 18.6274 5.37258 24 12 24Z" fill="#F0F0F0"/>
<path d="M12 0C8.68623 0 5.68623 1.34316 3.51465 3.51469L12 12V0Z" fill="black"/>
<path d="M0 12C0 15.3137 1.34316 18.3137 3.51469 20.4853L12 12H0Z" fill="black"/>
<path d="M12 24C15.3137 24 18.3137 22.6568 20.4853 20.4853L12 12V24Z" fill="black"/>
<path d="M24 12C24 8.68626 22.6568 5.68626 20.4853 3.51468L12 12H24Z" fill="black"/>
<path d="M7.82605 8.34783L11.9999 8.86969L16.1738 8.34783V5.84348L14.5043 6.67828L11.9999 4.17389L9.4956 6.67828L7.82605 5.84348V8.34783Z" fill="#FFDA44"/>
<path d="M11.9999 18.2609C9.69842 18.2609 7.82605 16.3884 7.82605 14.087V9.91327L9.39125 8.34793H14.6086L16.1738 9.91327V14.087C16.1738 16.3884 14.3015 18.2609 11.9999 18.2609Z" fill="#D80027"/>
<path d="M12 16.6956C10.5616 16.6956 9.39136 15.5254 9.39136 14.087V9.91312H14.6087V14.0869C14.6087 15.5254 13.4385 16.6956 12 16.6956Z" fill="#F0F0F0"/>
<path d="M9.39125 8.34784H7.82605V9.91304H9.39125V8.34784Z" fill="#FFDA44"/>
<path d="M16.1738 8.34784H14.6086V9.91304H16.1738V8.34784Z" fill="#FFDA44"/>
<path d="M16.1738 11.7392H14.6086V13.3044H16.1738V11.7392Z" fill="#FFDA44"/>
<path d="M9.39125 11.7392H7.82605V13.3044H9.39125V11.7392Z" fill="#FFDA44"/>
<path d="M11.9999 16.6957C11.7273 16.6957 11.4645 16.6535 11.2173 16.5756V18.1862C11.471 18.2346 11.7323 18.2609 11.9999 18.2609C12.2675 18.2609 12.5288 18.2346 12.7825 18.1862V16.5756C12.5354 16.6534 12.2725 16.6957 11.9999 16.6957Z" fill="#FFDA44"/>
<path d="M9.42613 14.5104L8.177 15.7596C8.39356 16.2526 8.70256 16.696 9.08235 17.0677L10.1886 15.9615C9.79381 15.5801 9.5188 15.0757 9.42613 14.5104Z" fill="#FFDA44"/>
<path d="M15.8228 15.7597L14.5737 14.5105C14.481 15.0757 14.206 15.5801 13.8113 15.9616L14.9175 17.0679C15.2972 16.6961 15.6063 16.2527 15.8228 15.7597Z" fill="#FFDA44"/>
<path d="M11.4784 10.7827V11.6522C11.4784 11.9403 11.712 12.1739 12.0001 12.1739C12.2883 12.1739 12.5218 11.9403 12.5218 11.6522V10.7827H11.4784Z" fill="#0052B4"/>
<path d="M11.4784 14.2609V15.1305C11.4784 15.4185 11.712 15.6522 12.0001 15.6522C12.2883 15.6522 12.5218 15.4185 12.5218 15.1305V14.2609H11.4784Z" fill="#0052B4"/>
<path d="M13.0436 12.5217V13.3914C13.0436 13.6794 13.2772 13.9131 13.5653 13.9131C13.8534 13.9131 14.087 13.6794 14.087 13.3914V12.5217H13.0436Z" fill="#0052B4"/>
<path d="M11.4784 12.5217V13.3914C11.4784 13.6794 11.712 13.9131 12.0001 13.9131C12.2883 13.9131 12.5218 13.6794 12.5218 13.3914V12.5217H11.4784Z" fill="#0052B4"/>
<path d="M9.91309 12.5217V13.3914C9.91309 13.6794 10.1467 13.9131 10.4348 13.9131C10.7229 13.9131 10.9565 13.6794 10.9565 13.3914V12.5217H9.91309Z" fill="#0052B4"/>
</g>
<defs>
<clipPath id="clip0_9010_15591">
<rect width="24" height="24" fill="white"/>
</clipPath>
</defs>
</svg>
