<svg width="24" height="24" viewBox="0 0 24 24" fill="none" xmlns="http://www.w3.org/2000/svg">
<g clip-path="url(#clip0_9010_15588)">
<path d="M20.4853 20.4853C15.799 25.1715 8.20104 25.1715 3.51472 20.4853C-1.1716 15.799 -1.17155 8.201 3.51472 3.51468C3.88363 3.88354 13.1068 10.8932 13.1068 10.8932L20.4853 20.4853Z" fill="#0052B4"/>
<path d="M3.51477 3.51473C8.20104 -1.17154 15.799 -1.17154 20.4854 3.51473C25.1717 8.20101 25.1716 15.799 20.4854 20.4853" fill="#6DA544"/>
<path d="M12 15.1304C13.7289 15.1304 15.1304 13.7289 15.1304 12C15.1304 10.2711 13.7289 8.86954 12 8.86954C10.2711 8.86954 8.86951 10.2711 8.86951 12C8.86951 13.7289 10.2711 15.1304 12 15.1304Z" fill="#FFDA44"/>
<path d="M4.4684 17.2174L4.79769 17.906L5.54127 17.7341L5.20827 18.4208L5.8063 18.8951L5.06174 19.0628L5.0638 19.8261L4.4684 19.3486L3.87299 19.8261L3.87505 19.0628L3.13049 18.8951L3.72852 18.4208L3.39548 17.7341L4.1391 17.906L4.4684 17.2174Z" fill="#F0F0F0"/>
<path d="M2.3143 11.4783L2.64359 12.1668L3.38717 11.9949L3.05422 12.6817L3.65215 13.1559L2.90764 13.3237L2.9097 14.087L2.3143 13.6095L1.71894 14.087L1.72095 13.3237L0.97644 13.1559L1.57442 12.6817L1.24142 11.9949L1.985 12.1668L2.3143 11.4783Z" fill="#F0F0F0"/>
<path d="M4.46835 6.78262L4.79765 7.47117L5.54122 7.29923L5.20827 7.98604L5.80625 8.46028L5.06169 8.62804L5.06376 9.39131L4.46835 8.91384L3.87295 9.39131L3.87501 8.62804L3.13049 8.46028L3.72843 7.98604L3.39543 7.29923L4.13905 7.47117L4.46835 6.78262Z" fill="#F0F0F0"/>
<path d="M7.14413 10.4348L7.47343 11.1233L8.21705 10.9514L7.88401 11.6383L8.48199 12.1124L7.73747 12.2802L7.73949 13.0435L7.14413 12.566L6.54873 13.0435L6.55079 12.2802L5.80627 12.1124L6.40421 11.6383L6.07126 10.9514L6.81483 11.1233L7.14413 10.4348Z" fill="#F0F0F0"/>
<path d="M5.23082 13.5652L5.48985 14.3624H6.32798L5.64988 14.8551L5.90891 15.6522L5.23082 15.1596L4.55273 15.6522L4.81176 14.8551L4.13367 14.3624H4.97179L5.23082 13.5652Z" fill="#F0F0F0"/>
<path d="M12 14.0869H13.0434C13.0434 14.0869 13.4956 13.287 13.0434 12.5217L14.0869 11.4783L13.5652 10.4348H13.0435C13.0435 10.4348 12.7826 11.2174 11.7391 11.2174C10.6957 11.2174 10.4348 10.4348 10.4348 10.4348H9.91309L10.4348 11.4783L9.91309 12.5217L10.4348 13.0435C10.4348 13.0435 10.9565 12 12 12.5217C12 12.5217 12.4434 13.1739 12 14.0869Z" fill="#6DA544"/>
<path d="M19.7883 6.57294C19.8129 6.44474 19.826 6.31251 19.826 6.17713C19.826 5.24901 19.22 4.46287 18.3823 4.19165C18.6383 4.71196 18.7825 5.29715 18.7825 5.91627C18.7825 6.12505 18.7658 6.3299 18.7342 6.52982C18.6081 6.32671 18.4462 6.14113 18.2483 5.98368C17.5029 5.39062 16.4844 5.37491 15.7314 5.87437C16.3127 6.0013 16.8749 6.25935 17.3721 6.65493C17.7613 6.96468 18.0759 7.38364 18.3167 7.78808L15.1304 8.78581C18.2608 9.30753 20.8695 7.22061 20.8695 7.22061C20.5804 6.64255 20.1316 6.54505 19.7883 6.57294Z" fill="#FFDA44"/>
</g>
<defs>
<clipPath id="clip0_9010_15588">
<rect width="24" height="24" fill="white"/>
</clipPath>
</defs>
</svg>
