<svg width="24" height="24" viewBox="0 0 24 24" fill="none" xmlns="http://www.w3.org/2000/svg">
<g clip-path="url(#clip0_9010_15582)">
<path d="M24 12C24 10.5321 23.736 9.12602 23.2536 7.82609L12 7.30432L0.746391 7.82604C0.264047 9.12602 0 10.5321 0 12C0 13.4678 0.264047 14.8739 0.746391 16.1739L12 16.6956L23.2536 16.1739C23.736 14.8739 24 13.4678 24 12Z" fill="#F0F0F0"/>
<path d="M11.9999 24C17.1595 24 21.558 20.7435 23.2536 16.1739H0.746338C2.44185 20.7435 6.84037 24 11.9999 24Z" fill="#0052B4"/>
<path d="M0.746338 7.82611H23.2536C21.558 3.2565 17.1595 0 11.9999 0C6.84037 0 2.44185 3.2565 0.746338 7.82611Z" fill="#D80027"/>
<path d="M15.1304 8.3479H13.0435L13.3913 5.73916L14.7826 4.69568L16.1739 5.73916V7.82613L15.1304 8.3479Z" fill="#338AF3"/>
<path d="M8.86949 8.3479H10.9565L10.6086 5.73916L9.2173 4.69568L7.82605 5.73916V7.82613L8.86949 8.3479Z" fill="#338AF3"/>
<path d="M13.3913 8.3479H10.6086V5.73916L12 4.69568L13.3913 5.73916V8.3479Z" fill="#0052B4"/>
<path d="M7.82605 7.82617V13.5653C7.82605 14.9318 8.48614 16.1471 9.50427 16.909L10.2347 16.7262L11.1565 17.6535C11.429 17.7096 11.7111 17.7392 12 17.7392C12.2873 17.7392 12.568 17.71 12.8391 17.6544L13.8913 16.7783L14.4956 16.9073C15.5133 16.1455 16.1739 14.9314 16.1739 13.5653V7.82617H7.82605Z" fill="#F0F0F0"/>
<path d="M9.4956 7.82611H7.82605V9.49566H9.4956V7.82611Z" fill="#D80027"/>
<path d="M12.8347 7.82611H11.1652V9.49566H12.8347V7.82611Z" fill="#D80027"/>
<path d="M16.1738 7.82611H14.5043V9.49566H16.1738V7.82611Z" fill="#D80027"/>
<path d="M11.1652 9.49567H9.49561V11.1652H11.1652V9.49567Z" fill="#D80027"/>
<path d="M14.5043 9.49567H12.8347V11.1652H14.5043V9.49567Z" fill="#D80027"/>
<path d="M9.4956 11.1647H7.82605V12.8342H9.4956V11.1647Z" fill="#D80027"/>
<path d="M11.1652 12.8343H9.49561V14.5038H11.1652V12.8343Z" fill="#D80027"/>
<path d="M12.8347 11.1647H11.1652V12.8342H12.8347V11.1647Z" fill="#D80027"/>
<path d="M16.1738 11.1647H14.5043V12.8342H16.1738V11.1647Z" fill="#D80027"/>
<path d="M14.5043 12.8343H12.8347V14.5038H14.5043V12.8343Z" fill="#D80027"/>
<path d="M12.8347 14.5038H11.1652V16.1734H12.8347V14.5038Z" fill="#D80027"/>
<path d="M9.49554 14.504H7.93372C8.07697 15.1246 8.35859 15.6925 8.74475 16.1735H9.49554V14.504Z" fill="#D80027"/>
<path d="M14.5043 16.1736H15.255C15.6413 15.6925 15.9228 15.1246 16.0661 14.504H14.5043V16.1736Z" fill="#D80027"/>
<path d="M9.49561 16.1736V16.9021C9.98118 17.2675 10.5487 17.5294 11.1652 17.6552V16.1736H9.49561Z" fill="#D80027"/>
<path d="M12.8347 16.1736V17.6552C13.4513 17.5295 14.0187 17.2675 14.5043 16.9021V16.1736H12.8347Z" fill="#D80027"/>
</g>
<defs>
<clipPath id="clip0_9010_15582">
<rect width="24" height="24" fill="white"/>
</clipPath>
</defs>
</svg>
