<svg width="24" height="24" viewBox="0 0 24 24" fill="none" xmlns="http://www.w3.org/2000/svg">
<g clip-path="url(#clip0_9010_15488)">
<path d="M12 24C18.6274 24 24 18.6274 24 12C24 5.37258 18.6274 0 12 0C5.37258 0 0 5.37258 0 12C0 18.6274 5.37258 24 12 24Z" fill="#FFDA44"/>
<path d="M12 0C9.06197 0 6.37107 1.05642 4.28503 2.80941L17.2173 12L4.28503 21.1906C6.37107 22.9436 9.06197 24 12 24C18.6273 24 24 18.6274 24 12C24 5.37262 18.6273 0 12 0Z" fill="#D80027"/>
<path d="M3.51471 3.51471C-1.17157 8.20099 -1.17157 15.799 3.51471 20.4853C5.45126 18.5488 7.31374 16.6863 12 12L3.51471 3.51471Z" fill="black"/>
<path d="M3.32708 9.25104L5.15333 10.9794L7.36152 9.77641L6.28222 12.0475L8.10852 13.7759L5.61505 13.4512L4.53561 15.7222L4.07404 13.2504L1.58057 12.9256L3.78866 11.7227L3.32708 9.25104Z" fill="#F0F0F0"/>
</g>
<defs>
<clipPath id="clip0_9010_15488">
<rect width="24" height="24" fill="white"/>
</clipPath>
</defs>
</svg>
