<svg width="24" height="24" viewBox="0 0 24 24" fill="none" xmlns="http://www.w3.org/2000/svg">
<g clip-path="url(#clip0_9010_15545)">
<path d="M24 12C24 18.6274 18.6274 24 12 24C5.37262 24 0 18.6274 0 12C0 12.0029 12 0.0013125 12 0C18.6274 0 24 5.37262 24 12Z" fill="#0052B4"/>
<path d="M11.9679 12H12C12 11.9892 12 11.9787 12 11.9679C11.9893 11.9786 11.9786 11.9893 11.9679 12Z" fill="#F0F0F0"/>
<path d="M12 6.26086C12 4.14937 12 2.76586 12 0H11.998C5.3715 0.001125 0 5.37323 0 12H6.26086V8.47448L9.78642 12H11.9679C11.9786 11.9893 11.9893 11.9786 12 11.9679C12 11.1594 12 10.4381 12 9.78647L8.47444 6.26086H12Z" fill="#F0F0F0"/>
<path d="M6.071 1.56519C4.19417 2.63389 2.63389 4.19417 1.56519 6.071V12H4.69564V4.69573V4.69564H12C12 3.70831 12 2.76772 12 1.56519H6.071Z" fill="#D80027"/>
<path d="M12 10.5243L7.73654 6.26086H6.26086V6.26096L11.9999 12H12C12 12 12 10.9824 12 10.5243Z" fill="#D80027"/>
<path d="M19.3043 14.087V14.6087H15.1304V14.087H13.5652V16.1739H14.6087V16.6957H19.8261V16.1739H20.8695V14.087H19.3043Z" fill="#FFDA44"/>
<path d="M13.5652 6.26086V12C13.5652 14.7956 17.2174 15.6522 17.2174 15.6522C17.2174 15.6522 20.8695 14.7956 20.8695 12V6.26086H13.5652Z" fill="#338AF3"/>
<path d="M17.2172 10.5417C16.3043 10.5417 16.3043 11.3765 15.3913 11.3765C14.4783 11.3765 14.4783 10.5417 13.5653 10.5417V12.0025C14.4783 12.0025 14.4783 12.8373 15.3913 12.8373C16.3043 12.8373 16.3043 12.0025 17.2172 12.0025C18.1303 12.0025 18.1303 12.8373 19.0434 12.8373C19.9566 12.8373 19.9565 12.0025 20.8697 12.0025V10.5417C19.9566 10.5417 19.9566 11.3765 19.0434 11.3765C18.1303 11.3765 18.1303 10.5417 17.2172 10.5417Z" fill="#F3F3F3"/>
<path d="M17.2172 7.61737C16.3043 7.61737 16.3043 8.45217 15.3913 8.45217C14.4783 8.45217 14.4783 7.61737 13.5653 7.61737V9.07823C14.4783 9.07823 14.4783 9.91303 15.3913 9.91303C16.3043 9.91303 16.3043 9.07823 17.2172 9.07823C18.1303 9.07823 18.1303 9.91303 19.0434 9.91303C19.9566 9.91303 19.9565 9.07823 20.8697 9.07823V7.61737C19.9566 7.61737 19.9566 8.45217 19.0434 8.45217C18.1303 8.45217 18.1303 7.61737 17.2172 7.61737Z" fill="#F3F3F3"/>
</g>
<defs>
<clipPath id="clip0_9010_15545">
<rect width="24" height="24" fill="white"/>
</clipPath>
</defs>
</svg>
