<svg width="24" height="24" viewBox="0 0 24 24" fill="none" xmlns="http://www.w3.org/2000/svg">
<g clip-path="url(#clip0_9010_15585)">
<path d="M22.8092 6.78263C20.8682 2.76867 16.7575 0 12 0C7.24242 0 3.13167 2.76867 1.19067 6.78263L12 7.82611L22.8092 6.78263Z" fill="#D80027"/>
<path d="M1.19067 17.2174C3.13167 21.2313 7.24242 24 12 24C16.7575 24 20.8682 21.2313 22.8092 17.2174L12 16.1739L1.19067 17.2174Z" fill="#D80027"/>
<path d="M22.8093 6.78265H1.19072C0.427875 8.36023 0 10.1301 0 12C0 13.8699 0.427875 15.6398 1.19072 17.2174H22.8092C23.5722 15.6398 24 13.8699 24 12C24 10.1301 23.5722 8.36023 22.8093 6.78265Z" fill="#0052B4"/>
<path d="M11.9999 16.1739C14.3051 16.1739 16.1738 14.3052 16.1738 12C16.1738 9.69483 14.3051 7.82611 11.9999 7.82611C9.69476 7.82611 7.82605 9.69483 7.82605 12C7.82605 14.3052 9.69476 16.1739 11.9999 16.1739Z" fill="#F0F0F0"/>
</g>
<defs>
<clipPath id="clip0_9010_15585">
<rect width="24" height="24" fill="white"/>
</clipPath>
</defs>
</svg>
