<svg width="24" height="24" viewBox="0 0 24 24" fill="none" xmlns="http://www.w3.org/2000/svg">
<g clip-path="url(#clip0_9010_15506)">
<path d="M12 24C18.6274 24 24 18.6274 24 12C24 5.37258 18.6274 0 12 0C5.37258 0 0 5.37258 0 12C0 18.6274 5.37258 24 12 24Z" fill="#F0F0F0"/>
<path d="M7.82605 12V23.2536C9.12599 23.736 10.5321 24 11.9999 24C18.6273 24 23.9999 18.6274 23.9999 12C23.9999 5.37263 7.82605 12 7.82605 12Z" fill="#6DA544"/>
<path d="M11.9999 0C10.5321 0 9.12599 0.264047 7.82605 0.746391V12C7.82605 12 18.4695 12 23.9999 12C23.9999 5.37262 18.6273 0 11.9999 0Z" fill="#D80027"/>
</g>
<defs>
<clipPath id="clip0_9010_15506">
<rect width="24" height="24" fill="white"/>
</clipPath>
</defs>
</svg>
