<svg width="24" height="24" viewBox="0 0 24 24" fill="none" xmlns="http://www.w3.org/2000/svg">
<g clip-path="url(#clip0_9010_15594)">
<path d="M12 24C18.6274 24 24 18.6274 24 12C24 5.37258 18.6274 0 12 0C5.37258 0 0 5.37258 0 12C0 18.6274 5.37258 24 12 24Z" fill="#F0F0F0"/>
<path d="M23.8971 10.4347C23.5661 7.90414 22.4294 5.45886 20.4852 3.51472C18.5411 1.57058 16.0958 0.433814 13.5652 0.102783L13.5652 10.4347H23.8971Z" fill="#0052B4"/>
<path d="M10.4347 0.102783C7.90414 0.433814 5.45881 1.57053 3.51467 3.51467C1.57058 5.45886 0.433814 7.90419 0.102783 10.4348L10.4348 10.4348L10.4347 0.102783Z" fill="#0052B4"/>
<path d="M0.102783 13.5652C0.433814 16.0958 1.57058 18.5412 3.51467 20.4852C5.45881 22.4293 7.9041 23.5661 10.4348 23.8972L10.4347 13.5653L0.102783 13.5652Z" fill="#0052B4"/>
<path d="M13.5652 23.8971C16.0958 23.5661 18.5411 22.4293 20.4852 20.4852C22.4293 18.5411 23.5661 16.0958 23.8971 13.5652H13.5652V23.8971Z" fill="#0052B4"/>
<path d="M16.0963 7.61422C16.0963 7.45466 16.226 7.32496 16.3856 7.32496H17.0055C17.9854 7.32496 18.7826 6.5278 18.7826 5.54797C18.7826 4.56814 17.9854 3.77094 17.0055 3.77094H16.4168C16.2247 3.62661 15.9669 3.5376 15.6826 3.5376C15.0895 3.5376 14.6087 3.92221 14.6087 4.39668C14.6087 4.86655 15.0803 5.24774 15.6655 5.25514L15.6652 5.25857H17.0055C17.1651 5.25857 17.2948 5.38832 17.2948 5.54788C17.2948 5.70744 17.1651 5.83714 17.0055 5.83714H16.3856C15.4058 5.83714 14.6086 6.6343 14.6086 7.61413C14.6086 8.59396 15.4057 9.39116 16.3856 9.39116H18.7825V7.90344H16.3856C16.226 7.90349 16.0963 7.77379 16.0963 7.61422Z" fill="#F0F0F0"/>
<path d="M6.70503 7.61422C6.70503 7.45466 6.83474 7.32496 6.99434 7.32496H7.61422C8.59409 7.32496 9.3913 6.5278 9.3913 5.54797C9.3913 4.56814 8.59414 3.77094 7.61422 3.77094H7.02556C6.83342 3.62661 6.57566 3.5376 6.29131 3.5376C5.6982 3.5376 5.21741 3.92221 5.21741 4.39668C5.21741 4.86655 5.68902 5.24774 6.2742 5.25514L6.27392 5.25857H7.61427C7.77388 5.25857 7.90358 5.38832 7.90358 5.54788C7.90358 5.70744 7.77388 5.83714 7.61427 5.83714H6.99439C6.01452 5.83714 5.21741 6.6343 5.21741 7.61413C5.21741 8.59396 6.01447 9.39116 6.99439 9.39116H9.39125V7.90344H6.99434C6.83474 7.90349 6.70503 7.77379 6.70503 7.61422Z" fill="#F0F0F0"/>
<path d="M16.0964 18.6853C16.0964 18.5257 16.2261 18.396 16.3857 18.396H17.0055C17.9854 18.396 18.7826 17.5988 18.7826 16.619C18.7826 15.6392 17.9855 14.842 17.0055 14.842H16.4169C16.2248 14.6977 15.967 14.6086 15.6826 14.6086C15.0895 14.6086 14.6087 14.9933 14.6087 15.4677C14.6087 15.9376 15.0803 16.3188 15.6655 16.3262L15.6652 16.3296H17.0055C17.1651 16.3296 17.2948 16.4594 17.2948 16.6189C17.2948 16.7785 17.1651 16.9082 17.0055 16.9082H16.3856C15.4058 16.9082 14.6086 17.7053 14.6086 18.6852C14.6086 19.665 15.4057 20.4622 16.3856 20.4622H18.7826V18.9745H16.3857C16.2261 18.9746 16.0964 18.8448 16.0964 18.6853Z" fill="#F0F0F0"/>
<path d="M6.70508 18.6853C6.70508 18.5257 6.83478 18.396 6.99439 18.396H7.61427C8.59414 18.396 9.39134 17.5988 9.39134 16.619C9.39134 15.6392 8.59419 14.842 7.61427 14.842H7.02561C6.83347 14.6977 6.5757 14.6086 6.29136 14.6086C5.6982 14.6086 5.21741 14.9933 5.21741 15.4677C5.21741 15.9376 5.68902 16.3188 6.2742 16.3262L6.27392 16.3296H7.61427C7.77388 16.3296 7.90358 16.4594 7.90358 16.6189C7.90358 16.7785 7.77388 16.9082 7.61427 16.9082H6.99439C6.01452 16.9082 5.21741 17.7053 5.21741 18.6852C5.21741 19.665 6.01447 20.4622 6.99439 20.4622H9.3913V18.9745H6.99439C6.83478 18.9746 6.70508 18.8448 6.70508 18.6853Z" fill="#F0F0F0"/>
</g>
<defs>
<clipPath id="clip0_9010_15594">
<rect width="24" height="24" fill="white"/>
</clipPath>
</defs>
</svg>
