<svg width="24" height="24" viewBox="0 0 24 24" fill="none" xmlns="http://www.w3.org/2000/svg">
<g clip-path="url(#clip0_9010_15492)">
<path d="M12 24C18.6274 24 24 18.6274 24 12C24 5.37258 18.6274 0 12 0C5.37258 0 0 5.37258 0 12C0 18.6274 5.37258 24 12 24Z" fill="#496E2D"/>
<path d="M11.9999 13.8633C10.0018 13.8633 8.33263 12.459 7.92308 10.5838C7.86017 10.8721 7.82605 11.171 7.82605 11.4782C7.82605 13.7835 9.69472 15.6521 11.9999 15.6521C14.3052 15.6521 16.1738 13.7834 16.1738 11.4782C16.1738 11.171 16.1397 10.8721 16.0768 10.5837C15.6673 12.4591 13.998 13.8633 11.9999 13.8633Z" fill="#FFDA44"/>
<path d="M11.9999 8.34778L12.3884 9.54351H13.6457L12.6285 10.2825L13.017 11.4782L11.9999 10.7392L10.9827 11.4782L11.3713 10.2825L10.3541 9.54351H11.6114L11.9999 8.34778Z" fill="#FFDA44"/>
</g>
<defs>
<clipPath id="clip0_9010_15492">
<rect width="24" height="24" fill="white"/>
</clipPath>
</defs>
</svg>
