<svg width="24" height="24" viewBox="0 0 24 24" fill="none" xmlns="http://www.w3.org/2000/svg">
<g clip-path="url(#clip0_9010_15487)">
<path d="M12 24C18.6274 24 24 18.6274 24 12C24 5.37258 18.6274 0 12 0C5.37258 0 0 5.37258 0 12C0 18.6274 5.37258 24 12 24Z" fill="#F0F0F0"/>
<path d="M24 12C24 7.24242 21.2314 3.13167 17.2174 1.19067V22.8092C21.2314 20.8682 24 16.7575 24 12Z" fill="#D80027"/>
<path d="M0 12C0 16.7575 2.76867 20.8682 6.78263 22.8092V1.19067C2.76867 3.13167 0 7.24242 0 12Z" fill="#6DA544"/>
<path d="M8.86951 11.9999C8.86951 13.7288 10.2711 15.1304 12 15.1304C13.7289 15.1304 15.1304 13.7288 15.1304 11.9999V10.9564H8.86951V11.9999Z" fill="#6DA544"/>
<path d="M16.1739 9.91299H13.0435C13.0435 9.33671 12.5763 8.86951 12 8.86951C11.4237 8.86951 10.9565 9.33671 10.9565 9.91299H7.82605C7.82605 10.4893 8.32803 10.9565 8.90427 10.9565H8.86953C8.86953 11.5328 9.33669 12 9.91302 12C9.91302 12.5763 10.3802 13.0434 10.9565 13.0434H13.0435C13.6198 13.0434 14.087 12.5763 14.087 12C14.6633 12 15.1304 11.5328 15.1304 10.9565H15.0957C15.672 10.9565 16.1739 10.4893 16.1739 9.91299Z" fill="#FF9811"/>
</g>
<defs>
<clipPath id="clip0_9010_15487">
<rect width="24" height="24" fill="white"/>
</clipPath>
</defs>
</svg>
