<svg width="24" height="24" viewBox="0 0 24 24" fill="none" xmlns="http://www.w3.org/2000/svg">
<g clip-path="url(#clip0_9010_15615)">
<path d="M12 24C18.6274 24 24 18.6274 24 12C24 5.37258 18.6274 0 12 0C5.37258 0 0 5.37258 0 12C0 18.6274 5.37258 24 12 24Z" fill="#338AF3"/>
<path d="M12 5.21741L12.518 6.81172H14.1944L12.8382 7.79708L13.3562 9.39135L12 8.40603L10.6438 9.39135L11.1619 7.79708L9.80566 6.81172H11.4821L12 5.21741Z" fill="#F0F0F0"/>
<path d="M5.21741 12.0002L6.81172 11.4821V9.80566L7.79708 11.1619L9.39135 10.6439L8.40603 12.0002L9.39135 13.3563L7.79708 12.8382L6.81172 14.1944V12.5181L5.21741 12.0002Z" fill="#F0F0F0"/>
<path d="M12.0001 18.7827L11.4821 17.1884H9.80566L11.1619 16.203L10.6439 14.6088L12.0001 15.5941L13.3563 14.6088L12.8382 16.203L14.1944 17.1884H12.5181L12.0001 18.7827Z" fill="#F0F0F0"/>
<path d="M18.7827 12L17.1884 12.518V14.1944L16.203 12.8382L14.6088 13.3562L15.5941 12L14.6088 10.6439L16.203 11.1619L17.1884 9.80566V11.4821L18.7827 12Z" fill="#F0F0F0"/>
</g>
<defs>
<clipPath id="clip0_9010_15615">
<rect width="24" height="24" fill="white"/>
</clipPath>
</defs>
</svg>
