<svg width="24" height="24" viewBox="0 0 24 24" fill="none" xmlns="http://www.w3.org/2000/svg">
<g clip-path="url(#clip0_9010_15478)">
<path d="M12 24C18.6274 24 24 18.6274 24 12C24 5.37258 18.6274 0 12 0C5.37258 0 0 5.37258 0 12C0 18.6274 5.37258 24 12 24Z" fill="#D80027"/>
<path d="M19.0916 9.84799H13.674L11.9999 4.69568L10.3259 9.84799H4.90833L9.29118 13.0323L7.61704 18.1848L11.9999 15.0004L16.3829 18.1848L14.7087 13.0324L19.0916 9.84799ZM10.5179 12.6337L11.084 10.8914H12.9159L13.482 12.6337L11.9999 13.7105L10.5179 12.6338L10.5179 12.6337ZM12.5769 9.84799H11.4231L11.9999 8.07237L12.5769 9.84799ZM14.3696 11.9889L14.013 10.8915H15.88L14.3696 11.9889ZM9.98681 10.8915L9.63023 11.9889L8.11978 10.8915H9.98681ZM9.60187 15.4529L10.1788 13.6773L11.1123 14.3555L9.60187 15.4529ZM12.8876 14.3555L13.8211 13.6773L14.398 15.4529L12.8876 14.3555Z" fill="#FFDA44"/>
</g>
<defs>
<clipPath id="clip0_9010_15478">
<rect width="24" height="24" fill="white"/>
</clipPath>
</defs>
</svg>
