<svg width="24" height="24" viewBox="0 0 24 24" fill="none" xmlns="http://www.w3.org/2000/svg">
<g clip-path="url(#clip0_9010_15476)">
<path d="M23.2536 16.1739C23.736 14.8739 24 13.4678 24 12C24 10.5321 23.736 9.12601 23.2536 7.82608L12 6.78259L0.746391 7.82608C0.264047 9.12601 0 10.5321 0 12C0 13.4678 0.264047 14.8739 0.746391 16.1739L12 17.2173L23.2536 16.1739Z" fill="#6DA544"/>
<path d="M23.2536 7.82611C21.558 3.2565 17.1595 0 11.9999 0C6.84037 0 2.44185 3.2565 0.746338 7.82611H23.2536Z" fill="#FFDA44"/>
<path d="M11.9999 24.0001C17.1595 24.0001 21.558 20.7436 23.2536 16.174H0.746338C2.44185 20.7436 6.84037 24.0001 11.9999 24.0001Z" fill="#D80027"/>
<path d="M20.2288 10.1525H13.9426L12 4.17395L10.0574 10.1525H3.77112L8.85682 13.8475L6.91423 19.8262L12 16.174L17.0857 19.8261L15.1432 13.8475L20.2288 10.1525Z" fill="#F0F0F0"/>
</g>
<defs>
<clipPath id="clip0_9010_15476">
<rect width="24" height="24" fill="white"/>
</clipPath>
</defs>
</svg>
