<svg width="24" height="24" viewBox="0 0 24 24" fill="none" xmlns="http://www.w3.org/2000/svg">
<g clip-path="url(#clip0_9010_15592)">
<path d="M12 24C18.6274 24 24 18.6274 24 12C24 5.37258 18.6274 0 12 0C5.37258 0 0 5.37258 0 12C0 18.6274 5.37258 24 12 24Z" fill="#F0F0F0"/>
<path d="M12 0C7.24242 0 3.13167 2.76867 1.19067 6.78263H22.8092C20.8682 2.76867 16.7574 0 12 0Z" fill="#338AF3"/>
<path d="M12 24C16.7574 24 20.8682 21.2314 22.8092 17.2174H1.19067C3.13167 21.2314 7.24242 24 12 24Z" fill="#338AF3"/>
<path d="M11.9999 8.34778C9.98292 8.34778 8.34778 9.98292 8.34778 11.9999C8.34778 14.017 9.98292 15.6521 11.9999 15.6521C14.017 15.6521 15.6521 14.017 15.6521 11.9999C15.6521 9.98292 14.017 8.34778 11.9999 8.34778ZM11.9999 14.0869C10.8474 14.0869 9.91298 13.1526 9.91298 11.9999C9.91298 10.8473 10.8473 9.91298 11.9999 9.91298C13.1526 9.91298 14.0869 10.8473 14.0869 11.9999C14.0869 13.1526 13.1525 14.0869 11.9999 14.0869Z" fill="#FFDA44"/>
<path d="M13.8075 12.5217L12.0001 12L10.1926 12.5217L9.59021 13.5652H14.4099L13.8075 12.5217Z" fill="#0052B4"/>
<path d="M12 9.39136L10.795 11.4783L12 12L13.2049 11.4783L12 9.39136Z" fill="#338AF3"/>
<path d="M10.1926 12.5217H13.8074L13.205 11.4783H10.7951L10.1926 12.5217Z" fill="#6DA544"/>
</g>
<defs>
<clipPath id="clip0_9010_15592">
<rect width="24" height="24" fill="white"/>
</clipPath>
</defs>
</svg>
