<svg width="24" height="24" viewBox="0 0 24 24" fill="none" xmlns="http://www.w3.org/2000/svg">
<g clip-path="url(#clip0_9010_15632)">
<path d="M12 24C18.6274 24 24 18.6274 24 12C24 5.37258 18.6274 0 12 0C5.37258 0 0 5.37258 0 12C0 18.6274 5.37258 24 12 24Z" fill="#F0F0F0"/>
<path d="M0 12C0 16.5485 2.53078 20.5057 6.26086 22.5409V1.45911C2.53078 3.49433 0 7.45151 0 12Z" fill="#D80027"/>
<path d="M23.2537 16.174C23.736 14.874 24 13.4679 24 12.0001C24 10.5322 23.736 9.12611 23.2537 7.82617H0.746437C0.264047 9.12611 0 10.5322 0 12.0001C0 13.4679 0.264047 14.874 0.746437 16.174L12 17.2174L23.2537 16.174Z" fill="#D80027"/>
<path d="M12 24.0001C17.1596 24.0001 21.5581 20.7436 23.2537 16.174H0.74646C2.44193 20.7436 6.84049 24.0001 12 24.0001Z" fill="#6DA544"/>
<path d="M0 11.9999C0 17.5443 3.76036 22.2095 8.86955 23.5865V0.41333C3.76036 1.79033 0 6.45561 0 11.9999Z" fill="#D80027"/>
<path d="M7.34147 5.28072L6.23471 4.17395L5.49689 4.91186L4.75908 4.17395L3.65232 5.28072L4.39017 6.01858L3.65222 6.75648L4.75899 7.86325L5.49685 7.12534L6.23471 7.86325L7.34147 6.75648L6.60361 6.01858L7.34147 5.28072Z" fill="#F0F0F0"/>
</g>
<defs>
<clipPath id="clip0_9010_15632">
<rect width="24" height="24" fill="white"/>
</clipPath>
</defs>
</svg>
