<svg width="24" height="24" viewBox="0 0 24 24" fill="none" xmlns="http://www.w3.org/2000/svg">
<g clip-path="url(#clip0_9010_15630)">
<path d="M23.5866 15.1305C23.8556 14.1323 24 13.0831 24 12C24 10.9169 23.8556 9.8677 23.5866 8.86954L10.9565 0.0456543C8.61178 0.247686 6.46008 1.12378 4.69566 2.47945L0.413391 8.86954C0.144375 9.8677 0 10.9169 0 12C0 13.0768 0.142641 14.1202 0.408656 15.1131L4.69561 21.5205C6.46003 22.8762 8.61173 23.7524 10.9565 23.9543L23.5866 15.1305Z" fill="#FFDA44"/>
<path d="M0.41333 15.1305C1.10764 17.7067 2.63792 19.9395 4.6956 21.5206V15.1305H0.41333Z" fill="#D80027"/>
<path d="M10.9564 23.9544C11.3004 23.984 11.6482 24 11.9999 24C17.5442 24 22.2095 20.2397 23.5865 15.1305H10.9564V23.9544Z" fill="#D80027"/>
<path d="M23.5865 8.86955C22.2095 3.76036 17.5442 0 11.9999 0C11.6482 0 11.3004 0.0160312 10.9564 0.0456562V8.86955H23.5865Z" fill="#D80027"/>
<path d="M4.6956 2.47949C2.63792 4.06059 1.10764 6.29338 0.41333 8.86959H4.6956V2.47949Z" fill="#D80027"/>
<path d="M23.8984 10.4348H9.39136L9.39131 0.285278C8.28234 0.531185 7.23098 0.929763 6.26086 1.45912V10.4348H0.101578C0.034875 10.9472 0 11.4696 0 12C0 12.5305 0.034875 13.0529 0.101578 13.5652H6.26081H6.26086V22.5409C7.23098 23.0702 8.28234 23.4689 9.39131 23.7148V13.5654V13.5653H23.8984C23.9651 13.0529 24 12.5305 24 12C24 11.4696 23.9651 10.9472 23.8984 10.4348Z" fill="#0052B4"/>
</g>
<defs>
<clipPath id="clip0_9010_15630">
<rect width="24" height="24" fill="white"/>
</clipPath>
</defs>
</svg>
