<svg width="24" height="24" viewBox="0 0 24 24" fill="none" xmlns="http://www.w3.org/2000/svg">
<g clip-path="url(#clip0_9010_15526)">
<path d="M20.4853 20.4853C15.799 25.1715 8.20108 25.1715 3.5147 20.4853C-1.17158 15.799 -1.17158 8.20097 3.51475 3.51464C8.20103 -1.17164 15.0611 -0.433783 19.7474 4.25254C24.4337 8.93883 25.1716 15.799 20.4853 20.4853Z" fill="black"/>
<path d="M3.51477 3.51467C8.20105 -1.17161 15.799 -1.17152 20.4853 3.51472C25.1716 8.201 25.1716 15.799 20.4853 20.4853" fill="#A2001D"/>
<path d="M9.17067 16.174L9.36492 16.7718H9.99356L9.48497 17.1413L9.67926 17.7392L9.17067 17.3697L8.66208 17.7392L8.85633 17.1413L8.34778 16.7718H8.97637L9.17067 16.174Z" fill="#F0F0F0"/>
<path d="M7.56519 10.4348L7.88905 11.4313H8.93671L8.08907 12.0471L8.41284 13.0435L7.56519 12.4277L6.7176 13.0435L7.04141 12.0471L6.19373 11.4313H7.24148L7.56519 10.4348Z" fill="#F0F0F0"/>
<path d="M7.56519 17.7393L7.88896 18.7357H8.93671L8.08898 19.3515L8.41284 20.3479L7.56519 19.7321L6.7176 20.3479L7.04132 19.3515L6.19373 18.7357H7.24133L7.56519 17.7393Z" fill="#F0F0F0"/>
<path d="M10.6285 13.0436L10.9524 14.04H12L11.1524 14.6558L11.4761 15.6523L10.6285 15.0364L9.78091 15.6523L10.1047 14.6558L9.25708 14.04H10.3048L10.6285 13.0436Z" fill="#F0F0F0"/>
<path d="M4.50184 13.0436L4.8257 14.04H5.87331L5.02572 14.6558L5.34943 15.6523L4.50184 15.0364L3.6542 15.6523L3.97806 14.6558L3.13037 14.04H4.17807L4.50184 13.0436Z" fill="#F0F0F0"/>
<path d="M20.0883 8.88563C19.552 8.34933 18.8551 8.0325 18.1063 7.97808L20.3478 6.23466C19.4551 5.34192 18.2586 4.93875 17.091 5.02402C16.9512 4.52171 16.6847 4.04724 16.2897 3.65222L15.4043 5.42307C15.3462 5.31722 15.2727 5.21761 15.183 5.12794C14.6735 4.61855 13.8477 4.61855 13.3383 5.12794C12.829 5.63733 12.8289 6.46317 13.3383 6.97257C13.428 7.06224 13.5277 7.13578 13.6335 7.19391L11.8627 8.07933C12.2578 8.47449 12.7326 8.74116 13.2352 8.88085C13.1496 10.0484 13.5524 11.2448 14.4452 12.1375L16.4036 9.6195C16.5509 9.47442 16.7455 9.39432 16.9525 9.39432C17.1616 9.39432 17.3581 9.47569 17.5059 9.62358C17.6537 9.77138 17.7351 9.96792 17.7351 10.1769C17.7351 10.386 17.6537 10.5825 17.5059 10.7303L18.2438 11.4683C18.5886 11.1233 18.7786 10.6648 18.7786 10.177C18.7786 9.77789 18.6513 9.39849 18.4163 9.0848C18.7587 9.17625 19.0824 9.35541 19.3505 9.62358C20.1643 10.4373 20.1643 11.7613 19.3505 12.575L20.0884 13.3129C20.6797 12.7216 21.0053 11.9355 21.0053 11.0993C21.0052 10.263 20.6795 9.47691 20.0883 8.88563Z" fill="#FFDA44"/>
</g>
<defs>
<clipPath id="clip0_9010_15526">
<rect width="24" height="24" fill="white"/>
</clipPath>
</defs>
</svg>
