<svg width="24" height="24" viewBox="0 0 24 24" fill="none" xmlns="http://www.w3.org/2000/svg">
<g clip-path="url(#clip0_9010_15458)">
<path d="M12 24C18.6274 24 24 18.6274 24 12C24 5.37258 18.6274 0 12 0C5.37258 0 0 5.37258 0 12C0 18.6274 5.37258 24 12 24Z" fill="#F0F0F0"/>
<path d="M12.0001 0C8.07418 0 4.58879 1.88545 2.39954 4.8H21.6006C19.4113 1.88545 15.9259 0 12.0001 0Z" fill="#D80027"/>
<path d="M12.0001 24C15.9259 24 19.4113 22.1145 21.6006 19.2H2.39954C4.58879 22.1145 8.07418 24 12.0001 24Z" fill="#D80027"/>
<path d="M0 12C0 12.8219 0.082875 13.6245 0.240328 14.4H23.7598C23.9172 13.6245 24 12.8219 24 12C24 11.178 23.9171 10.3754 23.7597 9.59998H0.240328C0.082875 10.3754 0 11.178 0 12Z" fill="#D80027"/>
<path d="M3.51471 3.51465C-1.17157 8.20093 -1.17157 15.7989 3.51471 20.4853C5.45126 18.5487 7.31374 16.6862 12 12L3.51471 3.51465Z" fill="#0052B4"/>
<path d="M4.8567 8.86951L5.63365 11.2609H8.14831L6.11403 12.7389L6.89094 15.1304L4.8567 13.6524L2.82237 15.1304L3.59947 12.7389L1.56519 11.2609H4.07965L4.8567 8.86951Z" fill="#F0F0F0"/>
</g>
<defs>
<clipPath id="clip0_9010_15458">
<rect width="24" height="24" fill="white"/>
</clipPath>
</defs>
</svg>
