<svg width="24" height="24" viewBox="0 0 24 24" fill="none" xmlns="http://www.w3.org/2000/svg">
<g clip-path="url(#clip0_9010_15600)">
<path d="M10.9565 13.0435C10.9565 13.0435 3.52168 3.51305 3.51465 3.51473C5.68618 1.34316 8.68623 0 12 0C18.6273 0 24 5.37262 24 12L10.9565 13.0435Z" fill="#D80027"/>
<path d="M10.9565 12C10.9565 12 3.52168 20.487 3.51465 20.4853C5.68618 22.6568 8.68623 24 12 24C18.6273 24 24 18.6274 24 12H10.9565Z" fill="#0052B4"/>
<path d="M3.51471 3.51465C-1.17157 8.20093 -1.17157 15.7989 3.51471 20.4853C5.45126 18.5487 7.31374 16.6862 12 12L3.51471 3.51465Z" fill="#F0F0F0"/>
<path d="M1.31534 12C1.30877 12.0862 1.30432 12.173 1.30432 12.2608C1.30432 14.1337 2.8227 15.6521 4.69563 15.6521C6.56857 15.6521 8.08695 14.1337 8.08695 12.2608C8.08695 12.173 8.08249 12.0861 8.07593 12H1.31534Z" fill="#FFDA44"/>
<path d="M4.69558 10.4347C5.27188 10.4347 5.73907 9.96756 5.73907 9.39126C5.73907 8.81496 5.27188 8.34778 4.69558 8.34778C4.11928 8.34778 3.6521 8.81496 3.6521 9.39126C3.6521 9.96756 4.11928 10.4347 4.69558 10.4347Z" fill="#FFDA44"/>
<path d="M2.34778 9.13049V12.5218C2.34778 14.319 4.69561 14.8696 4.69561 14.8696C4.69561 14.8696 7.04343 14.319 7.04343 12.5218V9.13049H2.34778Z" fill="#D80027"/>
<path d="M4.69675 13.7776C4.26119 13.6208 3.39124 13.2202 3.39124 12.5218V10.174H5.99997V12.5218C5.99997 13.2225 5.13011 13.6221 4.69675 13.7776Z" fill="#338AF3"/>
<path d="M5.21743 11.4783V10.9565L4.69571 10.6957L4.17395 10.9565V11.4783L3.91309 11.7392V12.7826H5.47834V11.7392L5.21743 11.4783Z" fill="#F3F3F3"/>
</g>
<defs>
<clipPath id="clip0_9010_15600">
<rect width="24" height="24" fill="white"/>
</clipPath>
</defs>
</svg>
