<svg width="24" height="24" viewBox="0 0 24 24" fill="none" xmlns="http://www.w3.org/2000/svg">
<g clip-path="url(#clip0_9010_15438)">
<path d="M12 24C18.6274 24 24 18.6274 24 12C24 5.37258 18.6274 0 12 0C5.37258 0 0 5.37258 0 12C0 18.6274 5.37258 24 12 24Z" fill="#F0F0F0"/>
<path d="M12 23.9999C18.6274 23.9999 24 18.6273 24 11.9999C24 10.5321 23.736 9.12599 23.2536 7.82605H0.746391C0.264047 9.12599 0 10.5321 0 11.9999C0 18.6273 5.37262 23.9999 12 23.9999Z" fill="#0052B4"/>
<path d="M11.9999 24.0001C17.1595 24.0001 21.558 20.7436 23.2536 16.174H0.746338C2.44185 20.7436 6.84037 24.0001 11.9999 24.0001Z" fill="#D80027"/>
<path d="M3.10303 6.78259V12.7688C3.10303 16.174 7.55151 17.2174 7.55151 17.2174C7.55151 17.2174 11.9999 16.174 11.9999 12.7688V6.78259H3.10303Z" fill="#F0F0F0"/>
<path d="M4.14648 6.78259V12.7688C4.14648 13.1686 4.23527 13.5461 4.41114 13.9C6.15648 13.9 8.76517 13.9 10.6918 13.9C10.8677 13.5461 10.9564 13.1686 10.9564 12.7688V6.78259H4.14648Z" fill="#D80027"/>
<path d="M9.63849 10.9565H8.07333V9.91297H9.11682V8.86949H8.07333V7.82605H7.02985V8.86949H5.98641V9.91297H7.02985V10.9565H5.4646V11.9999H7.02985V13.0434H8.07333V11.9999H9.63849V10.9565Z" fill="#F0F0F0"/>
<path d="M5.83452 15.3567C6.50694 15.7793 7.19779 16.0246 7.55146 16.1337C7.90513 16.0247 8.59597 15.7793 9.2684 15.3567C9.94649 14.9305 10.4218 14.4431 10.6918 13.9C10.3941 13.6894 10.0308 13.5652 9.63843 13.5652C9.49555 13.5652 9.35675 13.5821 9.2233 13.6132C8.9405 12.9706 8.29855 12.5217 7.55151 12.5217C6.80446 12.5217 6.16246 12.9706 5.87971 13.6132C5.74625 13.5821 5.60741 13.5652 5.46458 13.5652C5.07219 13.5652 4.70896 13.6894 4.41125 13.9C4.68102 14.443 5.15638 14.9304 5.83452 15.3567Z" fill="#0052B4"/>
</g>
<defs>
<clipPath id="clip0_9010_15438">
<rect width="24" height="24" fill="white"/>
</clipPath>
</defs>
</svg>
