<svg width="24" height="24" viewBox="0 0 24 24" fill="none" xmlns="http://www.w3.org/2000/svg">
<g clip-path="url(#clip0_9010_15544)">
<path d="M12 24C18.6274 24 24 18.6274 24 12C24 5.37258 18.6274 0 12 0C5.37258 0 0 5.37258 0 12C0 18.6274 5.37258 24 12 24Z" fill="#F0F0F0"/>
<path d="M16.1738 11.9999C16.1738 13.0434 14.3051 15.6521 11.9999 15.6521C9.69477 15.6521 7.82605 13.0434 7.82605 11.9999C7.82605 9.69472 9.69477 7.82605 11.9999 7.82605C14.3051 7.82605 16.1738 9.69472 16.1738 11.9999Z" fill="#D80027"/>
<path d="M16.1738 12C16.1738 14.3052 14.3051 16.1739 11.9999 16.1739C9.69477 16.1739 7.82605 14.3052 7.82605 12" fill="#0052B4"/>
<path d="M17.5338 14.5826L16.427 15.6893L17.1648 16.4272L18.2716 15.3204L17.5338 14.5826Z" fill="black"/>
<path d="M15.6889 16.4273L14.5822 17.5341L15.32 18.2719L16.4268 17.1652L15.6889 16.4273Z" fill="black"/>
<path d="M19.7475 16.7956L18.6407 17.9023L19.3786 18.6402L20.4853 17.5334L19.7475 16.7956Z" fill="black"/>
<path d="M17.9027 18.6407L16.7959 19.7474L17.5337 20.4853L18.6405 19.3785L17.9027 18.6407Z" fill="black"/>
<path d="M18.6406 15.6891L17.5338 16.7959L18.2717 17.5337L19.3784 16.427L18.6406 15.6891Z" fill="black"/>
<path d="M16.7962 17.5339L15.6895 18.6406L16.4273 19.3785L17.5341 18.2717L16.7962 17.5339Z" fill="black"/>
<path d="M15.6898 5.35907L18.6411 8.31042L19.379 7.57258L16.4276 4.62122L15.6898 5.35907Z" fill="black"/>
<path d="M14.5829 6.46624L15.6897 7.573L16.4275 6.83518L15.3208 5.72843L14.5829 6.46624Z" fill="black"/>
<path d="M16.4273 8.31073L17.5341 9.41748L18.2719 8.67967L17.1651 7.57291L16.4273 8.31073Z" fill="black"/>
<path d="M16.7955 4.25274L17.9022 5.3595L18.6401 4.62165L17.5333 3.51489L16.7955 4.25274Z" fill="black"/>
<path d="M18.6409 6.09735L19.7477 7.2041L20.4855 6.46625L19.3788 5.3595L18.6409 6.09735Z" fill="black"/>
<path d="M7.20392 19.7475L4.25256 16.7961L3.51472 17.534L6.46607 20.4853L7.20392 19.7475Z" fill="black"/>
<path d="M8.31049 18.6403L7.20374 17.5336L6.46592 18.2714L7.57268 19.3781L8.31049 18.6403Z" fill="black"/>
<path d="M6.46601 16.796L5.35925 15.6892L4.62141 16.4271L5.72816 17.5338L6.46601 16.796Z" fill="black"/>
<path d="M9.41742 17.5338L6.46606 14.5824L5.72822 15.3202L8.67958 18.2716L9.41742 17.5338Z" fill="black"/>
<path d="M4.2525 7.20392L7.20386 4.25256L6.46601 3.51472L3.51465 6.46607L4.2525 7.20392Z" fill="black"/>
<path d="M5.35894 8.31037L8.3103 5.35901L7.57245 4.62116L4.6211 7.57252L5.35894 8.31037Z" fill="black"/>
<path d="M6.46637 9.41767L9.41772 6.46631L8.67991 5.72849L5.72855 8.67985L6.46637 9.41767Z" fill="black"/>
</g>
<defs>
<clipPath id="clip0_9010_15544">
<rect width="24" height="24" fill="white"/>
</clipPath>
</defs>
</svg>
