<svg width="24" height="24" viewBox="0 0 24 24" fill="none" xmlns="http://www.w3.org/2000/svg">
<g clip-path="url(#clip0_9010_15514)">
<path d="M12 24C18.6274 24 24 18.6274 24 12C24 5.37258 18.6274 0 12 0C5.37258 0 0 5.37258 0 12C0 18.6274 5.37258 24 12 24Z" fill="#F0F0F0"/>
<path d="M11.9999 0C6.84037 0 2.44185 3.2565 0.746338 7.82611H23.2536C21.558 3.2565 17.1595 0 11.9999 0Z" fill="#D80027"/>
<path d="M11.9999 24.0001C17.1595 24.0001 21.558 20.7436 23.2536 16.174H0.746338C2.44185 20.7436 6.84037 24.0001 11.9999 24.0001Z" fill="black"/>
<path d="M7.17006 9.13049L7.81755 11.1232H9.913L8.21777 12.355L8.8653 14.3479L7.17006 13.1162L5.47483 14.3479L6.12236 12.355L4.42712 11.1232H6.52258L7.17006 9.13049Z" fill="#6DA544"/>
<path d="M16.8299 9.13049L17.4773 11.1232H19.5728L17.8776 12.355L18.5251 14.3479L16.8299 13.1162L15.1346 14.3479L15.7821 12.355L14.0869 11.1232H16.1824L16.8299 9.13049Z" fill="#6DA544"/>
</g>
<defs>
<clipPath id="clip0_9010_15514">
<rect width="24" height="24" fill="white"/>
</clipPath>
</defs>
</svg>
