<svg width="24" height="24" viewBox="0 0 24 24" fill="none" xmlns="http://www.w3.org/2000/svg">
<g clip-path="url(#clip0_9010_15613)">
<path d="M12 24C18.6274 24 24 18.6274 24 12C24 5.37258 18.6274 0 12 0C5.37258 0 0 5.37258 0 12C0 18.6274 5.37258 24 12 24Z" fill="#338AF3"/>
<path d="M11.9653 7.82605C9.66001 7.82605 7.79138 9.69477 7.79138 11.9999C7.79138 14.3051 9.66005 16.1738 11.9653 16.1738C14.2704 16.1738 16.1392 14.3051 16.1392 11.9999C16.1392 9.69477 14.2704 7.82605 11.9653 7.82605ZM10.9218 11.9999C10.9218 11.4237 11.3889 10.9565 11.9653 10.9565C12.5416 10.9565 13.0088 11.4237 13.0088 11.9999C13.0088 12.5763 12.5416 13.0434 11.9653 13.0434C11.3889 13.0434 10.9218 12.5763 10.9218 11.9999ZM13.0471 10.215C12.8852 10.1166 12.7087 10.0402 12.5217 9.98858V8.91983C12.9924 9.0043 13.4264 9.19363 13.7988 9.46335L13.0471 10.215ZM11.4783 9.97072C11.2825 10.0175 11.0975 10.0919 10.9276 10.1896L10.1724 9.43442C10.5541 9.16714 10.998 8.9825 11.4783 8.90736V9.97072ZM10.9275 13.8103C11.0975 13.9079 11.2824 13.9823 11.4782 14.0291V15.0924C10.9979 15.0174 10.5541 14.8326 10.1724 14.5654L10.9275 13.8103ZM12.5218 14.0113C12.7087 13.9597 12.8853 13.8833 13.0471 13.7849L13.7988 14.5366C13.4263 14.8063 12.9924 14.9956 12.5217 15.0801V14.0113L12.5218 14.0113ZM13.7756 13.0378C13.8675 12.8778 13.9394 12.7047 13.9865 12.5217H15.0516C14.9732 12.9887 14.7916 13.4203 14.5308 13.7928L13.7756 13.0378ZM13.9865 11.4782C13.9394 11.2952 13.8675 11.1223 13.7756 10.9622L14.5307 10.2071C14.7916 10.5796 14.9732 11.0112 15.0515 11.4782H13.9864L13.9865 11.4782ZM9.42863 10.1664L10.1803 10.9181C10.0758 11.0901 9.99549 11.2783 9.94402 11.4782H8.87893C8.96016 10.9942 9.1523 10.548 9.42863 10.1664ZM8.87893 12.5217H9.94402C9.99544 12.7215 10.0757 12.9098 10.1803 13.0818L9.42863 13.8335C9.1523 13.4518 8.96016 13.0057 8.87893 12.5217Z" fill="#F0F0F0"/>
<path d="M18.7479 12C18.7479 10.1447 18.0027 8.4637 16.7956 7.23914L15.6889 8.3459C16.6127 9.28715 17.1827 10.577 17.1827 12C17.1827 14.8815 14.8468 17.2174 11.9653 17.2174C9.08377 17.2174 6.74794 14.8815 6.74794 12C6.74794 10.5592 7.33186 9.25485 8.27607 8.31075L7.1693 7.20398C5.94188 8.4314 5.18274 10.1271 5.18274 12C5.18274 15.1038 7.2676 17.7207 10.1133 18.5266C9.80133 19.1193 9.84886 19.8655 10.2946 20.4217C10.8799 19.9526 11.486 19.4669 12.0001 19.0549C12.5142 19.4669 13.1203 19.9526 13.7056 20.4217C14.1557 19.86 14.2 19.1043 13.8777 18.5088C16.6923 17.6831 18.7479 15.0818 18.7479 12Z" fill="#F0F0F0"/>
</g>
<defs>
<clipPath id="clip0_9010_15613">
<rect width="24" height="24" fill="white"/>
</clipPath>
</defs>
</svg>
