<svg width="24" height="24" viewBox="0 0 24 24" fill="none" xmlns="http://www.w3.org/2000/svg">
<g clip-path="url(#clip0_9010_15412)">
<path d="M12 24C18.6274 24 24 18.6274 24 12C24 5.37258 18.6274 0 12 0C5.37258 0 0 5.37258 0 12C0 18.6274 5.37258 24 12 24Z" fill="#F0F0F0"/>
<path d="M24 12C24 18.6274 18.6274 24 12 24C5.37262 24 0 18.6274 0 12" fill="#496E2D"/>
<path d="M20.7663 8.35041C20.3372 7.1334 19.1777 6.26086 17.8138 6.26086H15.1305C13.4016 6.26086 12.0001 7.66243 12.0001 9.39132C12.0001 9.95616 12.1504 10.499 12.4121 10.9565C11.4157 10.9484 10.4935 10.9634 9.91309 10.9565C9.91309 9.74921 9.91309 8.21124 9.91309 7.88944L10.0364 7.76616C10.5898 7.21276 10.4052 6.29044 10.4052 6.29044C10.4052 6.29044 9.48301 6.10599 8.92961 6.6594L8.28465 7.30435H7.56526C5.98042 7.30435 4.69572 8.5891 4.69572 10.1739H6.78268V12.5217C6.78268 12.8651 6.85192 13.1923 6.97703 13.4902L6.26092 14.0869H5.21743V13.0434H4.17395V15.1304H8.86961V17.2174H7.82612V18.2609H9.91309V16.1739L10.8696 15.0261H13.1305L14.087 16.1739V17.2174H13.0435V18.2609H17.2174V12.5217C17.2174 11.6573 17.9182 10.9565 18.7826 10.9565C18.8048 10.9565 18.8268 10.9573 18.8489 10.9582C18.8057 10.7909 18.7826 10.6156 18.7826 10.4348C18.7827 9.31683 19.6617 8.40427 20.7663 8.35041ZM15.1305 17.2173V15.026H15.2175L16.174 16.1738V17.2173H15.1305Z" fill="#D80027"/>
</g>
<defs>
<clipPath id="clip0_9010_15412">
<rect width="24" height="24" fill="white"/>
</clipPath>
</defs>
</svg>
