<svg width="24" height="24" viewBox="0 0 24 24" fill="none" xmlns="http://www.w3.org/2000/svg">
<g clip-path="url(#clip0_9010_15410)">
<path d="M12 24C18.6274 24 24 18.6274 24 12C24 5.37258 18.6274 0 12 0C5.37258 0 0 5.37258 0 12C0 18.6274 5.37258 24 12 24Z" fill="#496E2D"/>
<path d="M16.6957 12H12V24C13.4027 24 14.7488 23.7585 16 23.3163L16.6957 12Z" fill="#D80027"/>
<path d="M19.9999 20.9434C22.4547 18.7462 24 15.5537 24 12H19.3043L19.9999 20.9434Z" fill="#FF9811"/>
<path d="M16 12V23.3163C17.4905 22.7894 18.8458 21.9766 20 20.9435V12H16Z" fill="black"/>
<path d="M22.1739 7.82608H19.0435C19.0435 7.2498 18.5763 6.78259 18 6.78259C17.4237 6.78259 16.9565 7.2498 16.9565 7.82608H13.826C13.826 8.40241 14.328 8.86956 14.9043 8.86956H14.8695C14.8695 9.44589 15.3366 9.91305 15.913 9.91305C15.913 10.4894 16.3801 10.9565 16.9565 10.9565H19.0435C19.6198 10.9565 20.087 10.4894 20.087 9.91305C20.6632 9.91305 21.1304 9.44589 21.1304 8.86956H21.0957C21.672 8.86951 22.1739 8.40236 22.1739 7.82608Z" fill="#FF9811"/>
</g>
<defs>
<clipPath id="clip0_9010_15410">
<rect width="24" height="24" fill="white"/>
</clipPath>
</defs>
</svg>
