<svg width="40" height="40" viewBox="0 0 40 40" fill="none" xmlns="http://www.w3.org/2000/svg">
  <rect width="40" height="40" rx="12" fill="#DD65CF" fill-opacity="0.05"/>
  <rect x="1" y="1" width="38" height="38" rx="11" stroke="#DD65CF" stroke-opacity="0.15" stroke-width="2"/>
  <path d="M19.9804 27.2889C20.6144 27.7133 21.3769 27.9608 22.1972 27.9608C24.0196 27.9608 25.5567 26.739 26.034 25.0698C27.1645 24.6062 27.9608 23.4947 27.9608 22.1972C27.9608 21.3288 27.6041 20.5437 27.0293 19.9804C27.6041 19.4171 27.9608 18.632 27.9608 17.7636C27.9608 16.1632 26.7494 14.8457 25.1935 14.6781C24.8061 13.1392 23.413 12 21.7538 12C21.1078 12 20.5021 12.1727 19.9804 12.4745M19.9804 27.2889C19.3464 27.7133 18.5839 27.9608 17.7636 27.9608C15.9411 27.9608 14.404 26.739 13.9267 25.0698C12.7962 24.6062 12 23.4947 12 22.1972C12 21.3288 12.3567 20.5437 12.9315 19.9804C12.3567 19.4171 12 18.632 12 17.7636C12 16.1632 13.2114 14.8457 14.7673 14.6781C15.1547 13.1392 16.5478 12 18.207 12C18.853 12 19.4587 12.1727 19.9804 12.4745M19.9804 27.2889L19.9804 12.4745M17.1765 21.4902C18.725 21.4902 19.9804 22.7456 19.9804 24.2941M22.7843 18.4706C21.2358 18.4706 19.9804 17.2152 19.9804 15.6667" stroke="#DD65CF" stroke-width="2" stroke-linecap="round"/>
</svg>
