<svg width="122" height="122" viewBox="0 0 24 24" fill="none" xmlns="http://www.w3.org/2000/svg">
    <path d="M0 12C0 5.37258 5.37258 0 12 0C18.6274 0 24 5.37258 24 12C24 18.6274 18.6274 24 12 24C5.37258 24 0 18.6274 0 12Z" fill="#7863F6"/>
    <path d="M17.8641 9.31094C18.1875 9.45625 18.3563 9.72344 18.3563 10C18.3563 10.2766 18.1875 10.5391 17.8641 10.6891L13.2844 12.7844C12.7922 13.0094 12.3891 13.1125 11.9953 13.1031C11.6016 13.1125 11.2031 13.0141 10.7109 12.7844L8.67656 11.8562L11.5359 10.525C11.6813 10.5672 11.8453 10.5906 12.0141 10.5906C12.5484 10.5906 13.0594 10.3469 13.0594 10C13.0594 9.6625 12.5438 9.41875 12.0141 9.41875C11.4797 9.41875 10.9594 9.6625 10.9594 10C10.9594 10.0328 10.9688 10.0656 10.9875 10.0937L7.95469 11.5094L6.13125 10.6891C5.80781 10.5391 5.63906 10.2766 5.63906 10C5.63906 9.72344 5.80781 9.45625 6.13125 9.31094L10.7109 7.21562C11.2031 6.99531 11.6016 6.89219 11.9953 6.89687C12.3891 6.89219 12.7922 6.99531 13.2844 7.21562L17.8641 9.31094ZM8.6625 12.5969L10.425 13.4078C10.9922 13.6656 11.5078 13.7922 11.9953 13.7875C12.4875 13.7922 13.0031 13.6656 13.5703 13.4078L16.6266 12.0016V13.4922C16.6266 14.95 14.7516 16.1359 11.9953 16.1359C10.6266 16.1359 9.47344 15.8406 8.6625 15.3531V12.5969ZM7.36406 12.0062L7.97344 12.2875V14.8C7.58438 14.3875 7.36406 13.9 7.36406 13.4922V12.0062ZM7.56563 16.4688C7.56563 16.1594 7.72031 15.9344 7.97344 15.85V14.8C8.16094 15.0063 8.39063 15.1938 8.6625 15.3531V15.85C8.91094 15.9391 9.06563 16.1641 9.06563 16.4688V17.6875C9.06563 18.0813 8.80781 18.3391 8.40938 18.3391H8.22188C7.82813 18.3391 7.56563 18.0813 7.56563 17.6875V16.4688Z" fill="white"/>
</svg>
    