<svg width="122" height="122" viewBox="0 0 122 122" fill="none" xmlns="http://www.w3.org/2000/svg">
    <path d="M61 0C94.6894 0 122 27.3106 122 61C122 94.6894 94.6894 122 61 122C27.3106 122 0 94.6894 0 61C0 27.3106 27.3106 0 61 0Z" fill="white"/>
    <path d="M61 0C94.6894 0 122 27.3106 122 61C122 94.6894 94.6894 122 61 122C27.3106 122 0 94.6894 0 61C0 27.3106 27.3106 0 61 0Z" stroke="#F2F2F7" stroke-width="2"/>
    <path d="M91.637 65.9999L64.373 37.4579C63.558 36.4167 62.135 36 60.913 36C59.693 36 58.269 36.4167 57.455 37.4579L30.19 65.9999C27.749 68.7085 27.952 72.8749 30.801 75.1668C39.55 82.4586 50.334 86 60.913 86C71.494 86 82.277 82.4586 91.23 75.3752C94.079 73.0833 94.282 68.7085 91.637 65.9999Z" fill="#0AA461"/>
</svg>
