<svg width="66" height="66" viewBox="0 0 66 66" fill="none" xmlns="http://www.w3.org/2000/svg">
<g clip-path="url(#clip0_3060_8381)">
<path d="M9.18252 21.7417C9.06464 21.5375 9.06464 21.2859 9.18252 21.0817L19.0084 4.06188C20.4594 1.54844 23.1411 9.41781e-05 26.0434 9.41781e-05H45.1346C48.0367 9.41781e-05 50.7184 1.54836 52.1695 4.06169L63.4284 23.5627C64.8795 26.076 64.8795 29.1726 63.4284 31.686L59.2251 38.966C58.9703 39.4074 58.3332 39.4074 58.0784 38.966L35.5895 0.0130267L23.2341 21.413L35.0167 41.8362C35.2713 42.2776 34.9528 42.8291 34.4432 42.8291H26.0466C23.1444 42.8291 20.4626 41.2807 19.0116 38.7673L9.18252 21.7417Z" fill="url(#paint0_linear_3060_8381)"/>
<path d="M56.5909 44.2593C56.7088 44.4635 56.7088 44.7151 56.5909 44.9193L46.7651 61.9391C45.314 64.4525 42.6323 66.0009 39.7301 66.0009H20.6389C17.7367 66.0009 15.055 64.4526 13.604 61.9393L2.34502 42.4383C0.893919 39.925 0.893935 36.8284 2.34506 34.315L6.54831 27.035C6.80314 26.5936 7.44021 26.5936 7.69503 27.035L30.1839 65.9879L42.5394 44.588L30.7567 24.1648C30.5021 23.7234 30.8206 23.1719 31.3302 23.1719H39.7268C42.629 23.1719 45.3108 24.7202 46.7618 27.2337L56.5909 44.2593Z" fill="url(#paint1_linear_3060_8381)"/>
</g>
<defs>
<linearGradient id="paint0_linear_3060_8381" x1="18.0417" y1="9.71428e-05" x2="36.3167" y2="43.2793" gradientUnits="userSpaceOnUse">
<stop stop-color="#389393"/>
<stop offset="1" stop-color="#67C2C2"/>
</linearGradient>
<linearGradient id="paint1_linear_3060_8381" x1="20.1017" y1="24.6905" x2="34.301" y2="66.2955" gradientUnits="userSpaceOnUse">
<stop stop-color="#FFD38B"/>
<stop offset="1" stop-color="#E79113"/>
</linearGradient>
<clipPath id="clip0_3060_8381">
<rect width="66" height="66" fill="white"/>
</clipPath>
</defs>
</svg>
