<svg width="120" height="120" viewBox="0 0 120 120" fill="none" xmlns="http://www.w3.org/2000/svg">
    <circle cx="60" cy="60" r="60" fill="#FFDD2D"/>
    <path d="M30 35H90V65.1757C90 72.9114 85.873 80.0597 79.174 83.9279L60 95L40.826 83.9279C34.127 80.0597 30 72.9114 30 65.1757V35Z" fill="white"/>
    <path fill-rule="evenodd" clip-rule="evenodd" d="M46.467 50.8906V60.2759C47.751 58.8266 50.084 57.8458 52.752 57.8458H55.651V68.7561C55.651 71.6587 54.863 74.1993 53.693 75.5968H66.304C65.136 74.1979 64.35 71.6605 64.35 68.7616V57.8458H67.249C69.917 57.8458 72.25 58.8266 73.534 60.2759V50.8906H46.467Z" fill="#2D2D2D"/>
</svg>
